<svg width="49" height="48" viewBox="0 0 49 48" fill="none" xmlns="http://www.w3.org/2000/svg">
<rect x="2" y="1.5" width="45" height="45" rx="22.5" fill="#161B27"/>
<path fill-rule="evenodd" clip-rule="evenodd" d="M19.47 14.4698C19.6106 14.3294 19.8012 14.2505 20 14.2505C20.1987 14.2505 20.3893 14.3294 20.53 14.4698L25.03 18.9698C25.1624 19.112 25.2346 19.3 25.2311 19.4944C25.2277 19.6887 25.149 19.874 25.0116 20.0114C24.8742 20.1489 24.6888 20.2276 24.4945 20.231C24.3002 20.2344 24.1121 20.1623 23.97 20.0298L20.75 16.8098V28.4998C20.75 28.6987 20.671 28.8895 20.5303 29.0302C20.3896 29.1708 20.1989 29.2498 20 29.2498C19.8011 29.2498 19.6103 29.1708 19.4696 29.0302C19.329 28.8895 19.25 28.6987 19.25 28.4998V16.8098L16.03 20.0298C15.8878 20.1623 15.6997 20.2344 15.5054 20.231C15.3111 20.2276 15.1258 20.1489 14.9883 20.0114C14.8509 19.874 14.7722 19.6887 14.7688 19.4944C14.7654 19.3 14.8375 19.112 14.97 18.9698L19.47 14.4698ZM29 18.7498C29.1989 18.7498 29.3896 18.8288 29.5303 18.9695C29.671 19.1102 29.75 19.3009 29.75 19.4998V31.1898L32.97 27.9698C33.0386 27.8961 33.1214 27.837 33.2134 27.796C33.3054 27.7551 33.4047 27.733 33.5054 27.7312C33.6061 27.7295 33.7062 27.748 33.7996 27.7857C33.893 27.8234 33.9778 27.8796 34.049 27.9508C34.1202 28.022 34.1764 28.1068 34.2141 28.2002C34.2518 28.2936 34.2703 28.3936 34.2686 28.4944C34.2668 28.5951 34.2447 28.6944 34.2038 28.7864C34.1628 28.8784 34.1037 28.9612 34.03 29.0298L29.53 33.5298C29.3893 33.6703 29.1987 33.7492 29 33.7492C28.8012 33.7492 28.6106 33.6703 28.47 33.5298L23.97 29.0298C23.8963 28.9612 23.8372 28.8784 23.7962 28.7864C23.7552 28.6944 23.7332 28.5951 23.7314 28.4944C23.7296 28.3936 23.7481 28.2936 23.7858 28.2002C23.8236 28.1068 23.8797 28.022 23.9509 27.9508C24.0221 27.8796 24.107 27.8234 24.2004 27.7857C24.2938 27.748 24.3938 27.7295 24.4945 27.7312C24.5952 27.733 24.6945 27.7551 24.7865 27.796C24.8785 27.837 24.9613 27.8961 25.03 27.9698L28.25 31.1898V19.4998C28.25 19.3009 28.329 19.1102 28.4696 18.9695C28.6103 18.8288 28.8011 18.7498 29 18.7498Z" fill="#7E8097"/>
<rect x="2" y="1.5" width="45" height="45" rx="22.5" stroke="#1E2436" stroke-width="3"/>
</svg>
