<svg width="24" height="24" viewBox="0 0 24 24" fill="none" xmlns="http://www.w3.org/2000/svg">
<path d="M21 6.375C21 9.067 16.97 11.25 12 11.25C7.03 11.25 3 9.067 3 6.375C3 3.683 7.03 1.5 12 1.5C16.97 1.5 21 3.683 21 6.375Z" fill="#7E8097"/>
<path d="M12 12.7498C14.685 12.7498 17.19 12.1638 19.078 11.1408C19.7728 10.7719 20.4116 10.3059 20.975 9.75684C20.991 9.87784 21 10.0008 21 10.1248C21 12.8168 16.97 14.9998 12 14.9998C7.03 14.9998 3 12.8168 3 10.1248C3 10.0008 3.009 9.87784 3.025 9.75684C3.58842 10.3059 4.22716 10.7719 4.922 11.1408C6.809 12.1638 9.315 12.7498 12 12.7498Z" fill="#7E8097"/>
<path d="M12 16.4998C14.685 16.4998 17.19 15.9138 19.078 14.8908C19.7729 14.5219 20.4116 14.0559 20.975 13.5068C20.991 13.6278 21 13.7508 21 13.8748C21 16.5668 16.97 18.7498 12 18.7498C7.03 18.7498 3 16.5668 3 13.8748C3 13.7508 3.009 13.6278 3.025 13.5068C3.58841 14.0559 4.22716 14.5219 4.922 14.8908C6.809 15.9138 9.315 16.4998 12 16.4998Z" fill="#7E8097"/>
<path d="M12 20.2498C14.685 20.2498 17.19 19.6638 19.078 18.6408C19.7729 18.2719 20.4116 17.8059 20.975 17.2568C20.991 17.3778 21 17.5008 21 17.6248C21 20.3168 16.97 22.4998 12 22.4998C7.03 22.4998 3 20.3168 3 17.6248C3 17.5008 3.009 17.3778 3.025 17.2568C3.58841 17.8059 4.22716 18.2719 4.922 18.6408C6.809 19.6638 9.315 20.2498 12 20.2498Z" fill="#7E8097"/>
</svg>
