<svg width="25" height="24" viewBox="0 0 25 24" fill="none" xmlns="http://www.w3.org/2000/svg">
<path fill-rule="evenodd" clip-rule="evenodd" d="M16.25 2.25H21.5C21.6989 2.25 21.8897 2.32902 22.0303 2.46967C22.171 2.61032 22.25 2.80109 22.25 3V8.25C22.25 8.44891 22.171 8.63968 22.0303 8.78033C21.8897 8.92098 21.6989 9 21.5 9C21.3011 9 21.1103 8.92098 20.9697 8.78033C20.829 8.63968 20.75 8.44891 20.75 8.25V4.81L8.53 17.03C8.38783 17.1625 8.19978 17.2346 8.00548 17.2312C7.81118 17.2277 7.62579 17.149 7.48838 17.0116C7.35097 16.8742 7.27225 16.6888 7.26883 16.4945C7.2654 16.3002 7.33752 16.1122 7.47 15.97L19.69 3.75H16.25C16.0511 3.75 15.8603 3.67098 15.7197 3.53033C15.579 3.38968 15.5 3.19891 15.5 3C15.5 2.80109 15.579 2.61032 15.7197 2.46967C15.8603 2.32902 16.0511 2.25 16.25 2.25ZM5.75 6.75C5.35218 6.75 4.97064 6.90804 4.68934 7.18934C4.40804 7.47064 4.25 7.85218 4.25 8.25V18.75C4.25 19.1478 4.40804 19.5294 4.68934 19.8107C4.97064 20.092 5.35218 20.25 5.75 20.25H16.25C16.6478 20.25 17.0294 20.092 17.3107 19.8107C17.592 19.5294 17.75 19.1478 17.75 18.75V10.5C17.75 10.3011 17.829 10.1103 17.9697 9.96967C18.1103 9.82902 18.3011 9.75 18.5 9.75C18.6989 9.75 18.8897 9.82902 19.0303 9.96967C19.171 10.1103 19.25 10.3011 19.25 10.5V18.75C19.25 19.5456 18.9339 20.3087 18.3713 20.8713C17.8087 21.4339 17.0456 21.75 16.25 21.75H5.75C4.95435 21.75 4.19129 21.4339 3.62868 20.8713C3.06607 20.3087 2.75 19.5456 2.75 18.75V8.25C2.75 7.45435 3.06607 6.69129 3.62868 6.12868C4.19129 5.56607 4.95435 5.25 5.75 5.25H14C14.1989 5.25 14.3897 5.32902 14.5303 5.46967C14.671 5.61032 14.75 5.80109 14.75 6C14.75 6.19891 14.671 6.38968 14.5303 6.53033C14.3897 6.67098 14.1989 6.75 14 6.75H5.75Z" fill="#3CE5B5"/>
</svg>
