<svg width="48" height="49" viewBox="0 0 48 49" fill="none" xmlns="http://www.w3.org/2000/svg">
<path d="M38.5402 11.0439C35.8802 9.80388 33.0002 8.90388 30.0002 8.38388C29.9739 8.38304 29.9478 8.38798 29.9236 8.39834C29.8994 8.40871 29.8778 8.42425 29.8602 8.44388C29.5002 9.10388 29.0802 9.96388 28.8002 10.6239C25.6182 10.1439 22.3822 10.1439 19.2002 10.6239C18.9202 9.94388 18.5002 9.10388 18.1202 8.44388C18.1002 8.40388 18.0402 8.38388 17.9802 8.38388C14.9802 8.90388 12.1202 9.80388 9.44023 11.0439C9.42023 11.0439 9.40023 11.0639 9.38023 11.0839C3.94023 19.2239 2.44023 27.1439 3.18023 34.9839C3.18023 35.0239 3.20023 35.0639 3.24023 35.0839C6.84023 37.7239 10.3002 39.3239 13.7202 40.3839C13.7802 40.4039 13.8402 40.3839 13.8602 40.3439C14.6602 39.2439 15.3802 38.0839 16.0002 36.8639C16.0402 36.7839 16.0002 36.7039 15.9202 36.6839C14.7802 36.2439 13.7002 35.7239 12.6402 35.1239C12.5602 35.0839 12.5602 34.9639 12.6202 34.9039C12.8402 34.7439 13.0602 34.5639 13.2802 34.4039C13.3202 34.3639 13.3802 34.3639 13.4202 34.3839C20.3002 37.5239 27.7202 37.5239 34.5202 34.3839C34.5602 34.3639 34.6202 34.3639 34.6602 34.4039C34.8802 34.5839 35.1002 34.7439 35.3202 34.9239C35.4002 34.9839 35.4002 35.1039 35.3002 35.1439C34.2602 35.7639 33.1602 36.2639 32.0202 36.7039C31.9402 36.7239 31.9202 36.8239 31.9402 36.8839C32.5802 38.1039 33.3002 39.2639 34.0802 40.3639C34.1402 40.3839 34.2002 40.4039 34.2602 40.3839C37.7002 39.3239 41.1602 37.7239 44.7602 35.0839C44.8002 35.0639 44.8202 35.0239 44.8202 34.9839C45.7002 25.9239 43.3602 18.0639 38.6202 11.0839C38.6002 11.0639 38.5802 11.0439 38.5402 11.0439ZM17.0402 30.2039C14.9802 30.2039 13.2602 28.3039 13.2602 25.9639C13.2602 23.6239 14.9402 21.7239 17.0402 21.7239C19.1602 21.7239 20.8402 23.6439 20.8202 25.9639C20.8202 28.3039 19.1402 30.2039 17.0402 30.2039ZM30.9802 30.2039C28.9202 30.2039 27.2002 28.3039 27.2002 25.9639C27.2002 23.6239 28.8802 21.7239 30.9802 21.7239C33.1002 21.7239 34.7802 23.6439 34.7602 25.9639C34.7602 28.3039 33.1002 30.2039 30.9802 30.2039Z" fill="#FBFBFB" fill-opacity="0.88"/>
</svg>
