<svg width="72" height="79" viewBox="0 0 72 79" fill="none" xmlns="http://www.w3.org/2000/svg">
<path d="M38.6524 34.2441L38.8535 34.331C39.038 34.4306 39.2356 34.5038 39.4404 34.5484C39.7611 34.6211 40.0912 34.6431 40.4187 34.6136C40.846 34.5867 41.2662 34.4913 41.6633 34.331C43.4459 33.6897 45.3806 31.8908 46.4567 29.6191C46.7278 29.0466 46.9111 28.4365 47.0002 27.8093C47.067 27.1998 47.0542 26.5841 46.9621 25.9778C46.8897 25.426 46.7734 24.8808 46.6143 24.3474C46.4779 23.8683 46.3164 23.3966 46.1306 22.9344C45.8573 22.242 45.5112 21.5807 45.098 20.9615C44.7774 20.5376 44.5545 20.3094 44.5545 20.3094C44.3884 20.0948 44.1861 19.9109 43.9567 19.7659C43.2407 19.2741 42.4051 18.9849 41.5383 18.929C41.1317 18.9381 40.7324 19.0384 40.3698 19.2224C40.1318 19.2888 39.9021 19.3818 39.685 19.4996C38.6904 19.9833 36.8426 21.2876 35.6959 24.4996C34.359 28.4398 36.0818 33.081 38.6524 34.2441Z" fill="#FBFBFB" fill-opacity="0.88"/>
<path d="M38.4828 19.1036C38.8699 18.8023 39.2848 18.5384 39.7219 18.3155C39.7219 18.2666 39.7219 18.2177 39.7219 18.1688C39.7219 18.2177 39.7219 18.2666 39.7219 18.3101C40.152 18.085 40.62 17.9412 41.1023 17.8862C42.3414 17.7938 42.249 17.2449 41.2871 15.4786C41.1461 15.2362 40.9764 15.0118 40.7817 14.8101V14.8101C40.0207 14.0753 39.0538 13.5899 38.0099 13.4188C38.0006 14.2023 38.0901 14.9838 38.2762 15.7449C38.4718 16.8531 38.5411 17.9798 38.4828 19.1036V19.1036Z" fill="#FBFBFB" fill-opacity="0.88"/>
<path d="M26.0541 35.5484C26.4681 35.8225 26.935 36.0067 27.4246 36.0891C27.9142 36.1715 28.4156 36.1502 28.8965 36.0267L29.6465 35.7332C29.9388 35.6166 30.2238 35.4823 30.4998 35.3311C30.8541 35.1439 31.1987 34.9389 31.5324 34.7169C31.9414 34.4511 32.3078 34.125 32.6193 33.7495C32.9694 33.3273 33.2601 32.8592 33.4834 32.3582C33.5758 32.0865 33.69 31.8148 33.766 31.5267C33.8421 31.2387 33.8693 30.918 33.9128 30.6028C33.9563 30.2876 33.8856 30.0322 33.8747 29.7387V29.5213L33.8367 29.2713L33.7606 28.8094C33.5487 27.6626 33.315 26.5159 33.0161 25.4561C32.7574 24.4885 32.4305 23.5405 32.0378 22.6192C31.89 22.2411 31.7081 21.8773 31.4943 21.5322C31.358 21.2556 31.1942 20.9934 31.0052 20.7496L30.5106 20.1192C30.2014 19.6994 29.7679 19.3875 29.2715 19.2279C26.7878 18.6138 24.5542 18.7442 23.2933 22.1137C22.0324 25.4833 21.3911 30.5593 23.527 33.255C24.2079 34.1804 25.0671 34.9603 26.0541 35.5484V35.5484Z" fill="#FBFBFB" fill-opacity="0.88"/>
<path d="M27.8422 17.6575C27.8856 17.6602 27.9292 17.6602 27.9726 17.6575C28.9835 17.614 28.652 18.3477 29.8748 18.2553C30.6737 18.2009 30.277 16.3966 29.9074 15.1303C29.7009 14.4455 29.5052 13.9129 29.5052 13.9129C29.5052 13.9129 29.728 13.1955 28.1628 14.6955C27.2842 15.4796 26.6296 16.483 26.2661 17.6031C26.789 17.6655 27.3162 17.6836 27.8422 17.6575V17.6575Z" fill="#FBFBFB" fill-opacity="0.88"/>
<path d="M18.9778 32.4714C19.0826 32.4244 19.1919 32.3879 19.3039 32.3627C19.63 32.3627 20.2822 32.2051 20.2822 32.2051C19.8666 31.6708 19.5969 31.0379 19.4996 30.3681V30.3681C19.4996 30.2485 19.4996 30.1235 19.4996 29.9986C19.4971 29.1013 19.4263 28.2056 19.2876 27.3192L19.2278 27.4225C18.5352 28.6224 18.0501 29.9306 17.793 31.292C17.4996 32.9551 18.4235 32.667 18.9778 32.4714Z" fill="#FBFBFB" fill-opacity="0.88"/>
<path d="M48.7826 29.2879C48.8039 29.3219 48.8295 29.353 48.8587 29.3803C49.0272 29.9564 49.5272 29.826 50.0815 29.701C50.3562 29.6186 50.6432 29.5855 50.9294 29.6031C51.7337 29.6955 52.3478 29.2662 52.1468 28.0434C51.9229 27.328 51.5295 26.6773 51 26.1466V26.1466C50.6325 25.7203 50.2405 25.3157 49.8261 24.9347C49.6607 25.6207 49.5481 26.3184 49.4892 27.0216C49.4619 27.0547 49.4365 27.0891 49.4131 27.1249C49.3859 27.201 49.2663 27.2499 49.2174 27.3205C49.0066 27.5275 48.8402 27.7753 48.7283 28.0488C48.6651 28.2037 48.6231 28.3664 48.6033 28.5325C48.594 28.6854 48.605 28.8389 48.6359 28.989C48.6692 29.0956 48.7187 29.1964 48.7826 29.2879Z" fill="#FBFBFB" fill-opacity="0.88"/>
<path d="M51.647 53.4396C51.5926 53.1896 51.4948 52.9668 51.4242 52.7331C51.3535 52.4994 51.2666 52.2765 51.1905 52.0537C51.1017 51.8256 50.9868 51.6086 50.8481 51.407C50.651 51.0028 50.3863 50.6352 50.0655 50.32L49.647 49.8907C49.4785 49.7439 49.3264 49.6516 49.1742 49.5374C48.6555 49.1633 48.0979 48.8462 47.5112 48.5918L45.9894 47.9396C45.9208 47.8574 45.8641 47.7659 45.8209 47.6679C44.7459 45.5808 43.2918 43.712 41.5329 42.157C41.3331 41.9993 41.1116 41.8712 40.8753 41.7766C40.6912 41.5853 40.4971 41.4039 40.2938 41.2331C38.9949 40.206 34.3917 39.6407 34.3917 39.6407C33.4072 39.6967 32.4482 39.9753 31.5869 40.4553C30.7255 40.9354 29.9843 41.6046 29.4189 42.4125C29.2106 42.696 29.0287 42.998 28.8754 43.3146C27.7178 45.7168 27.5874 46.5755 27.5439 47.119C27.5136 47.6843 27.289 48.2219 26.908 48.6407C26.8844 48.6795 26.8571 48.7159 26.8265 48.7494C26.7885 48.7929 26.7613 48.8418 26.7232 48.8798L26.37 49.3581C24.8482 51.4885 23.1091 54.9287 23.8319 58.1624C24.3754 60.4776 25.5493 62.5102 27.3102 63.4178C28.2669 63.8919 29.3607 64.0113 30.3971 63.7547L30.821 63.6569C31.0928 63.5863 31.5058 63.5102 32.0058 63.3471C32.5058 63.1841 33.0928 62.9776 33.8264 62.8037C34.6078 62.6192 35.416 62.5768 36.2123 62.6787C36.6525 62.7656 37.1036 62.82 37.571 62.9341L39.0221 63.3363C39.984 63.6352 41.0058 64.0319 42.0384 64.4558C43.1057 64.98 44.2365 65.3636 45.4025 65.5971C46.7231 65.7982 48.0329 64.9232 48.772 64.0156C49.583 63.0874 50.2382 62.0339 50.7122 60.8961C50.9686 60.3534 51.1725 59.7874 51.3209 59.2059L51.5655 58.3526C51.6089 58.0646 51.6579 57.7765 51.7013 57.4939C51.7448 57.2113 51.7883 56.9504 51.8372 56.6461C51.8861 56.3417 51.8372 56.1026 51.8372 55.8037C51.8372 55.5048 51.8372 55.2602 51.8372 54.9831C51.8372 54.7059 51.7611 54.4396 51.7231 54.1733L51.647 53.4396Z" fill="#FBFBFB" fill-opacity="0.88"/>
<path d="M54.9838 34.3856C54.8494 34.0075 54.6783 33.6434 54.4729 33.2987C54.3121 33.0277 54.1304 32.7697 53.9295 32.527C53.8069 32.3718 53.6705 32.2281 53.5219 32.0976L53.3751 31.9509C52.7193 31.2888 51.8744 30.8464 50.9567 30.6846C50.7518 30.7428 50.5332 30.7294 50.3371 30.6465C50.5359 30.7272 50.756 30.7387 50.9621 30.6791C50.8117 30.6441 50.6592 30.6187 50.5056 30.6031C50.408 30.5575 50.3031 30.5299 50.1958 30.5215V30.5215C49.6523 30.4454 48.3588 30.5813 46.7773 32.6954C46.5313 32.9281 46.299 33.1748 46.0817 33.4346C45.8915 33.6683 45.6578 33.9346 45.4349 34.2389C45.2007 34.5635 45.0038 34.9136 44.848 35.2824C44.6716 35.6348 44.5173 35.9978 44.386 36.3693C44.2665 36.728 44.1958 37.0758 44.1143 37.3639C43.9567 37.9074 43.8643 38.3367 43.8643 38.3367C43.3208 39.103 43.2339 40.7008 44.3263 42.5541C45.1252 43.9073 47.1904 46.3584 49.011 47.4453C49.5405 47.8233 50.1903 47.9935 50.8371 47.9236C50.8371 47.9236 51.1306 47.9236 51.636 47.8203C51.9444 47.7805 52.2483 47.7114 52.5436 47.6138C52.7391 47.5717 52.924 47.4903 53.0871 47.3747C53.2959 47.2803 53.4814 47.1411 53.6305 46.9671C53.9693 46.6061 54.2482 46.1933 54.4566 45.7443C54.6793 45.2491 54.861 44.7365 55.0001 44.2117C55.1251 43.6682 55.2881 43.1247 55.3751 42.5541C55.4621 41.9834 55.549 41.4019 55.6088 40.815C55.8702 38.6519 55.6569 36.4578 54.9838 34.3856V34.3856Z" fill="#FBFBFB" fill-opacity="0.88"/>
<path d="M24.5981 49.2337C24.8317 49.0652 25.0817 48.8968 25.3154 48.6902C25.5347 48.4477 25.7363 48.1898 25.9187 47.9185C26.0655 47.6355 26.1979 47.3453 26.3154 47.049C26.7285 45.8859 27.3589 44.7011 27.9078 43.4511C28.2015 42.8134 28.3993 42.1358 28.4948 41.4403C28.519 41.2508 28.519 41.0591 28.4948 40.8696C28.459 40.6759 28.3851 40.4912 28.2774 40.3262C28.0725 40.0605 27.853 39.8065 27.6198 39.5653C26.7502 38.636 25.9404 37.761 25.1959 37.0816C23.7231 35.6958 22.7068 34.8153 22.7068 34.8153C22.3855 34.4791 22.0198 34.1884 21.6198 33.9512C20.7829 33.636 19.0981 34.3642 19.0981 34.3642C19.0981 34.3642 17.4133 34.4186 17.1742 38.5164C16.9351 42.6142 17.0655 46.2174 19.4459 48.2989C19.7775 48.5877 20.1424 48.8358 20.5329 49.0381C20.5329 49.0381 20.8263 49.1957 21.3753 49.4402C21.7296 49.5502 22.0935 49.6266 22.4622 49.6685C22.6687 49.6685 22.897 49.7011 23.1361 49.6685L23.8861 49.5381L24.5981 49.2337Z" fill="#FBFBFB" fill-opacity="0.88"/>
</svg>
