<svg width="72" height="79" viewBox="0 0 72 79" fill="none" xmlns="http://www.w3.org/2000/svg">
<path d="M53.3638 74.5594L51.679 71.3529C52.1084 71.1463 52.5432 70.9398 52.9671 70.7116C57.1077 68.5323 60.7784 65.5588 63.7696 61.9607C66.7609 58.3627 69.014 54.2106 70.4004 49.7417C71.7867 45.2727 72.2791 40.5745 71.8495 35.9152C71.4198 31.2559 70.0765 26.7269 67.8963 22.5868C67.6735 22.1575 67.4344 21.7444 67.1952 21.3314L70.4017 19.6412C66.8665 13.4719 61.7138 8.38505 55.4997 4.92932C54.9562 6.01627 54.4127 7.08692 53.8692 8.14126C47.9456 4.81437 41.1967 3.24403 34.4128 3.61411C34.4128 2.4076 34.4002 1.20289 34.3748 0C26.8969 0.374404 19.6834 2.88632 13.5904 7.23765C7.4974 11.589 2.78067 17.597 0 24.5488L3.44563 25.6357C1.45382 30.4603 0.548353 35.6641 0.793498 40.8779C1.03864 46.0917 2.42839 51.1876 4.8641 55.804C5.15758 56.3475 5.46193 56.891 5.77714 57.4345L2.5652 59.1247C4.52882 62.4594 6.97772 65.4835 9.83146 68.0974C10.6684 67.2351 11.4963 66.3619 12.3151 65.4779C18.84 71.4461 27.3474 74.7809 36.19 74.8365C35.9509 76.0249 35.7063 77.2115 35.4563 78.3963C41.646 78.5638 47.7861 77.2482 53.3638 74.5594V74.5594ZM6.76627 54.7714C3.68333 48.9164 2.40584 42.2787 3.09537 35.6976C3.78489 29.1166 6.41046 22.8878 10.64 17.7989C14.8696 12.7101 20.5132 8.98972 26.8572 7.10834C33.2012 5.22697 39.9606 5.26907 46.2807 7.22931C52.6007 9.18956 58.1976 12.9799 62.3634 18.121C66.5293 23.2622 69.0771 29.5232 69.6846 36.1123C70.2921 42.7015 68.932 49.3228 65.7764 55.1389C62.6208 60.9551 57.8113 65.7049 51.9562 68.7876C44.1027 72.9096 34.9351 73.7488 26.4638 71.1213C17.9924 68.4938 10.9088 62.6141 6.76627 54.7714V54.7714Z" fill="#3CE5B5"/>
</svg>
