<?xml version="1.0" encoding="UTF-8"?>
<svg id="Capa_2" data-name="Capa 2" xmlns="http://www.w3.org/2000/svg" viewBox="0 0 27.55 29.98">
  <defs>
    <style>
      .cls-1 {
        fill: #f5bc63;
      }

      .cls-2 {
        fill: #62b999;
      }
    </style>
  </defs>
  <g id="Design">
    <g>
      <path class="cls-2" d="M20.42,28.51l-.65-1.23c.17-.08,.33-.16,.49-.24,6.66-3.51,9.21-11.75,5.71-18.4-.09-.16-.18-.32-.27-.48l1.23-.65c-1.4-2.44-3.39-4.34-5.7-5.62-.21,.41-.42,.82-.63,1.23-2.25-1.27-4.84-1.88-7.44-1.73,0-.46,0-.92-.02-1.38-2.11,.1-4.23,.65-6.22,1.7C3.65,3.43,1.28,6.2,0,9.39l1.32,.41C-.16,13.4-.1,17.61,1.86,21.33c.11,.21,.23,.42,.35,.62l-1.23,.65c.77,1.31,1.71,2.45,2.78,3.43,.32-.33,.63-.67,.95-1,2.5,2.29,5.78,3.56,9.13,3.58-.09,.45-.19,.91-.28,1.36,2.31,.06,4.65-.4,6.86-1.46ZM2.6,20.95C-.69,14.7,1.71,6.95,7.96,3.67c6.24-3.29,13.99-.88,17.28,5.36,3.29,6.24,.88,13.99-5.36,17.28-6.24,3.29-13.99,.88-17.28-5.36Z"/>
      <g>
        <path class="cls-1" d="M14.8,13.1s.03,.01,.08,.03c.05,.02,.12,.07,.23,.08,.1,.02,.23,.04,.37,.03,.15,0,.31-.04,.48-.11,.68-.25,1.42-.93,1.83-1.8,.1-.21,.19-.46,.21-.69,.03-.25,.02-.48-.02-.7-.02-.22-.08-.43-.13-.63-.06-.2-.12-.38-.18-.54-.13-.33-.28-.58-.39-.76-.12-.16-.2-.25-.2-.25-.08-.09-.15-.17-.23-.21-.35-.2-.63-.32-.92-.32-.14,0-.29,.03-.45,.11,0,0-.11,.03-.26,.11-.38,.18-1.09,.68-1.53,1.91-.53,1.5,.12,3.28,1.12,3.73Z"/>
        <path class="cls-1" d="M14.73,7.3s.21-.17,.47-.3c0-.02,0-.04,0-.06,0,.02,0,.04,0,.05,.16-.08,.35-.15,.53-.16,.47-.03,.44-.24,.07-.92-.05-.1-.12-.18-.19-.26,0,0,0,0,0,0-.42-.44-1.06-.53-1.06-.53,0,0-.02,.43,.1,.89s.08,1.28,.08,1.28Z"/>
        <path class="cls-1" d="M9.97,13.59c.45,.25,.84,.27,1.09,.18,0,0,.1-.04,.29-.11,.09-.03,.19-.1,.32-.16,.12-.06,.25-.14,.39-.24,.14-.08,.29-.23,.42-.37,.12-.15,.24-.33,.33-.53,.04-.1,.08-.21,.11-.32,.02-.12,.04-.23,.05-.35,0-.11,0-.22-.01-.33v-.08s-.02-.1-.02-.1l-.03-.17c-.08-.44-.17-.88-.28-1.28-.11-.4-.24-.78-.37-1.09-.06-.16-.13-.3-.2-.41-.07-.12-.12-.23-.19-.3-.12-.15-.19-.24-.19-.24-.14-.18-.3-.3-.47-.34-.95-.23-1.8-.18-2.28,1.1s-.73,3.23,.09,4.26c.33,.42,.67,.7,.97,.87Z"/>
        <path class="cls-1" d="M10.66,6.75s0,0,0,0c.02,0,.03,0,.05,0,.39-.02,.26,.26,.73,.23,.31-.02,.16-.71,.01-1.2h0c-.08-.26-.15-.47-.15-.47,0,0,.09-.27-.51,.3-.6,.57-.73,1.11-.73,1.11,0,0,.24,.04,.6,.02Z"/>
        <path class="cls-1" d="M7.27,12.42s0,0,0,0c0,0,0,0,0,0,.05-.02,.1-.04,.12-.04,.13,0,.38-.06,.38-.06,0,0-.25-.3-.3-.7,0,0,0,0,0,0,0-.05,0-.09,0-.14,0-.48-.08-1.02-.08-1.02,0,0,0,.01-.02,.04-.09,.16-.44,.79-.55,1.48-.1,.64,.25,.53,.46,.45Z"/>
        <path class="cls-1" d="M18.66,11.2s.03,.04,.03,.04c.06,.22,.26,.17,.47,.12,0,0,0,0,0,0,.11-.03,.22-.05,.32-.04,.31,.03,.54-.13,.47-.6-.04-.22-.24-.49-.44-.73,0,0,0,0,0,0-.22-.26-.45-.47-.45-.47,0,0-.15,.67-.13,.8,0,0-.01,.01-.03,.04,0,.03-.06,.05-.08,.08-.06,.06-.14,.16-.19,.28-.02,.06-.04,.12-.05,.18-.01,.06,0,.13,.01,.17,0,.05,.04,.09,.06,.11Z"/>
        <path class="cls-1" d="M19.76,20.44c-.02-.1-.06-.18-.09-.27-.03-.09-.06-.17-.09-.26-.03-.1-.09-.17-.13-.25-.09-.16-.18-.31-.3-.41-.05-.06-.11-.11-.16-.16-.06-.06-.12-.09-.18-.13-.23-.18-.46-.27-.64-.36-.37-.16-.58-.25-.58-.25-.03-.03-.04-.06-.06-.1-.27-.65-1.14-1.71-1.64-2.11-.06-.05-.15-.1-.25-.15-.08-.08-.15-.14-.22-.2-.5-.39-2.26-.61-2.26-.61,0,0-1.18,0-1.9,1.06-.07,.1-.14,.22-.2,.35-.44,.92-.49,1.24-.51,1.45-.02,.18-.02,.27-.24,.58-.01,.01-.02,.03-.03,.04-.01,.02-.02,.03-.04,.05-.04,.06-.09,.12-.14,.18-.58,.81-1.25,2.13-.97,3.37,.2,.89,.66,1.67,1.33,2.01,.34,.17,.73,.23,1.18,.13,0,0,.06-.01,.16-.04,.1-.03,.26-.05,.45-.12,.19-.05,.43-.14,.7-.2,.27-.07,.58-.08,.91-.05,.17,.03,.34,.05,.52,.1,.18,.05,.37,.1,.56,.15,.37,.12,.76,.27,1.15,.43,.4,.16,.8,.37,1.29,.44,.5,.08,1.01-.26,1.29-.61,.31-.36,.57-.76,.74-1.19,.1-.21,.18-.43,.23-.65l.09-.32c.02-.11,.04-.22,.05-.33,.02-.11,.03-.22,.05-.32,0-.11,0-.22,0-.32,0-.11,0-.21,0-.31-.01-.1-.03-.21-.04-.31-.01-.1-.03-.2-.04-.3Z"/>
        <path class="cls-1" d="M21.04,13.15c-.06-.16-.12-.3-.2-.42-.07-.12-.14-.22-.2-.3-.06-.08-.12-.13-.16-.17-.04-.04-.06-.06-.06-.06,0,0,0,0,0,0-.24-.24-.54-.41-.92-.48-.09,.02-.17,.02-.24-.02,.06,.03,.15,.03,.24,.01-.06-.01-.11-.03-.17-.03,0,0-.04-.02-.12-.03h0s0,0,0,0c0,0,0,0,0,0h0c-.21-.03-.7,.02-1.31,.82,0,0-.12,.11-.27,.28-.07,.09-.16,.19-.25,.31-.09,.11-.15,.26-.22,.4-.06,.14-.14,.29-.18,.43-.04,.14-.07,.27-.1,.38-.06,.21-.1,.37-.1,.37-.21,.29-.24,.9,.18,1.61,.31,.52,1.1,1.46,1.79,1.87,0,0,0,0,0,0,.25,.15,.5,.23,.7,.18,0,0,.11-.01,.3-.04,.1-.02,.22-.03,.35-.08,.07-.02,.14-.05,.21-.09,.07-.04,.14-.09,.2-.16,.14-.12,.22-.29,.32-.47,.06-.18,.16-.38,.2-.58,.05-.2,.11-.42,.14-.63,.04-.22,.07-.44,.09-.67,.09-.89,.02-1.82-.23-2.46Z"/>
        <path class="cls-1" d="M9.42,18.83c.09-.06,.18-.13,.28-.21,.07-.09,.17-.19,.23-.29,.05-.11,.1-.2,.15-.33,.16-.45,.4-.9,.61-1.38,.1-.24,.2-.49,.23-.77,0-.07,0-.14,0-.22-.01-.08-.05-.18-.08-.21-.09-.13-.17-.19-.25-.29-.33-.36-.64-.69-.93-.95-.56-.53-.95-.87-.95-.87-.19-.18-.35-.3-.42-.33-.32-.12-.96,.16-.96,.16,0,0-.64,.02-.74,1.59-.09,1.57-.04,2.94,.87,3.74,.13,.12,.28,.21,.42,.28,0,0,.11,.06,.32,.15,.11,.02,.24,.08,.4,.09,.08,0,.17,.01,.26,0,.09-.02,.19-.03,.29-.05,.09-.04,.19-.08,.29-.12Z"/>
      </g>
    </g>
  </g>
</svg>