<svg width="194" height="44" viewBox="0 0 194 44" fill="none" xmlns="http://www.w3.org/2000/svg">
<path d="M149.744 22.6094H106.483L104.536 33.4547H147.801L192.221 29.7504L193.5 22.6094H149.744Z" fill="#F6921E"/>
<path d="M50.0995 20.652H42.896L44.0862 13.9656H47.416L46.7251 17.9061H50.5853C52.6269 17.9061 54.2539 16.7159 54.2539 14.9908C54.2539 13.6758 53.1262 12.7085 51.4991 12.7085H44.2957L46.9167 9.90918H51.9984C55.3951 9.90918 57.6283 11.7769 57.6283 14.4782C57.6283 17.9061 54.2183 20.652 50.0995 20.652Z" fill="white"/>
<path d="M74.7274 14.2558C74.7274 18.6778 71.7988 20.8174 65.7677 20.8174C61.1184 20.8174 58.7693 19.3687 58.7693 16.2484C58.7693 11.8265 61.6979 9.7002 67.729 9.7002C72.3783 9.7002 74.7274 11.1355 74.7274 14.2558ZM71.3798 14.5902C71.3798 12.8562 70.1584 12.4996 67.2298 12.4996C62.9059 12.4996 62.1169 13.1593 62.1169 15.9274C62.1169 17.6659 63.3561 18.018 66.2491 18.018C70.5774 18.018 71.3798 17.3449 71.3798 14.5902Z" fill="white"/>
<path d="M86.2106 16.6406C85.7705 15.5819 85.3837 14.5018 85.0516 13.4044C84.5702 14.18 84.0085 14.9645 82.7693 16.6228L80.5004 19.6807C80.2833 20.024 79.9844 20.308 79.6303 20.5072C79.2763 20.7064 78.8783 20.8145 78.4722 20.8218C78.2688 20.8338 78.065 20.8047 77.8731 20.7362C77.6812 20.6677 77.505 20.5612 77.3552 20.423C77.2054 20.2848 77.085 20.1179 77.0012 19.9321C76.9174 19.7464 76.8719 19.5456 76.8675 19.3419L75.8199 9.88289H79.1319L79.4885 13.6317C79.5821 14.8397 79.6624 15.7223 79.698 16.5916C80.1795 15.8516 80.7099 15.0136 81.7218 13.6139L83.6519 10.9126C84.4097 9.86952 84.958 9.70459 85.7604 9.70459C86.5627 9.70459 87.0976 9.85169 87.4676 10.9126L88.4304 13.6317C88.9475 15.1116 89.2016 15.8605 89.4289 16.5916C89.7365 15.7402 90.1199 14.8085 90.6682 13.6317L92.3576 9.88289H95.6205L91.1629 19.3419C90.9949 19.7705 90.7037 20.1398 90.3261 20.4031C89.9485 20.6665 89.5014 20.8122 89.0411 20.8218C88.6815 20.8404 88.326 20.7382 88.0311 20.5314C87.7363 20.3246 87.5191 20.0252 87.4141 19.6807L86.2106 16.6406Z" fill="white"/>
<path d="M104.201 20.2381L98.651 14.3184L97.55 20.6526H94.5233L96.0835 11.7375C96.3286 10.3021 97.2736 9.72265 98.2721 9.72265C98.5095 9.71672 98.7449 9.76598 98.9599 9.86654C99.175 9.96709 99.3637 10.1162 99.5114 10.3021L105.061 16.1951L106.189 9.8742H109.211L107.62 18.7894C107.361 20.2247 106.412 20.8176 105.449 20.8176C105.21 20.8278 104.971 20.7805 104.754 20.6797C104.537 20.5788 104.347 20.4274 104.201 20.2381Z" fill="white"/>
<path d="M120.392 14.1752C122.723 14.1752 123.958 15.0087 123.958 16.6179C123.958 18.9492 122.496 20.6297 118.666 20.6297H108.659L111.285 17.866H119.438C120.329 17.866 120.726 17.5763 120.726 16.9478C120.726 16.502 120.387 16.3059 119.714 16.3059H113.826C111.383 16.3059 110.291 15.2762 110.291 13.716C110.291 11.5274 111.784 9.86914 115.551 9.86914H124.912L122.273 12.6685H114.793C113.901 12.6685 113.505 12.9092 113.505 13.56C113.505 14.0058 113.843 14.1707 114.534 14.1707L120.392 14.1752Z" fill="white"/>
<path d="M136.265 16.6406C135.825 15.5819 135.438 14.5018 135.106 13.4044C134.625 14.18 134.063 14.9645 132.824 16.6228L130.555 19.6807C130.338 20.024 130.039 20.308 129.685 20.5072C129.331 20.7064 128.933 20.8145 128.527 20.8218C128.323 20.8338 128.119 20.8047 127.928 20.7362C127.736 20.6677 127.559 20.5612 127.41 20.423C127.26 20.2848 127.139 20.1179 127.056 19.9321C126.972 19.7464 126.926 19.5456 126.922 19.3419L125.874 9.88289H129.186L129.543 13.6317C129.637 14.8397 129.717 15.7223 129.752 16.5916C130.234 15.8516 130.764 15.0136 131.776 13.6139L133.706 10.9126C134.464 9.86952 135.012 9.70459 135.815 9.70459C136.617 9.70459 137.152 9.85169 137.522 10.9126L138.485 13.6317C139.002 15.1116 139.256 15.8605 139.483 16.5916C139.791 15.7402 140.174 14.8085 140.723 13.6317L142.412 9.88289H145.657L141.2 19.3419C141.032 19.7705 140.74 20.1398 140.363 20.4031C139.985 20.6665 139.538 20.8122 139.078 20.8218C138.718 20.8404 138.363 20.7382 138.068 20.5314C137.773 20.3246 137.556 20.0252 137.451 19.6807L136.265 16.6406Z" fill="white"/>
<path d="M148.407 20.6522H145.078L146.994 9.8916H150.306L148.407 20.6522Z" fill="white"/>
<path d="M160.117 20.238L154.572 14.3184L153.458 20.6526H150.435L151.995 11.7374C152.236 10.3021 153.186 9.72259 154.184 9.72259C154.421 9.71701 154.657 9.76642 154.872 9.86696C155.087 9.96749 155.276 10.1164 155.423 10.3021L160.969 16.195L162.096 9.87415H165.119L163.527 18.7893C163.273 20.2247 162.324 20.8175 161.356 20.8175C161.119 20.8263 160.882 20.7783 160.667 20.6775C160.451 20.5767 160.263 20.4261 160.117 20.238Z" fill="white"/>
<path d="M173.017 13.9168H179.9L178.714 20.6522H171.328C167.967 20.6522 165.729 18.6285 165.729 15.9093C165.729 12.37 169.108 9.8916 173.227 9.8916H180.929L178.277 12.691H172.727C170.748 12.691 169.059 13.9614 169.059 15.682C169.059 17.0193 170.155 17.9108 171.809 17.9108H175.897L176.169 16.3506H170.588L173.017 13.9168Z" fill="white"/>
<path d="M47.7413 33.3877H40.5378L41.728 26.7014H45.0578L44.3624 30.6419H48.2227C50.2687 30.6419 51.8913 29.4517 51.8913 27.7311C51.8913 26.3938 50.768 25.4488 49.141 25.4488H41.9375L44.5586 22.6494H49.6402C53.0325 22.6494 55.2702 24.5127 55.2702 27.2184C55.2702 30.6508 51.8601 33.3877 47.7413 33.3877Z" fill="white"/>
<path d="M72.3695 27C72.3695 31.4264 69.4409 33.566 63.4098 33.566C58.7605 33.566 56.4114 32.1173 56.4114 28.997C56.4114 24.5706 59.34 22.4488 65.3711 22.4488C70.0204 22.4354 72.3695 23.8797 72.3695 27ZM69.0219 27.3388C69.0219 25.6003 67.8005 25.2482 64.8719 25.2482C60.5436 25.2482 59.759 25.9079 59.759 28.6761C59.759 30.4101 60.9938 30.7667 63.8912 30.7667C68.2195 30.7667 69.0219 30.0891 69.0219 27.3388Z" fill="white"/>
<path d="M80.8301 26.6611H87.7082L86.518 33.3876H79.1407C75.7752 33.3876 73.542 31.3594 73.542 28.6402C73.542 25.1009 76.9208 22.627 81.0352 22.627H88.7424L86.0901 25.4263H80.5404C78.5612 25.4263 76.8718 26.6967 76.8718 28.4174C76.8718 29.7546 77.9639 30.6194 79.6221 30.6194H83.6964L83.9683 29.0592H78.4008L80.8301 26.6611Z" fill="white"/>
<path d="M99.5518 26.9197C101.883 26.9197 103.118 27.7578 103.118 29.3669C103.118 31.6983 101.651 33.3788 97.8222 33.3788H87.806L90.4315 30.6106H98.5845C99.476 30.6106 99.8727 30.3209 99.8727 29.6968C99.8727 29.251 99.5339 29.0505 98.8564 29.0505H92.9857C90.543 29.0505 89.4464 28.0208 89.4464 26.4606C89.4464 24.2719 90.9442 22.6182 94.7064 22.6182H104.067L101.428 25.4175H93.9486C93.0571 25.4175 92.6603 25.6582 92.6603 26.309C92.6603 26.7548 92.9991 26.9197 93.69 26.9197H99.5518Z" fill="white"/>
<path d="M109.252 26.6967L109.046 25.9345H112.033C112.411 25.9159 112.783 26.0347 113.081 26.2688C113.203 26.3611 113.297 26.4863 113.352 26.6299C113.406 26.7735 113.419 26.9296 113.388 27.0801C113.346 27.2504 113.268 27.41 113.161 27.5489C113.053 27.6878 112.918 27.8029 112.764 27.8869C112.411 28.1097 112.001 28.2258 111.583 28.2212H109.653L109.35 29.7502H108.298L108.743 27.459H111.725C111.866 27.4612 112.004 27.4224 112.122 27.3476C112.173 27.3196 112.218 27.2814 112.253 27.2354C112.288 27.1893 112.313 27.1364 112.327 27.0801C112.338 27.0301 112.335 26.9781 112.317 26.93C112.3 26.8819 112.269 26.8397 112.229 26.8082C112.128 26.7311 112.004 26.6917 111.877 26.6967H109.252Z" fill="white"/>
<path d="M117.649 25.9345C118.027 25.9159 118.399 26.0347 118.697 26.2688C118.82 26.3605 118.914 26.4858 118.968 26.6298C119.022 26.7737 119.033 26.93 119 27.0801L118.701 28.6046C118.659 28.7752 118.582 28.9352 118.475 29.0742C118.367 29.2131 118.232 29.328 118.077 29.4114C117.724 29.6362 117.314 29.7539 116.896 29.7502H115.14C114.761 29.7671 114.389 29.6468 114.092 29.4114C113.969 29.3208 113.874 29.1963 113.821 29.0531C113.767 28.9098 113.756 28.754 113.789 28.6046L114.088 27.0801C114.129 26.9088 114.206 26.7481 114.314 26.6083C114.421 26.4686 114.557 26.3529 114.712 26.2688C115.065 26.0453 115.475 25.9292 115.893 25.9345H117.649ZM115.741 26.6967C115.603 26.6967 115.467 26.7353 115.349 26.8082C115.298 26.8374 115.253 26.8765 115.217 26.9232C115.181 26.9698 115.155 27.0232 115.14 27.0801L114.841 28.6046C114.829 28.6543 114.833 28.7064 114.851 28.7541C114.869 28.8019 114.901 28.843 114.943 28.8721C115.041 28.9514 115.165 28.9911 115.291 28.9835H117.047C117.186 28.9858 117.323 28.9471 117.44 28.8721C117.492 28.8453 117.538 28.8075 117.574 28.7613C117.61 28.7151 117.636 28.6617 117.649 28.6046L117.948 27.0801C117.959 27.0297 117.955 26.9772 117.937 26.929C117.919 26.8808 117.887 26.8388 117.845 26.8082C117.746 26.7314 117.623 26.692 117.498 26.6967H115.741Z" fill="white"/>
<path d="M120.467 28.5562L120.231 29.7508H119.179L119.879 26.1847L120.984 25.9307L120.676 27.4908L123.222 25.9307H124.742L121.728 27.785L123.922 29.7553H122.477L120.868 28.3155L120.467 28.5562Z" fill="white"/>
<path d="M125.647 28.984H129.164L129.012 29.7507H124.443L124.889 27.4596H129.454L129.302 28.2218H125.789L125.647 28.984ZM129.253 26.6973H125.045L125.192 25.9351H129.757L129.253 26.6973Z" fill="white"/>
<path d="M130.661 26.6967L130.46 25.9345H133.443C133.821 25.9159 134.193 26.0347 134.49 26.2688C134.613 26.3611 134.707 26.4863 134.761 26.6299C134.816 26.7735 134.829 26.9296 134.798 27.0801C134.755 27.2504 134.678 27.41 134.57 27.5489C134.463 27.6878 134.328 27.8029 134.174 27.8869C133.819 28.1103 133.407 28.2264 132.988 28.2212L134.517 29.7502H133.122L131.579 28.2302H131.058L130.759 29.7591H129.707L130.153 27.4679H133.135C133.275 27.4701 133.413 27.4314 133.532 27.3565C133.583 27.3285 133.627 27.2903 133.662 27.2443C133.698 27.1982 133.723 27.1454 133.737 27.089C133.748 27.0391 133.744 26.987 133.727 26.939C133.71 26.8909 133.679 26.8486 133.639 26.8171C133.538 26.74 133.413 26.7006 133.287 26.7057L130.661 26.6967Z" fill="white"/>
<path d="M141.814 27.0802L141.765 27.3343H140.713L140.762 27.0802C140.773 27.0299 140.769 26.9774 140.751 26.9291C140.733 26.8809 140.701 26.8389 140.66 26.8083C140.56 26.7319 140.437 26.6925 140.312 26.6969H138.556C138.417 26.6961 138.281 26.7347 138.164 26.8083C138.112 26.8375 138.068 26.8766 138.032 26.9233C137.996 26.97 137.969 27.0233 137.954 27.0802L137.655 28.6047C137.643 28.654 137.646 28.7058 137.663 28.7535C137.681 28.8012 137.712 28.8425 137.753 28.8722C137.853 28.951 137.979 28.9907 138.106 28.9836H139.862C140.001 28.986 140.137 28.9472 140.254 28.8722C140.306 28.8447 140.351 28.8067 140.387 28.7606C140.423 28.7146 140.449 28.6615 140.464 28.6047L140.513 28.3506H141.565L141.516 28.6047C141.474 28.7754 141.397 28.9353 141.289 29.0743C141.182 29.2133 141.046 29.3281 140.892 29.4115C140.539 29.6357 140.128 29.7533 139.71 29.7503H137.954C137.575 29.7672 137.204 29.6469 136.907 29.4115C136.782 29.3215 136.687 29.1972 136.633 29.0539C136.578 28.9107 136.566 28.7546 136.599 28.6047L136.902 27.0802C136.944 26.9089 137.021 26.7482 137.128 26.6085C137.236 26.4687 137.371 26.3531 137.526 26.269C137.879 26.0455 138.29 25.9293 138.707 25.9346H140.459C140.839 25.9154 141.212 26.0341 141.511 26.269C141.634 26.3614 141.727 26.4868 141.781 26.6305C141.835 26.7742 141.846 26.9302 141.814 27.0802Z" fill="white"/>
<path d="M143.196 28.984H146.704L146.552 29.7507H141.992L142.741 25.9351H143.793L143.196 28.984Z" fill="white"/>
<path d="M147.48 28.6052L148.006 25.9307H149.062L148.532 28.6052C148.521 28.6549 148.525 28.7067 148.544 28.7541C148.562 28.8016 148.593 28.8428 148.634 28.8727C148.734 28.9515 148.86 28.9912 148.987 28.9841H150.391C150.53 28.9865 150.666 28.9477 150.783 28.8727C150.835 28.8452 150.88 28.8072 150.916 28.7611C150.952 28.7151 150.978 28.662 150.992 28.6052L151.518 25.9307H152.57L152.044 28.6052C152.003 28.7758 151.925 28.9358 151.818 29.0748C151.71 29.2137 151.575 29.3286 151.42 29.412C151.068 29.6368 150.657 29.7545 150.239 29.7508H148.835C148.456 29.7685 148.084 29.6481 147.787 29.412C147.663 29.322 147.568 29.1977 147.514 29.0544C147.459 28.9111 147.447 28.755 147.48 28.6052Z" fill="white"/>
<path d="M152.521 29.7503L152.967 27.4591H155.949C156.094 27.4604 156.235 27.4185 156.355 27.3388C156.406 27.3108 156.45 27.2726 156.486 27.2266C156.521 27.1805 156.546 27.1277 156.56 27.0713C156.571 27.0209 156.567 26.9685 156.549 26.9202C156.531 26.872 156.499 26.83 156.458 26.7994C156.358 26.7226 156.235 26.6832 156.11 26.688H153.475L153.275 25.9257H156.261C156.639 25.9072 157.012 26.0259 157.309 26.26C157.432 26.3517 157.526 26.4771 157.58 26.621C157.634 26.7649 157.645 26.9213 157.612 27.0713C157.575 27.2288 157.508 27.3774 157.413 27.5083C157.318 27.6392 157.198 27.7498 157.059 27.8336C157.166 27.9259 157.247 28.0455 157.291 28.1797C157.336 28.3139 157.344 28.4577 157.313 28.5958C157.272 28.7664 157.194 28.9264 157.087 29.0654C156.979 29.2043 156.844 29.3192 156.689 29.4026C156.337 29.6274 155.926 29.7451 155.508 29.7414L152.521 29.7503ZM153.725 28.9836H155.655C155.794 28.986 155.931 28.9472 156.047 28.8722C156.099 28.8447 156.144 28.8067 156.181 28.7606C156.217 28.7146 156.243 28.6615 156.257 28.6047C156.267 28.5543 156.263 28.5021 156.245 28.4539C156.227 28.4058 156.195 28.3638 156.154 28.3328C156.054 28.2557 155.929 28.2163 155.802 28.2214H153.872L153.725 28.9836Z" fill="white"/>
<path d="M184.7 9.92725H182.355L180.595 20.6789H182.944L186.733 15.3031L184.7 9.92725Z" fill="#F6921E"/>
<path d="M191.467 9.92725H189.122L187.362 20.6789H189.711L193.5 15.3031L191.467 9.92725Z" fill="#F6921E"/>
<path d="M29.2024 41.01L28.3109 39.2849C28.5427 39.1734 28.7566 39.062 29.0062 38.9416C33.5031 36.5721 36.8746 32.5134 38.3793 27.6583C39.8839 22.8032 39.3986 17.5493 37.0299 13.052C36.9095 12.8202 36.7803 12.6062 36.651 12.3744L38.3761 11.4829C36.473 8.16322 33.6984 5.42714 30.3524 3.57072C30.0627 4.1502 29.764 4.72523 29.4609 5.2958C26.2745 3.50597 22.6438 2.66169 18.9945 2.86196C18.9945 2.21115 18.9945 1.56481 18.9945 0.918457C14.9706 1.11774 11.0886 2.46838 7.81006 4.80977C4.53148 7.15116 1.99424 10.3848 0.5 14.1263L2.35435 14.7013C1.28325 17.2914 0.794345 20.0853 0.922211 22.8853C1.05008 25.6852 1.79159 28.4229 3.09431 30.9046C3.25033 31.2033 3.41526 31.4975 3.58465 31.7961L1.85956 32.6876C2.91521 34.4824 4.23282 36.1095 5.76886 37.5152C6.21462 37.0695 6.66038 36.5791 7.10614 36.1022C10.613 39.3225 15.1918 41.1241 19.9529 41.1571C19.8236 41.7989 19.6899 42.4364 19.5606 43.0738C22.8931 43.1641 26.1989 42.4565 29.2024 41.01ZM4.13293 30.3652C2.47338 27.2156 1.78534 23.6446 2.15585 20.1038C2.52637 16.5631 3.93878 13.2118 6.21441 10.474C8.49003 7.73615 11.5266 5.73483 14.9399 4.72321C18.3532 3.71159 21.9899 3.73513 25.3899 4.79087C28.7898 5.8466 31.8002 7.88707 34.0402 10.6541C36.2801 13.4212 37.649 16.7905 37.9737 20.3357C38.2983 23.881 37.5641 27.4428 35.8639 30.5707C34.1637 33.6985 31.574 36.2518 28.4223 37.9075C24.1995 40.1192 19.2722 40.5673 14.7197 39.1537C10.1671 37.74 6.36029 34.5799 4.13293 30.3652Z" fill="#F6921E"/>
<path d="M21.2905 19.3149L21.402 19.3639C21.502 19.4162 21.6084 19.4551 21.7185 19.4798C21.8894 19.5187 22.0654 19.5307 22.24 19.5155C22.4709 19.5002 22.698 19.4491 22.9131 19.3639C24.0565 18.8668 24.9746 17.963 25.4896 16.8276C25.6411 16.52 25.7434 16.1906 25.7927 15.8513C25.828 15.5249 25.8205 15.1952 25.7704 14.8707C25.734 14.5686 25.6714 14.2703 25.5832 13.9792C25.5126 13.7215 25.4263 13.4684 25.3247 13.2214C25.1755 12.8491 24.9904 12.4923 24.7719 12.156C24.5981 11.9287 24.4866 11.8083 24.4866 11.8083C24.3973 11.6926 24.2887 11.5931 24.1657 11.5141C23.7805 11.253 23.3328 11.0992 22.8685 11.0684C22.6487 11.0734 22.4326 11.1267 22.2356 11.2244C22.1084 11.2609 21.9858 11.3118 21.87 11.3759C21.3351 11.6345 20.3411 12.3388 19.7215 14.0505C18.9771 16.1946 19.8998 18.6997 21.2905 19.3149Z" fill="white"/>
<path d="M21.1965 11.1756C21.4035 11.013 21.6259 10.8711 21.8607 10.7521C21.863 10.7269 21.863 10.7015 21.8607 10.6763C21.863 10.7015 21.863 10.7269 21.8607 10.7521C22.0919 10.6284 22.3445 10.5497 22.6051 10.5203C23.2693 10.4713 23.2202 10.1771 22.7032 9.22762C22.6275 9.0967 22.5362 8.97545 22.4313 8.86655C22.0205 8.47192 21.4999 8.21085 20.938 8.11768C20.9321 8.53983 20.9816 8.96094 21.0851 9.37026C21.1894 9.966 21.2268 10.5715 21.1965 11.1756Z" fill="white"/>
<path d="M14.5054 20.0234C14.7291 20.1705 14.981 20.2695 15.2449 20.314C15.5089 20.3585 15.7793 20.3476 16.0388 20.282L16.44 20.126C16.5925 20.0581 16.7413 19.9822 16.8858 19.8986C17.0756 19.7984 17.2601 19.6883 17.4385 19.5688C17.6616 19.4279 17.8603 19.2518 18.0269 19.0472C18.2087 18.8206 18.3587 18.5701 18.4727 18.3028C18.5217 18.1557 18.5886 18.0086 18.6287 17.8571C18.6688 17.7055 18.6822 17.5317 18.7045 17.3623C18.7268 17.1929 18.7045 17.0547 18.7045 16.9165V16.8006V16.6624L18.6644 16.4306C18.5529 15.8155 18.4236 15.1959 18.2632 14.6476C18.1245 14.1099 17.9442 13.5838 17.7238 13.0741C17.6467 12.8726 17.5512 12.6786 17.4385 12.4946C17.3645 12.3454 17.2765 12.2036 17.1755 12.0711L16.9081 11.7323C16.7414 11.5055 16.5074 11.337 16.2394 11.2509C14.9022 10.9211 13.7031 10.9924 13.03 12.8066C12.3569 14.6209 12.0092 17.3489 13.1548 18.8021C13.521 19.2934 13.9799 19.7083 14.5054 20.0234Z" fill="white"/>
<path d="M15.4684 10.3998H15.5397C16.0836 10.373 15.9053 10.7653 16.5605 10.7207C17.0063 10.6895 16.7789 9.71776 16.5605 9.03575C16.4535 8.66577 16.3466 8.38048 16.3466 8.38048C16.3466 8.38048 16.4669 7.99713 15.6244 8.82624C15.1512 9.2478 14.7988 9.78787 14.6036 10.3909C14.8911 10.4191 15.1804 10.4221 15.4684 10.3998Z" fill="white"/>
<path d="M10.6992 18.3698C10.7561 18.3435 10.816 18.324 10.8775 18.3118C11.0513 18.3118 11.4035 18.2271 11.4035 18.2271C11.1791 17.9395 11.0332 17.5985 10.98 17.2376C10.9755 17.1723 10.9755 17.1067 10.98 17.0414C10.9771 16.5578 10.9383 16.0751 10.8641 15.5972C10.8553 15.6173 10.8449 15.6367 10.8329 15.6551C10.4607 16.3012 10.1986 17.0047 10.0573 17.7368C9.90575 18.6283 10.405 18.4723 10.6992 18.3698Z" fill="white"/>
<path d="M26.7328 16.6401L26.7774 16.6936C26.8666 17.0012 27.1385 16.9298 27.4327 16.863C27.5769 16.8188 27.7278 16.8007 27.8784 16.8095C28.3242 16.8585 28.6407 16.6267 28.5337 15.9715C28.4121 15.5864 28.1996 15.2362 27.9141 14.9507C27.718 14.7197 27.5081 14.5009 27.2856 14.2954C27.195 14.6644 27.1339 15.04 27.1028 15.4187L27.0582 15.4722C27.0582 15.5123 26.9825 15.5435 26.9557 15.5792C26.841 15.6897 26.7513 15.8234 26.6927 15.9715C26.6576 16.0538 26.635 16.141 26.6258 16.23C26.6141 16.3113 26.6141 16.3939 26.6258 16.4752C26.65 16.5368 26.6864 16.5929 26.7328 16.6401Z" fill="white"/>
<path d="M28.2753 29.6525C28.2433 29.5223 28.2031 29.3943 28.155 29.2692C28.1104 29.1444 28.0703 29.024 28.0302 28.9036C27.9819 28.7815 27.9207 28.6649 27.8474 28.556C27.7383 28.3438 27.5969 28.1498 27.4284 27.9809L27.2011 27.7491C27.1119 27.6734 27.0272 27.6243 26.947 27.5619C26.6694 27.3602 26.3704 27.1898 26.0555 27.0537L25.2353 26.7016C25.1985 26.6572 25.1685 26.6076 25.1461 26.5545C24.5656 25.4338 23.7845 24.4291 22.8415 23.5902C22.7328 23.5055 22.6128 23.4365 22.4849 23.3852C22.3735 23.2782 22.2665 23.1846 22.1729 23.1088C21.4731 22.556 18.9947 22.2529 18.9947 22.2529C18.4654 22.2832 17.9499 22.4328 17.4867 22.6907C17.0235 22.9485 16.6247 23.3079 16.3201 23.7418C16.2132 23.8957 16.1193 24.0582 16.0393 24.2276C15.4152 25.5203 15.3439 25.9795 15.3216 26.2692C15.3041 26.5738 15.183 26.8632 14.9784 27.0894C14.9653 27.11 14.9504 27.1294 14.9338 27.1474C14.9174 27.1722 14.8995 27.196 14.8803 27.2187L14.6886 27.4728C13.8729 28.6184 12.9056 30.4727 13.3246 32.2112C13.6099 33.4548 14.2518 34.5603 15.1968 35.0373C15.7121 35.2923 16.301 35.3571 16.8595 35.22L17.0868 35.1665C17.2295 35.1264 17.4523 35.0908 17.7242 35.0016C17.9962 34.9125 18.3216 34.801 18.7005 34.7163C19.1222 34.6159 19.5588 34.5933 19.9887 34.6495C20.2205 34.6985 20.4657 34.7252 20.7153 34.7877L21.4998 35.0016C22.0169 35.1621 22.5607 35.3761 23.1179 35.6078C23.6935 35.8895 24.3034 36.0948 24.9322 36.2185C25.2803 36.2376 25.6277 36.1703 25.9435 36.0225C26.2593 35.8747 26.5336 35.6511 26.7419 35.3716C27.178 34.8705 27.5316 34.3032 27.7895 33.6911C27.9238 33.404 28.0327 33.1057 28.1149 32.7996L28.2441 32.3538C28.2709 32.1978 28.2932 32.0462 28.3199 31.9081C28.3467 31.7699 28.3645 31.6049 28.3912 31.4623C28.418 31.3197 28.3912 31.1592 28.3912 31.0165C28.3912 30.8739 28.3912 30.7223 28.3912 30.5708C28.3912 30.4192 28.3511 30.2766 28.3288 30.125C28.3065 29.9735 28.2976 29.7907 28.2753 29.6525Z" fill="white"/>
<path d="M30.0715 19.3999C29.939 19.0359 29.7511 18.6946 29.5143 18.388C29.4468 18.3059 29.3738 18.2285 29.2959 18.1562L29.2157 18.0804C28.8631 17.7235 28.4082 17.4851 27.914 17.3984C27.8072 17.4354 27.691 17.4354 27.5842 17.3984C27.6926 17.4354 27.8101 17.4354 27.9185 17.3984C27.8381 17.3771 27.7561 17.3622 27.6733 17.3538C27.6212 17.3299 27.5655 17.3148 27.5084 17.3093C27.2053 17.2691 26.5188 17.3405 25.6719 18.4682C25.6719 18.4682 25.507 18.6198 25.293 18.865C25.1949 18.9942 25.0657 19.1324 24.9453 19.3107C24.8219 19.4865 24.7173 19.6747 24.6333 19.8724C24.537 20.0679 24.4522 20.2688 24.3792 20.4742C24.3168 20.6658 24.2811 20.853 24.2365 21.0091C24.1518 21.3077 24.1028 21.5306 24.1028 21.5306C23.8042 21.9452 23.7596 22.801 24.348 23.7995C24.9964 24.8425 25.8558 25.7383 26.871 26.4295C27.1557 26.6318 27.5042 26.7236 27.8516 26.688C27.8516 26.688 28.0077 26.688 28.2974 26.6345C28.4637 26.6113 28.6277 26.574 28.7877 26.5231C28.8907 26.496 28.9886 26.4524 29.0775 26.3938C29.186 26.3405 29.2818 26.2645 29.3583 26.1709C29.542 25.9786 29.6926 25.7572 29.8041 25.5157C29.9196 25.2487 30.0135 24.973 30.0849 24.691C30.1518 24.4147 30.2409 24.1071 30.2855 23.7995C30.3301 23.4919 30.3791 23.1799 30.4103 22.8634C30.5521 21.698 30.4365 20.5157 30.0715 19.3999Z" fill="white"/>
<path d="M13.7119 27.3876C13.8367 27.294 13.9704 27.2048 14.0952 27.0979C14.2137 26.9678 14.3225 26.8293 14.4206 26.6833C14.4919 26.5317 14.5633 26.4025 14.6346 26.2152C14.8575 25.5867 15.1962 24.9493 15.4904 24.2807C15.6484 23.9355 15.755 23.569 15.8069 23.193C15.8202 23.0924 15.8202 22.9905 15.8069 22.8899C15.7872 22.7826 15.7479 22.6799 15.691 22.5868C15.5808 22.4442 15.4617 22.3087 15.3344 22.1811C14.8664 21.6774 14.4429 21.2094 14.0328 20.8439C13.2394 20.0994 12.6955 19.6225 12.6955 19.6225C12.5199 19.4468 12.3203 19.2967 12.1027 19.1767C11.6569 19.0073 10.7654 19.3996 10.7654 19.3996C10.7654 19.3996 9.87389 19.4263 9.72679 21.6284C9.57969 23.8304 9.6733 25.7695 10.9526 26.8973C11.1307 27.0545 11.3285 27.1879 11.541 27.294C11.541 27.294 11.697 27.3787 11.9868 27.5124C12.1733 27.5683 12.3642 27.6086 12.5574 27.6328C12.6688 27.6328 12.7936 27.6328 12.9229 27.6328L13.3241 27.5614L13.7119 27.3876Z" fill="white"/>
</svg>
