<svg width="202" height="45" viewBox="0 0 202 45" fill="none" xmlns="http://www.w3.org/2000/svg">
<g clip-path="url(#clip0_975_6491)">
<path d="M156.023 23.0282H110.896L108.865 34.3396H153.992L200.323 30.4756L201.659 23.0282H156.023Z" fill="#3CE5B5"/>
<path d="M52.0887 20.976H44.5712L45.8185 13.9799H49.2921L48.5632 18.0909H52.5919C54.7267 18.0909 56.4162 16.8467 56.4162 15.0412C56.4162 13.6658 55.2421 12.6594 53.5465 12.6594H46.032L48.7767 9.73779H54.0802C57.6209 9.73779 59.9539 11.6835 59.9539 14.5045C59.9417 18.1245 56.3827 20.976 52.0887 20.976Z" fill="#FBFBFB" fill-opacity="0.88"/>
<path d="M77.7736 14.3149C77.7736 18.9291 74.7239 21.1585 68.4293 21.1585C63.5803 21.1585 61.1283 19.6336 61.1283 16.3948C61.1283 11.7806 64.178 9.56653 70.4756 9.56653C75.3247 9.56653 77.7736 11.0609 77.7736 14.3149ZM74.2847 14.6656C74.2847 12.8541 73.01 12.4851 69.9541 12.4851C65.4406 12.4851 64.6202 13.1743 64.6202 16.0594C64.6202 17.8709 65.9102 18.2399 68.9325 18.2399C73.4461 18.2399 74.2847 17.5354 74.2847 14.6656Z" fill="#FBFBFB" fill-opacity="0.88"/>
<path d="M89.753 16.7974C89.2891 15.6946 88.882 14.5688 88.5331 13.4244C88.0299 14.2295 87.4413 15.0529 86.1482 16.7791L83.7847 19.9691C83.558 20.3271 83.2459 20.6232 82.8765 20.8308C82.5071 21.0384 82.0919 21.151 81.6682 21.1585C81.4558 21.1712 81.243 21.141 81.0426 21.0697C80.8422 20.9984 80.6581 20.8874 80.5016 20.7433C80.345 20.5993 80.2191 20.4252 80.1313 20.2313C80.0436 20.0375 79.9958 19.828 79.9908 19.6153L78.9021 9.74951H82.3574L82.7264 13.6592C82.8271 14.9188 82.9125 15.8398 82.946 16.7455C83.4492 15.974 84.0012 15.1017 85.0595 13.644L87.0723 10.823C87.8621 9.73426 88.4324 9.56653 89.2711 9.56653C90.1098 9.56653 90.6618 9.71596 91.0491 10.823L92.0555 13.6592C92.5922 15.2024 92.8606 15.9923 93.0954 16.7455C93.4157 15.8581 93.8182 14.9157 94.3885 13.6592L96.1482 9.74951H99.5547L94.9192 19.6153C94.4312 20.6553 93.5925 21.1585 92.7051 21.1585C92.3302 21.1781 91.9595 21.0716 91.6522 20.8561C91.3449 20.6405 91.1186 20.3282 91.0094 19.9691L89.753 16.7974Z" fill="#FBFBFB" fill-opacity="0.88"/>
<path d="M108.524 20.5542L102.729 14.3816L101.573 20.9751H98.423L100.052 11.6704C100.305 10.1791 101.293 9.57525 102.333 9.57525C102.581 9.56954 102.827 9.62168 103.051 9.72755C103.276 9.83342 103.472 9.99011 103.626 10.1852L109.42 16.3578L110.594 9.76433H113.751L112.089 19.0598C111.82 20.5542 110.829 21.1733 109.823 21.1733C109.572 21.1819 109.324 21.1301 109.098 21.0223C108.872 20.9146 108.675 20.754 108.524 20.5542Z" fill="#FBFBFB" fill-opacity="0.88"/>
<path d="M125.416 14.2295C127.856 14.2295 129.14 15.1017 129.14 16.7791C129.14 19.2189 127.615 20.9755 123.62 20.9755H113.153L115.898 18.0905H124.403C125.343 18.0905 125.748 17.7855 125.748 17.1329C125.748 16.6784 125.395 16.4619 124.69 16.4619H118.557C116.008 16.4619 114.864 15.3884 114.864 13.7599C114.864 11.4787 116.425 9.74951 120.353 9.74951H130.113L127.368 12.6711H119.564C118.624 12.6711 118.222 12.9212 118.222 13.586C118.222 14.0405 118.572 14.2234 119.295 14.2234L125.416 14.2295Z" fill="#FBFBFB" fill-opacity="0.88"/>
<path d="M141.96 16.7974C141.274 15.0682 140.988 14.2295 140.74 13.4244C140.237 14.2295 139.649 15.0529 138.359 16.7791L135.992 19.9691C135.766 20.3268 135.454 20.6228 135.085 20.8304C134.717 21.038 134.302 21.1507 133.879 21.1585C133.666 21.1712 133.454 21.141 133.253 21.0697C133.053 20.9984 132.869 20.8874 132.712 20.7433C132.555 20.5993 132.43 20.4252 132.342 20.2313C132.254 20.0375 132.206 19.828 132.201 19.6153L131.109 9.74951H134.565L134.934 13.6592C135.034 14.9188 135.12 15.8398 135.153 16.7455C135.657 15.974 136.212 15.1017 137.267 13.644L139.28 10.823C140.07 9.73426 140.64 9.56653 141.479 9.56653C142.317 9.56653 142.872 9.71596 143.256 10.823L144.263 13.6592C144.8 15.2024 145.068 15.9923 145.303 16.7455C145.608 15.8581 146.026 14.9157 146.596 13.6592L148.359 9.74951H151.765L147.099 19.6153C146.614 20.6553 145.773 21.1585 144.885 21.1585C144.51 21.1781 144.139 21.0716 143.832 20.8561C143.525 20.6405 143.299 20.3282 143.189 19.9691L141.96 16.7974Z" fill="#FBFBFB" fill-opacity="0.88"/>
<path d="M154.626 20.9755H151.152L153.15 9.74951H156.605L154.626 20.9755Z" fill="#FBFBFB" fill-opacity="0.88"/>
<path d="M166.84 20.5542L161.046 14.3816L159.887 20.975H156.74L158.368 11.6704C158.618 10.1791 159.609 9.57522 160.649 9.57522C160.897 9.56974 161.143 9.62199 161.368 9.72784C161.592 9.83369 161.789 9.99025 161.942 10.1852L167.737 16.3578L168.911 9.7643H172.064L170.402 19.0598C170.134 20.5542 169.146 21.1733 168.139 21.1733C167.889 21.1821 167.64 21.1304 167.414 21.0227C167.188 20.9149 166.991 20.7542 166.84 20.5542Z" fill="#FBFBFB" fill-opacity="0.88"/>
<path d="M180.311 13.9612H187.49L186.249 20.9755H178.533C175.026 20.9755 172.693 18.862 172.693 16.0258C172.693 12.3326 176.218 9.74951 180.512 9.74951H188.545L185.776 12.6711H180.006C177.941 12.6711 176.178 13.9947 176.178 15.791C176.178 17.1816 177.319 18.0905 179.048 18.0905H183.318L183.601 16.4619H177.761L180.311 13.9612Z" fill="#FBFBFB" fill-opacity="0.88"/>
<path d="M49.6276 34.2692H42.1101L43.3513 27.2732H46.825L46.1052 31.3842H50.1308C52.2656 31.3842 53.9552 30.1429 53.9552 28.3345C53.9552 26.959 52.781 25.9526 51.0884 25.9526H43.5709L46.3157 23.0341H51.613C55.1537 23.0341 57.4867 24.9798 57.4867 27.7977C57.4806 31.4177 53.9216 34.2692 49.6276 34.2692Z" fill="#FBFBFB" fill-opacity="0.88"/>
<path d="M75.3124 27.6083C75.3124 32.2225 72.2627 34.4549 65.9681 34.4549C61.1191 34.4549 58.6702 32.93 58.6702 29.6912C58.6702 25.077 61.7199 22.8599 68.0145 22.8599C72.8635 22.8599 75.3124 24.3542 75.3124 27.6083ZM71.8235 27.962C71.8235 26.1505 70.5488 25.7815 67.496 25.7815C62.9824 25.7815 62.159 26.4677 62.159 29.3527C62.159 31.1825 63.4521 31.5363 66.4713 31.5363C70.9849 31.5363 71.8235 30.8318 71.8235 27.962Z" fill="#FBFBFB" fill-opacity="0.88"/>
<path d="M84.1382 27.2577H91.3172L90.076 34.272H82.3755C78.8683 34.272 76.5353 32.1586 76.5353 29.3223C76.5353 25.6322 80.0607 23.0491 84.3547 23.0491H92.3907L89.6246 25.9676H83.8302C81.7655 25.9676 80.0028 27.2943 80.0028 29.0875C80.0028 30.4812 81.1434 31.387 82.8726 31.387H87.1422L87.4288 29.7584H81.6039L84.1382 27.2577Z" fill="#FBFBFB" fill-opacity="0.88"/>
<path d="M103.666 27.5291C106.105 27.5291 107.389 28.4013 107.389 30.0786C107.389 32.5184 105.864 34.272 101.869 34.272H91.418L94.1627 31.387H102.668C103.608 31.387 104.01 31.082 104.01 30.4324C104.01 29.978 103.656 29.7584 102.952 29.7584H96.819C94.2695 29.7584 93.1289 28.6849 93.1289 27.0594C93.1289 24.7783 94.6903 23.0491 98.6183 23.0491H108.377L105.633 25.9676H97.8254C96.8861 25.9676 96.4835 26.2208 96.4835 26.8826C96.4835 27.3339 96.8373 27.5199 97.557 27.5199L103.666 27.5291Z" fill="#FBFBFB" fill-opacity="0.88"/>
<path d="M124.437 27.5078L124.364 27.889H122.772L122.848 27.5078C122.865 27.4323 122.86 27.3534 122.832 27.2808C122.805 27.2083 122.758 27.1452 122.696 27.0992C122.546 26.9809 122.358 26.9213 122.168 26.9314H119.518C119.308 26.9288 119.103 26.9871 118.926 27.0992C118.849 27.1422 118.783 27.2008 118.73 27.2712C118.678 27.3416 118.641 27.4222 118.621 27.5078L118.167 29.8104C118.15 29.8855 118.156 29.9637 118.183 30.0356C118.21 30.1076 118.257 30.1702 118.319 30.216C118.469 30.3334 118.656 30.393 118.847 30.3837H121.497C121.707 30.3867 121.914 30.3285 122.092 30.216C122.167 30.1726 122.233 30.1142 122.286 30.0445C122.338 29.9748 122.376 29.8951 122.397 29.8104L122.47 29.4261H124.059L123.986 29.8104C123.922 30.0677 123.806 30.309 123.644 30.519C123.482 30.729 123.279 30.9031 123.046 31.0302C122.512 31.3667 121.893 31.5424 121.262 31.5365H118.612C118.041 31.5638 117.479 31.384 117.029 31.0302C116.843 30.893 116.7 30.7049 116.618 30.4884C116.537 30.2719 116.519 30.0364 116.569 29.8104L117.023 27.5078C117.085 27.2498 117.201 27.0078 117.362 26.7976C117.524 26.5874 117.729 26.4137 117.962 26.2879C118.496 25.95 119.115 25.7742 119.746 25.7817H122.394C122.966 25.7528 123.53 25.9327 123.979 26.2879C124.165 26.4258 124.307 26.6141 124.388 26.8305C124.469 27.0469 124.486 27.282 124.437 27.5078Z" fill="#020204"/>
<path d="M126.52 30.3835H131.82L131.592 31.5363H124.702L125.837 25.7815H127.429L126.52 30.3835Z" fill="#020204"/>
<path d="M132.988 29.8102L133.781 25.7815H135.373L134.565 29.8102C134.55 29.8856 134.556 29.9638 134.584 30.0357C134.611 30.1076 134.659 30.1701 134.721 30.2158C134.87 30.334 135.058 30.3936 135.248 30.3835H137.365C137.575 30.3865 137.782 30.3283 137.959 30.2158C138.036 30.174 138.104 30.1162 138.156 30.0462C138.209 29.9762 138.246 29.8957 138.264 29.8102L139.06 25.7815H140.665L139.869 29.8102C139.806 30.0678 139.69 30.3094 139.528 30.5195C139.366 30.7296 139.162 30.9035 138.929 31.03C138.395 31.3665 137.776 31.5422 137.145 31.5363H135.01C134.439 31.563 133.877 31.3833 133.428 31.03C133.247 30.8885 133.11 30.699 133.033 30.4833C132.955 30.2675 132.94 30.0342 132.988 29.8102Z" fill="#020204"/>
<path d="M140.594 31.5365L141.274 28.0812H145.776C145.991 28.0872 146.204 28.0288 146.386 27.9134C146.463 27.8717 146.53 27.8138 146.582 27.7439C146.635 27.6739 146.672 27.5934 146.691 27.5078C146.707 27.4323 146.701 27.3537 146.674 27.2813C146.647 27.2089 146.6 27.1457 146.538 27.0992C146.388 26.9812 146.201 26.9216 146.011 26.9314H142.046L141.741 25.7817H146.242C146.815 25.7528 147.378 25.9327 147.828 26.2879C148.014 26.4258 148.155 26.6141 148.237 26.8305C148.318 27.0469 148.335 27.282 148.286 27.5078C148.23 27.7455 148.127 27.9697 147.984 28.1671C147.84 28.3646 147.659 28.5313 147.45 28.6576C147.611 28.7978 147.732 28.9787 147.799 29.1815C147.867 29.3842 147.879 29.6014 147.834 29.8104C147.771 30.0681 147.654 30.3097 147.492 30.5198C147.33 30.7299 147.125 30.9037 146.892 31.0302C146.358 31.3675 145.739 31.5433 145.108 31.5365H140.594ZM142.424 30.3837H145.34C145.555 30.3894 145.767 30.331 145.95 30.216C146.026 30.1733 146.092 30.1152 146.145 30.0453C146.197 29.9755 146.235 29.8955 146.254 29.8104C146.271 29.7348 146.266 29.6559 146.239 29.5834C146.212 29.5108 146.164 29.4477 146.102 29.4017C145.952 29.2835 145.765 29.2238 145.574 29.234H142.662L142.424 30.3837Z" fill="#020204"/>
<path d="M192.482 9.7981H190.036L188.2 21.0149H190.646L194.602 15.4065L192.482 9.7981Z" fill="#3CE5B5"/>
<path d="M199.539 9.7981H197.093L195.257 21.0149H197.703L201.659 15.4065L199.539 9.7981Z" fill="#3CE5B5"/>
<path d="M30.2864 42.2227L29.341 40.4234C29.5819 40.3075 29.8259 40.1916 30.0638 40.0635C32.3872 38.8407 34.4471 37.1721 36.1256 35.153C37.8041 33.134 39.0685 30.804 39.8464 28.2963C40.6244 25.7886 40.9007 23.1521 40.6596 20.5376C40.4185 17.923 39.6647 15.3816 38.4413 13.0584C38.3163 12.8174 38.1821 12.5857 38.0479 12.3539L39.8472 11.4054C37.8634 7.94356 34.972 5.08905 31.4849 3.14987C31.1799 3.75981 30.875 4.36061 30.57 4.95225C27.246 3.08537 23.4588 2.20417 19.6521 2.41184C19.6521 1.73481 19.6449 1.05879 19.6307 0.383789C15.4345 0.593886 11.3867 2.00345 7.96756 4.44519C4.54847 6.88694 1.90168 10.2584 0.341309 14.1593L2.27482 14.7693C1.15712 17.4766 0.649017 20.3967 0.78658 23.3224C0.924142 26.2481 1.704 29.1077 3.0708 31.6982C3.23548 32.0032 3.40627 32.3081 3.58315 32.6131L1.78077 33.5616C2.88265 35.4329 4.25686 37.1298 5.85823 38.5966C6.32788 38.1127 6.79246 37.6227 7.25195 37.1267C10.9134 40.4757 15.6873 42.3471 20.6493 42.3783C20.5151 43.0451 20.3779 43.711 20.2376 44.3758C23.711 44.4698 27.1564 43.7316 30.2864 42.2227ZM4.1382 31.1187C2.40821 27.8332 1.69135 24.1084 2.07827 20.4155C2.4652 16.7225 3.93853 13.2273 6.31196 10.3716C8.68538 7.51604 11.8523 5.42837 15.4122 4.37263C18.9721 3.3169 22.7652 3.34052 26.3117 4.44051C29.8582 5.5405 32.9988 7.66745 35.3365 10.5524C37.6742 13.4373 39.1039 16.9507 39.4448 20.6482C39.7857 24.3457 39.0225 28.0612 37.2517 31.325C35.4809 34.5887 32.7821 37.254 29.4965 38.9839C25.0895 41.297 19.9451 41.7679 15.1914 40.2935C10.4377 38.8191 6.46277 35.5196 4.1382 31.1187Z" fill="#3CE5B5"/>
<path d="M22.0309 19.6001L22.1437 19.6489C22.2473 19.7047 22.3581 19.7458 22.4731 19.7708C22.653 19.8116 22.8383 19.8239 23.022 19.8074C23.2618 19.7923 23.4976 19.7388 23.7204 19.6489C24.7207 19.289 25.8064 18.2795 26.4103 17.0048C26.5624 16.6835 26.6652 16.3411 26.7152 15.9892C26.7527 15.6471 26.7456 15.3017 26.6939 14.9614C26.6532 14.6518 26.588 14.3458 26.4987 14.0465C26.4221 13.7777 26.3315 13.513 26.2273 13.2536C26.0739 12.8651 25.8797 12.494 25.6478 12.1466C25.4679 11.9087 25.3429 11.7806 25.3429 11.7806C25.2496 11.6602 25.1361 11.557 25.0074 11.4756C24.6056 11.1997 24.1367 11.0374 23.6503 11.006C23.4221 11.0111 23.1981 11.0674 22.9946 11.1707C22.8611 11.2079 22.7322 11.2601 22.6103 11.3262C22.0522 11.5976 21.0153 12.3296 20.3718 14.1319C19.6216 16.343 20.5884 18.9474 22.0309 19.6001Z" fill="#FBFBFB" fill-opacity="0.88"/>
<path d="M21.9362 11.1039C22.1535 10.9349 22.3863 10.7868 22.6316 10.6617C22.6316 10.6343 22.6316 10.6068 22.6316 10.5794C22.6316 10.6068 22.6316 10.6343 22.6316 10.6587C22.8729 10.5323 23.1355 10.4517 23.4062 10.4208C24.1015 10.369 24.0497 10.0609 23.5099 9.06978C23.4308 8.93378 23.3355 8.80783 23.2263 8.69466C22.7993 8.28231 22.2567 8.00996 21.6709 7.91394C21.6657 8.35358 21.7159 8.79213 21.8203 9.21921C21.9301 9.84105 21.969 10.4733 21.9362 11.1039Z" fill="#FBFBFB" fill-opacity="0.88"/>
<path d="M14.9616 20.3321C15.1939 20.4859 15.4559 20.5892 15.7306 20.6355C16.0054 20.6817 16.2868 20.6698 16.5566 20.6004L16.9775 20.4358C17.1415 20.3703 17.3014 20.2949 17.4563 20.2101C17.6551 20.105 17.8485 19.99 18.0357 19.8655C18.2652 19.7163 18.4709 19.5333 18.6457 19.3226C18.8421 19.0857 19.0052 18.823 19.1306 18.5419C19.1824 18.3894 19.2465 18.2369 19.2892 18.0753C19.3318 17.9136 19.3471 17.7337 19.3715 17.5568C19.3959 17.3799 19.3562 17.2366 19.3501 17.0719V16.9499L19.3288 16.8096L19.2861 16.5504C19.1672 15.9069 19.036 15.2634 18.8683 14.6688C18.7232 14.1258 18.5397 13.5938 18.3193 13.0768C18.2364 12.8647 18.1343 12.6605 18.0144 12.4669C17.9379 12.3116 17.8459 12.1645 17.7399 12.0277L17.4624 11.6739C17.2888 11.4384 17.0456 11.2634 16.767 11.1738C15.3733 10.8292 14.1199 10.9024 13.4124 12.7932C12.7048 14.684 12.345 17.5324 13.5435 19.0451C13.9256 19.5644 14.4078 20.002 14.9616 20.3321Z" fill="#FBFBFB" fill-opacity="0.88"/>
<path d="M15.9649 10.2924C15.9892 10.2939 16.0137 10.2939 16.0381 10.2924C16.6053 10.268 16.4193 10.6798 17.1054 10.6279C17.5538 10.5974 17.3311 9.58491 17.1237 8.87432C17.0079 8.49006 16.8981 8.19119 16.8981 8.19119C16.8981 8.19119 17.0231 7.78863 16.1448 8.63035C15.6517 9.07032 15.2844 9.63339 15.0804 10.2619C15.3739 10.2969 15.6697 10.3071 15.9649 10.2924Z" fill="#FBFBFB" fill-opacity="0.88"/>
<path d="M10.9908 18.6052C11.0496 18.5789 11.1109 18.5584 11.1738 18.5442C11.3568 18.5442 11.7228 18.4558 11.7228 18.4558C11.4896 18.156 11.3382 17.8008 11.2836 17.425C11.2836 17.3579 11.2836 17.2878 11.2836 17.2176C11.2822 16.7142 11.2425 16.2115 11.1647 15.7141L11.1311 15.7721C10.7425 16.4454 10.4703 17.1795 10.326 17.9435C10.1613 18.8767 10.6798 18.715 10.9908 18.6052Z" fill="#FBFBFB" fill-opacity="0.88"/>
<path d="M27.7155 16.8187C27.7274 16.8377 27.7417 16.8552 27.7582 16.8705C27.8527 17.1938 28.1333 17.1206 28.4444 17.0504C28.5985 17.0042 28.7595 16.9856 28.9201 16.9956C29.3715 17.0474 29.7161 16.8065 29.6032 16.1203C29.4776 15.7188 29.2569 15.3537 28.9598 15.0559C28.7535 14.8167 28.5336 14.5896 28.301 14.3759C28.2082 14.7608 28.145 15.1523 28.1119 15.5469C28.0967 15.5655 28.0824 15.5848 28.0692 15.6049C28.054 15.6476 27.9869 15.675 27.9595 15.7147C27.8411 15.8308 27.7477 15.9699 27.685 16.1233C27.6495 16.2103 27.6259 16.3016 27.6148 16.3948C27.6096 16.4806 27.6158 16.5667 27.6331 16.6509C27.6518 16.7107 27.6796 16.7673 27.7155 16.8187Z" fill="#FBFBFB" fill-opacity="0.88"/>
<path d="M29.3227 30.3714C29.2922 30.2311 29.2373 30.1061 29.1976 29.9749C29.158 29.8438 29.1092 29.7187 29.0665 29.5937C29.0167 29.4657 28.9522 29.3439 28.8744 29.2308C28.7638 29.004 28.6152 28.7977 28.4352 28.6209L28.2004 28.3799C28.1058 28.2976 28.0204 28.2457 27.935 28.1817C27.644 27.9717 27.3311 27.7938 27.0018 27.651L26.1479 27.2851C26.1094 27.2389 26.0776 27.1876 26.0534 27.1326C25.4501 25.9614 24.6342 24.9128 23.6472 24.0402C23.535 23.9517 23.4108 23.8798 23.2781 23.8267C23.1748 23.7194 23.0659 23.6176 22.9518 23.5217C22.2229 22.9453 19.6398 22.6282 19.6398 22.6282C19.0874 22.6596 18.5493 22.8159 18.0659 23.0853C17.5826 23.3547 17.1666 23.7302 16.8494 24.1835C16.7325 24.3426 16.6304 24.5121 16.5444 24.6898C15.8948 26.0377 15.8216 26.5196 15.7972 26.8246C15.7802 27.1418 15.6542 27.4435 15.4404 27.6785C15.4271 27.7002 15.4118 27.7207 15.3947 27.7395C15.3733 27.7639 15.3581 27.7913 15.3367 27.8127L15.1385 28.0811C14.2846 29.2765 13.3086 31.207 13.7143 33.0216C14.0192 34.3208 14.678 35.4613 15.6661 35.9706C16.2029 36.2367 16.8167 36.3037 17.3983 36.1597L17.6362 36.1048C17.7887 36.0652 18.0205 36.0225 18.301 35.931C18.5816 35.8395 18.911 35.7236 19.3227 35.626C19.7611 35.5225 20.2146 35.4987 20.6615 35.5559C20.9085 35.6047 21.1616 35.6352 21.4239 35.6992L22.2382 35.9249C22.778 36.0926 23.3513 36.3153 23.9308 36.5531C24.5297 36.8473 25.1643 37.0626 25.8186 37.1936C26.5596 37.3064 27.2946 36.8154 27.7094 36.3061C28.1644 35.7852 28.5321 35.1941 28.7981 34.5556C28.942 34.2511 29.0564 33.9335 29.1397 33.6071L29.2769 33.1283C29.3013 32.9667 29.3288 32.805 29.3532 32.6465C29.3776 32.4879 29.402 32.3415 29.4294 32.1707C29.4569 31.9999 29.4294 31.8657 29.4294 31.698C29.4294 31.5303 29.4294 31.393 29.4294 31.2375C29.4294 31.082 29.3867 30.9325 29.3654 30.7831L29.3227 30.3714Z" fill="#FBFBFB" fill-opacity="0.88"/>
<path d="M31.1953 19.6793C31.1199 19.4671 31.0238 19.2628 30.9086 19.0694C30.8183 18.9173 30.7164 18.7725 30.6036 18.6363C30.5348 18.5492 30.4583 18.4686 30.3749 18.3954L30.2925 18.313C29.9245 17.9415 29.4504 17.6933 28.9354 17.6025C28.8205 17.6351 28.6978 17.6276 28.5878 17.5811C28.6993 17.6264 28.8228 17.6328 28.9385 17.5994C28.8541 17.5797 28.7685 17.5655 28.6823 17.5567C28.6276 17.5312 28.5687 17.5157 28.5085 17.511C28.2035 17.4683 27.4777 17.5445 26.5902 18.7308C26.4521 18.8614 26.3218 18.9999 26.1998 19.1456C26.0931 19.2767 25.962 19.4262 25.8369 19.597C25.7054 19.7791 25.595 19.9756 25.5075 20.1825C25.4086 20.3802 25.322 20.584 25.2483 20.7924C25.1812 20.9937 25.1416 21.1889 25.0958 21.3505C25.0074 21.6555 24.9556 21.8964 24.9556 21.8964C24.6506 22.3264 24.6018 23.2231 25.2148 24.263C25.6631 25.0224 26.822 26.3978 27.8436 27.0077C28.1407 27.2198 28.5054 27.3154 28.8683 27.2761C28.8683 27.2761 29.033 27.2761 29.3166 27.2182C29.4897 27.1958 29.6602 27.157 29.8259 27.1023C29.9356 27.0787 30.0394 27.033 30.1309 26.9681C30.2481 26.9151 30.3522 26.837 30.4359 26.7394C30.626 26.5368 30.7825 26.3052 30.8994 26.0532C31.0244 25.7753 31.1264 25.4877 31.2044 25.1932C31.2745 24.8882 31.366 24.5832 31.4148 24.263C31.4636 23.9428 31.5124 23.6165 31.546 23.2871C31.6927 22.0733 31.573 20.8421 31.1953 19.6793Z" fill="#FBFBFB" fill-opacity="0.88"/>
<path d="M14.1446 28.0113C14.2758 27.9168 14.4161 27.8222 14.5472 27.7063C14.6702 27.5702 14.7833 27.4255 14.8857 27.2733C14.9681 27.1145 15.0424 26.9516 15.1083 26.7853C15.3401 26.1327 15.6939 25.4678 16.0019 24.7664C16.1667 24.4086 16.2777 24.0283 16.3313 23.638C16.3449 23.5317 16.3449 23.4241 16.3313 23.3178C16.3112 23.2091 16.2697 23.1054 16.2093 23.0128C16.0943 22.8637 15.9711 22.7212 15.8403 22.5859C15.3523 22.0644 14.8979 21.5734 14.4801 21.1921C13.6536 20.4145 13.0833 19.9204 13.0833 19.9204C12.9031 19.7318 12.6978 19.5686 12.4734 19.4355C12.0037 19.2586 11.0583 19.6673 11.0583 19.6673C11.0583 19.6673 10.1129 19.6978 9.97873 21.9973C9.84454 24.2968 9.91773 26.3187 11.2535 27.4867C11.4396 27.6488 11.6444 27.788 11.8634 27.9015C11.8634 27.9015 12.0281 27.9899 12.3362 28.1272C12.535 28.1889 12.7392 28.2318 12.9461 28.2553C13.062 28.2553 13.1901 28.2736 13.3243 28.2553L13.7451 28.1821L14.1446 28.0113Z" fill="#FBFBFB" fill-opacity="0.88"/>
</g>
<defs>
<clipPath id="clip0_975_6491">
<rect width="201.317" height="44" fill="white" transform="translate(0.341309 0.383789)"/>
</clipPath>
</defs>
</svg>
