<svg width="250" height="44" viewBox="0 0 250 44" fill="none" xmlns="http://www.w3.org/2000/svg">
<g clip-path="url(#clip0_672_16846)">
<path d="M155.681 22.6445H110.555L108.524 33.9559H153.65L199.981 30.0919L201.317 22.6445H155.681Z" fill="#3CE5B5"/>
<path d="M51.7474 20.5922H44.2299L45.4772 13.5961H48.9508L48.2219 17.7072H52.2506C54.3854 17.7072 56.0749 16.4629 56.0749 14.6574C56.0749 13.282 54.9008 12.2756 53.2051 12.2756H45.6907L48.4354 9.354H53.7388C57.2796 9.354 59.6126 11.2997 59.6126 14.1207C59.6004 17.7407 56.0414 20.5922 51.7474 20.5922Z" fill="#FBFBFB" fill-opacity="0.88"/>
<path d="M77.4323 13.931C77.4323 18.5452 74.3826 20.7746 68.088 20.7746C63.239 20.7746 60.787 19.2497 60.787 16.0109C60.787 11.3967 63.8367 9.18262 70.1343 9.18262C74.9834 9.18262 77.4323 10.677 77.4323 13.931ZM73.9434 14.2817C73.9434 12.4702 72.6686 12.1012 69.6128 12.1012C65.0993 12.1012 64.2789 12.7904 64.2789 15.6754C64.2789 17.487 65.5689 17.856 68.5912 17.856C73.1048 17.856 73.9434 17.1515 73.9434 14.2817Z" fill="#FBFBFB" fill-opacity="0.88"/>
<path d="M89.4116 16.4135C88.9478 15.3107 88.5407 14.1849 88.1918 13.0405C87.6886 13.8456 87.1 14.669 85.8069 16.3952L83.4434 19.5852C83.2167 19.9432 82.9046 20.2393 82.5352 20.4469C82.1657 20.6545 81.7506 20.7671 81.3269 20.7746C81.1145 20.7873 80.9017 20.7571 80.7013 20.6858C80.5008 20.6145 80.3168 20.5035 80.1603 20.3594C80.0037 20.2154 79.8778 20.0413 79.79 19.8474C79.7023 19.6536 79.6545 19.4441 79.6495 19.2314L78.5608 9.3656H82.0161L82.3851 13.2753C82.4858 14.5349 82.5712 15.4559 82.6047 16.3616C83.1079 15.59 83.6599 14.7178 84.7182 13.2601L86.731 10.4391C87.5208 9.35035 88.0911 9.18262 88.9298 9.18262C89.7685 9.18262 90.3205 9.33205 90.7078 10.4391L91.7142 13.2753C92.2509 14.8185 92.5193 15.6083 92.7541 16.3616C93.0743 15.4742 93.4769 14.5318 94.0472 13.2753L95.8069 9.3656H99.2134L94.5779 19.2314C94.0899 20.2714 93.2512 20.7746 92.3638 20.7746C91.9889 20.7942 91.6182 20.6877 91.3109 20.4722C91.0036 20.2566 90.7773 19.9443 90.6681 19.5852L89.4116 16.4135Z" fill="#FBFBFB" fill-opacity="0.88"/>
<path d="M108.182 20.1703L102.388 13.9977L101.232 20.5911H98.0817L99.7102 11.2865C99.9633 9.79518 100.951 9.19134 101.991 9.19134C102.239 9.18563 102.486 9.23777 102.71 9.34364C102.934 9.44951 103.131 9.6062 103.284 9.80128L109.079 15.9739L110.253 9.38042H113.409L111.747 18.6759C111.479 20.1703 110.488 20.7894 109.481 20.7894C109.231 20.798 108.982 20.7462 108.756 20.6384C108.53 20.5307 108.333 20.3701 108.182 20.1703Z" fill="#FBFBFB" fill-opacity="0.88"/>
<path d="M125.075 13.8457C127.514 13.8457 128.798 14.718 128.798 16.3953C128.798 18.8351 127.273 20.5917 123.278 20.5917H112.812L115.557 17.7067H124.062C125.001 17.7067 125.407 17.4017 125.407 16.7491C125.407 16.2947 125.053 16.0781 124.349 16.0781H118.216C115.666 16.0781 114.523 15.0046 114.523 13.3761C114.523 11.0949 116.084 9.36572 120.012 9.36572H129.771L127.026 12.2873H119.222C118.283 12.2873 117.88 12.5374 117.88 13.2023C117.88 13.6567 118.231 13.8396 118.954 13.8396L125.075 13.8457Z" fill="#FBFBFB" fill-opacity="0.88"/>
<path d="M141.619 16.4135C140.933 14.6843 140.646 13.8456 140.399 13.0405C139.896 13.8456 139.307 14.669 138.017 16.3952L135.651 19.5852C135.425 19.9429 135.113 20.2389 134.744 20.4465C134.375 20.6541 133.961 20.7668 133.537 20.7746C133.325 20.7873 133.112 20.7571 132.912 20.6858C132.711 20.6145 132.527 20.5035 132.371 20.3594C132.214 20.2154 132.088 20.0413 132 19.8474C131.913 19.6536 131.865 19.4441 131.86 19.2314L130.768 9.3656H134.224L134.593 13.2753C134.693 14.5349 134.779 15.4559 134.812 16.3616C135.315 15.59 135.87 14.7178 136.926 13.2601L138.938 10.4391C139.728 9.35035 140.299 9.18262 141.137 9.18262C141.976 9.18262 142.531 9.33205 142.915 10.4391L143.922 13.2753C144.458 14.8185 144.727 15.6083 144.962 16.3616C145.267 15.4742 145.684 14.5318 146.255 13.2753L148.017 9.3656H151.424L146.758 19.2314C146.273 20.2714 145.431 20.7746 144.544 20.7746C144.169 20.7942 143.798 20.6877 143.491 20.4722C143.184 20.2566 142.957 19.9443 142.848 19.5852L141.619 16.4135Z" fill="#FBFBFB" fill-opacity="0.88"/>
<path d="M154.285 20.5917H150.811L152.809 9.36572H156.264L154.285 20.5917Z" fill="#FBFBFB" fill-opacity="0.88"/>
<path d="M166.499 20.1703L160.705 13.9976L159.546 20.5911H156.398L158.027 11.2865C158.277 9.79515 159.268 9.19131 160.308 9.19131C160.556 9.18583 160.802 9.23808 161.026 9.34393C161.251 9.44978 161.448 9.60634 161.601 9.80125L167.396 15.9739L168.57 9.38039H171.723L170.061 18.6759C169.793 20.1703 168.805 20.7893 167.798 20.7893C167.548 20.7982 167.299 20.7465 167.073 20.6387C166.847 20.531 166.65 20.3703 166.499 20.1703Z" fill="#FBFBFB" fill-opacity="0.88"/>
<path d="M179.969 13.5774H187.148L185.907 20.5917H178.191C174.684 20.5917 172.351 18.4782 172.351 15.642C172.351 11.9488 175.877 9.36572 180.171 9.36572H188.204L185.435 12.2873H179.665C177.6 12.2873 175.837 13.6109 175.837 15.4072C175.837 16.7979 176.978 17.7067 178.707 17.7067H182.976L183.26 16.0781H177.42L179.969 13.5774Z" fill="#FBFBFB" fill-opacity="0.88"/>
<path d="M49.2863 33.8855H41.7688L43.01 26.8895H46.4836L45.7639 31.0005H49.7895C51.9243 31.0005 53.6139 29.7593 53.6139 27.9508C53.6139 26.5754 52.4397 25.569 50.7471 25.569H43.2296L45.9743 22.6504H51.2717C54.8124 22.6504 57.1454 24.5961 57.1454 27.414C57.1393 31.034 53.5803 33.8855 49.2863 33.8855Z" fill="#FBFBFB" fill-opacity="0.88"/>
<path d="M74.9711 27.2245C74.9711 31.8387 71.9214 34.0711 65.6268 34.0711C60.7778 34.0711 58.3289 32.5462 58.3289 29.3074C58.3289 24.6932 61.3786 22.4761 67.6732 22.4761C72.5222 22.4761 74.9711 23.9704 74.9711 27.2245ZM71.4822 27.5782C71.4822 25.7667 70.2075 25.3977 67.1547 25.3977C62.6411 25.3977 61.8177 26.0839 61.8177 28.9689C61.8177 30.7987 63.1108 31.1525 66.13 31.1525C70.6436 31.1525 71.4822 30.448 71.4822 27.5782Z" fill="#FBFBFB" fill-opacity="0.88"/>
<path d="M83.7969 26.8741H90.9759L89.7347 33.8885H82.0342C78.527 33.8885 76.194 31.775 76.194 28.9388C76.194 25.2486 79.7194 22.6655 84.0134 22.6655H92.0494L89.2833 25.5841H83.4889C81.4242 25.5841 79.6615 26.9107 79.6615 28.7039C79.6615 30.0977 80.8021 31.0034 82.5313 31.0034H86.8009L87.0875 29.3749H81.2626L83.7969 26.8741Z" fill="#FBFBFB" fill-opacity="0.88"/>
<path d="M103.324 27.1455C105.764 27.1455 107.048 28.0178 107.048 29.6951C107.048 32.1349 105.523 33.8885 101.528 33.8885H91.0767L93.8214 31.0034H102.327C103.266 31.0034 103.669 30.6985 103.669 30.0489C103.669 29.5945 103.315 29.3749 102.611 29.3749H96.4777C93.9281 29.3749 92.7876 28.3014 92.7876 26.6759C92.7876 24.3947 94.349 22.6655 98.277 22.6655H108.036L105.291 25.5841H97.4841C96.5448 25.5841 96.1422 25.8372 96.1422 26.499C96.1422 26.9504 96.496 27.1364 97.2157 27.1364L103.324 27.1455Z" fill="#FBFBFB" fill-opacity="0.88"/>
<path d="M124.096 27.1242L124.022 27.5054H122.43L122.507 27.1242C122.524 27.0486 122.518 26.9697 122.491 26.8972C122.464 26.8246 122.416 26.7615 122.354 26.7155C122.205 26.5973 122.017 26.5376 121.827 26.5478H119.176C118.967 26.5451 118.762 26.6034 118.585 26.7155C118.508 26.7585 118.441 26.8171 118.389 26.8875C118.336 26.9579 118.299 27.0385 118.28 27.1242L117.825 29.4267C117.809 29.5018 117.815 29.58 117.842 29.652C117.869 29.7239 117.916 29.7865 117.978 29.8323C118.128 29.9498 118.315 30.0093 118.505 30H121.156C121.366 30.0031 121.573 29.9448 121.75 29.8323C121.826 29.7889 121.892 29.7306 121.945 29.6608C121.997 29.5911 122.035 29.5114 122.055 29.4267L122.129 29.0424H123.717L123.644 29.4267C123.581 29.684 123.464 29.9253 123.303 30.1353C123.141 30.3453 122.937 30.5194 122.705 30.6466C122.171 30.983 121.552 31.1588 120.921 31.1528H118.271C117.699 31.1801 117.137 31.0004 116.688 30.6466C116.502 30.5094 116.359 30.3212 116.277 30.1047C116.195 29.8883 116.178 29.6528 116.227 29.4267L116.682 27.1242C116.744 26.8662 116.859 26.6241 117.021 26.4139C117.183 26.2037 117.387 26.03 117.621 25.9043C118.154 25.5664 118.774 25.3905 119.405 25.398H122.052C122.625 25.3692 123.188 25.549 123.638 25.9043C123.824 26.0421 123.965 26.2305 124.047 26.4468C124.128 26.6632 124.145 26.8984 124.096 27.1242Z" fill="#0A0F1D"/>
<path d="M126.179 30H131.479L131.25 31.1527H124.361L125.495 25.3979H127.087L126.179 30Z" fill="#0A0F1D"/>
<path d="M132.647 29.4266L133.44 25.3979H135.032L134.224 29.4266C134.208 29.502 134.215 29.5803 134.242 29.6522C134.27 29.7241 134.317 29.7866 134.379 29.8322C134.529 29.9505 134.717 30.0101 134.907 30H137.023C137.234 30.003 137.44 29.9447 137.618 29.8322C137.695 29.7905 137.762 29.7326 137.815 29.6626C137.867 29.5926 137.904 29.5121 137.923 29.4266L138.719 25.3979H140.323L139.527 29.4266C139.465 29.6842 139.349 29.9259 139.187 30.136C139.025 30.3461 138.821 30.52 138.588 30.6465C138.054 30.983 137.435 31.1587 136.804 31.1527H134.669C134.098 31.1795 133.536 30.9998 133.086 30.6465C132.906 30.505 132.769 30.3155 132.691 30.0997C132.614 29.884 132.598 29.6507 132.647 29.4266Z" fill="#0A0F1D"/>
<path d="M140.253 31.1528L140.933 27.6975H145.434C145.65 27.7036 145.862 27.6452 146.044 27.5298C146.121 27.488 146.188 27.4302 146.241 27.3602C146.294 27.2902 146.331 27.2097 146.349 27.1242C146.365 27.0486 146.36 26.97 146.333 26.8976C146.306 26.8252 146.259 26.762 146.197 26.7155C146.047 26.5975 145.86 26.5379 145.669 26.5478H141.705L141.4 25.398H145.901C146.473 25.3692 147.037 25.549 147.487 25.9043C147.672 26.0421 147.814 26.2305 147.895 26.4468C147.976 26.6632 147.993 26.8984 147.944 27.1242C147.889 27.3618 147.786 27.586 147.643 27.7835C147.499 27.9809 147.318 28.1477 147.109 28.2739C147.27 28.4142 147.391 28.5951 147.458 28.7978C147.526 29.0006 147.538 29.2177 147.493 29.4267C147.429 29.6844 147.313 29.9261 147.151 30.1361C146.988 30.3462 146.784 30.5201 146.551 30.6466C146.017 30.9838 145.398 31.1596 144.766 31.1528H140.253ZM142.083 30H144.998C145.214 30.0057 145.426 29.9473 145.608 29.8323C145.684 29.7896 145.751 29.7315 145.803 29.6617C145.856 29.5918 145.893 29.5118 145.913 29.4267C145.93 29.3511 145.925 29.2723 145.898 29.1997C145.871 29.1272 145.823 29.064 145.761 29.018C145.611 28.8998 145.424 28.8402 145.233 28.8503H142.321L142.083 30Z" fill="#0A0F1D"/>
<path d="M192.141 9.41455H189.695L187.859 20.6314H190.305L194.26 15.023L192.141 9.41455Z" fill="#3CE5B5"/>
<path d="M199.198 9.41455H196.752L194.916 20.6314H197.362L201.317 15.023L199.198 9.41455Z" fill="#3CE5B5"/>
<path d="M29.9451 41.8389L28.9997 40.0396C29.2406 39.9237 29.4846 39.8078 29.7224 39.6797C32.0459 38.4569 34.1058 36.7883 35.7843 34.7692C37.4628 32.7502 38.7272 30.4203 39.5051 27.9125C40.2831 25.4048 40.5594 22.7683 40.3183 20.1538C40.0772 17.5392 39.3234 14.9978 38.1 12.6746C37.975 12.4337 37.8408 12.2019 37.7066 11.9701L39.5059 11.0216C37.5221 7.55977 34.6307 4.70526 31.1436 2.76608C30.8386 3.37603 30.5337 3.97682 30.2287 4.56846C26.9046 2.70158 23.1175 1.82038 19.3107 2.02806C19.3107 1.35102 19.3036 0.675002 19.2894 0C15.0932 0.210097 11.0453 1.61966 7.62626 4.06141C4.20716 6.50315 1.56037 9.87456 0 13.7755L1.93352 14.3855C0.815811 17.0928 0.307708 20.0129 0.445271 22.9386C0.582834 25.8643 1.36269 28.7239 2.72949 31.3144C2.89417 31.6194 3.06496 31.9243 3.24184 32.2293L1.43946 33.1778C2.54135 35.0491 3.91555 36.746 5.51692 38.2128C5.98658 37.7289 6.45115 37.239 6.91064 36.7429C10.5721 40.092 15.346 41.9633 20.308 41.9945C20.1738 42.6613 20.0366 43.3272 19.8963 43.992C23.3697 44.086 26.8151 43.3478 29.9451 41.8389ZM3.79689 30.735C2.0669 27.4494 1.35004 23.7247 1.73696 20.0317C2.12389 16.3387 3.59722 12.8435 5.97065 9.98785C8.34407 7.13225 11.511 5.04458 15.0709 3.98884C18.6308 2.93311 22.4239 2.95673 25.9704 4.05672C29.5169 5.15671 32.6575 7.28366 34.9952 10.1686C37.3329 13.0536 38.7626 16.5669 39.1035 20.2644C39.4444 23.9619 38.6812 27.6774 36.9104 30.9412C35.1396 34.2049 32.4408 36.8703 29.1552 38.6001C24.7482 40.9132 19.6038 41.3841 14.8501 39.9097C10.0964 38.4353 6.12146 35.1358 3.79689 30.735Z" fill="#3CE5B5"/>
<path d="M21.6896 19.2161L21.8024 19.2649C21.9059 19.3208 22.0168 19.3619 22.1318 19.3869C22.3117 19.4277 22.497 19.44 22.6807 19.4235C22.9205 19.4084 23.1563 19.3549 23.3791 19.2649C24.3794 18.9051 25.4651 17.8956 26.0689 16.6208C26.2211 16.2996 26.3239 15.9572 26.3739 15.6053C26.4114 15.2632 26.4043 14.9177 26.3526 14.5775C26.3119 14.2679 26.2467 13.9619 26.1574 13.6626C26.0808 13.3938 25.9902 13.1291 25.886 12.8697C25.7326 12.4812 25.5384 12.1101 25.3065 11.7627C25.1266 11.5248 25.0016 11.3967 25.0016 11.3967C24.9083 11.2763 24.7948 11.1731 24.6661 11.0917C24.2643 10.8158 23.7954 10.6535 23.309 10.6221C23.0808 10.6272 22.8568 10.6835 22.6533 10.7868C22.5198 10.824 22.3909 10.8762 22.269 10.9423C21.7109 11.2137 20.674 11.9456 20.0305 13.748C19.2803 15.9591 20.2471 18.5635 21.6896 19.2161Z" fill="#FBFBFB" fill-opacity="0.88"/>
<path d="M21.5949 10.7203C21.8122 10.5512 22.045 10.4031 22.2903 10.2781C22.2903 10.2506 22.2903 10.2232 22.2903 10.1957C22.2903 10.2232 22.2903 10.2506 22.2903 10.275C22.5316 10.1487 22.7942 10.068 23.0649 10.0371C23.7602 9.98529 23.7084 9.67727 23.1686 8.68611C23.0895 8.55012 22.9942 8.42417 22.8849 8.311C22.458 7.89864 21.9154 7.62629 21.3296 7.53027C21.3243 7.96992 21.3746 8.40847 21.479 8.83555C21.5888 9.45739 21.6277 10.0897 21.5949 10.7203Z" fill="#FBFBFB" fill-opacity="0.88"/>
<path d="M14.6203 19.9481C14.8526 20.102 15.1146 20.2053 15.3893 20.2516C15.6641 20.2978 15.9455 20.2858 16.2153 20.2165L16.6362 20.0518C16.8002 19.9864 16.9601 19.911 17.115 19.8262C17.3138 19.7211 17.5072 19.6061 17.6944 19.4815C17.9239 19.3324 18.1296 19.1494 18.3044 18.9387C18.5008 18.7017 18.6639 18.4391 18.7893 18.158C18.8411 18.0055 18.9051 17.853 18.9478 17.6914C18.9905 17.5297 19.0058 17.3498 19.0302 17.1729C19.0546 16.996 19.0149 16.8527 19.0088 16.688V16.566L18.9875 16.4257L18.9448 16.1665C18.8259 15.523 18.6947 14.8795 18.527 14.2848C18.3818 13.7419 18.1984 13.2099 17.978 12.6929C17.8951 12.4807 17.793 12.2766 17.6731 12.083C17.5966 11.9277 17.5046 11.7806 17.3986 11.6438L17.1211 11.29C16.9475 11.0545 16.7043 10.8795 16.4257 10.7899C15.032 10.4453 13.7786 10.5185 13.0711 12.4093C12.3635 14.3001 12.0037 17.1485 13.2022 18.6612C13.5843 19.1805 14.0665 19.6181 14.6203 19.9481Z" fill="#FBFBFB" fill-opacity="0.88"/>
<path d="M15.6235 9.9084C15.6479 9.90991 15.6724 9.90991 15.6967 9.9084C16.264 9.884 16.078 10.2957 16.7641 10.2439C17.2124 10.2134 16.9898 9.20087 16.7824 8.49029C16.6665 8.10603 16.5568 7.80715 16.5568 7.80715C16.5568 7.80715 16.6818 7.40459 15.8035 8.24631C15.3104 8.68629 14.9431 9.24936 14.7391 9.87791C15.0326 9.9129 15.3284 9.92309 15.6235 9.9084Z" fill="#FBFBFB" fill-opacity="0.88"/>
<path d="M10.6495 18.2217C10.7083 18.1953 10.7696 18.1749 10.8325 18.1607C11.0155 18.1607 11.3814 18.0723 11.3814 18.0723C11.1483 17.7725 10.9969 17.4173 10.9423 17.0415C10.9423 16.9744 10.9423 16.9042 10.9423 16.8341C10.9409 16.3306 10.9012 15.828 10.8233 15.3306L10.7898 15.3885C10.4011 16.0618 10.1289 16.796 9.98468 17.5599C9.82 18.4931 10.3384 18.3315 10.6495 18.2217Z" fill="#FBFBFB" fill-opacity="0.88"/>
<path d="M27.3742 16.435C27.3861 16.4541 27.4004 16.4715 27.4169 16.4869C27.5114 16.8101 27.792 16.7369 28.103 16.6668C28.2571 16.6206 28.4182 16.602 28.5788 16.6119C29.0302 16.6637 29.3748 16.4228 29.2619 15.7366C29.1363 15.3352 28.9156 14.97 28.6184 14.6723C28.4122 14.433 28.1922 14.206 27.9597 13.9922C27.8669 14.3772 27.8037 14.7687 27.7706 15.1633C27.7554 15.1818 27.7411 15.2011 27.7279 15.2212C27.7127 15.2639 27.6456 15.2914 27.6181 15.331C27.4998 15.4472 27.4064 15.5862 27.3437 15.7397C27.3082 15.8266 27.2846 15.9179 27.2735 16.0111C27.2683 16.0969 27.2745 16.1831 27.2918 16.2673C27.3105 16.3271 27.3383 16.3837 27.3742 16.435Z" fill="#FBFBFB" fill-opacity="0.88"/>
<path d="M28.9814 29.9878C28.9509 29.8476 28.896 29.7225 28.8563 29.5914C28.8167 29.4602 28.7679 29.3352 28.7252 29.2102C28.6754 29.0822 28.6109 28.9604 28.5331 28.8472C28.4224 28.6204 28.2739 28.4141 28.0939 28.2373L27.8591 27.9964C27.7645 27.914 27.6791 27.8622 27.5937 27.7981C27.3027 27.5882 26.9898 27.4103 26.6605 27.2675L25.8066 26.9015C25.7681 26.8554 25.7363 26.8041 25.7121 26.749C25.1088 25.5779 24.2929 24.5292 23.3059 23.6566C23.1937 23.5681 23.0694 23.4962 22.9368 23.4432C22.8335 23.3358 22.7246 23.234 22.6105 23.1382C21.8816 22.5618 19.2985 22.2446 19.2985 22.2446C18.7461 22.2761 18.208 22.4323 17.7246 22.7017C17.2413 22.9711 16.8253 23.3466 16.5081 23.8C16.3912 23.9591 16.2891 24.1286 16.2031 24.3062C15.5535 25.6542 15.4803 26.1361 15.4559 26.441C15.4389 26.7583 15.3129 27.0599 15.0991 27.2949C15.0858 27.3167 15.0705 27.3371 15.0533 27.3559C15.032 27.3803 15.0167 27.4078 14.9954 27.4291L14.7972 27.6975C13.9432 28.893 12.9673 30.8235 13.373 32.638C13.6779 33.9372 14.3367 35.0778 15.3248 35.5871C15.8616 35.8531 16.4754 35.9202 17.057 35.7762L17.2949 35.7213C17.4474 35.6816 17.6791 35.6389 17.9597 35.5475C18.2403 35.456 18.5697 35.3401 18.9814 35.2425C19.4198 35.139 19.8733 35.1152 20.3202 35.1723C20.5672 35.2211 20.8203 35.2516 21.0826 35.3157L21.8969 35.5414C22.4367 35.7091 23.01 35.9317 23.5895 36.1696C24.1884 36.4637 24.823 36.679 25.4772 36.81C26.2183 36.9229 26.9533 36.4319 27.3681 35.9226C27.8231 35.4017 28.1908 34.8105 28.4568 34.172C28.6007 33.8675 28.7151 33.5499 28.7984 33.2236L28.9356 32.7448C28.96 32.5831 28.9875 32.4215 29.0119 32.2629C29.0362 32.1043 29.0606 31.9579 29.0881 31.7872C29.1155 31.6164 29.0881 31.4822 29.0881 31.3145C29.0881 31.1467 29.0881 31.0095 29.0881 30.854C29.0881 30.6984 29.0454 30.549 29.0241 30.3995L28.9814 29.9878Z" fill="#FBFBFB" fill-opacity="0.88"/>
<path d="M30.8539 19.2955C30.7785 19.0833 30.6825 18.879 30.5673 18.6856C30.477 18.5335 30.3751 18.3887 30.2623 18.2525C30.1935 18.1654 30.117 18.0848 30.0336 18.0116L29.9512 17.9292C29.5832 17.5577 29.1091 17.3095 28.5941 17.2187C28.4792 17.2514 28.3565 17.2438 28.2464 17.1973C28.358 17.2426 28.4815 17.249 28.5972 17.2156C28.5128 17.196 28.4272 17.1817 28.341 17.1729C28.2863 17.1474 28.2274 17.1319 28.1672 17.1272C27.8622 17.0845 27.1364 17.1607 26.2489 18.3471C26.1108 18.4776 25.9805 18.6161 25.8585 18.7618C25.7518 18.893 25.6206 19.0424 25.4956 19.2132C25.3641 19.3953 25.2537 19.5918 25.1662 19.7987C25.0673 19.9965 24.9807 20.2002 24.907 20.4087C24.8399 20.6099 24.8003 20.8051 24.7545 20.9668C24.6661 21.2717 24.6142 21.5127 24.6142 21.5127C24.3093 21.9427 24.2605 22.8393 24.8735 23.8792C25.3218 24.6386 26.4807 26.014 27.5023 26.624C27.7994 26.8361 28.1641 26.9316 28.527 26.8923C28.527 26.8923 28.6917 26.8923 28.9753 26.8344C29.1484 26.812 29.3189 26.7732 29.4846 26.7185C29.5943 26.6949 29.6981 26.6492 29.7896 26.5843C29.9068 26.5313 30.0109 26.4532 30.0946 26.3556C30.2847 26.153 30.4411 25.9214 30.5581 25.6694C30.6831 25.3915 30.7851 25.1039 30.8631 24.8094C30.9332 24.5044 31.0247 24.1994 31.0735 23.8792C31.1223 23.559 31.1711 23.2327 31.2047 22.9033C31.3514 21.6895 31.2317 20.4583 30.8539 19.2955Z" fill="#FBFBFB" fill-opacity="0.88"/>
<path d="M13.8033 27.6275C13.9345 27.533 14.0747 27.4384 14.2059 27.3225C14.3289 27.1864 14.442 27.0417 14.5444 26.8895C14.6267 26.7307 14.7011 26.5678 14.767 26.4015C14.9988 25.7489 15.3526 25.0841 15.6606 24.3826C15.8254 24.0248 15.9364 23.6445 15.99 23.2542C16.0036 23.1479 16.0036 23.0403 15.99 22.934C15.9699 22.8253 15.9284 22.7216 15.868 22.629C15.753 22.4799 15.6298 22.3374 15.499 22.2021C15.011 21.6806 14.5566 21.1896 14.1388 20.8084C13.3123 20.0307 12.742 19.5366 12.742 19.5366C12.5617 19.348 12.3565 19.1848 12.1321 19.0517C11.6624 18.8748 10.717 19.2835 10.717 19.2835C10.717 19.2835 9.7716 19.314 9.63742 21.6135C9.50323 23.913 9.57642 25.9349 10.9122 27.103C11.0983 27.265 11.303 27.4042 11.5221 27.5177C11.5221 27.5177 11.6868 27.6062 11.9948 27.7434C12.1937 27.8051 12.3979 27.848 12.6048 27.8715C12.7207 27.8715 12.8488 27.8898 12.9829 27.8715L13.4038 27.7983L13.8033 27.6275Z" fill="#FBFBFB" fill-opacity="0.88"/>
</g>
<defs>
<clipPath id="clip0_672_16846">
<rect width="201.317" height="44" fill="white"/>
</clipPath>
</defs>
</svg>
