<?xml version="1.0" encoding="UTF-8"?>
<svg id="Capa_2" data-name="Capa 2" xmlns="http://www.w3.org/2000/svg" viewBox="0 0 167.4 36.57">
  <defs>
    <style>
      .cls-1 {
        fill: #fff;
      }

      .cls-2 {
        fill: #f5bc63;
      }

      .cls-3 {
        fill: #62b999;
      }
    </style>
  </defs>
  <g id="Design">
    <g>
      <g>
        <path class="cls-1" d="M43.04,17.12h-6.25l1.03-5.82h2.89l-.6,3.42h3.35c1.77,0,3.18-1.03,3.18-2.53,0-1.14-.98-1.98-2.39-1.98h-6.25l2.27-2.43h4.41c2.94,0,4.88,1.62,4.88,3.96,0,3-2.96,5.37-6.53,5.37Z"/>
        <path class="cls-1" d="M64.39,11.58c0,3.84-2.54,5.69-7.77,5.69-4.03,0-6.07-1.26-6.07-3.96,0-3.84,2.54-5.68,7.77-5.68,4.03,0,6.07,1.24,6.07,3.95Zm-2.9,.29c0-1.51-1.06-1.81-3.6-1.81-3.75,0-4.44,.57-4.44,2.97,0,1.51,1.07,1.81,3.59,1.81,3.75,0,4.45-.59,4.45-2.97Z"/>
        <path class="cls-1" d="M74.35,13.65c-.57-1.44-.81-2.13-1-2.8-.42,.67-.91,1.35-1.98,2.79l-1.97,2.65c-.43,.6-1,.99-1.76,.99s-1.31-.42-1.4-1.28l-.91-8.2h2.87l.31,3.25c.08,1.05,.15,1.81,.18,2.57,.42-.64,.88-1.37,1.76-2.58l1.67-2.34c.66-.91,1.13-1.05,1.83-1.05s1.16,.13,1.48,1.05l.84,2.36c.45,1.28,.67,1.94,.86,2.57,.27-.74,.6-1.53,1.07-2.57l1.46-3.25h2.83l-3.88,8.2c-.4,.86-1.1,1.28-1.84,1.28s-1.17-.38-1.41-.99l-1.03-2.64Z"/>
        <path class="cls-1" d="M89.96,16.77l-4.81-5.13-.96,5.48h-2.62l1.35-7.74c.21-1.24,1.03-1.74,1.9-1.74,.35,0,.7,.08,1.07,.5l4.81,5.13,.98-5.48h2.62l-1.38,7.73c-.22,1.24-1.05,1.76-1.88,1.76-.39,0-.68-.08-1.07-.5Z"/>
        <path class="cls-1" d="M103.99,11.51c2.02,0,3.1,.73,3.1,2.12,0,2.02-1.27,3.49-4.59,3.49h-8.69l2.27-2.4h7.07c.78,0,1.12-.25,1.12-.8,0-.38-.29-.56-.88-.56h-5.09c-2.12,0-3.07-.89-3.07-2.25,0-1.9,1.3-3.33,4.56-3.33h8.11l-2.29,2.43h-6.47c-.78,0-1.12,.21-1.12,.77,0,.38,.29,.53,.89,.53h5.08Z"/>
        <path class="cls-1" d="M117.76,13.65c-.57-1.44-.81-2.13-1-2.8-.42,.67-.91,1.35-1.98,2.79l-1.97,2.65c-.43,.6-1,.99-1.76,.99s-1.31-.42-1.39-1.28l-.91-8.2h2.87l.31,3.25c.08,1.05,.15,1.81,.18,2.57,.42-.64,.88-1.37,1.76-2.58l1.67-2.34c.66-.91,1.13-1.05,1.83-1.05s1.16,.13,1.48,1.05l.84,2.36c.45,1.28,.67,1.94,.86,2.57,.27-.74,.6-1.53,1.07-2.57l1.46-3.25h2.83l-3.88,8.2c-.4,.86-1.1,1.28-1.84,1.28s-1.17-.38-1.41-.99l-1.03-2.64Z"/>
        <path class="cls-1" d="M128.29,17.12h-2.89l1.66-9.33h2.87l-1.65,9.33Z"/>
        <path class="cls-1" d="M138.45,16.77l-4.81-5.13-.96,5.48h-2.62l1.35-7.74c.21-1.24,1.03-1.74,1.9-1.74,.35,0,.7,.08,1.07,.5l4.81,5.13,.98-5.48h2.62l-1.38,7.73c-.22,1.24-1.05,1.76-1.88,1.76-.39,0-.68-.08-1.07-.5Z"/>
        <path class="cls-1" d="M149.63,11.29h5.97l-1.03,5.83h-6.4c-2.92,0-4.85-1.76-4.85-4.12,0-3.07,2.93-5.22,6.5-5.22h6.68l-2.3,2.43h-4.81c-1.72,0-3.18,1.1-3.18,2.59,0,1.16,.95,1.91,2.39,1.91h3.54l.24-1.35h-4.84l2.11-2.08Z"/>
      </g>
      <g>
        <path class="cls-1" d="M40.99,28.18h-6.25l1.03-5.82h2.89l-.6,3.42h3.35c1.77,0,3.18-1.03,3.18-2.52,0-1.14-.98-1.98-2.39-1.98h-6.25l2.27-2.43h4.41c2.94,0,4.88,1.62,4.88,3.96,0,3-2.96,5.37-6.53,5.37Z"/>
        <path class="cls-1" d="M62.35,22.64c0,3.84-2.54,5.69-7.77,5.69-4.03,0-6.07-1.26-6.07-3.96,0-3.84,2.54-5.68,7.77-5.68,4.03,0,6.07,1.24,6.07,3.95Zm-2.9,.29c0-1.51-1.06-1.81-3.6-1.81-3.75,0-4.44,.57-4.44,2.97,0,1.51,1.07,1.81,3.59,1.81,3.75,0,4.45-.59,4.45-2.97Z"/>
        <path class="cls-1" d="M69.68,22.34h5.97l-1.03,5.83h-6.4c-2.92,0-4.86-1.76-4.86-4.12,0-3.07,2.93-5.22,6.5-5.22h6.68l-2.3,2.43h-4.81c-1.72,0-3.18,1.1-3.18,2.59,0,1.16,.95,1.91,2.39,1.91h3.54l.24-1.35h-4.84l2.11-2.08Z"/>
        <path class="cls-1" d="M85.92,22.57c2.02,0,3.1,.73,3.1,2.12,0,2.02-1.27,3.49-4.59,3.49h-8.69l2.27-2.4h7.07c.78,0,1.12-.25,1.12-.8,0-.38-.29-.56-.88-.56h-5.09c-2.12,0-3.07-.89-3.07-2.25,0-1.9,1.3-3.33,4.56-3.33h8.1l-2.29,2.43h-6.47c-.78,0-1.12,.21-1.12,.77,0,.38,.29,.53,.89,.53h5.08Z"/>
      </g>
      <polygon class="cls-2" points="159.77 7.83 157.73 7.83 156.21 17.16 158.24 17.16 161.53 12.49 159.77 7.83"/>
      <polygon class="cls-2" points="165.64 7.83 163.6 7.83 162.08 17.16 164.11 17.16 167.4 12.49 165.64 7.83"/>
      <path class="cls-3" d="M24.91,34.79l-.79-1.5c.2-.1,.4-.19,.6-.3,8.12-4.28,11.24-14.33,6.96-22.45-.1-.2-.22-.39-.33-.59l1.5-.79c-1.71-2.97-4.14-5.3-6.96-6.86-.25,.5-.51,1-.77,1.5-2.75-1.54-5.9-2.29-9.08-2.11,0-.56-.01-1.12-.02-1.69-2.58,.13-5.16,.8-7.59,2.08C4.45,4.18,1.56,7.56,0,11.46l1.61,.5C-.2,16.35-.12,21.49,2.27,26.03c.14,.26,.28,.51,.43,.76l-1.5,.79c.94,1.59,2.09,2.99,3.39,4.19,.39-.4,.77-.81,1.16-1.22,3.05,2.8,7.05,4.34,11.14,4.37-.11,.55-.23,1.11-.34,1.66,2.81,.08,5.67-.49,8.37-1.78ZM3.17,25.56C-.84,17.94,2.09,8.48,9.71,4.47,17.32,.46,26.78,3.4,30.79,11.01c4.01,7.62,1.08,17.07-6.54,21.08-7.62,4.01-17.07,1.08-21.08-6.54Z"/>
      <g>
        <path class="cls-2" d="M18.05,15.99s.03,.01,.09,.04c.06,.02,.15,.09,.27,.1,.12,.02,.28,.05,.46,.03,.18-.01,.38-.05,.58-.13,.83-.3,1.73-1.14,2.24-2.2,.12-.26,.23-.57,.26-.84,.03-.3,.02-.58-.02-.85-.03-.27-.1-.53-.16-.76-.07-.24-.14-.46-.23-.66-.15-.4-.35-.71-.48-.92-.15-.2-.24-.3-.24-.3-.1-.11-.19-.2-.28-.25-.43-.25-.77-.4-1.13-.39-.18,0-.35,.04-.55,.14,0,0-.13,.03-.32,.13-.46,.23-1.33,.84-1.86,2.33-.65,1.83,.15,4,1.36,4.55Z"/>
        <path class="cls-2" d="M17.97,8.91s.25-.2,.58-.37c0-.02,0-.04,0-.07,0,.02,0,.04,0,.07,.2-.1,.43-.18,.64-.2,.58-.04,.53-.3,.09-1.12-.07-.12-.15-.22-.24-.31,0,0,0,0,0,0-.51-.54-1.29-.65-1.29-.65,0,0-.02,.53,.12,1.09,.14,.56,.1,1.57,.1,1.57Z"/>
        <path class="cls-2" d="M12.17,16.59c.55,.3,1.03,.33,1.33,.22,0,0,.13-.05,.35-.14,.12-.04,.24-.12,.39-.19,.15-.07,.31-.18,.48-.29,.17-.1,.35-.28,.51-.45,.15-.19,.3-.4,.4-.65,.04-.13,.1-.25,.13-.39,.02-.14,.05-.28,.07-.43,0-.14-.01-.27-.02-.4v-.1s-.02-.12-.02-.12l-.03-.2c-.1-.54-.21-1.07-.35-1.56-.13-.49-.29-.95-.46-1.32-.07-.19-.16-.36-.25-.51-.08-.15-.15-.28-.23-.37-.15-.19-.23-.29-.23-.29-.17-.21-.37-.36-.58-.42-1.16-.29-2.2-.22-2.79,1.35-.59,1.57-.89,3.94,.11,5.2,.4,.52,.81,.85,1.18,1.06Z"/>
        <path class="cls-2" d="M13,8.24s0,0,0,0c.02,0,.04,0,.06,0,.47-.02,.32,.32,.89,.28,.37-.02,.19-.87,.02-1.46h0c-.09-.32-.19-.57-.19-.57,0,0,.1-.33-.63,.37-.73,.7-.89,1.36-.89,1.36,0,0,.3,.05,.74,.03Z"/>
        <path class="cls-2" d="M8.87,15.15s0,0,0,0c0,0,0,0,0,.01,.06-.03,.12-.04,.15-.05,.15,0,.46-.07,.46-.07,0,0-.31-.36-.37-.86,0,0,0,0,0,0,0-.06-.01-.11-.01-.17,.01-.58-.1-1.25-.1-1.25,0,0-.01,.02-.03,.05-.11,.19-.54,.96-.67,1.81-.13,.78,.31,.64,.56,.55Z"/>
        <path class="cls-2" d="M22.77,13.67s.04,.04,.04,.04c.08,.27,.31,.21,.57,.15,0,0,0,0,0,0,.13-.03,.27-.06,.4-.04,.37,.04,.66-.16,.57-.73-.04-.27-.29-.6-.54-.89,0,0,0,0,0,0-.27-.32-.55-.57-.55-.57,0,0-.18,.82-.16,.97,0,0-.02,.02-.04,.05-.01,.04-.07,.06-.09,.09-.07,.08-.17,.19-.23,.34-.03,.07-.05,.15-.06,.23-.02,.07,.01,.16,.01,.21,0,.06,.05,.11,.07,.14Z"/>
        <path class="cls-2" d="M24.11,24.93c-.03-.12-.07-.22-.11-.33-.04-.11-.07-.21-.11-.32-.03-.12-.11-.2-.16-.3-.11-.19-.22-.37-.36-.5-.07-.07-.13-.14-.2-.2-.08-.07-.15-.11-.22-.16-.28-.22-.56-.33-.78-.44-.45-.19-.71-.31-.71-.31-.03-.04-.05-.08-.08-.13-.33-.79-1.39-2.09-2-2.57-.08-.06-.19-.12-.31-.18-.1-.09-.19-.18-.27-.24-.6-.48-2.75-.74-2.75-.74,0,0-1.43,0-2.32,1.29-.09,.13-.17,.27-.25,.42-.54,1.12-.6,1.52-.62,1.77-.03,.22-.02,.33-.3,.71-.01,.02-.02,.03-.04,.05-.02,.02-.03,.04-.05,.06-.05,.07-.11,.14-.17,.22-.71,.99-1.53,2.6-1.18,4.11,.25,1.08,.8,2.04,1.62,2.45,.42,.21,.89,.28,1.44,.16,0,0,.07-.02,.2-.05,.13-.03,.32-.07,.55-.14,.24-.06,.52-.17,.85-.25,.33-.09,.71-.09,1.12-.06,.2,.04,.41,.06,.63,.12,.22,.06,.45,.12,.68,.19,.45,.14,.92,.32,1.41,.52,.49,.19,.97,.46,1.57,.53,.61,.09,1.23-.32,1.57-.74,.38-.44,.69-.93,.91-1.46,.12-.26,.22-.52,.28-.79l.11-.4c.02-.13,.04-.27,.06-.4,.02-.13,.04-.26,.06-.39,0-.13,0-.26,0-.39,0-.13,0-.26,0-.38-.02-.13-.03-.25-.05-.38-.02-.12-.04-.25-.05-.37Z"/>
        <path class="cls-2" d="M25.66,16.04c-.07-.2-.15-.37-.24-.51-.08-.15-.17-.27-.25-.36-.07-.1-.15-.15-.19-.2-.05-.04-.07-.07-.07-.07,0,0,0,0,0,0-.29-.29-.66-.5-1.13-.59-.11,.02-.21,.02-.29-.02,.08,.04,.18,.04,.29,.02-.07-.01-.14-.03-.21-.04,0,0-.05-.03-.14-.04h0s0,0,0,0c0,0,0,0,0,0h0c-.26-.03-.86,.03-1.59,1,0,0-.14,.13-.33,.34-.09,.11-.2,.23-.3,.37-.11,.13-.18,.32-.27,.49-.08,.18-.17,.35-.22,.52-.05,.17-.09,.33-.13,.47-.07,.26-.12,.45-.12,.45-.26,.36-.29,1.1,.22,1.97,.37,.63,1.34,1.78,2.19,2.28,0,0,0,0,0,0,.31,.18,.61,.28,.85,.22,0,0,.14-.01,.37-.05,.12-.02,.26-.04,.42-.1,.08-.02,.17-.06,.25-.11,.09-.05,.18-.1,.24-.19,.17-.15,.26-.36,.38-.57,.08-.22,.2-.47,.24-.71,.06-.24,.13-.51,.17-.77,.04-.27,.08-.54,.11-.81,.11-1.09,.02-2.22-.28-3Z"/>
        <path class="cls-2" d="M11.49,22.97c.11-.08,.23-.16,.34-.25,.09-.11,.21-.23,.28-.36,.06-.13,.12-.24,.19-.41,.19-.54,.49-1.1,.74-1.68,.12-.3,.24-.6,.27-.94,.01-.08,0-.17,0-.27-.02-.09-.06-.21-.1-.26-.11-.15-.21-.24-.31-.35-.41-.43-.78-.84-1.13-1.16-.69-.65-1.16-1.06-1.16-1.06-.24-.21-.42-.37-.51-.4-.39-.15-1.18,.19-1.18,.19,0,0-.79,.02-.9,1.94-.11,1.91-.05,3.59,1.06,4.57,.16,.14,.34,.26,.51,.35,0,0,.14,.07,.39,.19,.14,.03,.3,.1,.49,.1,.1,0,.2,.02,.32,.01,.11-.02,.23-.04,.35-.06,.11-.05,.23-.1,.36-.15Z"/>
      </g>
      <g>
        <path class="cls-3" d="M126.29,24.02h-2.35l-.18,.92h2.35c.18,0,.34-.05,.48-.13,.14-.09,.23-.2,.25-.32,.02-.13-.02-.24-.12-.32-.11-.09-.25-.13-.43-.13Z"/>
        <path class="cls-3" d="M129.35,18.84h-37.62l-1.69,9.33h37.62l38.63-3.19,1.11-6.14h-38.05Zm-28.95,7.02h-1.65l-1.18-1.47-1.77,1.47h-1.65l2.76-2.3-1.84-2.3h1.65l1.18,1.47,1.77-1.47h1.65l-2.75,2.3,1.84,2.3Zm8.85-3.22l-.06,.31h-1.28l.06-.31c.02-.13-.02-.23-.12-.32-.11-.09-.25-.13-.43-.13h-2.14c-.18,0-.34,.05-.48,.13-.14,.09-.23,.2-.25,.32l-.37,1.84c-.03,.13,.02,.23,.12,.32,.11,.09,.25,.13,.43,.13h2.14c.18,0,.34-.05,.48-.13,.14-.09,.23-.2,.25-.32l.06-.31h1.28l-.06,.31c-.08,.38-.33,.7-.76,.97-.43,.27-.91,.4-1.44,.4h-2.14c-.53,0-.96-.13-1.28-.4-.32-.27-.45-.59-.37-.97l.37-1.84c.08-.38,.33-.7,.76-.97,.43-.27,.91-.4,1.44-.4h2.14c.53,0,.96,.13,1.28,.4,.32,.27,.45,.59,.37,.97Zm5.77,3.22h-5.56l.92-4.59h1.28l-.73,3.67h4.28l-.18,.92Zm5.93-.4c-.43,.27-.91,.4-1.44,.4h-1.71c-.53,0-.96-.13-1.28-.4-.32-.27-.45-.59-.37-.97l.64-3.22h1.28l-.64,3.22c-.03,.13,.02,.23,.12,.32,.11,.09,.25,.13,.43,.13h1.71c.18,0,.34-.05,.48-.13,.14-.09,.23-.2,.25-.32l.64-3.22h1.28l-.64,3.22c-.08,.38-.33,.7-.76,.97Zm7.54-2.81c-.07,.35-.3,.66-.67,.92,.28,.26,.38,.57,.31,.92-.08,.38-.33,.7-.76,.97-.43,.27-.91,.4-1.44,.4h-3.63l.55-2.76h3.63c.18,0,.34-.05,.48-.13,.14-.09,.23-.2,.25-.32,.02-.13-.02-.23-.12-.32-.11-.09-.25-.13-.43-.13h-3.21l-.24-.92h3.63c.53,0,.96,.13,1.28,.4,.32,.27,.45,.59,.37,.97Z"/>
      </g>
    </g>
  </g>
</svg>