<?xml version="1.0" encoding="UTF-8"?>
<svg id="Capa_2" data-name="Capa 2" xmlns="http://www.w3.org/2000/svg" viewBox="0 0 28.69 31.22">
  <defs>
    <style>
      .cls-1 {
        fill: #fff;
      }
    </style>
  </defs>
  <g id="Design">
    <g>
      <path class="cls-1" d="M21.26,29.7l-.67-1.28c.17-.08,.34-.16,.51-.25,6.93-3.65,9.6-12.23,5.95-19.17-.09-.17-.18-.34-.28-.5l1.28-.67c-1.46-2.54-3.53-4.52-5.94-5.86-.22,.43-.43,.85-.65,1.28-2.35-1.32-5.04-1.95-7.75-1.8,0-.48,0-.96-.02-1.44-2.2,.11-4.41,.68-6.48,1.77C3.8,3.57,1.33,6.46,0,9.78l1.37,.43C-.17,13.96-.1,18.35,1.94,22.22c.12,.22,.24,.44,.36,.65l-1.28,.67c.8,1.36,1.78,2.55,2.89,3.57,.33-.35,.66-.69,.99-1.04,2.61,2.39,6.01,3.71,9.51,3.73-.1,.47-.19,.94-.29,1.42,2.4,.07,4.84-.41,7.14-1.52ZM2.7,21.81C-.72,15.31,1.79,7.24,8.29,3.82c6.5-3.42,14.57-.92,18,5.58,3.42,6.5,.92,14.57-5.58,18-6.5,3.42-14.57,.92-18-5.58Z"/>
      <g>
        <path class="cls-1" d="M15.41,13.65s.03,.01,.08,.04c.05,.02,.13,.07,.23,.09,.1,.02,.24,.04,.39,.03,.15,0,.32-.04,.5-.11,.71-.26,1.48-.97,1.91-1.88,.1-.22,.19-.48,.22-.72,.03-.26,.02-.5-.02-.73-.03-.23-.08-.45-.14-.65-.06-.2-.12-.39-.19-.56-.13-.34-.3-.61-.41-.79-.13-.17-.21-.26-.21-.26-.08-.1-.16-.17-.24-.22-.36-.21-.66-.34-.96-.33-.15,0-.3,.04-.47,.12,0,0-.11,.03-.27,.11-.4,.19-1.13,.71-1.59,1.99-.56,1.56,.13,3.41,1.16,3.88Z"/>
        <path class="cls-1" d="M15.34,7.61s.21-.17,.49-.31c0-.02,0-.04,0-.06,0,.02,0,.04,0,.06,.17-.09,.37-.16,.55-.17,.49-.04,.46-.26,.07-.96-.06-.1-.13-.19-.2-.27,0,0,0,0,0,0-.44-.46-1.1-.55-1.1-.55,0,0-.02,.45,.11,.93,.12,.47,.08,1.34,.08,1.34Z"/>
        <path class="cls-1" d="M10.39,14.16c.47,.26,.88,.28,1.13,.19,0,0,.11-.04,.3-.12,.1-.03,.2-.1,.33-.17,.13-.06,.26-.15,.41-.24,.15-.08,.3-.24,.43-.39,.13-.16,.25-.34,.34-.55,.04-.11,.08-.21,.11-.33,.02-.12,.04-.24,.06-.37,0-.12-.01-.23-.01-.34v-.09s-.02-.1-.02-.1l-.03-.17c-.08-.46-.18-.91-.3-1.33-.11-.42-.25-.81-.39-1.13-.06-.16-.14-.31-.21-.43-.07-.12-.13-.24-.19-.31-.13-.16-.2-.25-.2-.25-.15-.18-.32-.31-.49-.36-.99-.24-1.88-.19-2.38,1.15-.5,1.34-.76,3.36,.09,4.44,.35,.44,.7,.72,1.01,.9Z"/>
        <path class="cls-1" d="M11.1,7.03s0,0,0,0c.02,0,.04,0,.05,0,.4-.02,.27,.27,.76,.24,.32-.02,.16-.74,.01-1.25h0c-.08-.27-.16-.49-.16-.49,0,0,.09-.28-.53,.31-.62,.6-.76,1.16-.76,1.16,0,0,.25,.04,.63,.03Z"/>
        <path class="cls-1" d="M7.57,12.93s0,0,0,0c0,0,0,0,0,0,.05-.02,.1-.04,.13-.04,.13,0,.39-.06,.39-.06,0,0-.26-.31-.31-.73,0,0,0,0,0,0,0-.05-.01-.1,0-.15,0-.5-.08-1.07-.08-1.07,0,0,0,.01-.02,.04-.1,.17-.46,.82-.57,1.54-.11,.66,.26,.55,.48,.47Z"/>
        <path class="cls-1" d="M19.44,11.67s.03,.04,.03,.04c.07,.23,.27,.18,.49,.13,0,0,0,0,0,0,.11-.03,.23-.05,.34-.04,.32,.04,.56-.14,.49-.62-.04-.23-.25-.51-.46-.76,0,0,0,0,0,0-.23-.27-.47-.48-.47-.48,0,0-.16,.7-.13,.83,0,0-.01,.01-.03,.04-.01,.03-.06,.05-.08,.08-.06,.07-.15,.17-.19,.29-.02,.06-.04,.13-.05,.19-.01,.06,0,.13,.01,.18,0,.05,.05,.09,.06,.12Z"/>
        <path class="cls-1" d="M20.58,21.29c-.02-.1-.06-.19-.09-.28-.03-.09-.06-.18-.09-.27-.03-.1-.09-.17-.14-.26-.09-.16-.19-.32-.31-.42-.06-.06-.11-.12-.17-.17-.07-.06-.13-.09-.19-.14-.23-.18-.48-.28-.66-.38-.39-.17-.61-.26-.61-.26-.03-.03-.05-.07-.07-.11-.29-.67-1.19-1.79-1.71-2.19-.07-.06-.16-.11-.26-.15-.08-.08-.16-.15-.23-.2-.52-.41-2.35-.63-2.35-.63,0,0-1.22,0-1.98,1.1-.07,.11-.15,.23-.21,.36-.46,.96-.51,1.3-.53,1.51-.02,.19-.02,.28-.25,.61-.01,.01-.02,.03-.03,.04-.02,.02-.03,.03-.04,.05-.04,.06-.09,.12-.14,.19-.61,.85-1.3,2.22-1.01,3.51,.21,.92,.68,1.74,1.39,2.09,.35,.18,.76,.24,1.23,.13,0,0,.06-.01,.17-.04,.11-.03,.27-.06,.47-.12,.2-.05,.44-.15,.72-.21,.28-.08,.6-.08,.95-.05,.17,.03,.35,.05,.54,.1,.19,.05,.38,.1,.58,.16,.38,.12,.79,.28,1.2,.45,.42,.16,.83,.39,1.34,.45,.52,.08,1.05-.27,1.34-.63,.32-.38,.59-.8,.77-1.24,.1-.22,.19-.44,.24-.67l.1-.34c.02-.12,.04-.23,.06-.34,.02-.11,.04-.23,.05-.34,0-.11,0-.22,0-.34,0-.11,0-.22,0-.33-.01-.11-.03-.22-.04-.32-.02-.11-.03-.21-.05-.31Z"/>
        <path class="cls-1" d="M21.91,13.7c-.06-.17-.13-.32-.2-.44-.07-.13-.15-.23-.21-.31-.06-.08-.13-.13-.16-.17-.04-.04-.06-.06-.06-.06,0,0,0,0,0,0-.25-.25-.56-.43-.96-.5-.1,.02-.18,.02-.25-.02,.07,.04,.15,.03,.25,.01-.06-.01-.12-.03-.18-.03,0,0-.04-.02-.12-.03h0s0,0,0,0c0,0,0,0,0,0,0,0,0,0,0,0-.22-.03-.73,.02-1.36,.86,0,0-.12,.11-.28,.29-.07,.09-.17,.2-.26,.32-.1,.11-.16,.27-.23,.42-.07,.15-.14,.3-.18,.44-.05,.14-.08,.28-.11,.4-.06,.22-.1,.39-.1,.39-.22,.31-.25,.94,.18,1.68,.32,.54,1.14,1.52,1.87,1.95,0,0,0,0,0,0,.26,.16,.52,.24,.73,.19,0,0,.12-.01,.32-.04,.1-.02,.22-.03,.36-.08,.07-.02,.14-.05,.21-.1,.07-.04,.15-.09,.21-.16,.14-.13,.23-.31,.33-.49,.07-.19,.17-.4,.21-.61,.05-.21,.11-.43,.15-.66,.04-.23,.07-.46,.09-.69,.09-.93,.02-1.89-.24-2.56Z"/>
        <path class="cls-1" d="M9.81,19.61c.09-.07,.19-.13,.29-.22,.08-.1,.18-.2,.24-.31,.05-.11,.11-.21,.16-.35,.16-.46,.42-.94,.63-1.43,.1-.25,.21-.51,.23-.8,0-.07,0-.15,0-.23-.02-.08-.05-.18-.09-.22-.09-.13-.18-.2-.26-.3-.35-.37-.67-.72-.96-.99-.59-.55-.99-.9-.99-.9-.2-.18-.36-.32-.44-.34-.33-.13-1,.16-1,.16,0,0-.67,.02-.77,1.65s-.04,3.07,.9,3.9c.14,.12,.29,.22,.44,.29,0,0,.12,.06,.33,.16,.12,.02,.25,.08,.42,.09,.08,0,.17,.01,.27,0,.09-.02,.19-.03,.3-.05,.1-.04,.2-.08,.31-.13Z"/>
      </g>
    </g>
  </g>
</svg>