<svg width="25" height="24" viewBox="0 0 25 24" fill="none" xmlns="http://www.w3.org/2000/svg">
<path fill-rule="evenodd" clip-rule="evenodd" d="M12.6667 1.5C10.7457 1.5 8.85066 1.611 6.98666 1.827C5.48966 2.001 4.41666 3.287 4.41666 4.757V21.75C4.41669 21.8726 4.44676 21.9933 4.50426 22.1016C4.56176 22.2099 4.64492 22.3024 4.74646 22.3711C4.84801 22.4397 4.96484 22.4825 5.08673 22.4956C5.20863 22.5086 5.33186 22.4916 5.44566 22.446L8.91666 21.058L12.3887 22.446C12.5671 22.5172 12.7662 22.5172 12.9447 22.446L16.4167 21.058L19.8877 22.446C20.0015 22.4916 20.1247 22.5086 20.2466 22.4956C20.3685 22.4825 20.4853 22.4397 20.5869 22.3711C20.6884 22.3024 20.7716 22.2099 20.8291 22.1016C20.8866 21.9933 20.9166 21.8726 20.9167 21.75V4.757C20.9167 3.287 19.8437 2.001 18.3467 1.827C16.4612 1.60865 14.5647 1.49947 12.6667 1.5ZM16.1967 14.78C16.3291 14.6378 16.4013 14.4498 16.3978 14.2555C16.3944 14.0612 16.3157 13.8758 16.1783 13.7384C16.0409 13.601 15.8555 13.5223 15.6612 13.5188C15.4669 13.5154 15.2788 13.5875 15.1367 13.72L9.13666 13.72C9.06297 13.7887 9.00387 13.8715 8.96288 13.9635C8.92188 14.0555 8.89984 14.1548 8.89806 14.2555C8.89629 14.3562 8.91481 14.4562 8.95253 14.5496C8.99025 14.643 9.0464 14.7278 9.11762 14.799C9.18884 14.8703 9.27367 14.9264 9.36706 14.9641C9.46045 15.0018 9.56048 15.0204 9.66118 15.0186C9.76188 15.0168 9.8612 14.9948 9.95319 14.9538C10.0452 14.9128 10.128 14.8537 10.1967 14.78H16.1967ZM9.29166 9C9.29166 8.70163 9.41018 8.41549 9.62116 8.20451C9.83214 7.99353 10.1183 7.875 10.4167 7.875C10.715 7.875 11.0012 7.99353 11.2122 8.20451C11.4231 8.41549 11.5417 8.70163 11.5417 9C11.5417 9.29837 11.4231 9.58452 11.2122 9.7955C11.0012 10.0065 10.715 10.125 10.4167 10.125C10.1183 10.125 9.83214 10.0065 9.62116 9.7955C9.41018 9.58452 9.29166 9.29837 9.29166 9ZM14.9167 7.375C14.6183 7.375 14.3321 7.49353 14.1212 7.70451C13.9102 7.91548 13.7917 8.20163 13.7917 8.5C13.7917 8.79837 13.9102 9.08452 14.1212 9.2955C14.3321 9.50648 14.6183 9.625 14.9167 9.625C15.215 9.625 15.5012 9.50648 15.7122 9.2955C15.9231 9.08452 16.0417 8.79837 16.0417 8.5C16.0417 8.20163 15.9231 7.91548 15.7122 7.70451C15.5012 7.49353 15.215 7.375 14.9167 7.375Z" fill="#1B75BB"/>
</svg>
