<svg width="1000" height="1000" viewBox="0 0 1000 1000" fill="none" xmlns="http://www.w3.org/2000/svg">
<g clip-path="url(#clip0_381_1800)">
<path d="M37.94 1017C37.277 1017 36.6411 1017.26 36.1722 1017.73C35.7034 1018.2 35.44 1018.84 35.44 1019.5C35.44 1020.16 35.7034 1020.8 36.1722 1021.27C36.6411 1021.74 37.277 1022 37.94 1022H117.19C117.291 1022.34 117.411 1022.67 117.55 1023C118.005 1024.02 118.656 1024.94 119.467 1025.71C120.277 1026.48 121.231 1027.08 122.274 1027.48C123.317 1027.88 124.428 1028.07 125.545 1028.04C126.661 1028.01 127.76 1027.76 128.78 1027.3C132.106 1025.79 135.312 1024.04 138.37 1022.04H320.74C321.147 1023.39 321.89 1024.62 322.9 1025.6C324.506 1027.17 326.671 1028.05 328.921 1028.03C331.17 1028.01 333.32 1027.1 334.9 1025.5C335.968 1024.44 336.929 1023.28 337.77 1022.04H764.38C764.915 1023.77 765.991 1025.29 767.45 1026.37C768.909 1027.45 770.675 1028.04 772.49 1028.04C773.044 1028.04 773.597 1027.99 774.14 1027.88C775.647 1027.58 777.045 1026.88 778.186 1025.85C779.327 1024.83 780.168 1023.51 780.62 1022.04H822.62C823.283 1022.04 823.919 1021.78 824.388 1021.31C824.857 1020.84 825.12 1020.2 825.12 1019.54C825.12 1018.88 824.857 1018.24 824.388 1017.77C823.919 1017.3 823.283 1017.04 822.62 1017.04H780.62C773.44 982.71 739.7 941.3 707.05 901.25C685.94 875.34 666.05 850.88 653.64 829.25C641.55 808.09 639.73 784.1 648.23 757.95C650.894 749.874 654.333 742.074 658.5 734.66C687.826 724.844 715.293 710.166 739.75 691.24C787.57 653.9 815 604.75 815 556.31C815 518.8 810.93 477.2 780.78 453.1C771.42 445.62 760.08 440.21 746.49 436.78C745.227 393.188 733.391 350.555 712 312.55C723.48 303.03 753.93 281.81 786.86 292.55C788.358 293.037 789.963 293.097 791.493 292.725C793.024 292.353 794.422 291.563 795.529 290.443C796.637 289.322 797.412 287.916 797.767 286.381C798.122 284.846 798.043 283.243 797.54 281.75C796.83 279.64 779.59 229.85 732.92 211.62C702.77 199.85 667.92 204.1 629.14 224.24C599.218 204.913 565.215 192.804 529.813 188.866C494.41 184.928 458.577 189.271 425.14 201.55C415.62 195.81 405.46 189.34 395.33 182.29C343.48 146.21 315.43 111.65 314.22 82.3401C314.15 80.6355 313.568 78.9913 312.551 77.6216C311.534 76.2519 310.128 75.22 308.516 74.6601C306.905 74.1003 305.162 74.0384 303.515 74.4824C301.867 74.9265 300.392 75.8561 299.28 77.1501C297.9 78.7601 265.19 117.21 249.62 171.88C240.37 204.34 239.16 235.72 246.01 265.16C252.17 291.58 264.82 316.34 283.77 339.1C269.488 372.859 262.169 409.154 262.25 445.81C262.11 451.33 260.57 544.86 310 599.6C312.173 609.395 315.423 618.92 319.69 628C314.16 644.88 287.9 723.47 253.21 805C188.91 956.11 146.29 1000.83 121.86 1011.74C120.752 1012.23 119.762 1012.96 118.958 1013.86C118.154 1014.77 117.554 1015.84 117.2 1017H37.94ZM320.74 1017H145.36C181.36 988.85 222.78 919.93 268.88 811.55C297.6 744.04 320.57 678.55 330.95 647.92C343.52 666.7 360.85 684 382.49 699C430.27 732.18 493.65 750.45 560.95 750.45C586.397 750.468 611.747 747.327 636.42 741.1C634.97 744.51 633.57 748.16 632.29 752.03C622.17 782.7 624.46 812.28 638.92 837.59C651.97 860.43 672.35 885.43 693.92 911.89C724.1 948.89 755.27 987.15 763.21 1016.94H340.74C346.3 1006.23 355.6 981.62 370.82 920.68C381.82 876.43 390.82 833.92 390.89 833.49C391.353 831.284 390.92 828.983 389.687 827.096C388.454 825.208 386.522 823.888 384.315 823.425C382.108 822.962 379.808 823.395 377.921 824.628C376.033 825.861 374.713 827.794 374.25 830C374.16 830.42 365.25 872.66 354.32 916.59C334.17 997.23 325.1 1011.13 322.8 1013.47C321.833 1014.46 321.126 1015.67 320.74 1017V1017ZM291.74 322C259.28 279.68 250.54 231.09 265.74 177.07C274.74 145.21 290.34 118.76 300.94 103.23C310.74 132.78 339.15 164.02 385.73 196.39C392.51 201.1 399.26 205.54 405.81 209.68C411.96 213.57 417.94 217.19 423.62 220.52C449.03 235.4 468.36 244.4 469.53 244.94C470.543 245.409 471.639 245.674 472.754 245.719C473.87 245.764 474.983 245.59 476.031 245.205C477.079 244.82 478.041 244.232 478.862 243.476C479.682 242.719 480.346 241.808 480.815 240.795C481.284 239.782 481.549 238.686 481.594 237.571C481.639 236.456 481.465 235.342 481.08 234.294C480.695 233.246 480.107 232.284 479.351 231.464C478.594 230.643 477.683 229.979 476.67 229.51C476.44 229.4 463.41 223.34 444.85 213.03C464.171 207.343 484.209 204.46 504.35 204.47C546.94 204.524 588.535 217.35 623.76 241.29C652.333 260.638 676.31 286.022 694 315.65C715.354 351.457 727.496 392 729.34 433.65C724.84 433.09 720.13 432.72 715.22 432.5C699.46 431.81 681.52 432.83 661.08 435.57C652.252 429.247 642.372 424.541 631.9 421.67C613.59 416.6 584.63 414.79 550.66 434.91L547.97 436.5L547.65 437.43C484.86 424.49 393.39 407.01 342.49 451.9C315.69 475.55 303.59 513.75 306.49 565.53C277.76 514.7 279.2 446.89 279.23 446.1V445.86C279.175 414.135 285.035 382.677 296.51 353.1C300.443 357.1 304.577 361.017 308.91 364.85C309.745 365.591 310.718 366.16 311.773 366.524C312.828 366.889 313.945 367.042 315.059 366.975C316.173 366.909 317.264 366.623 318.268 366.135C319.271 365.647 320.169 364.965 320.91 364.13C321.651 363.295 322.22 362.322 322.584 361.267C322.949 360.212 323.102 359.095 323.035 357.981C322.968 356.867 322.683 355.777 322.195 354.773C321.706 353.769 321.025 352.871 320.19 352.13C314.317 346.923 308.863 341.59 303.83 336.13C299.503 331.497 295.487 326.767 291.78 321.94L291.74 322ZM323.9 570.81C319.99 521.29 330.03 485.58 353.74 464.67C399.49 424.32 489.11 442.67 548.65 455.02C549.563 457 550.658 458.892 551.92 460.67C560.14 472.41 576.85 483.24 601.62 492.9C603.251 512.581 598.329 532.248 587.62 548.84C587.01 549.775 586.591 550.822 586.386 551.919C586.181 553.017 586.194 554.144 586.425 555.237C586.657 556.329 587.101 557.365 587.733 558.285C588.366 559.206 589.173 559.992 590.11 560.6C591.481 561.504 593.088 561.984 594.73 561.98C596.147 561.982 597.543 561.63 598.79 560.956C600.037 560.282 601.095 559.307 601.87 558.12C614.526 538.645 620.429 515.55 618.67 492.39C633.31 487.91 661.52 476.26 666.44 452.02C679.405 450.269 692.468 449.344 705.55 449.25C734.7 449.25 755.84 454.95 770.14 466.37C789.65 482 798 508.87 798 556.31C798 599.47 773 643.74 729.36 677.75C710.007 692.754 688.603 704.904 665.8 713.83C659.7 716.237 653.493 718.43 647.18 720.41C619.272 729.11 590.203 733.514 560.97 733.47C457.22 733.47 368.83 687.68 336.78 624.12C336.612 623.669 336.397 623.237 336.14 622.83V622.83C330.936 612.322 327.319 601.1 325.41 589.53C324.434 583.58 323.942 577.56 323.94 571.53L323.9 570.81ZM565.84 450.92C564.979 449.728 564.273 448.431 563.74 447.06C566.9 445.36 570 443.877 573.04 442.61C598.37 431.91 619.37 434.91 633.49 440.07C639.253 442.159 644.732 444.961 649.8 448.41C649.322 450.691 648.464 452.875 647.26 454.87C639.07 468.65 616.12 475.57 608.84 477.46C592.77 471.29 582.32 465.46 575.52 460.36C571.815 457.744 568.548 454.558 565.84 450.92V450.92ZM675.84 263.32C666.349 253.146 656.027 243.78 644.98 235.32C675.84 220.98 703.24 218.32 726.58 227.32C751.58 237.01 766.86 258.32 774.76 272.74C742.76 269.91 715.83 287.49 703.01 297.81C694.96 285.566 685.884 274.027 675.88 263.32H675.84Z" fill="black"/>
<path d="M145.36 1017H320.74C321.136 1015.7 321.843 1014.51 322.8 1013.54C325.1 1011.2 334.17 997.3 354.32 916.66C365.32 872.73 374.16 830.49 374.25 830.07C374.711 827.863 376.031 825.93 377.917 824.696C379.804 823.462 382.103 823.028 384.31 823.49C386.517 823.951 388.449 825.271 389.683 827.157C390.917 829.044 391.351 831.343 390.89 833.55C390.8 833.98 381.89 876.49 370.82 920.74C355.6 981.68 346.3 1006.29 340.74 1017H763.2C755.26 987.21 724.09 949 693.91 911.95C672.35 885.49 651.97 860.49 638.91 837.65C624.45 812.34 622.16 782.76 632.28 752.09C633.56 748.22 634.96 744.57 636.41 741.16C611.737 747.387 586.387 750.527 560.94 750.51C493.64 750.51 430.26 732.24 382.48 699.06C360.84 684.06 343.48 666.74 330.94 647.92C320.56 678.56 297.59 744.04 268.87 811.55C222.78 919.89 181.32 988.81 145.36 1017Z" fill="#454D57"/>
<path d="M265.82 177C250.58 231 259.32 279.61 291.82 321.93C295.533 326.756 299.553 331.506 303.88 336.18C308.907 341.613 314.36 346.946 320.24 352.18C321.075 352.92 321.756 353.818 322.245 354.822C322.733 355.826 323.018 356.916 323.085 358.031C323.152 359.145 322.999 360.261 322.634 361.317C322.27 362.372 321.701 363.345 320.96 364.18C320.219 365.015 319.321 365.696 318.318 366.184C317.314 366.672 316.223 366.958 315.109 367.025C313.995 367.092 312.878 366.939 311.823 366.574C310.768 366.209 309.795 365.64 308.96 364.9C304.62 361.046 300.487 357.13 296.56 353.15C285.085 382.727 279.225 414.184 279.28 445.91V446.15C279.28 446.94 277.81 514.75 306.54 565.58C303.63 513.8 315.73 475.58 342.54 451.95C393.44 407.06 484.91 424.54 547.7 437.48L548.02 436.55L550.71 434.96C584.71 414.84 613.64 416.65 631.95 421.72C642.422 424.59 652.302 429.297 661.13 435.62C681.57 432.88 699.51 431.86 715.27 432.55C720.18 432.77 724.89 433.14 729.39 433.7C727.546 392.05 715.404 351.507 694.05 315.7C676.39 286.058 652.44 260.654 623.89 241.28C588.665 217.339 547.07 204.514 504.48 204.46C484.339 204.45 464.301 207.333 444.98 213.02C463.54 223.33 476.57 229.39 476.8 229.5C478.846 230.447 480.432 232.167 481.21 234.284C481.987 236.4 481.892 238.739 480.945 240.785C479.998 242.831 478.277 244.417 476.161 245.194C474.045 245.972 471.706 245.877 469.66 244.93C468.49 244.39 449.16 235.39 423.75 220.51C418.07 217.18 412.09 213.51 405.94 209.67C399.39 205.53 392.64 201.09 385.86 196.38C339.28 164.01 310.86 132.77 301.07 103.22C290.42 118.7 274.8 145.15 265.82 177ZM307.82 294.77C291.21 267.34 290.56 241.3 294.11 222.06C297.457 204.169 304.814 187.269 315.63 172.63C316.171 171.954 316.879 171.429 317.683 171.109C318.488 170.789 319.362 170.683 320.22 170.802C321.078 170.921 321.891 171.26 322.578 171.788C323.265 172.315 323.803 173.012 324.14 173.81C332.85 194.4 355.34 212.72 376.5 226.26C382.18 229.91 387.77 233.2 392.97 236.09C402.2 241.285 411.686 246.015 421.39 250.26C422.264 250.614 423.02 251.207 423.57 251.972C424.121 252.737 424.445 253.643 424.503 254.583C424.562 255.524 424.353 256.463 423.901 257.29C423.45 258.117 422.773 258.8 421.95 259.26C383.78 281.1 364.95 302.55 345.05 325.26L343.11 327.47C342.675 327.965 342.146 328.369 341.554 328.659C340.962 328.949 340.318 329.119 339.66 329.16H339.35C338.126 329.16 336.945 328.712 336.03 327.9C329.711 322.333 323.839 316.277 318.47 309.79C314.582 305.044 311.037 300.028 307.86 294.78L307.82 294.77ZM509.58 404.05V350C509.58 344.961 511.582 340.128 515.145 336.565C518.708 333.002 523.541 331 528.58 331C533.619 331 538.452 333.002 542.015 336.565C545.578 340.128 547.58 344.961 547.58 350V404C547.58 409.039 545.578 413.872 542.015 417.435C538.452 420.998 533.619 423 528.58 423C523.541 423 518.708 420.998 515.145 417.435C511.582 413.872 509.58 409.039 509.58 404V404.05ZM646.3 404.05V350C646.3 344.961 648.302 340.128 651.865 336.565C655.428 333.002 660.261 331 665.3 331C670.339 331 675.172 333.002 678.735 336.565C682.298 340.128 684.3 344.961 684.3 350V404C684.3 409.039 682.298 413.872 678.735 417.435C675.172 420.998 670.339 423 665.3 423C660.261 423 655.428 420.998 651.865 417.435C648.302 413.872 646.3 409.039 646.3 404V404.05Z" fill="#454D57"/>
<path d="M294.15 222.07C290.6 241.31 291.25 267.35 307.86 294.78C311.05 300.026 314.609 305.039 318.51 309.78C323.88 316.268 329.751 322.323 336.07 327.89C336.985 328.702 338.166 329.151 339.39 329.15H339.7C340.358 329.11 341.002 328.94 341.594 328.65C342.186 328.36 342.715 327.955 343.15 327.46L345.09 325.25C365 302.54 383.82 281.09 421.99 259.25C422.813 258.791 423.49 258.108 423.941 257.28C424.393 256.453 424.602 255.515 424.543 254.574C424.485 253.633 424.161 252.728 423.61 251.963C423.06 251.198 422.304 250.604 421.43 250.25C411.723 246.012 402.234 241.289 393 236.1C387.8 233.21 382.21 229.92 376.53 226.27C355.37 212.73 332.88 194.41 324.17 173.82C323.833 173.022 323.295 172.325 322.608 171.798C321.921 171.271 321.108 170.931 320.25 170.812C319.392 170.693 318.518 170.799 317.714 171.119C316.909 171.44 316.201 171.964 315.66 172.64C304.848 187.28 297.494 204.18 294.15 222.07ZM314.15 285.92C303.449 267.137 299.837 245.139 303.97 223.92C306.585 210.354 311.644 197.377 318.9 185.62C329.57 204.06 348.9 220.13 367.62 232.53C373.02 236.11 378.37 239.38 383.45 242.31C393.45 248.09 402.45 252.57 408.66 255.52C375.42 275.94 357.46 295.97 338.98 317.03C333.702 312.099 328.798 306.78 324.31 301.12C320.524 296.334 317.13 291.251 314.16 285.92H314.15Z" fill="black"/>
<path d="M304 223.89C299.867 245.109 303.479 267.107 314.18 285.89C317.155 291.211 320.552 296.284 324.34 301.06C328.824 306.73 333.724 312.058 339 317C357.48 295.94 375.44 275.91 408.68 255.49C402.44 252.49 393.48 248.06 383.47 242.28C378.39 239.35 373.04 236.08 367.64 232.5C348.91 220.1 329.64 204.03 318.92 185.59C311.667 197.347 306.612 210.325 304 223.89V223.89Z" fill="#BFB891"/>
<path d="M353.74 464.67C330 485.58 320 521.29 323.9 570.81V571.48C323.902 577.51 324.394 583.53 325.37 589.48C327.279 601.05 330.896 612.272 336.1 622.78V622.78C336.357 623.187 336.572 623.619 336.74 624.07C368.74 687.63 457.18 733.42 560.93 733.42C590.163 733.464 619.232 729.06 647.14 720.36C653.447 718.36 659.653 716.167 665.76 713.78C688.563 704.854 709.967 692.703 729.32 677.7C773 643.74 798 599.47 798 556.31C798 508.87 789.67 481.97 770.17 466.37C755.87 454.95 734.73 449.25 705.58 449.25C692.492 449.336 679.422 450.254 666.45 452C661.53 476.24 633.32 487.89 618.68 492.37C620.439 515.529 614.536 538.625 601.88 558.1C601.105 559.287 600.047 560.262 598.8 560.936C597.553 561.61 596.157 561.962 594.74 561.96C593.098 561.964 591.491 561.484 590.12 560.58C589.183 559.972 588.376 559.186 587.743 558.265C587.111 557.345 586.667 556.309 586.435 555.217C586.204 554.124 586.191 552.997 586.396 551.899C586.601 550.802 587.02 549.755 587.63 548.82C598.339 532.228 603.261 512.56 601.63 492.88C576.86 483.22 560.15 472.39 551.93 460.65C550.668 458.872 549.573 456.98 548.66 455C489.11 442.71 399.49 424.32 353.74 464.67Z" fill="#BFB891"/>
<path d="M509.58 350V404C509.58 409.039 511.582 413.872 515.145 417.435C518.708 420.998 523.541 423 528.58 423C533.619 423 538.452 420.998 542.015 417.435C545.578 413.872 547.58 409.039 547.58 404V350C547.58 344.961 545.578 340.128 542.015 336.565C538.452 333.002 533.619 331 528.58 331C523.541 331 518.708 333.002 515.145 336.565C511.582 340.128 509.58 344.961 509.58 350V350Z" fill="black"/>
<path d="M563.74 447.06C564.273 448.43 564.979 449.728 565.84 450.92C568.548 454.558 571.815 457.744 575.52 460.36C582.32 465.42 592.77 471.29 608.84 477.46C616.12 475.57 639.07 468.65 647.26 454.87C648.464 452.875 649.322 450.691 649.8 448.41C644.732 444.961 639.253 442.159 633.49 440.07C619.37 434.91 598.37 431.91 573.04 442.61C570 443.883 566.9 445.367 563.74 447.06Z" fill="#321F42"/>
<path d="M646.3 350V404C646.3 409.039 648.302 413.872 651.865 417.435C655.428 420.998 660.261 423 665.3 423C670.339 423 675.172 420.998 678.735 417.435C682.298 413.872 684.3 409.039 684.3 404V350C684.3 344.961 682.298 340.128 678.735 336.565C675.172 333.002 670.339 331 665.3 331C660.261 331 655.428 333.002 651.865 336.565C648.302 340.128 646.3 344.961 646.3 350V350Z" fill="black"/>
<path d="M645 235.33C656.047 243.789 666.369 253.155 675.86 263.33C685.869 274.049 694.949 285.601 703 297.86C715.82 287.54 742.76 269.96 774.75 272.79C766.85 258.41 751.53 237.06 726.57 227.37C703.28 218.31 675.88 221 645 235.33Z" fill="white"/>
<path d="M630.79 818L629.47 820.18L620.8 848C623.973 855.007 626.973 861.65 629.8 867.93C631.29 855.36 632.8 841.47 634.11 827.15C632.843 824.161 631.734 821.106 630.79 818V818Z" fill="white"/>
<path d="M548.53 825.27C542.42 823.01 523.25 815.78 497.53 804.54C523.27 831.05 549.81 856.31 575.43 877.36L577.43 851.1C570.51 847.07 554.12 836.63 548.53 825.27Z" fill="white"/>
<path d="M117.55 1016.92H145.71C181.71 988.77 223.13 919.85 269.24 811.47C284.12 776.47 297.46 742.06 308.3 712.74C304.01 705.89 300.24 699.39 297.24 693.51C285.71 725.23 270.66 764.71 253.56 804.92C189.26 956.02 146.64 1000.75 122.21 1011.65C121.102 1012.14 120.113 1012.87 119.309 1013.78C118.505 1014.69 117.906 1015.76 117.55 1016.92V1016.92Z" fill="black"/>
<path d="M145.71 1016.92H321.1C321.494 1015.62 322.201 1014.43 323.16 1013.46C325.46 1011.12 334.53 997.22 354.68 916.58C365.68 872.65 374.52 830.41 374.61 829.99C375.071 827.784 376.391 825.851 378.277 824.617C380.164 823.383 382.463 822.949 384.67 823.41C386.877 823.872 388.81 825.191 390.044 827.077C391.277 828.964 391.711 831.264 391.25 833.47C391.16 833.9 382.25 876.41 371.18 920.66C355.96 981.6 346.66 1006.21 341.1 1016.92H629.93C629.932 1016.76 629.949 1016.6 629.98 1016.45C631.51 1007.45 631.76 995.74 631.09 982.36L577.53 983.36V983.83C577.436 985.091 576.869 986.27 575.941 987.129C575.013 987.988 573.794 988.464 572.53 988.46H572.15C570.828 988.361 569.6 987.74 568.735 986.735C567.871 985.73 567.441 984.422 567.54 983.1L572.88 911.7L427.5 853.03C425.927 852.399 424.58 851.311 423.632 849.906C422.684 848.501 422.178 846.845 422.18 845.15V805.53L396.52 818.63C394.806 819.505 392.847 819.773 390.961 819.39C389.076 819.006 387.376 817.995 386.14 816.52C379.51 808.6 334.36 754.29 308.32 712.74C297.48 742.06 284.14 776.49 269.26 811.47C223.13 919.85 181.68 988.77 145.71 1016.92ZM408.13 955.21V926.87H553V955.21H408.13Z" fill="#10143A"/>
<path d="M293 676.18L321 605.6L320.83 605.02C319.624 605.403 318.518 606.05 317.594 606.915C316.67 607.78 315.951 608.841 315.49 610.02L291 671.87C290.416 673.34 290.256 674.944 290.54 676.5L293 676.18Z" fill="black"/>
<path d="M293 676.18L290.48 676.5C290.503 676.669 290.536 676.836 290.58 677C292.178 682.73 294.402 688.267 297.21 693.51C298.41 690.224 299.567 687.023 300.68 683.91C298.84 682.11 297.033 680.307 295.26 678.5L293 676.18Z" fill="black"/>
<path d="M321 605.6L293 676.18L295.26 678.5C297.027 680.307 298.833 682.11 300.68 683.91L301.29 682.23C300.29 679.89 299.471 677.476 298.84 675.01L323.41 613.14C323.65 613.3 327.35 615.7 333.77 619.81C336.77 621.71 340.32 623.99 344.4 626.57C340.74 621.85 337.72 617.93 335.4 614.92C329.64 611.24 326.34 609.09 326.1 608.92L321 605.6Z" fill="black"/>
<path d="M300.71 683.91C299.603 687.023 298.447 690.224 297.24 693.51C300.24 699.39 304.01 705.89 308.3 712.74C309.58 709.28 310.823 705.897 312.03 702.59C308.756 697.268 305.753 691.784 303.03 686.16L300.71 683.91Z" fill="black"/>
<path d="M301.32 682.23L300.71 683.91L303 686.16C302.42 684.8 301.84 683.49 301.32 682.23Z" fill="black"/>
<path d="M302.57 678.73C301.32 677.49 300.08 676.25 298.87 675.01C299.501 677.476 300.32 679.889 301.32 682.23L302.57 678.73Z" fill="black"/>
<path d="M302.57 678.73L301.32 682.23C301.84 683.49 302.42 684.8 303.05 686.16C306.677 689.6 310.427 692.997 314.3 696.35C314.8 694.96 315.3 693.59 315.78 692.24C315.32 691.43 314.87 690.63 314.45 689.84C310.343 686.193 306.383 682.49 302.57 678.73Z" fill="black"/>
<path d="M304.36 673.69L302.57 678.69C306.37 682.443 310.33 686.147 314.45 689.8C312.242 685.869 310.294 681.797 308.62 677.61C307.287 676.343 305.987 675.067 304.72 673.78L304.36 673.69Z" fill="black"/>
<path d="M325.83 620.64L304.72 673.82C306 675.1 307.3 676.377 308.62 677.65C308.333 676.89 308.073 676.16 307.84 675.46L325.78 630.25C328.06 633.25 330.78 636.67 333.78 640.56C335.39 635.74 336.48 632.41 336.99 630.84C335.29 628.647 333.74 626.647 332.34 624.84L325.83 620.64Z" fill="black"/>
<path d="M325.78 630.25L307.84 675.46C308.073 676.127 308.333 676.857 308.62 677.65C311.627 680.537 314.73 683.4 317.93 686.24C325.06 666.24 330.49 650.35 333.76 640.56C330.73 636.67 328.06 633.21 325.78 630.25Z" fill="#10143A"/>
<path d="M303 686.16C305.723 691.784 308.726 697.268 312 702.59C312.767 700.477 313.523 698.397 314.27 696.35C310.417 693.003 306.66 689.607 303 686.16Z" fill="black"/>
<path d="M312 702.59C310.793 705.923 309.55 709.306 308.27 712.74C334.27 754.29 379.46 808.6 386.09 816.52C387.326 817.994 389.026 819.006 390.911 819.389C392.797 819.773 394.756 819.505 396.47 818.63L422.13 805.53V845.19C422.128 846.885 422.634 848.541 423.582 849.945C424.53 851.35 425.877 852.438 427.45 853.07L572.86 911.74L573.52 902.84L430.66 845.19V791.64L392.66 811.06C392.66 811.06 338.22 746.09 312 702.59Z" fill="black"/>
<path d="M314.3 696.35C313.56 698.397 312.803 700.477 312.03 702.59C338.22 746.09 392.64 811.06 392.64 811.06L430.64 791.64V845.19L573.52 902.84L574.66 887.71C542.38 861.71 508.66 828.97 476.72 795.21C470 792.11 463.01 788.81 455.84 785.31C495.46 828.383 531.33 863.15 563.45 889.61L439.16 839.45V791.64C439.158 790.186 438.782 788.756 438.07 787.488C437.358 786.219 436.333 785.155 435.092 784.396C433.851 783.636 432.437 783.208 430.983 783.151C429.53 783.094 428.086 783.41 426.79 784.07L394.79 800.4C376.14 777.79 342.14 734.71 322.24 703.07C319.56 700.85 316.913 698.61 314.3 696.35Z" fill="black"/>
<path d="M308.62 677.65C310.294 681.837 312.242 685.909 314.45 689.84L316.11 691.31C316.73 689.59 317.337 687.9 317.93 686.24C314.737 683.413 311.633 680.55 308.62 677.65Z" fill="#10143A"/>
<path d="M314.45 689.84C314.87 690.63 315.32 691.43 315.78 692.24L316.11 691.31L314.45 689.84Z" fill="#10143A"/>
<path d="M315.78 692.24C315.29 693.59 314.78 694.96 314.3 696.35C316.907 698.61 319.573 700.85 322.3 703.07C319.89 699.28 317.71 695.65 315.78 692.24Z" fill="black"/>
<path d="M316.11 691.31L315.78 692.24C317.71 695.65 319.89 699.24 322.28 703.07C363.68 737.02 415.28 765.49 454.73 784.77L455.84 785.31C452.747 781.977 449.643 778.583 446.53 775.13C402.91 753.18 353.86 724.46 316.11 691.31Z" fill="#10143A"/>
<path d="M317.93 686.24C317.343 687.9 316.737 689.59 316.11 691.31C353.86 724.46 402.91 753.18 446.53 775.13C443.37 771.637 440.187 768.1 436.98 764.52C396.16 743.27 352.06 716.53 317.93 686.24Z" fill="#10143A"/>
<path d="M321.1 1016.92H341.1C346.66 1006.21 355.96 981.6 371.18 920.66C382.23 876.41 391.18 833.9 391.25 833.47C391.672 831.279 391.215 829.01 389.978 827.152C388.741 825.295 386.823 823.999 384.638 823.543C382.454 823.088 380.178 823.51 378.302 824.718C376.425 825.926 375.099 827.823 374.61 830C374.52 830.42 365.61 872.66 354.68 916.59C334.53 997.23 325.46 1011.13 323.16 1013.47C322.203 1014.44 321.496 1015.62 321.1 1016.92V1016.92Z" fill="black"/>
<path d="M321 605.6L326.12 608.94C326.36 609.1 329.66 611.25 335.42 614.94C332.18 610.71 330.42 608.29 330.2 608.06C329.295 606.848 328.083 605.899 326.689 605.31C325.296 604.721 323.77 604.514 322.27 604.71C321.781 604.77 321.299 604.877 320.83 605.03L321 605.6Z" fill="black"/>
<path d="M323.45 613.14L298.87 675C300.08 676.24 301.32 677.48 302.57 678.72L304.36 673.72C314.83 644.14 321 625 321.13 624.6C321.597 623.124 322.462 621.806 323.63 620.79C324.798 619.773 326.224 619.099 327.75 618.84C325.06 615.3 323.57 613.31 323.45 613.14Z" fill="black"/>
<path d="M327.75 618.84C326.224 619.099 324.798 619.773 323.63 620.789C322.462 621.805 321.597 623.124 321.13 624.6C321 625.01 314.83 644.14 304.36 673.69L304.72 673.82L325.83 620.64L332.32 624.82L327.75 618.84Z" fill="black"/>
<path d="M327.75 618.84L332.32 624.84L337.65 628.24C337.85 626.633 337.583 625.002 336.883 623.541C336.183 622.08 335.078 620.851 333.7 620C333.11 619.636 332.479 619.344 331.82 619.13C330.509 618.693 329.109 618.593 327.75 618.84V618.84Z" fill="black"/>
<path d="M331.82 619.11C332.479 619.324 333.11 619.616 333.7 619.98L333.81 619.82C327.39 615.71 323.69 613.31 323.45 613.15C323.57 613.32 325.06 615.31 327.75 618.85C329.107 618.593 330.507 618.682 331.82 619.11V619.11Z" fill="black"/>
<path d="M333.76 640.56C330.49 650.35 325.06 666.29 317.93 686.24C352.06 716.53 396.16 743.24 436.98 764.52C432.727 759.76 428.437 754.913 424.11 749.98C385.44 705.9 352.62 664.77 333.76 640.56Z" fill="#10143A"/>
<path d="M333.81 619.82L333.7 619.98C335.078 620.831 336.183 622.06 336.883 623.521C337.583 624.981 337.85 626.612 337.65 628.22C342.2 631.11 347.55 634.5 353.58 638.22C350.2 633.92 347.15 630.01 344.44 626.53C340.36 624 336.79 621.72 333.81 619.82Z" fill="black"/>
<path d="M332.32 624.82C333.72 626.64 335.27 628.64 336.97 630.82C337.18 630.18 337.29 629.82 337.31 629.82C337.476 629.306 337.59 628.776 337.65 628.24L332.32 624.82Z" fill="black"/>
<path d="M337 630.84C336.49 632.41 335.4 635.74 333.79 640.56C352.62 664.77 385.44 705.9 424.11 750C428.443 754.94 432.733 759.786 436.98 764.54C444.15 768.28 451.22 771.84 458.12 775.22C404.77 716.92 358.79 659 337 630.84Z" fill="black"/>
<path d="M337.31 629.8C337.31 629.85 337.18 630.2 336.97 630.8C358.79 659 404.77 716.88 458.12 775.16C465.32 778.69 472.33 782.03 479.06 785.16C427.11 729.77 380.29 672.16 353.58 638.24C347.58 634.47 342.2 631.08 337.65 628.24C337.588 628.77 337.474 629.293 337.31 629.8Z" fill="black"/>
<path d="M322.28 703.07C342.18 734.71 376.18 777.79 394.83 800.4L426.83 784.07C428.126 783.41 429.57 783.094 431.023 783.151C432.477 783.208 433.891 783.636 435.132 784.395C436.373 785.155 437.398 786.219 438.11 787.487C438.822 788.756 439.198 790.185 439.2 791.64V839.45L563.45 889.61C531.45 863.223 495.58 828.456 455.84 785.31L454.73 784.77C415.29 765.49 363.68 737 322.28 703.07Z" fill="#10143A"/>
<path d="M335.47 614.93C337.76 617.93 340.78 621.86 344.47 626.58C393.56 657.65 517.19 733.71 590.32 759.27L596.32 756.02C518.23 730.24 373.44 639.23 335.47 614.93Z" fill="black"/>
<path d="M344.44 626.58C347.15 630.06 350.2 633.97 353.58 638.27C408.67 672.83 519.88 740 588.65 764L590.93 760.93L590.15 759.36L590.29 759.28C517.16 733.71 393.53 657.65 344.44 626.58Z" fill="black"/>
<path d="M353.58 638.27C380.29 672.21 427.11 729.8 479.06 785.19C513.63 801.19 541.11 811.81 550.5 815.32L588.65 764C519.88 740 408.67 672.83 353.58 638.27Z" fill="white"/>
<path d="M408.13 926.87V955.21H553V926.87H408.13ZM418.13 945.21V936.87H543V945.21H418.13Z" fill="black"/>
<path d="M418.13 936.87H542.96V945.21H418.13V936.87Z" fill="#10143A"/>
<path d="M437 764.52C440.213 768.107 443.397 771.643 446.55 775.13C453.71 778.73 460.72 782.13 467.55 785.37C464.39 781.983 461.263 778.593 458.17 775.2C451.22 771.82 444.15 768.26 437 764.52Z" fill="black"/>
<path d="M446.53 775.13C449.65 778.57 452.753 781.963 455.84 785.31C463.01 788.81 470 792.11 476.72 795.21C473.62 791.943 470.547 788.663 467.5 785.37C460.7 782.15 453.69 778.73 446.53 775.13Z" fill="black"/>
<path d="M458.12 775.2C461.213 778.594 464.34 781.984 467.5 785.37C474.73 788.81 481.71 792.03 488.35 795.02C485.237 791.754 482.14 788.477 479.06 785.19C472.33 782.07 465.32 778.73 458.12 775.2Z" fill="black"/>
<path d="M467.5 785.37C470.547 788.657 473.62 791.937 476.72 795.21C484.01 798.57 490.98 801.69 497.53 804.54C494.457 801.38 491.397 798.207 488.35 795.02C481.71 792 474.73 788.81 467.5 785.37Z" fill="black"/>
<path d="M479.06 785.19C482.14 788.477 485.237 791.753 488.35 795.02C516.35 807.63 538.35 816.13 547.59 819.58C547.751 819.133 547.977 818.712 548.26 818.33L550.5 815.33C541.11 811.81 513.63 801.24 479.06 785.19Z" fill="black"/>
<path d="M488.35 795C491.397 798.193 494.457 801.367 497.53 804.52C523.25 815.76 542.42 822.99 548.53 825.25C548.153 824.507 547.819 823.742 547.53 822.96C547.133 821.861 547.133 820.659 547.53 819.56C538.39 816.13 516.4 807.63 488.35 795Z" fill="black"/>
<path d="M497.53 804.54C490.98 801.69 484.01 798.54 476.72 795.21C508.62 828.97 542.38 861.73 574.66 887.71L575.43 877.36C549.81 856.31 523.27 831.05 497.53 804.54Z" fill="black"/>
<path d="M547.59 819.58C547.193 820.679 547.193 821.882 547.59 822.98C547.879 823.762 548.213 824.527 548.59 825.27L550.65 826.02L554.14 827.26L554.94 826.18C553.861 824.679 552.987 823.042 552.34 821.31C552.34 821.31 550.64 820.72 547.59 819.58Z" fill="black"/>
<path d="M548.26 818.33C547.977 818.712 547.751 819.133 547.59 819.58C550.64 820.72 552.28 821.31 552.28 821.31L591.81 768.11C591.939 767.066 592.394 766.09 593.11 765.32L590.93 760.92L588.65 763.99L550.5 815.32L548.26 818.33Z" fill="black"/>
<path d="M554.08 827.26L550.59 826.02L548.53 825.27C554.12 836.63 570.53 847.07 577.39 851.1L577.63 847.93C577.686 847.175 577.915 846.442 578.3 845.79C572.03 841.98 560.53 834.29 554.88 826.18L554.08 827.26Z" fill="black"/>
<path d="M558.06 821.91L554.88 826.18C560.53 834.29 572.03 841.98 578.3 845.79C578.86 844.826 579.725 844.076 580.76 843.66C581.53 843.35 582.29 843.07 583.04 842.81C576 838.76 562.63 829.87 558.06 821.91Z" fill="black"/>
<path d="M593.14 774.7L558.06 821.91C562.63 829.91 576.01 838.76 583.06 842.81C591.322 839.952 600.197 839.347 608.77 841.06C602 810 595.71 784.77 593.14 774.7Z" fill="#EF5964"/>
<path d="M567.52 983.14C567.421 984.462 567.851 985.769 568.715 986.774C569.58 987.78 570.808 988.4 572.13 988.5H572.51C573.774 988.503 574.993 988.028 575.921 987.169C576.849 986.31 577.416 985.131 577.51 983.87V983.4L572.51 983.5L577.73 913.69L572.87 911.69L567.52 983.14Z" fill="#10143A"/>
<path d="M577.72 913.7L572.5 983.51L577.53 983.41L582.59 915.67L577.72 913.7Z" fill="#10143A"/>
<path d="M573.52 902.84L572.86 911.74L577.72 913.7L578.39 904.8L573.52 902.84Z" fill="black"/>
<path d="M574.66 887.71L573.52 902.84L578.39 904.84L579.39 891.51C577.81 890.24 576.24 889 574.66 887.71Z" fill="black"/>
<path d="M575.43 877.36L574.66 887.71C576.24 888.98 577.81 890.24 579.38 891.47L580.15 881.2C578.577 879.94 577.003 878.66 575.43 877.36Z" fill="black"/>
<path d="M577.39 851.1L575.39 877.36C576.97 878.66 578.543 879.94 580.11 881.2L582.2 853.28C581.501 853.23 580.82 853.035 580.2 852.71C579.79 852.47 578.79 851.92 577.39 851.1Z" fill="black"/>
<path d="M577.63 847.93L577.39 851.1C578.79 851.92 579.79 852.47 580.24 852.71C580.86 853.035 581.541 853.229 582.24 853.28L582.61 848.28C582.61 848.28 580.91 847.36 578.3 845.77C577.912 846.428 577.683 847.168 577.63 847.93V847.93Z" fill="black"/>
<path d="M582.59 915.67L577.53 983.41L631.09 982.41C630.35 967.63 628.47 950.79 625.92 933.21L582.59 915.67Z" fill="#10143A"/>
<path d="M578.39 904.8L577.72 913.7L582.59 915.67L583.26 906.77L578.39 904.8Z" fill="black"/>
<path d="M579.38 891.47L578.38 904.8L583.25 906.8L584.12 895.19C582.547 893.963 580.967 892.723 579.38 891.47Z" fill="black"/>
<path d="M580.76 843.66C579.725 844.076 578.86 844.825 578.3 845.79C580.91 847.38 582.61 848.3 582.61 848.3C591.29 844.816 600.848 844.165 609.92 846.44C609.547 844.706 609.177 842.996 608.81 841.31C600.25 839.798 591.454 840.332 583.14 842.87L583.04 842.81C582.29 843.07 581.53 843.35 580.76 843.66Z" fill="black"/>
<path d="M580.15 881.2L579.38 891.47C580.973 892.723 582.557 893.953 584.13 895.16L584.89 885C583.317 883.754 581.737 882.487 580.15 881.2Z" fill="black"/>
<path d="M582.24 853.28L580.15 881.2C581.743 882.48 583.323 883.737 584.89 884.97L587.35 852.06C586.35 852.34 585.35 852.65 584.27 853.06C583.736 853.247 583.175 853.341 582.61 853.34C582.485 853.33 582.361 853.31 582.24 853.28V853.28Z" fill="black"/>
<path d="M584.27 853C585.27 852.63 586.34 852.32 587.35 852V851.86C595.071 849.393 603.369 849.393 611.09 851.86C610.71 850.067 610.33 848.293 609.95 846.54C600.857 844.536 591.384 845.111 582.6 848.2L582.23 853.2C582.353 853.21 582.477 853.21 582.6 853.2C583.164 853.228 583.729 853.161 584.27 853V853Z" fill="black"/>
<path d="M584.13 895.16L583.26 906.77L622.49 922.6C622.54 922.31 622.6 921.95 622.66 921.51C609.277 913.544 596.408 904.743 584.13 895.16V895.16Z" fill="black"/>
<path d="M584.89 885L584.13 895.19C596.408 904.773 609.277 913.573 622.66 921.54C622.83 920.4 623.08 918.79 623.37 916.75C623.09 915.02 622.81 913.28 622.51 911.55C609.462 903.442 596.901 894.577 584.89 885V885Z" fill="black"/>
<path d="M587.35 852.06L584.89 885C596.901 894.577 609.462 903.442 622.51 911.55C619.12 891.38 615.11 870.95 611.12 852.12C603.35 849.936 595.131 849.916 587.35 852.06V852.06Z" fill="#EF5964"/>
<path d="M590.15 759.35L590.93 760.92L591.78 759.78L590.29 759.27L590.15 759.35Z" fill="black"/>
<path d="M590.93 760.92L593.11 765.32C593.567 764.82 594.126 764.424 594.75 764.16L596.75 761.44C595.12 760.92 593.45 760.36 591.75 759.78L590.93 760.92Z" fill="black"/>
<path d="M591.94 770C591.773 769.388 591.729 768.749 591.81 768.12L552.28 821.32C552.927 823.052 553.801 824.689 554.88 826.19L558.06 821.92L593.14 774.7C592.41 771.8 592 770.16 591.94 770Z" fill="black"/>
<path d="M592.76 758.46L591.76 759.78C593.45 760.36 595.12 760.92 596.76 761.44L601.14 759.05C600.563 757.976 599.608 757.153 598.46 756.74L598.29 756.68H598.16C597.18 756.395 596.137 756.417 595.17 756.742C594.203 757.068 593.358 757.681 592.75 758.5L592.76 758.46Z" fill="black"/>
<path d="M591.81 768.11C591.729 768.739 591.773 769.378 591.94 769.99C591.94 770.16 592.41 771.8 593.14 774.7L595.91 771L593.42 766L591.81 768.11Z" fill="black"/>
<path d="M591.81 768.11L593.42 766L593.11 765.37C592.403 766.127 591.949 767.084 591.81 768.11Z" fill="black"/>
<path d="M593.11 765.32L593.42 765.95L594.75 764.16C594.126 764.424 593.567 764.82 593.11 765.32V765.32Z" fill="black"/>
<path d="M595.91 771L593.14 774.72C595.71 784.79 602 810.04 608.75 841.08C610.03 841.33 611.2 841.61 612.23 841.89L616.34 828.72C613.76 817.16 611.34 806.64 609.15 797.72L595.91 771Z" fill="#EF5964"/>
<path d="M594.75 764.16L593.42 765.95L595.91 770.95L599.25 766.44L597.96 763.85C597.15 763.64 596.3 763.64 595.49 763.85C595.235 763.932 594.988 764.036 594.75 764.16V764.16Z" fill="black"/>
<path d="M595.5 763.89C596.31 763.68 597.16 763.68 597.97 763.89L596.77 761.46L594.77 764.18C595.005 764.063 595.249 763.966 595.5 763.89V763.89Z" fill="black"/>
<path d="M595.91 770.97V770.98L595.92 770.97H595.91Z" fill="black"/>
<path d="M595.91 771L609.15 797.7L595.92 771H595.91Z" fill="#EF5964"/>
<path d="M599.26 766.46L595.92 770.97L609.14 797.64C606.87 788.2 604.96 780.53 603.61 775.24L599.26 766.46Z" fill="black"/>
<path d="M641.22 731.51L596.22 756.02L598.12 756.64H598.25L598.42 756.7L602.79 758.09L637.54 739.15L637.93 738.28C638.061 736.125 639.013 734.103 640.59 732.63C640.84 732.27 641 731.89 641.22 731.51Z" fill="black"/>
<path d="M596.77 761.44L597.97 763.87C598.83 764.08 599.618 764.519 600.25 765.14L602.61 762L601.25 759.26L601.15 759.09L596.77 761.44Z" fill="black"/>
<path d="M592.76 758.46C593.368 757.641 594.213 757.027 595.18 756.702C596.147 756.377 597.19 756.355 598.17 756.64L596.27 756.02L590.27 759.27L591.76 759.78L592.76 758.46Z" fill="black"/>
<path d="M598 763.87L599.29 766.46L600.29 765.14C599.655 764.518 598.864 764.079 598 763.87Z" fill="black"/>
<path d="M602.84 758.13L598.47 756.74C599.618 757.153 600.573 757.976 601.15 759.05L602.84 758.13Z" fill="black"/>
<path d="M582.61 848.3C591.407 845.203 600.894 844.628 610 846.64C610 846.57 610 846.51 610 846.44C600.903 844.148 591.314 844.799 582.61 848.3V848.3Z" fill="black"/>
<path d="M587.35 852.06C595.126 849.896 603.344 849.896 611.12 852.06C611.12 852.06 611.12 851.97 611.12 851.93C603.399 849.463 595.101 849.463 587.38 851.93L587.35 852.06Z" fill="#BE1E2D"/>
<path d="M599.26 766.46L603.61 775.23C602.53 770.96 601.82 768.23 601.61 767.45C601.38 766.569 600.909 765.769 600.25 765.14L599.26 766.46Z" fill="black"/>
<path d="M601.15 759.05L601.25 759.22L602.61 762L604.95 758.85L602.84 758.17L601.15 759.05Z" fill="black"/>
<path d="M603.39 763.53L602.61 761.96L600.25 765.14C600.909 765.769 601.38 766.569 601.61 767.45C601.82 768.25 602.53 770.96 603.61 775.23L624.88 818.13L627.95 813.06L625.32 807.75L603.39 763.53Z" fill="black"/>
<path d="M604.95 758.81L602.61 761.96L603.39 763.53L634.6 746.53C635.6 743.97 636.6 741.53 637.6 739.2L602.85 758.14L604.95 758.81Z" fill="black"/>
<path d="M603.39 763.53L625.32 807.76L627.58 804C625.06 787.46 626.74 769.9 632.65 752C633.27 750.12 633.937 748.29 634.65 746.51L603.39 763.53Z" fill="white"/>
<path d="M624.88 818.14L603.61 775.24C604.96 780.53 606.87 788.24 609.14 797.64L619.51 818.56L622.72 825.04L624.88 818.14Z" fill="black"/>
<path d="M608.75 841.06C600.164 839.34 591.274 839.944 583 842.81L583.1 842.87C591.414 840.332 600.21 839.798 608.77 841.31L608.75 841.06Z" fill="black"/>
<path d="M608.75 841.06L608.81 841.31C610.05 841.53 611.18 841.78 612.18 842.03L612.23 841.87C611.2 841.59 610 841.31 608.75 841.06Z" fill="black"/>
<path d="M619.51 818.56L609.14 797.64L619.5 818.53L619.51 818.56Z" fill="#EF5964"/>
<path d="M619.51 818.57L609.15 797.68C611.3 806.62 613.76 817.14 616.34 828.68L619.51 818.57Z" fill="#EF5964"/>
<path d="M608.81 841.31C609.183 843.003 609.553 844.713 609.92 846.44C611.813 846.885 613.661 847.505 615.44 848.29L616.94 843.48C615.398 842.844 613.818 842.303 612.21 841.86L612.16 842.02C611.18 841.78 610 841.53 608.81 841.31Z" fill="black"/>
<path d="M609.92 846.44C609.92 846.51 609.92 846.57 609.92 846.64C611.789 847.038 613.622 847.59 615.4 848.29C613.634 847.507 611.799 846.888 609.92 846.44V846.44Z" fill="black"/>
<path d="M610 846.64C610.38 848.4 610.76 850.173 611.14 851.96L611.77 852.18V852.29C612.84 852.63 613.43 852.88 613.46 852.89C614.091 853.165 614.772 853.308 615.46 853.308C616.148 853.308 616.829 853.165 617.46 852.89L615.4 848.33C613.649 847.621 611.843 847.055 610 846.64V846.64Z" fill="black"/>
<path d="M611.1 852C611.1 852 611.1 852.09 611.1 852.13L611.76 852.33V852.22L611.1 852Z" fill="#BE1E2D"/>
<path d="M611.12 852.09C615.12 870.92 619.12 891.35 622.51 911.52C623.01 911.83 623.51 912.13 624 912.42C624.9 906.11 626.11 897.42 627.44 887.03C622.01 874.97 616.65 863.1 611.78 852.3L611.12 852.09Z" fill="#EF5964"/>
<path d="M616.34 828.7L612.23 841.87C613.838 842.313 615.418 842.854 616.96 843.49L618.52 838.49C617.793 835.15 617.067 831.887 616.34 828.7Z" fill="black"/>
<path d="M611.78 852.29C616.65 863.09 622 875 627.44 887C627.57 886 627.69 885 627.82 884C626.9 879.08 625.94 874.19 624.98 869.37L617.52 852.83C616.889 853.105 616.208 853.247 615.52 853.247C614.832 853.247 614.151 853.105 613.52 852.83C613.52 852.83 612.85 852.63 611.78 852.29Z" fill="black"/>
<path d="M617 843.49L615.5 848.3L617.56 852.86C618.2 852.569 618.771 852.146 619.236 851.618C619.702 851.091 620.05 850.471 620.26 849.8L620.68 848.46C620.57 847.97 620.47 847.46 620.37 846.99L620.04 846.26C619.559 845.19 618.716 844.322 617.66 843.81L617 843.49Z" fill="black"/>
<path d="M619.51 818.57L616.34 828.7C617.06 831.886 617.787 835.156 618.52 838.51L622.72 825.05L619.51 818.57Z" fill="black"/>
<path d="M617.54 852.85L625 869.4C623.57 862.25 622.12 855.24 620.68 848.45L620.26 849.79C620.048 850.463 619.696 851.084 619.228 851.611C618.759 852.139 618.184 852.561 617.54 852.85V852.85Z" fill="black"/>
<path d="M620.35 847L618.52 838.53L616.96 843.53L617.64 843.84C618.696 844.352 619.539 845.219 620.02 846.29L620.35 847Z" fill="black"/>
<path d="M620.8 848L620.35 847C620.45 847.49 620.55 848 620.66 848.47L620.8 848Z" fill="black"/>
<path d="M622.72 825.05L618.52 838.51L620.35 847L620.8 848L629.47 820.22L624.47 828.53L622.72 825.05Z" fill="black"/>
<path d="M629.8 867.92C626.973 861.64 623.973 854.997 620.8 847.99L620.66 848.45C622.1 855.24 623.55 862.25 624.98 869.4C626.12 871.94 627.35 874.66 628.64 877.51C629.02 874.41 629.407 871.214 629.8 867.92Z" fill="black"/>
<path d="M622.36 923.48C622.121 925.012 622.305 926.579 622.892 928.014C623.479 929.448 624.446 930.695 625.69 931.62C625.29 928.887 624.873 926.143 624.44 923.39L622.49 922.6C622.42 923.13 622.37 923.43 622.36 923.48Z" fill="black"/>
<path d="M622.49 922.6L624.44 923.39C624.39 923.08 624.35 922.77 624.29 922.46L622.66 921.46C622.6 922 622.54 922.31 622.49 922.6Z" fill="black"/>
<path d="M624 912.42C623.5 912.13 623 911.83 622.51 911.52C622.81 913.25 623.09 914.99 623.37 916.72C623.56 915.45 623.77 914 624 912.42Z" fill="black"/>
<path d="M624.88 818.14L622.72 825.05L624.44 828.52L629.44 820.21L629.62 819.63C630.004 818.402 629.9 817.073 629.33 815.92L627.92 813.07L624.88 818.14Z" fill="black"/>
<path d="M623.37 916.72C623.08 918.72 622.83 920.37 622.66 921.51L624.29 922.51C623.997 920.563 623.69 918.633 623.37 916.72Z" fill="black"/>
<path d="M624 912.42C623.77 914.01 623.56 915.42 623.37 916.72C623.69 918.64 623.997 920.553 624.29 922.46C626.16 923.54 628.01 924.57 629.85 925.57L630.75 924.79C630.75 924.79 631.19 921.99 631.91 917.01C629.3 915.56 626.67 914 624 912.42Z" fill="black"/>
<path d="M624.29 922.46C624.35 922.77 624.39 923.08 624.44 923.39L629.85 925.57C628 924.57 626.16 923.54 624.29 922.46Z" fill="black"/>
<path d="M629.85 925.57L624.44 923.39C624.873 926.15 625.29 928.893 625.69 931.62L625.83 931.72C627.119 932.635 628.637 933.173 630.214 933.274C631.791 933.374 633.365 933.034 634.76 932.29L635.65 931.79C635.718 931.732 635.782 931.668 635.84 931.6C635.39 928.45 634.91 925.28 634.42 922.1C633.317 923.151 632.084 924.055 630.75 924.79L629.85 925.57Z" fill="black"/>
<path d="M582.59 915.67L625.92 933.16C625.84 932.65 625.77 932.16 625.69 931.62C624.446 930.695 623.479 929.448 622.892 928.014C622.305 926.579 622.121 925.011 622.36 923.48C622.36 923.43 622.42 923.13 622.49 922.6L583.26 906.77L582.59 915.67Z" fill="black"/>
<path d="M625.32 807.76L627.95 813.07L628.95 811.37C628.39 808.95 627.923 806.504 627.55 804.03L625.32 807.76Z" fill="black"/>
<path d="M626.67 933.46L625.92 933.16C628.47 950.74 630.35 967.58 631.09 982.36L641.09 982.16C640.35 966.89 638.45 949.62 635.86 931.66L635.66 931.79C634.086 933.258 632.012 934.073 629.86 934.07C628.768 934.07 627.685 933.863 626.67 933.46Z" fill="black"/>
<path d="M627.44 887C626.11 897.36 624.9 906.08 624 912.39C626.67 914.01 629.3 915.53 631.91 916.98C632.15 915.36 632.42 913.51 632.71 911.45C631.56 904.45 630.33 897.45 629.04 890.54C628.51 889.39 628 888.21 627.44 887Z" fill="black"/>
<path d="M627.44 887C627.98 888.18 628.51 889.36 629.04 890.54C628.64 888.35 628.24 886.17 627.82 884C627.69 885 627.57 886 627.44 887Z" fill="black"/>
<path d="M632.65 752C626.74 769.92 625.06 787.48 627.58 804L637 788.39C637.87 773 638.32 758.04 638.06 744.6L634.55 746.52C633.903 748.3 633.27 750.127 632.65 752Z" fill="white"/>
<path d="M637 788.39L627.58 804C627.953 806.473 628.42 808.92 628.98 811.34L636.37 799.13C636.617 795.537 636.827 791.957 637 788.39Z" fill="black"/>
<path d="M625 869.4C626 874.22 626.92 879.11 627.84 884.03C628.11 881.92 628.38 879.74 628.66 877.51C627.35 874.66 626.12 871.94 625 869.4Z" fill="black"/>
<path d="M628.64 877.51C628.36 879.74 628.09 881.92 627.82 884.03C628.24 886.2 628.64 888.38 629.04 890.57L634.04 901.73C634.44 898.816 634.86 895.69 635.3 892.35C633 887.15 630.73 882.15 628.64 877.51Z" fill="black"/>
<path d="M629.8 867.92C629.413 871.213 629.027 874.41 628.64 877.51C630.73 882.15 632.98 887.15 635.33 892.35C635.72 889.35 636.13 886.18 636.55 882.88L629.8 867.92Z" fill="black"/>
<path d="M629.36 815.92C629.93 817.073 630.034 818.402 629.65 819.63L629.47 820.21L630.79 818C630.123 815.8 629.52 813.58 628.98 811.34L627.98 813.04L629.36 815.92Z" fill="black"/>
<path d="M630 1016.45C629.969 1016.6 629.952 1016.76 629.95 1016.92H640C641.45 1007.48 641.69 995.59 641 982.16L631 982.36C631.76 995.74 631.51 1007.43 630 1016.45Z" fill="black"/>
<path d="M634.11 827.14C632.8 841.46 631.29 855.35 629.8 867.92L636.55 882.92C638.11 870.55 639.79 856.24 641.33 841.09C640.62 839.92 639.94 838.76 639.28 837.6C637.35 834.219 635.624 830.726 634.11 827.14V827.14Z" fill="black"/>
<path d="M629 811.37C629.52 813.61 630.123 815.83 630.81 818.03L635.59 810.14C635.88 806.48 636.15 802.81 636.39 799.14L629 811.37Z" fill="black"/>
<path d="M626.67 933.46C627.682 933.861 628.761 934.068 629.85 934.07C632.002 934.073 634.076 933.258 635.65 931.79L634.76 932.29C633.365 933.034 631.791 933.374 630.214 933.274C628.637 933.173 627.119 932.635 625.83 931.72L625.69 931.62C625.77 932.14 625.84 932.62 625.92 933.16L626.67 933.46Z" fill="black"/>
<path d="M630.79 818C631.736 821.093 632.844 824.134 634.11 827.11C634.63 821.49 635.11 815.81 635.57 810.11L630.79 818Z" fill="black"/>
<path d="M631.91 917C631.19 922 630.75 924.78 630.75 924.78C632.084 924.045 633.317 923.141 634.42 922.09C634.21 920.74 634 919.39 633.78 918.03L631.91 917Z" fill="black"/>
<path d="M631.91 917L633.78 918C633.43 915.82 633.08 913.63 632.71 911.44C632.42 913.54 632.15 915.39 631.91 917Z" fill="black"/>
<path d="M629 890.57C630.29 897.52 631.52 904.51 632.67 911.48C633.08 908.62 633.54 905.35 634.03 901.73L629 890.57Z" fill="black"/>
<path d="M632.71 911.48C633.08 913.67 633.43 915.86 633.78 918.04L633.9 918.1C634.839 918.606 635.674 919.284 636.36 920.1C637.728 918.528 638.978 916.857 640.1 915.1L634.1 901.7C633.58 905.35 633.12 908.62 632.71 911.48Z" fill="black"/>
<path d="M633.9 918.1L633.78 918.04C634 919.4 634.21 920.75 634.42 922.1C635.104 921.47 635.752 920.803 636.36 920.1C635.674 919.284 634.839 918.606 633.9 918.1V918.1Z" fill="black"/>
<path d="M635.33 892.35C634.89 895.683 634.47 898.81 634.07 901.73L640.07 915.13C641.13 913.5 642.17 911.73 643.17 909.85C640.53 903.9 637.87 898 635.33 892.35Z" fill="black"/>
<path d="M635.57 810.14C635.12 815.84 634.63 821.52 634.11 827.14C635.625 830.713 637.352 834.192 639.28 837.56C639.94 838.72 640.62 839.88 641.33 841.05C642.56 828.83 643.7 816.05 644.62 803.35C644.22 801.137 643.92 798.907 643.72 796.66L635.57 810.14Z" fill="black"/>
<path d="M635.57 810.14L643.72 796.66C643.439 793.638 643.329 790.604 643.39 787.57L636.39 799.16C636.13 802.81 635.86 806.48 635.57 810.14Z" fill="black"/>
<path d="M635.65 931.79L635.85 931.66C635.85 931.66 635.85 931.66 635.85 931.6C635.789 931.669 635.722 931.732 635.65 931.79Z" fill="black"/>
<path d="M634.42 922.1C634.91 925.28 635.42 928.45 635.84 931.6C636.549 930.905 637.128 930.089 637.55 929.19C638.242 927.72 638.498 926.082 638.287 924.471C638.076 922.859 637.407 921.342 636.36 920.1C635.752 920.803 635.104 921.471 634.42 922.1Z" fill="black"/>
<path d="M635.84 931.6C635.84 931.6 635.84 931.6 635.84 931.66C639.019 929.624 641.815 927.045 644.1 924.04C642.767 921.113 641.433 918.143 640.1 915.13C638.978 916.886 637.728 918.557 636.36 920.13C637.407 921.372 638.076 922.889 638.287 924.5C638.498 926.112 638.242 927.75 637.55 929.22C637.125 930.108 636.546 930.913 635.84 931.6Z" fill="black"/>
<path d="M636.37 799.16L643.37 787.57C643.428 783.845 643.722 780.128 644.25 776.44L637 788.39C636.833 791.963 636.623 795.553 636.37 799.16Z" fill="black"/>
<path d="M636.55 882.88C636.13 886.18 635.72 889.35 635.33 892.35C637.87 898 640.53 903.9 643.2 909.85C644.2 908 645.2 906.05 646.08 904.02L636.55 882.88Z" fill="black"/>
<path d="M637 788.39L644.22 776.44C644.757 772.624 645.508 768.841 646.47 765.11C646.523 762.976 646.56 760.873 646.58 758.8L642.21 742.34L638.06 744.6C638.37 758 637.92 773 637 788.39Z" fill="black"/>
<path d="M638.11 744.6C638.11 742.75 638.03 740.94 637.97 739.15C637.975 739.097 637.975 739.043 637.97 738.99L637.6 739.19C636.6 741.51 635.6 743.96 634.6 746.52L638.11 744.6Z" fill="black"/>
<path d="M638 738.32L637.61 739.19L638 739C638 738.76 638 738.54 638 738.32Z" fill="black"/>
<path d="M638 738.32C638 738.54 638 738.76 638 738.99L645.5 734.9L646.83 739.9L650.68 752.14C651.58 749.77 652.52 747.52 653.47 745.4L649.59 731C648.09 730.402 646.451 730.246 644.865 730.549C643.28 730.852 641.814 731.602 640.64 732.71C639.76 734.45 638.86 736.34 638 738.32Z" fill="black"/>
<path d="M638 739C638.005 739.053 638.005 739.107 638 739.16C638.06 740.95 638.11 742.76 638.14 744.61L642.29 742.35L646.66 758.81C646.76 751.87 646.71 745.18 646.49 738.87L646.82 739.93L645.49 734.93L638 739Z" fill="black"/>
<path d="M641.33 841.05C639.79 856.2 638.11 870.51 636.55 882.88L646.08 904C651.51 892.17 655.85 877.82 658.74 866.87C656.507 863.843 654.357 860.843 652.29 857.87C650.37 865.87 647.91 874.55 645.15 882.79C646.31 873.62 647.52 863.42 648.69 852.63C646.057 848.716 643.603 844.856 641.33 841.05Z" fill="black"/>
<path d="M640 1016.92H763.56C755.61 987.13 724.45 948.92 694.28 911.92C684.1 899.44 674.2 887.29 665.21 875.53C664.21 878.94 663.15 882.53 661.97 886.21C659.017 895.796 655.209 905.097 650.59 914C679.94 979.21 680.07 980 680.17 980.64C680.362 981.875 680.084 983.137 679.391 984.177C678.699 985.218 677.642 985.961 676.429 986.261C675.216 986.561 673.934 986.395 672.837 985.797C671.739 985.199 670.906 984.212 670.5 983.03C670.4 982.77 670.19 982.28 669.88 981.57L641.08 982.13C641.73 995.59 641.49 1007.48 640 1016.92Z" fill="#10143A"/>
<path d="M638 738.32C638.88 736.32 639.78 734.45 640.66 732.67C639.083 734.143 638.131 736.166 638 738.32V738.32Z" fill="black"/>
<path d="M635.85 931.66C638.44 949.66 640.34 966.89 641.08 982.16L669.88 981.6C667.14 975.3 656.63 951.86 644.11 924.04C641.825 927.045 639.029 929.625 635.85 931.66V931.66Z" fill="#10143A"/>
<path d="M643.2 909.85C642.2 911.73 641.2 913.5 640.1 915.13C641.433 918.137 642.767 921.107 644.1 924.04C645.303 922.531 646.425 920.959 647.46 919.33C646.06 916.17 644.63 913 643.2 909.85Z" fill="black"/>
<path d="M643.39 787.57C643.329 790.604 643.439 793.639 643.72 796.66L645.23 794.17C645.45 790.61 645.65 787.06 645.82 783.54L643.39 787.57Z" fill="black"/>
<path d="M643.39 787.57L645.82 783.57C646 780.06 646.16 776.57 646.28 773.15L644.28 776.47C643.75 780.147 643.453 783.855 643.39 787.57V787.57Z" fill="black"/>
<path d="M645.23 794.17L643.72 796.66C643.92 798.913 644.22 801.143 644.62 803.35C644.83 800.29 645 797.22 645.23 794.17Z" fill="black"/>
<path d="M644.27 776.44L646.27 773.12C646.37 770.42 646.45 767.753 646.51 765.12C645.552 768.848 644.804 772.628 644.27 776.44V776.44Z" fill="black"/>
<path d="M644.62 803.35C643.7 816.07 642.56 828.83 641.33 841.05C643.603 844.863 646.057 848.73 648.69 852.65C648.957 850.123 649.227 847.563 649.5 844.97L653.75 851.57C653.31 853.61 652.823 855.717 652.29 857.89C654.357 860.863 656.507 863.863 658.74 866.89C661.35 857.01 662.79 849.89 662.79 849.89L651.79 832.77L655.52 831.63C655.02 830.79 654.52 829.95 654.06 829.12C649.448 821.14 646.254 812.421 644.62 803.35V803.35Z" fill="black"/>
<path d="M643.2 909.85C644.63 913 646.06 916.17 647.47 919.33C648.47 917.7 649.56 915.94 650.59 914.03L646.08 904.03C645.16 906.05 644.2 908 643.2 909.85Z" fill="black"/>
<path d="M644.62 803.35C646.235 812.421 649.408 821.143 654 829.13C654.48 829.96 655 830.8 655.46 831.64L666.63 828.23L659.23 779.63L657.44 773.93L645.19 794.17C645 797.22 644.83 800.29 644.62 803.35ZM651.52 824C652.27 815.5 652.95 806.87 653.52 798.28L657.17 822.28L651.52 824Z" fill="black"/>
<path d="M645.82 783.54L654.55 769.13L650.29 753.13C649.71 754.67 649.157 756.25 648.63 757.87C648.2 759.19 647.8 760.51 647.42 761.82L649.17 768.39L646.28 773.16C646.16 776.56 646 780 645.82 783.54Z" fill="black"/>
<path d="M646.28 773.12L649.17 768.35L647.42 761.78C647.1 762.887 646.8 763.997 646.52 765.11C646.46 767.75 646.38 770.42 646.28 773.12Z" fill="black"/>
<path d="M646.79 739.92L646.46 738.86C646.68 745.17 646.73 751.86 646.63 758.8L647.42 761.8C647.8 760.49 648.2 759.17 648.63 757.85C649.163 756.23 649.717 754.65 650.29 753.11L646.79 739.92Z" fill="black"/>
<path d="M646.63 758.8C646.63 760.88 646.593 762.983 646.52 765.11C646.8 763.996 647.1 762.887 647.42 761.78L646.63 758.8Z" fill="black"/>
<path d="M650.64 752.16L646.79 739.92L650.29 753.09C650.4 752.78 650.52 752.47 650.64 752.16Z" fill="black"/>
<path d="M648.69 852.65C647.52 863.44 646.31 873.65 645.15 882.81C647.91 874.57 650.37 865.86 652.29 857.89C651.057 856.13 649.857 854.383 648.69 852.65Z" fill="#10143A"/>
<path d="M647.47 919.33C646.435 920.959 645.313 922.531 644.11 924.04C656.63 951.86 667.11 975.3 669.88 981.6L675.24 981.49C675.14 980.91 661.62 950.78 647.47 919.33Z" fill="#10143A"/>
<path d="M649.5 845C649.233 847.587 648.963 850.147 648.69 852.68C649.863 854.413 651.063 856.16 652.29 857.92C652.817 855.753 653.303 853.647 653.75 851.6L649.5 845Z" fill="#10143A"/>
<path d="M649.59 731L653.43 745.46C654.23 743.673 655.03 741.98 655.83 740.38L654.57 736.38C654.197 735.167 653.556 734.053 652.694 733.122C651.832 732.19 650.771 731.465 649.59 731V731Z" fill="black"/>
<path d="M657.48 773.93L650.64 752.16C650.52 752.47 650.4 752.78 650.29 753.09L654.55 769.09L645.82 783.5C645.65 787.02 645.45 790.57 645.23 794.13L657.48 773.93Z" fill="black"/>
<path d="M646.08 904L650.59 914C655.222 905.082 659.04 895.764 662 886.16C663.18 882.49 664.26 878.89 665.24 875.48C663.02 872.587 660.863 869.723 658.77 866.89C655.85 877.84 651.51 892.19 646.08 904Z" fill="black"/>
<path d="M650.64 752.16L657.48 773.93L659.92 769.93L653.43 745.45C652.48 747.54 651.54 749.79 650.64 752.16Z" fill="black"/>
<path d="M651.52 824L657.16 822.28L653.51 798.28C652.95 806.84 652.27 815.47 651.52 824Z" fill="#10143A"/>
<path d="M651.77 832.78L662.77 849.9C662.77 849.9 661.33 857.01 658.72 866.9C660.807 869.74 662.963 872.603 665.19 875.49C667.84 866.13 669.67 858.2 670.53 854.25C664.86 846.45 659.77 838.89 655.48 831.65L651.77 832.78Z" fill="black"/>
<path d="M653.43 745.42L659.92 769.9L657.48 773.9L659.27 779.6L666.67 828.2L655.5 831.61C659.79 838.85 664.88 846.41 670.55 854.21C670.9 852.64 671.09 851.7 671.12 851.55C671.559 849.382 671.132 847.128 669.93 845.27L665 837.6L669.15 836.33C671.103 835.738 672.776 834.461 673.864 832.734C674.951 831.008 675.379 828.947 675.07 826.93L667.68 778.32C667.611 777.893 667.511 777.472 667.38 777.06L655.83 740.31C655.03 741.93 654.23 743.633 653.43 745.42Z" fill="black"/>
<path d="M670.55 854.24C669.69 858.24 667.86 866.12 665.21 875.48C674.21 887.24 684.1 899.39 694.28 911.87C724.45 948.87 755.61 987.13 763.56 1016.87H781C773.82 982.54 740.08 941.13 707.43 901.08C694.15 884.81 681.32 869.07 670.55 854.24Z" fill="black"/>
<path d="M669.88 981.6C670.19 982.31 670.4 982.8 670.5 983.06C670.906 984.242 671.739 985.229 672.837 985.827C673.934 986.425 675.216 986.591 676.429 986.291C677.642 985.991 678.699 985.248 679.391 984.207C680.084 983.167 680.362 981.905 680.17 980.67C680.07 980.02 679.94 979.24 650.59 914.03C649.59 915.94 648.52 917.7 647.47 919.33C661.62 950.78 675.14 980.91 675.24 981.49L669.88 981.6Z" fill="#10143A"/>
<path d="M624.53 364.67C624.235 367.576 624.235 370.504 624.53 373.41C629.04 420.01 700.67 484.81 725.53 489.9C732.72 491.37 739.25 489.66 745.53 484.67C768.53 466.32 781.86 409.51 782.77 365.38C782.98 355.01 779.91 346.85 773.38 340.38C758.14 325.38 729.14 324.48 722.38 324.48H720.58C681.03 324.27 633.73 330.26 625.58 359.18C625.073 360.976 624.721 362.813 624.53 364.67ZM664.77 439.84C651.38 424.91 629.32 395.96 632.06 369.84C633.47 356.49 641.06 346.13 654.67 339.05C669.03 331.58 690.39 327.84 718.12 328.05C720.61 327.97 750.49 327.34 767.12 343.69C774.59 351.02 778.25 360.52 778.02 371.94C777.39 402.94 767.97 455.74 744.61 474.38C739.357 478.796 732.732 481.25 725.87 481.32C723.783 481.313 721.703 481.095 719.66 480.67C706.46 477.93 683.87 461.14 664.77 439.84V439.84Z" fill="#EAEDAB"/>
<path d="M326.35 402.05V415.84H337.76C337.649 411.239 337.789 406.635 338.18 402.05H326.35Z" fill="#EAEDAB"/>
<path d="M364.08 370.58C347.48 403.01 353.68 452.58 378.29 483.58C391.95 500.82 416.49 519.27 455.94 509.27C470.54 505.69 502.1 484.49 531.83 452.27C562.61 418.87 578.95 386.37 575.54 365.33C570.98 337.26 531.61 329.59 489.91 329.59C478.22 329.59 466.34 330.19 455 331.12C453.1 331.3 385.62 338.19 364.08 370.58ZM384.88 473.65C362.5 445 357.45 401.1 373.13 371.54C373.21 371.4 373.29 371.26 373.38 371.12C394 340.12 453.96 334.36 456.51 334.12C491.86 331.29 519.15 333.27 537.63 340C555.12 346.38 565.16 357 567.47 371.47C571.96 399.74 545.1 433.17 528.69 450.58C505.69 474.96 477.28 495.48 461.13 499.35C454.503 501.028 447.696 501.895 440.86 501.93C418.85 501.93 399.41 492.24 384.88 473.65Z" fill="#EAEDAB"/>
<path d="M592.28 362.38C592.285 362.456 592.285 362.533 592.28 362.61C592.619 364.702 592.833 366.812 592.92 368.93H607.32C607.315 366.926 607.416 364.923 607.62 362.93L607.68 362.4L592.28 362.38Z" fill="#EAEDAB"/>
<path d="M637.61 322L557.93 323.17C562.393 325.025 566.663 327.312 570.68 330H625.47C629.212 326.898 633.283 324.215 637.61 322V322Z" fill="#EAEDAB"/>
<path d="M381.85 376.45C368.04 402.74 372.71 441.83 392.76 467.45C409.03 488.27 432.47 496.13 458.76 489.59C473.04 486.17 499.97 466.44 521.41 443.69C547.2 416.33 560.41 390.57 557.59 373C554.43 353.09 529.81 342.82 485.9 342.82C477.14 342.82 467.62 343.23 457.34 344.05C456 344.22 399.82 349.83 381.85 376.45Z" fill="#10143A"/>
<path d="M760.18 350.84C747.89 338.76 724.94 338 719.54 338H718.17C685 337.81 644.9 343.35 642.01 370.86C640.3 387.12 651.31 409.86 672.22 433.13C691.86 455.03 712.39 468.9 721.72 470.83C727.72 472.07 733.21 470.66 738.41 466.51C756.71 451.91 767.34 406.76 768.06 371.68C768.24 363.06 765.66 356.23 760.18 350.84Z" fill="#10143A"/>
<path d="M316.35 397.05V420.84C316.35 422.166 316.877 423.438 317.814 424.375C318.752 425.313 320.024 425.84 321.35 425.84H338.35C338.02 422.5 337.83 419.16 337.76 415.84H326.35V402.05H338.18C338.46 398.68 338.89 395.34 339.45 392.05H321.35C320.024 392.05 318.752 392.577 317.814 393.514C316.877 394.452 316.35 395.724 316.35 397.05V397.05Z" fill="black"/>
<path d="M346.27 415.84H337.76C337.83 419.16 338.02 422.5 338.35 425.84H346.27C347.596 425.84 348.868 425.313 349.806 424.375C350.743 423.438 351.27 422.166 351.27 420.84C351.27 419.514 350.743 418.242 349.806 417.304C348.868 416.367 347.596 415.84 346.27 415.84V415.84Z" fill="black"/>
<path d="M338.18 402.05H347.32C348.646 402.05 349.918 401.523 350.856 400.585C351.793 399.648 352.32 398.376 352.32 397.05C352.32 395.724 351.793 394.452 350.856 393.514C349.918 392.577 348.646 392.05 347.32 392.05H339.45C338.89 395.34 338.46 398.68 338.18 402.05Z" fill="black"/>
<path d="M373.13 371.54C357.45 401.1 362.5 445 384.88 473.65C399.41 492.24 418.88 501.93 440.88 501.93C447.716 501.895 454.523 501.028 461.15 499.35C477.3 495.48 505.73 474.96 528.71 450.58C545.12 433.17 571.98 399.74 567.49 371.47C565.18 356.96 555.14 346.38 537.65 340C519.17 333.27 491.88 331.29 456.53 334.12C453.98 334.35 394.02 340.12 373.4 371.12C373.29 371.26 373.21 371.4 373.13 371.54ZM392.76 467.49C372.76 441.83 368.04 402.74 381.85 376.49C399.85 349.87 456 344.26 457.39 344.13C467.67 343.303 477.19 342.893 485.95 342.9C529.86 342.9 554.48 353.17 557.64 373.08C560.43 390.65 547.25 416.41 521.46 443.77C500.02 466.52 473.09 486.25 458.81 489.67C432.47 496.17 409 488.31 392.76 467.49Z" fill="black"/>
<path d="M475.63 314.36C474.304 314.369 473.036 314.905 472.105 315.849C471.174 316.793 470.656 318.069 470.665 319.395C470.674 320.721 471.21 321.989 472.154 322.92C473.099 323.851 474.374 324.369 475.7 324.36H475.78L557.93 323.15C556.68 322.63 555.38 322.15 554.04 321.62C543.62 317.77 530.99 315.15 516.24 313.76L475.63 314.36Z" fill="black"/>
<path d="M669.8 311.51L516.24 313.76C530.99 315.15 543.62 317.76 554.04 321.62C555.38 322.12 556.68 322.62 557.93 323.15L637.61 322L637.82 321.89C646.56 317.37 657.22 313.91 669.8 311.51Z" fill="black"/>
<path d="M570.68 330C569.354 330 568.082 330.527 567.144 331.464C566.207 332.402 565.68 333.674 565.68 335C565.68 336.326 566.207 337.598 567.144 338.536C568.082 339.473 569.354 340 570.68 340H581.93C578.663 336.164 574.88 332.799 570.69 330H570.68Z" fill="black"/>
<path d="M625.47 330H570.69C574.88 332.799 578.663 336.164 581.93 340H616.17C618.826 336.28 621.952 332.918 625.47 330V330Z" fill="black"/>
<path d="M573.67 357.38C573.67 356.054 574.197 354.782 575.134 353.845C576.072 352.907 577.344 352.38 578.67 352.38H589.45C587.604 347.886 585.067 343.709 581.93 340H570.68C569.354 340 568.082 339.473 567.144 338.536C566.207 337.598 565.68 336.326 565.68 335C565.68 333.674 566.207 332.402 567.144 331.465C568.082 330.527 569.354 330 570.68 330C566.664 327.306 562.394 325.011 557.93 323.15L475.78 324.36H475.7C474.374 324.369 473.098 323.852 472.154 322.92C471.21 321.989 470.674 320.721 470.665 319.395C470.656 318.069 471.174 316.794 472.105 315.849C473.036 314.905 474.304 314.369 475.63 314.36L516.24 313.76C498.4 312.09 477.46 312.23 453.56 314.18H453.47C450.3 314.47 375.53 321.83 349.61 361.63L349.18 362.35C344.419 371.683 341.136 381.699 339.45 392.04H347.32C348.646 392.04 349.918 392.567 350.856 393.505C351.793 394.442 352.32 395.714 352.32 397.04C352.32 398.366 351.793 399.638 350.856 400.576C349.918 401.513 348.646 402.04 347.32 402.04H338.18C337.789 406.626 337.649 411.229 337.76 415.83H346.27C347.596 415.83 348.868 416.357 349.806 417.295C350.743 418.232 351.27 419.504 351.27 420.83C351.27 422.156 350.743 423.428 349.806 424.366C348.868 425.303 347.596 425.83 346.27 425.83H338.35C340.72 450.45 349.82 475.04 364.97 494.17C383.17 517.17 407.3 529.1 434.54 529.1C443.131 529.061 451.683 527.953 460 525.8C480.6 520.8 515.29 495.25 544.28 463.8C561.73 444.86 588.63 411.04 592.49 378.94H583.86C582.534 378.94 581.262 378.413 580.324 377.476C579.387 376.538 578.86 375.266 578.86 373.94C578.86 372.614 579.387 371.342 580.324 370.405C581.262 369.467 582.534 368.94 583.86 368.94H592.86C592.773 366.823 592.559 364.712 592.22 362.62C592.225 362.544 592.225 362.467 592.22 362.39H578.61C577.293 362.374 576.035 361.839 575.11 360.901C574.185 359.963 573.667 358.698 573.67 357.38V357.38ZM489.91 329.59C531.61 329.59 570.98 337.26 575.54 365.33C578.95 386.33 562.61 418.87 531.83 452.27C502.1 484.53 470.54 505.73 455.94 509.27C416.49 519.27 391.94 500.82 378.29 483.58C353.68 452.52 347.48 402.97 364.08 370.58C385.62 338.19 453.08 331.3 455 331.12C466.34 330.19 478.22 329.59 489.91 329.59Z" fill="black"/>
<path d="M573.67 357.38C573.67 358.706 574.197 359.978 575.134 360.915C576.072 361.853 577.344 362.38 578.67 362.38H592.28C591.713 358.951 590.764 355.597 589.45 352.38H578.67C577.344 352.38 576.072 352.907 575.134 353.844C574.197 354.782 573.67 356.054 573.67 357.38V357.38Z" fill="black"/>
<path d="M583.91 368.93C582.584 368.93 581.312 369.457 580.374 370.395C579.437 371.332 578.91 372.604 578.91 373.93C578.91 375.256 579.437 376.528 580.374 377.466C581.312 378.403 582.584 378.93 583.91 378.93H592.54C592.943 375.613 593.083 372.269 592.96 368.93H583.91Z" fill="black"/>
<path d="M609.88 352.38H589.45C590.764 355.597 591.713 358.951 592.28 362.38H607.68C608.062 358.979 608.799 355.627 609.88 352.38Z" fill="black"/>
<path d="M592.54 378.93H608.14C607.61 375.623 607.335 372.28 607.32 368.93H593C593.11 372.27 592.956 375.614 592.54 378.93V378.93Z" fill="black"/>
<path d="M619.44 368.93H607.32C607.335 372.279 607.61 375.623 608.14 378.93H619.44C620.766 378.93 622.038 378.403 622.976 377.465C623.913 376.528 624.44 375.256 624.44 373.93C624.45 373.76 624.45 373.59 624.44 373.42C624.313 372.184 623.731 371.04 622.807 370.21C621.882 369.38 620.682 368.923 619.44 368.93V368.93Z" fill="black"/>
<path d="M607.68 362.38H619.44C620.507 362.381 621.547 362.042 622.407 361.41C623.267 360.779 623.902 359.888 624.22 358.87C624.365 358.386 624.439 357.885 624.44 357.38C624.44 356.054 623.913 354.782 622.976 353.844C622.038 352.907 620.766 352.38 619.44 352.38H609.88C608.799 355.627 608.062 358.979 607.68 362.38V362.38Z" fill="black"/>
<path d="M616.17 340H627.43C628.756 340 630.028 339.473 630.966 338.536C631.903 337.598 632.43 336.326 632.43 335C632.43 333.674 631.903 332.402 630.966 331.464C630.028 330.527 628.756 330 627.43 330H625.43C621.926 332.921 618.813 336.282 616.17 340Z" fill="black"/>
<path d="M624.53 364.67C624.708 362.835 625.043 361.018 625.53 359.24L624.18 358.87C623.862 359.889 623.227 360.779 622.367 361.41C621.507 362.042 620.467 362.382 619.4 362.38H607.64L607.58 362.91C607.376 364.904 607.275 366.906 607.28 368.91H619.44C620.682 368.904 621.882 369.36 622.807 370.19C623.731 371.02 624.313 372.164 624.44 373.4H624.58C624.269 370.499 624.252 367.574 624.53 364.67V364.67Z" fill="black"/>
<path d="M625.57 359.24C633.72 330.32 681.02 324.33 720.57 324.54H722.37C729.14 324.54 758.14 325.44 773.37 340.44C779.9 346.87 782.97 355.03 782.76 365.44C781.85 409.57 768.49 466.38 745.52 484.73C739.27 489.73 732.74 491.43 725.52 489.96C700.65 484.87 629.02 420.07 624.52 373.47H624.38C624.39 373.64 624.39 373.81 624.38 373.98C624.38 375.306 623.853 376.578 622.916 377.516C621.978 378.453 620.706 378.98 619.38 378.98H608.08C612.65 408.27 635.51 437.58 650.28 453.91C675.14 481.37 704.66 503.04 722.09 506.6C724.797 507.163 727.555 507.448 730.32 507.45C739.48 507.45 748.26 504.25 756.08 498C786.59 473.63 798.88 405.57 799.7 365.78C800.02 350.67 795.13 338.06 785.2 328.31C763.26 306.77 724.03 307.47 720.43 307.59C701.11 307.48 684.18 308.81 669.74 311.59L703.48 311H703.55C704.876 310.99 706.152 311.506 707.097 312.436C708.042 313.367 708.579 314.634 708.59 315.96C708.601 317.286 708.084 318.562 707.154 319.507C706.224 320.453 704.956 320.99 703.63 321L637.63 322C633.303 324.215 629.232 326.898 625.49 330H627.49C628.816 330 630.088 330.527 631.026 331.465C631.963 332.402 632.49 333.674 632.49 335C632.49 336.326 631.963 337.598 631.026 338.536C630.088 339.473 628.816 340 627.49 340H616.23C613.533 343.793 611.413 347.965 609.94 352.38H619.5C620.826 352.38 622.098 352.907 623.036 353.845C623.973 354.782 624.5 356.054 624.5 357.38C624.499 357.885 624.425 358.387 624.28 358.87L625.57 359.24Z" fill="black"/>
<path d="M632.06 369.86C629.32 395.96 651.38 424.91 664.77 439.86C683.87 461.16 706.46 477.95 719.7 480.68C721.743 481.105 723.823 481.323 725.91 481.33C732.772 481.26 739.397 478.807 744.65 474.39C768 455.73 777.43 402.9 778.06 371.93C778.29 360.51 774.63 351.01 767.16 343.68C750.49 327.33 720.61 327.96 718.16 328.04C690.43 327.86 669.07 331.6 654.71 339.04C641.07 346.15 633.47 356.51 632.06 369.86ZM672.22 433.17C651.31 409.85 640.3 387.17 642.01 370.9C644.9 343.39 685.01 337.9 718.17 338.04H719.54C724.94 338.04 747.89 338.78 760.18 350.86C765.66 356.25 768.24 363.08 768.06 371.74C767.34 406.82 756.71 451.97 738.41 466.57C733.21 470.72 727.75 472.13 721.72 470.89C712.39 468.94 691.86 455.07 672.22 433.17Z" fill="black"/>
<path d="M637.61 322L703.61 321C704.936 320.99 706.204 320.453 707.134 319.507C708.064 318.562 708.581 317.286 708.57 315.96C708.559 314.634 708.022 313.367 707.077 312.436C706.132 311.506 704.856 310.99 703.53 311H703.46L669.78 311.49C657.22 313.877 646.553 317.33 637.78 321.85L637.61 322Z" fill="black"/>
<path d="M739.41 431C730.253 431 722.83 416.373 722.83 398.33C722.83 380.287 730.253 365.66 739.41 365.66C748.567 365.66 755.99 380.287 755.99 398.33C755.99 416.373 748.567 431 739.41 431Z" fill="white"/>
<path d="M514.24 424.72C499.466 424.72 487.49 410.093 487.49 392.05C487.49 374.007 499.466 359.38 514.24 359.38C529.014 359.38 540.99 374.007 540.99 392.05C540.99 410.093 529.014 424.72 514.24 424.72Z" fill="white"/>
<path d="M291 317.18C290.85 317.48 291.16 317.32 291.31 317.32C291.252 317.319 291.194 317.306 291.141 317.282C291.087 317.258 291.039 317.223 291 317.18V317.18Z" fill="#414141"/>
<path d="M229 139.88C197 206.08 189.57 258.06 206.83 294.4C218.59 319.15 242.35 337.72 277.58 349.76C279.3 344.84 281.157 339.98 283.15 335.18C267.99 336.28 259.55 336.6 259.24 336.61L258.63 319.61C258.87 319.61 263.86 319.41 272.98 318.83C277.91 318.51 284.05 318.08 291.29 317.5C291.37 317.35 291.29 317.31 291.29 317.31C291.29 317.31 290.83 317.47 290.98 317.17C291.019 317.213 291.067 317.248 291.121 317.272C291.174 317.296 291.232 317.309 291.29 317.31H291.41L292.01 316.13L293.01 317.36C298.63 316.91 304.9 316.36 311.75 315.73C325 314.49 340.47 312.87 357.83 310.78L357.94 310.51L358.41 310.71C405.89 304.95 467.41 295.62 536.52 280.57C584.63 270.11 624.79 265 657.53 263C665.53 262.513 673.083 262.197 680.19 262.05C736.4 260.84 765.48 269.21 771.44 271.16C781.07 272.1 805.44 272.01 815.9 261.36C820.14 257.05 821.7 251.18 820.67 243.36C818.4 226.18 784.28 175.92 726.14 126.24C688.42 94.0099 614.14 40.1299 539.55 40.1299H538.55C470.66 43.5999 380.78 48.2199 313.64 73.2299C305.716 76.1589 297.949 79.4967 290.37 83.2299C262.78 96.8799 241 115.17 229 139.88Z" fill="#414141"/>
<path d="M291.29 317.32C291.36 317.32 291.4 317.32 291.29 317.51L291.38 317.33L291.29 317.32Z" fill="#414141"/>
<path d="M618.89 322.16C511.96 345.16 463.11 349.16 391.1 323.62C433.72 317.75 484.49 309.31 540.1 297.2C594.51 285.36 638.39 280.54 672.52 279.3C680.2 279.02 687.39 278.93 694.09 278.97C743.29 279.31 766.33 287.32 766.72 287.46L767.65 287.81L768.65 287.92C772.559 288.336 776.489 288.53 780.42 288.5C792.97 292.88 813.42 300.13 834.18 307.95C872.47 322.4 890.18 330.69 898.36 335.23C889.75 334.38 876.13 332.11 862.82 329.89C825.46 323.67 772.12 314.79 716.12 313.84C709.62 313.72 703.097 313.72 696.55 313.84C670.46 314.31 644.15 316.73 618.89 322.16ZM680.19 262C673.07 262.153 665.517 262.47 657.53 262.95C624.79 264.95 584.63 270.1 536.47 280.58C467.37 295.63 405.84 304.96 358.36 310.72L357.89 310.52L357.78 310.79C340.42 312.88 324.95 314.5 311.7 315.74C304.85 316.38 298.58 316.92 292.96 317.37C292.72 317.07 291.96 317.32 291.41 317.32L291.32 317.5C284.08 318.08 277.94 318.5 273.01 318.83C263.89 319.41 258.9 319.6 258.66 319.61L259.27 336.61C259.58 336.61 268.02 336.28 283.18 335.18C281.18 339.98 279.323 344.84 277.61 349.76C242.38 337.76 218.61 319.15 206.86 294.4C189.6 258.06 197.06 206.08 229.03 139.88C240.96 115.17 262.78 96.8801 290.35 83.2301C297.929 79.497 305.696 76.1592 313.62 73.2301C380.76 48.2301 470.62 43.6001 538.53 40.1301H539.53C614.16 40.1301 688.4 94.0101 726.12 126.24C784.26 175.92 818.38 226.18 820.65 243.36C821.65 251.14 820.12 257.01 815.88 261.36C805.41 272.01 781.05 272.1 771.42 271.16C765.48 269.17 736.4 260.8 680.19 262ZM213.72 132.48C178.91 204.55 171.65 259.9 191.5 301.69C205.36 330.86 232.56 352.42 272.5 365.99C277.733 367.77 283.187 369.41 288.86 370.91C290.4 365.417 292.11 360.007 293.99 354.68C294.87 352.21 295.78 349.77 296.73 347.34C298.53 342.673 300.463 338.107 302.53 333.64L306.73 333.27C323.93 331.73 345.32 329.52 370.1 326.4C410.35 342.4 441.54 349.59 474.63 350.86C478.21 350.987 481.827 351.053 485.48 351.06C523.78 351.06 566.33 343.67 620.96 331.93C647.2 326.3 674.71 323.99 701.91 323.77C708.343 323.71 714.747 323.77 721.12 323.95C774.52 325.33 825.27 333.78 861.12 339.76C899.42 346.14 909.6 347.58 913.59 342.21C914.191 341.399 914.59 340.455 914.753 339.459C914.917 338.462 914.84 337.441 914.53 336.48C913.37 332.77 911.44 326.56 840.01 299.48C827.17 294.61 814.34 289.94 803.29 285.98C812.29 283.84 821.29 279.98 827.98 273.23C833.5 267.6 839.64 257.47 837.47 241.12C833.9 214.12 790.76 159.12 737.14 113.31C697.62 79.5501 619.58 23.1201 539.49 23.1201H537.8C471.05 26.5401 406.36 30.7701 348.61 44.8301C278 62.0701 233.89 90.7301 213.72 132.48Z" fill="black"/>
<path d="M292 316.15L291.4 317.33C291.92 317.33 292.71 317.08 292.95 317.38L292 316.15Z" fill="#414141"/>
<path d="M672.51 279.3C638.38 280.54 594.51 285.36 540.09 297.2C484.49 309.31 433.72 317.75 391.09 323.62C463.09 349.19 511.95 345.12 618.88 322.16C644.14 316.73 670.45 314.31 696.53 313.84C703.07 313.714 709.593 313.714 716.1 313.84C772.1 314.84 825.44 323.67 862.8 329.89C876.11 332.11 889.73 334.38 898.34 335.23C890.16 330.69 872.45 322.4 834.16 307.95C813.42 300.13 792.95 292.88 780.4 288.5C776.469 288.53 772.539 288.336 768.63 287.92L767.63 287.81L766.7 287.46C766.31 287.32 743.27 279.31 694.07 278.97C687.38 278.93 680.19 279 672.51 279.3Z" fill="#414141"/>
<g opacity="0.8">
<path d="M476.645 648.688C413.404 585.446 413.404 482.911 476.645 419.67C539.887 356.428 642.422 356.428 705.663 419.67C768.905 482.911 768.905 585.446 705.663 648.688C642.422 711.929 539.887 711.929 476.645 648.688Z" fill="#F28CCE"/>
</g>
<path d="M591.16 362.23C685.97 362.23 763.1 439.37 763.1 534.18C763.1 628.99 686 706.12 591.16 706.12C496.32 706.12 419.16 628.99 419.16 534.18C419.16 439.37 496.35 362.23 591.16 362.23ZM753.1 534.18C753.1 444.88 680.45 372.23 591.16 372.23C501.87 372.23 429.16 444.88 429.16 534.18C429.16 623.48 501.86 696.12 591.16 696.12C680.46 696.12 753.1 623.47 753.1 534.18Z" fill="black"/>
<path d="M723.21 592.1C724.684 592.102 726.133 591.721 727.415 590.993C728.696 590.265 729.767 589.217 730.52 587.95C731.52 586.29 754.62 546.67 740.52 494.29C739.933 492.099 738.499 490.232 736.534 489.098C734.57 487.964 732.236 487.658 730.045 488.245C727.854 488.832 725.987 490.266 724.853 492.231C723.719 494.195 723.413 496.529 724 498.72C736.3 544.22 716.08 578.9 715.87 579.24C715.103 580.53 714.69 582 714.675 583.501C714.659 585.002 715.041 586.481 715.781 587.787C716.521 589.093 717.594 590.179 718.89 590.937C720.186 591.694 721.659 592.096 723.16 592.1H723.21Z" fill="white"/>
<path d="M719.58 475.17C721.012 475.171 722.421 474.81 723.676 474.12C724.93 473.43 725.99 472.434 726.757 471.224C727.523 470.015 727.971 468.631 728.059 467.202C728.147 465.773 727.872 464.345 727.26 463.05L725.36 459.05C724.322 457.151 722.599 455.72 720.542 455.047C718.485 454.375 716.249 454.513 714.29 455.433C712.331 456.352 710.796 457.984 709.999 459.996C709.202 462.008 709.202 464.248 710 466.26L711.9 470.26C712.583 471.723 713.667 472.961 715.027 473.83C716.387 474.7 717.966 475.164 719.58 475.17V475.17Z" fill="white"/>
</g>
<defs>
<clipPath id="clip0_381_1800">
<rect width="1000" height="1000" fill="white" transform="matrix(-1 0 0 1 1000 0)"/>
</clipPath>
</defs>
</svg>
