<svg width="1000" height="1000" viewBox="0 0 1000 1000" fill="none" xmlns="http://www.w3.org/2000/svg">
<g clip-path="url(#clip0_381_1682)">
<path d="M37.94 1017C37.277 1017 36.6411 1017.26 36.1722 1017.73C35.7034 1018.2 35.44 1018.84 35.44 1019.5C35.44 1020.16 35.7034 1020.8 36.1722 1021.27C36.6411 1021.74 37.277 1022 37.94 1022H117.19C117.291 1022.34 117.411 1022.67 117.55 1023C118.005 1024.02 118.656 1024.94 119.467 1025.71C120.277 1026.48 121.231 1027.08 122.274 1027.48C123.317 1027.88 124.428 1028.07 125.545 1028.04C126.661 1028.01 127.76 1027.76 128.78 1027.3C132.106 1025.79 135.312 1024.04 138.37 1022.04H320.74C321.147 1023.39 321.89 1024.62 322.9 1025.6C324.506 1027.17 326.671 1028.05 328.921 1028.03C331.17 1028.01 333.32 1027.1 334.9 1025.5C335.968 1024.44 336.929 1023.28 337.77 1022.04H764.38C764.915 1023.77 765.991 1025.29 767.45 1026.37C768.909 1027.45 770.675 1028.04 772.49 1028.04C773.044 1028.04 773.597 1027.99 774.14 1027.88C775.647 1027.58 777.045 1026.88 778.186 1025.85C779.327 1024.83 780.168 1023.51 780.62 1022.04H822.62C823.283 1022.04 823.919 1021.78 824.388 1021.31C824.857 1020.84 825.12 1020.2 825.12 1019.54C825.12 1018.88 824.857 1018.24 824.388 1017.77C823.919 1017.3 823.283 1017.04 822.62 1017.04H780.62C773.44 982.71 739.7 941.3 707.05 901.25C685.94 875.34 666.05 850.88 653.64 829.25C641.55 808.09 639.73 784.1 648.23 757.95C650.894 749.874 654.333 742.074 658.5 734.66C687.826 724.844 715.293 710.166 739.75 691.24C787.57 653.9 815 604.75 815 556.31C815 518.8 810.93 477.2 780.78 453.1C771.42 445.62 760.08 440.21 746.49 436.78C745.227 393.188 733.391 350.555 712 312.55C723.48 303.03 753.93 281.81 786.86 292.55C788.358 293.037 789.963 293.097 791.493 292.725C793.024 292.353 794.422 291.563 795.529 290.443C796.637 289.322 797.412 287.916 797.767 286.381C798.122 284.846 798.043 283.243 797.54 281.75C796.83 279.64 779.59 229.85 732.92 211.62C702.77 199.85 667.92 204.1 629.14 224.24C599.218 204.913 565.215 192.804 529.813 188.866C494.41 184.928 458.577 189.271 425.14 201.55C415.62 195.81 405.46 189.34 395.33 182.29C343.48 146.21 315.43 111.65 314.22 82.3401C314.15 80.6355 313.568 78.9913 312.551 77.6216C311.534 76.2519 310.128 75.22 308.516 74.6601C306.905 74.1003 305.162 74.0384 303.515 74.4824C301.867 74.9265 300.392 75.8561 299.28 77.1501C297.9 78.7601 265.19 117.21 249.62 171.88C240.37 204.34 239.16 235.72 246.01 265.16C252.17 291.58 264.82 316.34 283.77 339.1C269.488 372.859 262.169 409.154 262.25 445.81C262.11 451.33 260.57 544.86 310 599.6C312.173 609.395 315.423 618.92 319.69 628C314.16 644.88 287.9 723.47 253.21 805C188.91 956.11 146.29 1000.83 121.86 1011.74C120.752 1012.23 119.762 1012.96 118.958 1013.86C118.154 1014.77 117.555 1015.84 117.2 1017H37.94ZM320.74 1017H145.36C181.36 988.85 222.78 919.93 268.88 811.55C297.6 744.04 320.57 678.55 330.95 647.92C343.52 666.7 360.85 684 382.49 699C430.27 732.18 493.65 750.45 560.95 750.45C586.397 750.468 611.747 747.327 636.42 741.1C634.97 744.51 633.57 748.16 632.29 752.03C622.17 782.7 624.46 812.28 638.92 837.59C651.97 860.43 672.35 885.43 693.92 911.89C724.1 948.89 755.27 987.15 763.21 1016.94H340.74C346.3 1006.23 355.6 981.62 370.82 920.68C381.82 876.43 390.82 833.92 390.89 833.49C391.353 831.284 390.92 828.983 389.687 827.096C388.454 825.208 386.522 823.888 384.315 823.425C382.108 822.962 379.808 823.395 377.921 824.628C376.033 825.861 374.713 827.794 374.25 830C374.16 830.42 365.25 872.66 354.32 916.59C334.17 997.23 325.1 1011.13 322.8 1013.47C321.833 1014.46 321.126 1015.67 320.74 1017ZM291.74 322C259.28 279.68 250.54 231.09 265.74 177.07C274.74 145.21 290.34 118.76 300.94 103.23C310.74 132.78 339.15 164.02 385.73 196.39C392.51 201.1 399.26 205.54 405.81 209.68C411.96 213.57 417.94 217.19 423.62 220.52C449.03 235.4 468.36 244.4 469.53 244.94C470.543 245.409 471.639 245.674 472.754 245.719C473.87 245.764 474.983 245.59 476.031 245.205C477.079 244.82 478.041 244.232 478.862 243.476C479.682 242.719 480.346 241.808 480.815 240.795C481.284 239.782 481.549 238.686 481.594 237.571C481.639 236.456 481.465 235.342 481.08 234.294C480.695 233.246 480.107 232.284 479.351 231.464C478.594 230.643 477.683 229.979 476.67 229.51C476.44 229.4 463.41 223.34 444.85 213.03C464.171 207.343 484.209 204.46 504.35 204.47C546.94 204.524 588.535 217.35 623.76 241.29C652.333 260.638 676.31 286.022 694 315.65C715.354 351.457 727.496 392 729.34 433.65C724.84 433.09 720.13 432.72 715.22 432.5C699.46 431.81 681.52 432.83 661.08 435.57C652.252 429.247 642.372 424.541 631.9 421.67C613.59 416.6 584.63 414.79 550.66 434.91L547.97 436.5L547.65 437.43C484.86 424.49 393.39 407.01 342.49 451.9C315.69 475.55 303.59 513.75 306.49 565.53C277.76 514.7 279.2 446.89 279.23 446.1V445.86C279.175 414.135 285.035 382.677 296.51 353.1C300.443 357.1 304.577 361.017 308.91 364.85C309.745 365.591 310.718 366.16 311.773 366.524C312.828 366.889 313.945 367.042 315.059 366.975C316.173 366.909 317.264 366.623 318.268 366.135C319.271 365.647 320.169 364.965 320.91 364.13C321.651 363.295 322.22 362.322 322.584 361.267C322.949 360.212 323.102 359.095 323.035 357.981C322.968 356.867 322.683 355.777 322.195 354.773C321.706 353.769 321.025 352.871 320.19 352.13C314.317 346.923 308.863 341.59 303.83 336.13C299.503 331.497 295.487 326.767 291.78 321.94L291.74 322ZM323.9 570.81C319.99 521.29 330.03 485.58 353.74 464.67C399.49 424.32 489.11 442.67 548.65 455.02C549.563 457 550.658 458.892 551.92 460.67C560.14 472.41 576.85 483.24 601.62 492.9C603.251 512.581 598.329 532.248 587.62 548.84C587.01 549.775 586.591 550.822 586.386 551.919C586.181 553.017 586.194 554.144 586.425 555.237C586.657 556.329 587.101 557.365 587.733 558.285C588.366 559.206 589.173 559.992 590.11 560.6C591.481 561.504 593.088 561.984 594.73 561.98C596.147 561.982 597.543 561.63 598.79 560.956C600.037 560.282 601.095 559.307 601.87 558.12C614.526 538.645 620.429 515.55 618.67 492.39C633.31 487.91 661.52 476.26 666.44 452.02C679.405 450.269 692.468 449.344 705.55 449.25C734.7 449.25 755.84 454.95 770.14 466.37C789.65 482 798 508.87 798 556.31C798 599.47 773 643.74 729.36 677.75C710.007 692.754 688.603 704.904 665.8 713.83C659.7 716.237 653.493 718.43 647.18 720.41C619.272 729.11 590.203 733.514 560.97 733.47C457.22 733.47 368.83 687.68 336.78 624.12C336.612 623.669 336.397 623.237 336.14 622.83C330.936 612.322 327.319 601.1 325.41 589.53C324.434 583.58 323.942 577.56 323.94 571.53L323.9 570.81ZM565.84 450.92C564.979 449.728 564.273 448.431 563.74 447.06C566.9 445.36 570 443.877 573.04 442.61C598.37 431.91 619.37 434.91 633.49 440.07C639.253 442.159 644.732 444.961 649.8 448.41C649.322 450.691 648.464 452.875 647.26 454.87C639.07 468.65 616.12 475.57 608.84 477.46C592.77 471.29 582.32 465.46 575.52 460.36C571.815 457.744 568.548 454.558 565.84 450.92ZM675.84 263.32C666.349 253.146 656.027 243.78 644.98 235.32C675.84 220.98 703.24 218.32 726.58 227.32C751.58 237.01 766.86 258.32 774.76 272.74C742.76 269.91 715.83 287.49 703.01 297.81C694.96 285.566 685.884 274.027 675.88 263.32H675.84Z" fill="black"/>
<path d="M145.36 1017H320.74C321.136 1015.7 321.843 1014.51 322.8 1013.54C325.1 1011.2 334.17 997.3 354.32 916.66C365.32 872.73 374.16 830.49 374.25 830.07C374.711 827.863 376.031 825.93 377.917 824.696C379.804 823.462 382.103 823.028 384.31 823.49C386.517 823.951 388.449 825.271 389.683 827.157C390.917 829.044 391.351 831.343 390.89 833.55C390.8 833.98 381.89 876.49 370.82 920.74C355.6 981.68 346.3 1006.29 340.74 1017H763.2C755.26 987.21 724.09 949 693.91 911.95C672.35 885.49 651.97 860.49 638.91 837.65C624.45 812.34 622.16 782.76 632.28 752.09C633.56 748.22 634.96 744.57 636.41 741.16C611.737 747.387 586.387 750.527 560.94 750.51C493.64 750.51 430.26 732.24 382.48 699.06C360.84 684.06 343.48 666.74 330.94 647.92C320.56 678.56 297.59 744.04 268.87 811.55C222.78 919.89 181.32 988.81 145.36 1017Z" fill="#ABF0D1"/>
<path d="M265.82 177C250.58 231 259.32 279.61 291.82 321.93C295.533 326.756 299.553 331.506 303.88 336.18C308.907 341.613 314.36 346.946 320.24 352.18C321.075 352.92 321.756 353.818 322.245 354.822C322.733 355.826 323.018 356.916 323.085 358.031C323.152 359.145 322.999 360.261 322.634 361.317C322.27 362.372 321.701 363.345 320.96 364.18C320.219 365.015 319.321 365.696 318.318 366.184C317.314 366.672 316.223 366.958 315.109 367.025C313.995 367.092 312.878 366.939 311.823 366.574C310.768 366.209 309.795 365.64 308.96 364.9C304.62 361.046 300.487 357.13 296.56 353.15C285.085 382.727 279.225 414.184 279.28 445.91V446.15C279.28 446.94 277.81 514.75 306.54 565.58C303.63 513.8 315.73 475.58 342.54 451.95C393.44 407.06 484.91 424.54 547.7 437.48L548.02 436.55L550.71 434.96C584.71 414.84 613.64 416.65 631.95 421.72C642.422 424.59 652.302 429.297 661.13 435.62C681.57 432.88 699.51 431.86 715.27 432.55C720.18 432.77 724.89 433.14 729.39 433.7C727.546 392.05 715.404 351.507 694.05 315.7C676.39 286.058 652.44 260.654 623.89 241.28C588.665 217.339 547.07 204.514 504.48 204.46C484.339 204.45 464.301 207.333 444.98 213.02C463.54 223.33 476.57 229.39 476.8 229.5C478.846 230.447 480.432 232.167 481.21 234.284C481.987 236.4 481.892 238.739 480.945 240.785C479.998 242.831 478.277 244.417 476.161 245.194C474.045 245.972 471.706 245.877 469.66 244.93C468.49 244.39 449.16 235.39 423.75 220.51C418.07 217.18 412.09 213.51 405.94 209.67C399.39 205.53 392.64 201.09 385.86 196.38C339.28 164.01 310.86 132.77 301.07 103.22C290.42 118.7 274.8 145.15 265.82 177ZM307.82 294.77C291.21 267.34 290.56 241.3 294.11 222.06C297.457 204.169 304.814 187.269 315.63 172.63C316.171 171.954 316.879 171.429 317.684 171.109C318.488 170.789 319.362 170.683 320.22 170.802C321.078 170.921 321.891 171.26 322.578 171.788C323.265 172.315 323.803 173.012 324.14 173.81C332.85 194.4 355.34 212.72 376.5 226.26C382.18 229.91 387.77 233.2 392.97 236.09C402.2 241.285 411.686 246.015 421.39 250.26C422.264 250.614 423.02 251.207 423.57 251.972C424.121 252.737 424.445 253.643 424.503 254.583C424.562 255.524 424.353 256.463 423.901 257.29C423.45 258.117 422.773 258.8 421.95 259.26C383.78 281.1 364.95 302.55 345.05 325.26L343.11 327.47C342.675 327.965 342.146 328.369 341.554 328.659C340.962 328.949 340.318 329.119 339.66 329.16H339.35C338.126 329.16 336.945 328.712 336.03 327.9C329.711 322.333 323.839 316.277 318.47 309.79C314.582 305.044 311.037 300.028 307.86 294.78L307.82 294.77ZM509.58 404.05V350C509.58 344.961 511.582 340.128 515.145 336.565C518.708 333.002 523.541 331 528.58 331C533.619 331 538.452 333.002 542.015 336.565C545.578 340.128 547.58 344.961 547.58 350V404C547.58 409.039 545.578 413.872 542.015 417.435C538.452 420.998 533.619 423 528.58 423C523.541 423 518.708 420.998 515.145 417.435C511.582 413.872 509.58 409.039 509.58 404V404.05ZM646.3 404.05V350C646.3 344.961 648.302 340.128 651.865 336.565C655.428 333.002 660.261 331 665.3 331C670.339 331 675.172 333.002 678.735 336.565C682.298 340.128 684.3 344.961 684.3 350V404C684.3 409.039 682.298 413.872 678.735 417.435C675.172 420.998 670.339 423 665.3 423C660.261 423 655.428 420.998 651.865 417.435C648.302 413.872 646.3 409.039 646.3 404V404.05Z" fill="#EEB061"/>
<path d="M294.15 222.07C290.6 241.31 291.25 267.35 307.86 294.78C311.05 300.026 314.609 305.039 318.51 309.78C323.879 316.268 329.751 322.323 336.07 327.89C336.985 328.702 338.166 329.151 339.39 329.15H339.7C340.358 329.11 341.002 328.94 341.594 328.65C342.186 328.36 342.715 327.955 343.15 327.46L345.09 325.25C365 302.54 383.82 281.09 421.99 259.25C422.813 258.791 423.489 258.108 423.941 257.28C424.393 256.453 424.602 255.515 424.543 254.574C424.485 253.633 424.161 252.728 423.61 251.963C423.06 251.198 422.304 250.604 421.43 250.25C411.723 246.012 402.234 241.289 393 236.1C387.8 233.21 382.21 229.92 376.53 226.27C355.37 212.73 332.88 194.41 324.17 173.82C323.833 173.022 323.295 172.325 322.608 171.798C321.92 171.271 321.108 170.931 320.25 170.812C319.392 170.693 318.518 170.799 317.713 171.119C316.909 171.44 316.201 171.964 315.66 172.64C304.848 187.28 297.494 204.18 294.15 222.07ZM314.15 285.92C303.449 267.137 299.837 245.139 303.97 223.92C306.585 210.354 311.644 197.377 318.9 185.62C329.57 204.06 348.9 220.13 367.62 232.53C373.02 236.11 378.37 239.38 383.45 242.31C393.45 248.09 402.45 252.57 408.66 255.52C375.42 275.94 357.46 295.97 338.98 317.03C333.702 312.099 328.798 306.781 324.31 301.12C320.524 296.334 317.13 291.251 314.16 285.92H314.15Z" fill="black"/>
<path d="M304 223.89C299.867 245.109 303.479 267.107 314.18 285.89C317.155 291.211 320.552 296.284 324.34 301.06C328.824 306.73 333.724 312.058 339 317C357.48 295.94 375.44 275.91 408.68 255.49C402.44 252.49 393.48 248.06 383.47 242.28C378.39 239.35 373.04 236.08 367.64 232.5C348.91 220.1 329.64 204.03 318.92 185.59C311.667 197.347 306.612 210.325 304 223.89Z" fill="#BFB891"/>
<path d="M353.74 464.67C330 485.58 320 521.29 323.9 570.81V571.48C323.902 577.51 324.394 583.53 325.37 589.48C327.279 601.05 330.896 612.272 336.1 622.78C336.357 623.187 336.572 623.619 336.74 624.07C368.74 687.63 457.18 733.42 560.93 733.42C590.163 733.464 619.232 729.06 647.14 720.36C653.447 718.36 659.653 716.167 665.76 713.78C688.563 704.854 709.967 692.703 729.32 677.7C773 643.74 798 599.47 798 556.31C798 508.87 789.67 481.97 770.17 466.37C755.87 454.95 734.73 449.25 705.58 449.25C692.492 449.336 679.422 450.254 666.45 452C661.53 476.24 633.32 487.89 618.68 492.37C620.439 515.529 614.536 538.625 601.88 558.1C601.105 559.287 600.047 560.262 598.8 560.936C597.553 561.61 596.157 561.962 594.74 561.96C593.098 561.964 591.491 561.484 590.12 560.58C589.183 559.972 588.376 559.186 587.743 558.265C587.111 557.345 586.667 556.309 586.435 555.217C586.204 554.124 586.191 552.997 586.396 551.899C586.601 550.802 587.02 549.755 587.63 548.82C598.339 532.228 603.261 512.56 601.63 492.88C576.86 483.22 560.15 472.39 551.93 460.65C550.668 458.872 549.573 456.98 548.66 455C489.11 442.71 399.49 424.32 353.74 464.67Z" fill="#BFB891"/>
<path d="M509.58 350V404C509.58 409.039 511.582 413.872 515.145 417.435C518.708 420.998 523.541 423 528.58 423C533.619 423 538.452 420.998 542.015 417.435C545.578 413.872 547.58 409.039 547.58 404V350C547.58 344.961 545.578 340.128 542.015 336.565C538.452 333.002 533.619 331 528.58 331C523.541 331 518.708 333.002 515.145 336.565C511.582 340.128 509.58 344.961 509.58 350Z" fill="black"/>
<path d="M563.74 447.06C564.273 448.43 564.979 449.728 565.84 450.92C568.548 454.558 571.815 457.744 575.52 460.36C582.32 465.42 592.77 471.29 608.84 477.46C616.12 475.57 639.07 468.65 647.26 454.87C648.464 452.875 649.322 450.691 649.8 448.41C644.732 444.961 639.253 442.159 633.49 440.07C619.37 434.91 598.37 431.91 573.04 442.61C570 443.883 566.9 445.367 563.74 447.06Z" fill="#321F42"/>
<path d="M646.3 350V404C646.3 409.039 648.302 413.872 651.865 417.435C655.428 420.998 660.261 423 665.3 423C670.339 423 675.172 420.998 678.735 417.435C682.298 413.872 684.3 409.039 684.3 404V350C684.3 344.961 682.298 340.128 678.735 336.565C675.172 333.002 670.339 331 665.3 331C660.261 331 655.428 333.002 651.865 336.565C648.302 340.128 646.3 344.961 646.3 350Z" fill="black"/>
<path d="M645 235.33C656.047 243.789 666.369 253.155 675.86 263.33C685.869 274.049 694.949 285.601 703 297.86C715.82 287.54 742.76 269.96 774.75 272.79C766.85 258.41 751.53 237.06 726.57 227.37C703.28 218.31 675.88 221 645 235.33Z" fill="#EEB061"/>
<path d="M246.5 335.71V446.57H296.22L296.37 429.57H263.5V352.71H296.66V394.09L297.14 335.71H246.5Z" fill="black"/>
<path d="M263.5 352.71V429.57H296.37L296.66 394.09V352.71H263.5Z" fill="#321F42"/>
<path d="M296.22 446.57L296.13 457.95L301.26 460.2C306.96 462.69 433.26 517.61 495.66 517.61C499.543 517.636 503.423 517.382 507.27 516.85L509.05 516.58L568.89 478.71C563.7 475.574 558.866 471.886 554.47 467.71L503.07 500.25C465.54 504.53 384.71 475.43 339.79 457.67V465.41C339.79 466.736 339.263 468.008 338.326 468.945C337.388 469.883 336.116 470.41 334.79 470.41C333.464 470.41 332.192 469.883 331.254 468.945C330.317 468.008 329.79 466.736 329.79 465.41V453.68C322.67 450.79 316.99 448.42 313.22 446.82V446.57H296.22Z" fill="black"/>
<path d="M296.37 429.57L296.22 446.57H313.22L313.66 393.92V335.71H297.14L296.66 394.09V429.57H296.37Z" fill="black"/>
<path d="M296.66 394.09L296.369 429.57H296.66V394.09Z" fill="black"/>
<path d="M313.22 446.57V446.82C316.99 448.42 322.67 450.82 329.79 453.68V335L314.07 344.63L313.66 393.93V446.58L313.22 446.57Z" fill="#10143A"/>
<path d="M313.66 393.92L313.22 446.57H313.66V393.92Z" fill="black"/>
<path d="M313.66 335.71V393.92L314.07 344.62L329.79 335V322C329.79 320.674 330.317 319.402 331.254 318.464C332.192 317.526 333.464 317 334.79 317C336.116 317 337.388 317.526 338.326 318.464C339.263 319.402 339.79 320.674 339.79 322V329.46C509.51 283.83 614.32 283 672.43 290.35C722.98 296.75 747.73 310.28 755.65 315.48V441.48C752.33 448.23 736.1 476.87 695.14 488.21L692.75 487.38L698.5 493.74C698.958 494.224 699.314 494.794 699.549 495.418C699.783 496.042 699.89 496.706 699.864 497.372C699.838 498.038 699.678 498.692 699.396 499.296C699.113 499.899 698.713 500.44 698.219 500.887C697.724 501.333 697.145 501.676 696.516 501.896C695.887 502.116 695.22 502.207 694.555 502.166C693.89 502.124 693.24 501.95 692.643 501.654C692.047 501.357 691.515 500.944 691.08 500.44L673.08 480.5L651 472.81C645.899 477.634 640.113 481.678 633.83 484.81L694.41 506L696.89 505.37C752.95 491.14 771.25 448.45 772 446.64L772.65 445.08V307.32L769.78 304.78C768.78 303.89 744.27 282.78 677.41 273.85C638.99 268.7 594.02 268.5 543.74 273.25C481.22 279.15 410.17 292.78 332.58 313.76L331.4 314.08L297.15 335.08V335.74L313.66 335.71Z" fill="black"/>
<path d="M329.79 453.68V465.41C329.79 466.736 330.317 468.008 331.255 468.946C332.192 469.883 333.464 470.41 334.79 470.41C336.116 470.41 337.388 469.883 338.326 468.946C339.263 468.008 339.79 466.736 339.79 465.41V457.67C336.21 456.26 332.87 454.92 329.79 453.68Z" fill="black"/>
<path d="M329.79 335V453.68C332.87 454.92 336.21 456.26 339.79 457.68V329.42L338.19 329.85L329.79 335Z" fill="black"/>
<path d="M329.79 322V335L338.19 329.86L339.79 329.43V322C339.79 320.674 339.263 319.402 338.326 318.464C337.388 317.527 336.116 317 334.79 317C333.464 317 332.192 317.527 331.255 318.464C330.317 319.402 329.79 320.674 329.79 322Z" fill="black"/>
<path d="M339.79 329.42V457.67C384.71 475.43 465.54 504.53 503.07 500.25L554.47 467.71C552.218 465.552 550.175 463.184 548.37 460.64C546.539 458.109 545.068 455.336 544 452.4C528.168 460.555 513.057 470.039 498.83 480.75C498.068 481.351 497.149 481.717 496.183 481.804C495.217 481.891 494.247 481.695 493.39 481.24C493.213 481.149 493.043 481.045 492.88 480.93C490.81 480.3 484.26 478.98 477.88 477.69C414.05 464.79 355.3 449 357.21 421.05C355.4 363.98 360.41 342.75 360.62 341.87C360.815 341.075 361.203 340.34 361.749 339.73C362.294 339.12 362.982 338.653 363.75 338.37C364.33 338.15 422.48 316.82 497.94 303.68C542.33 295.96 583.94 292.53 621.72 293.49C669.15 294.69 710.57 302.86 744.84 317.78C745.733 318.17 746.492 318.812 747.025 319.627C747.558 320.443 747.841 321.396 747.84 322.37V433.49C747.84 433.939 747.78 434.387 747.66 434.82C747.28 436.21 737.83 468.91 697.02 474.56C696.129 474.68 695.222 474.557 694.395 474.206C693.568 473.854 692.851 473.285 692.32 472.56C684.158 462.473 674.423 453.768 663.49 446.78C663.349 449.164 662.977 451.528 662.38 453.84L692.75 487.4L695.14 488.23C736.14 476.89 752.33 448.23 755.65 441.5V315.5C747.73 310.3 722.98 296.77 672.43 290.37C614.32 283 509.51 283.83 339.79 329.42Z" fill="#10143A"/>
<path d="M369.93 346.81C368.74 353.9 365.86 376.24 367.3 421C367.31 421.193 367.31 421.387 367.3 421.58C366.54 430.58 380.91 440.63 407.75 449.83C432.34 458.27 462.15 464.29 479.96 467.89C485.22 468.95 489.38 469.79 492.37 470.48C493.26 470.68 494.16 470.89 495.02 471.13C510.087 459.928 526.109 450.07 542.9 441.67C543.005 440.912 543.179 440.166 543.42 439.44L544.42 436.49L547.11 434.9C581.11 414.78 610.04 416.59 628.35 421.66C630.6 422.28 632.74 422.97 634.78 423.66C668.94 431.27 691.88 456.2 698.49 464.17C728.01 458.84 736.59 436.68 737.9 432.7V325.67C663.24 294.46 567.49 301.76 499.9 313.51C455.776 321.212 412.321 332.346 369.93 346.81Z" fill="#F9EC31"/>
<path d="M542.88 441.67C542.366 445.284 542.751 448.97 544 452.4C546.5 451.11 549.08 449.83 551.71 448.58C550.57 444.58 551.39 442.21 551.39 442.21C559.072 437.6 567.259 433.888 575.79 431.15L574.96 428.46C563.951 432.053 553.227 436.469 542.88 441.67Z" fill="black"/>
<path d="M544 452.4C545.053 455.333 546.507 458.106 548.32 460.64C550.125 463.184 552.168 465.552 554.42 467.71L561.89 463C555.48 457.21 552.81 452.21 551.76 448.56C549.13 449.83 546.55 451.11 544 452.4Z" fill="black"/>
<path d="M551.44 442.21C551.44 442.21 550.62 444.58 551.76 448.58C560.049 444.606 568.583 441.166 577.31 438.28C587.201 434.938 597.446 432.754 607.84 431.77C619.885 430.811 631.993 432.494 643.32 436.7C629.97 429.62 606.1 421.62 575.84 431.15C567.309 433.889 559.122 437.6 551.44 442.21Z" fill="black"/>
<path d="M561.89 463L554.47 467.69C558.866 471.866 563.7 475.555 568.89 478.69L573.51 475.77C574.573 475.102 575.472 474.203 576.14 473.14C571.053 470.26 566.278 466.862 561.89 463Z" fill="black"/>
<path d="M564.42 461.42L561.89 463.02C566.278 466.882 571.053 470.28 576.14 473.16C577.005 471.8 577.464 470.221 577.464 468.61C577.464 466.998 577.005 465.42 576.14 464.06C575.581 463.169 574.858 462.392 574.01 461.77L573.73 461.57C572.361 460.641 570.751 460.131 569.097 460.105C567.443 460.078 565.818 460.535 564.42 461.42Z" fill="black"/>
<path d="M564.42 461.42C565.819 460.533 567.446 460.075 569.102 460.101C570.758 460.128 572.37 460.638 573.74 461.57C564.59 455.15 561.38 449.95 560.26 446.99C565.837 443.973 571.678 441.473 577.71 439.52L577.31 438.28C568.583 441.166 560.049 444.606 551.76 448.58C552.81 452.23 555.48 457.23 561.89 463.02L564.42 461.42Z" fill="black"/>
<path d="M573.739 461.57L574.02 461.77C573.931 461.698 573.837 461.631 573.739 461.57Z" fill="black"/>
<path d="M575 428.46L575.83 431.15C606.09 421.62 629.96 429.62 643.31 436.7C650.412 439.313 657.203 442.704 663.56 446.81C663.61 446.05 663.63 445.27 663.63 444.48V440.67L660.79 438.14C660.35 437.74 650.9 429.43 634.79 423.7C628.188 422.225 621.444 421.481 614.68 421.48C612.17 421.48 609.62 421.58 607.02 421.8C596.13 422.805 585.388 425.039 575 428.46Z" fill="black"/>
<path d="M614.67 421.48C621.434 421.48 628.178 422.225 634.78 423.7C632.78 422.97 630.6 422.28 628.35 421.7C610.04 416.63 581.08 414.82 547.11 434.94L544.42 436.53L543.42 439.48C543.179 440.206 543.005 440.952 542.9 441.71C553.253 436.494 563.983 432.065 575 428.46C585.381 425.04 596.116 422.806 607 421.8C609.61 421.58 612.16 421.48 614.67 421.48Z" fill="black"/>
<path d="M625.07 472.76C624.691 473.839 624.535 474.984 624.611 476.125C624.686 477.266 624.992 478.38 625.51 479.4C631.355 476.865 636.842 473.574 641.83 469.61L635.9 467.54C633.772 466.799 631.436 466.932 629.405 467.91C627.375 468.889 625.816 470.633 625.07 472.76Z" fill="black"/>
<path d="M628.77 468.25C629.835 467.618 631.025 467.228 632.256 467.105C633.488 466.982 634.732 467.131 635.9 467.54L641.83 469.61C646.792 465.767 650.686 460.716 653.14 454.94C654.474 451.615 655.153 448.063 655.14 444.48C651.494 441.465 647.531 438.857 643.32 436.7C631.993 432.494 619.884 430.811 607.84 431.77C597.446 432.754 587.201 434.938 577.31 438.28L577.71 439.52C612.32 428.41 637.61 442.41 646.25 448.38C644.48 457.01 636.99 463.52 628.74 468.2L628.77 468.25Z" fill="black"/>
<path d="M625.51 479.4C626.5 481.364 628.214 482.866 630.29 483.59L633.82 484.82C640.103 481.688 645.889 477.644 650.99 472.82L641.83 469.62C636.841 473.58 631.354 476.868 625.51 479.4Z" fill="black"/>
<path d="M651 472.81L673.08 480.52L658.13 464C656.126 467.22 653.731 470.179 651 472.81Z" fill="#10143A"/>
<path d="M654.43 459.89C653.845 459.243 653.439 458.454 653.253 457.601C653.067 456.749 653.107 455.862 653.37 455.03L653.14 454.94C650.686 460.716 646.792 465.767 641.83 469.61L650.99 472.81C653.726 470.177 656.124 467.214 658.13 463.99L654.43 459.89Z" fill="black"/>
<path d="M653.37 455C653.107 455.832 653.067 456.719 653.253 457.571C653.439 458.424 653.845 459.213 654.43 459.86L658.13 463.96C660.068 460.82 661.527 457.41 662.46 453.84L661.85 453.16C661.26 452.506 660.508 452.02 659.67 451.75C658.832 451.48 657.937 451.436 657.077 451.622C656.216 451.809 655.42 452.22 654.769 452.813C654.118 453.406 653.636 454.161 653.37 455Z" fill="black"/>
<path d="M654.79 452.83C655.774 451.942 657.071 451.481 658.395 451.549C659.718 451.616 660.961 452.207 661.85 453.19L662.46 453.87C663.057 451.558 663.429 449.194 663.57 446.81C657.213 442.704 650.422 439.313 643.32 436.7C647.531 438.857 651.494 441.466 655.14 444.48C655.153 448.063 654.474 451.615 653.14 454.94L653.37 455.03C653.64 454.184 654.13 453.424 654.79 452.83Z" fill="black"/>
<path d="M658.13 464L673.07 480.53L692.75 487.41L662.46 453.88C661.527 457.449 660.068 460.86 658.13 464Z" fill="black"/>
<path d="M478 477.69C484.35 478.98 490.9 480.3 493 480.93C493.163 481.045 493.333 481.148 493.51 481.24C494.367 481.695 495.337 481.89 496.303 481.803C497.269 481.716 498.188 481.35 498.95 480.75C513.139 470.044 528.209 460.56 544 452.4C542.734 448.974 542.332 445.288 542.83 441.67C526.056 450.072 510.051 459.93 495 471.13C494.14 470.89 493.24 470.68 492.35 470.48C489.35 469.79 485.2 468.95 479.94 467.89C462.13 464.29 432.32 458.27 407.73 449.83C380.89 440.63 366.52 430.6 367.28 421.58C367.29 421.387 367.29 421.193 367.28 421C365.84 376.24 368.72 353.9 369.91 346.81C412.311 332.344 455.776 321.211 499.91 313.51C567.51 301.76 663.26 294.46 737.91 325.67V432.74C736.6 436.74 728.02 458.88 698.5 464.21C691.89 456.21 668.95 431.31 634.79 423.7C650.9 429.43 660.35 437.7 660.79 438.14L663.63 440.67V444.48C663.63 445.27 663.63 446.05 663.56 446.81C674.493 453.798 684.228 462.503 692.39 472.59C692.921 473.315 693.638 473.883 694.465 474.235C695.292 474.587 696.199 474.71 697.09 474.59C737.9 468.94 747.35 436.24 747.73 434.85C747.85 434.417 747.91 433.969 747.91 433.52V322.37C747.911 321.396 747.628 320.442 747.095 319.627C746.562 318.812 745.803 318.17 744.91 317.78C710.64 302.86 669.22 294.69 621.79 293.49C584.04 292.49 542.4 295.96 498.01 303.68C422.55 316.82 364.4 338.15 363.82 338.37C363.052 338.652 362.364 339.119 361.819 339.73C361.273 340.34 360.885 341.075 360.69 341.87C360.48 342.75 355.47 363.98 357.28 421.05C355.38 449 414.13 464.79 478 477.69Z" fill="black"/>
<path d="M673.07 480.52L691.07 500.46C691.505 500.965 692.036 501.378 692.633 501.674C693.23 501.97 693.88 502.145 694.545 502.186C695.21 502.228 695.877 502.136 696.506 501.916C697.135 501.697 697.714 501.354 698.208 500.907C698.703 500.46 699.103 499.919 699.386 499.316C699.668 498.712 699.827 498.059 699.854 497.393C699.88 496.727 699.773 496.063 699.539 495.439C699.304 494.815 698.948 494.244 698.49 493.76L692.74 487.4L673.07 480.52Z" fill="black"/>
<path d="M708.54 432.35C696.81 432.35 687.3 409.409 687.3 381.11C687.3 352.811 696.81 329.87 708.54 329.87C720.271 329.87 729.78 352.811 729.78 381.11C729.78 409.409 720.271 432.35 708.54 432.35Z" fill="white"/>
<path d="M682.36 372.75C674.589 372.75 668.29 361.279 668.29 347.13C668.29 332.98 674.589 321.51 682.36 321.51C690.131 321.51 696.43 332.98 696.43 347.13C696.43 361.279 690.131 372.75 682.36 372.75Z" fill="white"/>
<path d="M377.9 365.47C377.9 365.47 376.28 408.06 377.9 418.31C379.52 428.56 470.66 451.54 470.66 451.54C470.66 451.54 379 405.38 377.9 365.47Z" fill="#F6921E"/>
<path d="M148.87 1013.76H185.25C192.09 1007.06 216.14 965.56 236.48 927.39L237.15 926.13L291 895C272.1 889.42 250.49 890.56 226.38 898.44C198.47 953.58 172.54 992.13 148.87 1013.76Z" fill="#929497"/>
<path d="M185.25 1013.76H197.9C202.61 1007.11 209.9 995.49 221.71 974.85C232.22 956.41 242.01 938.23 244.63 933.36L303 899.62C299.131 897.76 295.118 896.215 291 895L237.1 926.13L236.43 927.39C216.14 965.56 192.09 1007.06 185.25 1013.76Z" fill="black"/>
<path d="M217.89 890.81L221.29 900.21C223.023 899.59 224.737 899 226.43 898.44C228.43 894.44 230.463 890.37 232.53 886.23C227.823 887.47 222.943 888.997 217.89 890.81Z" fill="black"/>
<path d="M232.53 886.23C230.483 890.39 228.45 894.46 226.43 898.44C250.54 890.56 272.15 889.44 291.05 895L298.61 890.64L299.7 887.47C286.39 882.58 270.04 880.09 250.32 882.69L248.32 888.29L238.92 884.89L239 884.67C236.867 885.13 234.71 885.65 232.53 886.23Z" fill="black"/>
<path d="M239 884.67L238.92 884.89L248.32 888.29L250.32 882.69C246.647 883.163 242.873 883.823 239 884.67Z" fill="black"/>
<path d="M248.56 858.13L239 884.67C242.9 883.824 246.683 883.157 250.35 882.67L255.89 867.34C282.36 864.7 298.23 870.28 304.58 873.28L299.73 887.45C302.872 888.611 305.947 889.947 308.94 891.45L316.6 869.06L313.6 866.9C312.8 866.32 293.31 852.77 251.68 857.78L248.56 858.13Z" fill="black"/>
<path d="M239 884.67L248.59 858.13L246.38 857.13C241.713 867.27 237.107 876.977 232.56 886.25C234.72 885.657 236.867 885.13 239 884.67Z" fill="#404041"/>
<path d="M255.86 867.36L250.32 882.69C270.04 880.09 286.39 882.58 299.7 887.47L304.55 873.3C298.2 870.3 282.33 864.72 255.86 867.36Z" fill="#F05A28"/>
<path d="M273.44 769.41L269.33 778.53C269.6 778.65 273.13 780.24 278.52 782.31C279.06 780.99 279.59 779.66 280.12 778.31C280.83 776.55 281.54 774.79 282.23 773.04C279.13 771.88 276.17 770.64 273.44 769.41Z" fill="black"/>
<path d="M280.12 778.35C279.59 779.66 279.06 780.99 278.52 782.35C283.38 784.23 289.73 786.49 296.52 788.42C306.45 791.23 314.78 792.64 321.59 792.64C329.03 792.64 334.65 790.96 338.59 787.58C344.39 782.58 345.77 774.58 342.7 763.88C338.34 748.69 330.59 738.44 319.7 733.41C313.164 730.526 305.978 729.435 298.88 730.25C297.56 733.79 296.19 737.39 294.8 741.04C300.25 739.82 308.23 739.11 315.59 742.52C323.71 746.29 329.59 754.41 333.11 766.64C335.02 773.28 334.67 777.78 332.11 780.02C324.95 786.21 301.11 780.41 282.3 773.12C281.54 774.83 280.83 776.59 280.12 778.35Z" fill="black"/>
<path d="M284 734L286 738.52L288.08 743.07C290.23 742.182 292.456 741.489 294.73 741C296.12 737.35 297.49 733.75 298.81 730.21C293.71 730.714 288.716 731.992 284 734Z" fill="black"/>
<path d="M286 763.47C284.76 766.65 283.493 769.854 282.2 773.08C301 780.37 324.88 786.17 332 780C334.59 777.76 334.94 773.26 333 766.62C329.5 754.39 323.6 746.27 315.48 742.5C308.12 739.09 300.14 739.8 294.69 741.02C293.05 745.3 291.383 749.634 289.69 754.02C288.55 756.96 287.39 759.927 286.21 762.92C286.18 763.11 286.11 763.29 286 763.47Z" fill="#929497"/>
<path d="M286 738.52L288.07 743.07L286 738.52Z" fill="black"/>
<path d="M298.61 890.64L291 895C295.118 896.215 299.131 897.76 303 899.62L306.81 897.42L308.81 891.42C305.817 889.917 302.742 888.581 299.6 887.42L298.61 890.64Z" fill="black"/>
<path d="M307.4 655.27L299.31 676.5L300.07 677.34C304.282 681.968 308.738 686.368 313.42 690.52C337.02 711.52 369.73 730.39 412.6 747.72C427.43 753.72 443.13 759.4 459.38 764.84L450.57 737C405.8 726.6 331.58 673.28 307.4 655.27Z" fill="#6D6E70"/>
<path d="M305.77 641.51L299.66 649.42C300.28 649.9 303.02 652.01 307.4 655.27L311.11 645.54C307.8 643.07 305.9 641.61 305.77 641.51Z" fill="black"/>
<path d="M307.2 707.71C304.58 714.88 301.79 722.41 298.84 730.21C305.938 729.395 313.124 730.486 319.66 733.37C330.58 738.37 338.33 748.65 342.66 763.84C345.73 774.56 344.35 782.53 338.55 787.54C334.65 790.92 329.03 792.6 321.55 792.6C314.74 792.6 306.41 791.19 296.48 788.38C289.66 786.45 283.31 784.19 278.48 782.31C278.48 782.42 278.39 782.52 278.35 782.63C277.09 785.76 275.8 788.91 274.51 792.08C271.47 799.467 268.357 806.913 265.17 814.42C258.797 829.413 252.51 843.643 246.31 857.11L248.52 858.11L251.58 857.75C293.21 852.75 312.7 866.29 313.5 866.87L316.5 869.03L308.84 891.42C315.254 894.626 321.274 898.566 326.78 903.16C337.014 911.799 345.564 922.255 352 934C359.7 903.67 367.12 870.66 372.62 843.9C372.704 843.475 372.849 843.064 373.05 842.68C373.974 837.592 374.549 832.447 374.77 827.28C376.36 793.19 364.77 756.73 359.5 742.11C339 731.27 321.73 719.92 307.2 707.71Z" fill="#404041"/>
<path d="M311.11 645.54L307.4 655.27C331.58 673.27 405.8 726.6 450.57 736.95L459.38 764.84C463.247 766.14 467.147 767.423 471.08 768.69L458.34 728.32L455.41 727.76C412.19 719.39 332.41 661.46 311.11 645.54Z" fill="black"/>
<path d="M311.14 645.47V645.54C332.44 661.46 412.22 719.39 455.44 727.76L458.37 728.32L471.11 768.69C504.81 779.56 540.54 789.45 575.62 798.81C572.39 786.17 566.68 773.02 559.62 770.92C559.033 770.74 558.466 770.499 557.93 770.2C554.06 768.06 546.65 764.14 537.27 759.2C507.06 743.2 450.82 713.51 402.69 684.62C367.9 663.74 345.85 648.49 331.93 637C327.36 633.283 323.034 629.274 318.98 625L311.14 645.47Z" fill="#404041"/>
<path d="M327.14 1013.76H337.94C344.94 997.69 352.6 971.67 359.6 944.76L356.86 944.05L348.64 947.05C341 976.1 333.29 1001.2 327.14 1013.76Z" fill="black"/>
<path d="M320.44 910.86C332.209 920.784 341.462 933.353 347.44 947.54L348.61 947.11C349.75 942.797 350.883 938.41 352.01 933.95C345.576 922.232 337.036 911.801 326.82 903.18C321.314 898.586 315.294 894.646 308.88 891.44L306.88 897.44L303.07 899.64C309.302 902.647 315.137 906.415 320.44 910.86Z" fill="black"/>
<path d="M327.14 1013.76C333.29 1001.2 340.98 976.1 348.64 947.11L347.47 947.54C341.492 933.353 332.239 920.784 320.47 910.86C315.137 906.402 309.268 902.626 303 899.62L244.58 933.36C241.96 938.23 232.17 956.36 221.66 974.85C209.88 995.49 202.56 1007.11 197.85 1013.76H327.14Z" fill="#404041"/>
<path d="M348.64 947.11L356.86 944.11C355.474 940.633 353.85 937.255 352 934C350.893 938.427 349.773 942.797 348.64 947.11Z" fill="black"/>
<path d="M372.66 843.85C367.16 870.61 359.74 903.62 352.04 933.95C353.877 937.215 355.488 940.603 356.86 944.09L359.6 944.8C368.38 911.07 376.09 876 380 857.53L374.9 857.14L375.07 854.98C373.845 854.603 372.811 853.771 372.182 852.655C371.553 851.538 371.377 850.223 371.69 848.98C372.23 846.9 372.693 844.79 373.08 842.65C372.884 843.028 372.743 843.432 372.66 843.85Z" fill="black"/>
<path d="M371.7 849C371.387 850.243 371.563 851.558 372.192 852.675C372.821 853.791 373.855 854.624 375.08 855L375.68 847.19L382.09 847.67C382.24 846.97 382.36 846.37 382.46 845.89C382.703 844.702 382.506 843.465 381.906 842.412C381.305 841.358 380.342 840.558 379.196 840.162C378.049 839.765 376.798 839.799 375.675 840.257C374.551 840.715 373.633 841.565 373.09 842.65C372.703 844.777 372.24 846.893 371.7 849Z" fill="black"/>
<path d="M376.54 855.21C377.532 855.208 378.5 854.912 379.323 854.358C380.146 853.804 380.785 853.018 381.16 852.1C381.53 850.33 381.85 848.84 382.09 847.65L375.68 847.17L375.08 854.98L375.29 855.05C375.698 855.157 376.118 855.21 376.54 855.21Z" fill="black"/>
<path d="M374.91 857.14L380.01 857.53C380.44 855.53 380.83 853.69 381.16 852.1C380.785 853.018 380.146 853.804 379.323 854.358C378.5 854.912 377.532 855.208 376.54 855.21C376.118 855.211 375.698 855.157 375.29 855.05L375.08 854.98L374.91 857.14Z" fill="black"/>
<path d="M381.16 852.1C381.25 851.893 381.323 851.679 381.38 851.46C381.71 850.2 382.01 848.94 382.28 847.67H382.09C381.85 848.84 381.53 850.33 381.16 852.1Z" fill="black"/>
<path d="M381.38 851.46C381.323 851.679 381.25 851.893 381.16 852.1C380.83 853.69 380.44 855.51 380.01 857.53C451.37 862.91 505.34 864.72 545.66 864.72C552.1 864.72 558.2 864.677 563.96 864.59C563.59 861.13 563.24 857.76 562.96 854.5C521.73 855.11 463.33 853.73 382.33 847.67C382 848.94 381.71 850.2 381.38 851.46Z" fill="black"/>
<path d="M384.79 828.57C384.461 834.993 383.622 841.38 382.28 847.67C463.28 853.73 521.68 855.11 562.91 854.5C561.04 835.89 559.8 820.7 559.14 812C506.14 797.7 452.23 782.08 406.23 763.48C394.143 758.587 382.857 753.587 372.37 748.48C378.38 767.17 386.42 798.42 384.79 828.57Z" fill="#929497"/>
<path d="M459.38 764.84L463.72 778.56L473.25 775.56L471.08 768.7C467.147 767.42 463.247 766.133 459.38 764.84Z" fill="black"/>
<path d="M533.86 869.73V874.73C533.86 912.22 549.97 1002.95 550.66 1006.79L551.4 1010.92H584.78L581.5 1003.82C570.5 979.93 560.66 875.32 560.56 874.27L560.14 869.73H533.86ZM543.95 879.73H551C552.88 898.83 560.43 971.29 569.74 1000.92H559.74C556.74 983.34 545.08 914.13 543.95 879.73Z" fill="black"/>
<path d="M551 879.73H543.91C545.04 914.13 556.7 983.34 559.74 1000.92H569.74C560.47 971.29 552.92 898.83 551 879.73Z" fill="#404041"/>
<path d="M551.4 1010.92L550.66 1006.79C549.97 1002.95 533.86 912.22 533.86 874.73V869.73H560.14L560.56 874.27C560.66 875.32 570.48 979.93 581.5 1003.82L584.78 1010.92H551.4ZM474.65 1013.76H591.23C577.83 976.06 569 912 564 864.59C558.24 864.67 552.14 864.714 545.7 864.72C505.38 864.72 451.41 862.91 380.05 857.53C376.13 875.99 368.42 911.07 359.64 944.8C352.64 971.67 344.96 997.69 337.98 1013.8H474.65V1013.76Z" fill="#6D6E70"/>
<path d="M568.55 803.55L558.55 804.22C558.6 804.97 558.78 807.68 559.11 812L569.36 814.75C568.84 807.85 568.57 803.79 568.55 803.55Z" fill="black"/>
<path d="M559.14 812C559.8 820.7 561.04 835.89 562.91 854.5C566.4 854.5 569.76 854.38 573.01 854.3C571.31 837.72 570.12 823.79 569.39 814.75L559.14 812Z" fill="black"/>
<path d="M562.91 854.5C563.24 857.76 563.59 861.13 563.91 864.59C567.4 864.54 570.76 864.47 574.01 864.39C573.637 860.93 573.287 857.566 572.96 854.3C569.76 854.38 566.4 854.45 562.91 854.5Z" fill="black"/>
<path d="M564 864.59C569 912 577.83 976.06 591.23 1013.76H601.87C588.36 978.26 579.29 912.85 574.06 864.39C570.81 864.47 567.45 864.54 564 864.59Z" fill="black"/>
<path d="M573 854.3C573.333 857.574 573.683 860.937 574.05 864.39C592.21 863.95 606.66 863.11 617.99 862.14C616.99 858.76 615.99 855.45 615.05 852.24C604.08 853.12 590.23 853.89 573 854.3Z" fill="#404041"/>
<path d="M574.06 864.39C579.29 912.85 588.36 978.26 601.87 1013.76H689.54C658.22 980.66 633.26 912.66 618 862.14C606.67 863.11 592.22 864 574.06 864.39Z" fill="#404041"/>
<path d="M585.38 818.93C585.556 818.957 585.733 818.974 585.91 818.98H586.46H587.15C587.348 818.967 587.545 818.944 587.74 818.91H587.85L588.3 818.81C588.402 818.796 588.502 818.773 588.6 818.74L589.02 818.62C589.093 818.606 589.163 818.582 589.23 818.55L589.54 818.45L589.83 818.32C590.033 818.241 590.23 818.147 590.42 818.04H590.51C590.682 817.95 590.849 817.85 591.01 817.74C591.059 817.725 591.104 817.697 591.14 817.66C591.303 817.559 591.46 817.449 591.61 817.33L591.8 817.18L593 816.2L603.31 808.2C602.19 803.58 601.53 800.66 601.31 799.85L611.07 797.66C611.07 797.8 611.4 799.14 611.96 801.5L622.38 793.5C622.589 810.003 627.004 826.18 635.21 840.5C636.88 843.43 638.68 846.39 640.58 849.38C644.17 848.904 647.732 848.237 651.25 847.38L654.11 857C651.663 857.669 649.183 858.213 646.68 858.63C648.78 861.69 650.97 864.78 653.25 867.9H657.85L659.18 870.84C659.28 871.06 661.44 875.84 665.01 883.46C672.95 893.66 681.5 904.15 690.24 914.87C693.31 918.64 696.4 922.42 699.46 926.21C708.85 937.79 718.1 949.4 726.46 960.73C731.46 967.51 736.16 974.19 740.38 980.73C745.116 987.935 749.385 995.438 753.16 1003.19C754.832 1006.66 756.317 1010.21 757.61 1013.84H700.86L695.62 1019.75C693.567 1017.93 691.54 1015.96 689.54 1013.84H601.87C602.27 1014.9 602.68 1015.93 603.09 1016.94L593.84 1020.73C592.95 1018.55 592.07 1016.25 591.23 1013.84H337.94C335.06 1020.5 332.28 1025.44 329.73 1028.04C329.372 1028.4 328.961 1028.71 328.51 1028.95L329 1030C329.829 1029.59 330.583 1029.04 331.23 1028.38C332.608 1027 333.82 1025.47 334.84 1023.81H760.43C760.43 1023.89 760.43 1023.98 760.43 1024.06C760.817 1026.01 761.877 1027.76 763.423 1029.01C764.97 1030.26 766.906 1030.93 768.894 1030.9C770.883 1030.87 772.798 1030.15 774.306 1028.85C775.815 1027.56 776.821 1025.77 777.15 1023.81H818C819.326 1023.81 820.598 1023.28 821.536 1022.35C822.473 1021.41 823 1020.14 823 1018.81C823 1017.48 822.473 1016.21 821.536 1015.27C820.598 1014.34 819.326 1013.81 818 1013.81H775.48C765.88 980.73 734.18 941.81 703.48 904.13C682.37 878.22 662.43 853.76 650.07 832.13C639.83 814.22 638.16 795.98 640.33 779.81L658.12 766C659.709 764.772 660.814 763.023 661.24 761.06L669.42 723.31C669.471 723.093 669.508 722.872 669.53 722.65C669.689 721.437 669.605 720.204 669.282 719.024C668.96 717.844 668.405 716.739 667.651 715.776C666.897 714.812 665.959 714.009 664.89 713.412C663.822 712.815 662.646 712.437 661.43 712.3C659.244 712.119 657.043 712.329 654.93 712.92C653.339 712.938 651.784 713.399 650.44 714.25C640.37 717.69 627.33 724.87 618.64 730.66C605 739.76 588.64 753.57 582.55 770.37C578.33 763.37 572.74 757.47 565.41 754.94C561.29 752.67 554.41 749.05 545.18 744.15C515.18 728.28 459.24 698.73 411.53 670.15C385.21 654.36 364.53 640.72 349.92 629.59C326.56 611.74 325.63 605.33 325.6 605.06C325.405 603.159 324.576 601.379 323.247 600.006C321.917 598.634 320.165 597.748 318.271 597.493C316.377 597.238 314.452 597.628 312.807 598.599C311.161 599.571 309.891 601.068 309.2 602.85L281.62 675.26C281.084 676.663 280.929 678.184 281.171 679.666C281.414 681.149 282.045 682.541 283 683.7C286.333 687.64 289.863 691.493 293.59 695.26C287.19 712.89 279.68 732.98 271.33 754.26C267.58 763.8 263.67 773.59 259.61 783.52C258.943 785.127 258.277 786.737 257.61 788.35C254.943 794.81 252.223 801.303 249.45 807.83C186.76 955.35 144.66 1001.49 120 1013.76H65.19C63.8639 1013.76 62.5922 1014.29 61.6545 1015.22C60.7168 1016.16 60.19 1017.43 60.19 1018.76C60.19 1020.09 60.7168 1021.36 61.6545 1022.3C62.5922 1023.23 63.8639 1023.76 65.19 1023.76H113.24C113.364 1024.47 113.576 1025.17 113.87 1025.83C114.325 1026.85 114.976 1027.77 115.786 1028.54C116.597 1029.31 117.551 1029.91 118.594 1030.31C119.637 1030.71 120.748 1030.9 121.865 1030.87C122.981 1030.84 124.08 1030.59 125.1 1030.13C129.034 1028.34 132.802 1026.21 136.36 1023.76H189.36V1023.15L184.57 1014.37C184.825 1014.17 185.069 1013.96 185.3 1013.74H148.92C172.59 992.11 198.52 953.56 226.48 898.42C224.78 898.98 223.067 899.57 221.34 900.19L217.94 890.79C222.993 888.97 227.873 887.443 232.58 886.21C237.133 876.943 241.74 867.237 246.4 857.09C252.6 843.617 258.887 829.387 265.26 814.4C268.44 806.907 271.553 799.46 274.6 792.06C275.89 788.89 277.18 785.74 278.44 782.61C278.44 782.5 278.53 782.4 278.57 782.29C273.18 780.22 269.65 778.63 269.38 778.51L273.49 769.39C276.22 770.62 279.18 771.86 282.28 773.06C283.567 769.827 284.833 766.623 286.08 763.45C286.16 763.27 286.23 763.09 286.3 762.91C287.48 759.923 288.64 756.957 289.78 754.01C291.5 749.597 293.167 745.263 294.78 741.01C292.506 741.499 290.28 742.192 288.13 743.08L286.06 738.53L284 734C288.739 731.996 293.757 730.728 298.88 730.24C301.83 722.44 304.62 714.91 307.24 707.74C321.77 719.95 339.06 731.3 359.58 742.09C364.85 756.71 376.44 793.17 374.85 827.26C374.629 832.427 374.054 837.572 373.13 842.66C373.673 841.575 374.591 840.725 375.715 840.267C376.838 839.809 378.089 839.775 379.236 840.172C380.382 840.568 381.345 841.368 381.946 842.422C382.546 843.476 382.743 844.712 382.5 845.9C382.4 846.38 382.28 846.98 382.13 847.68H382.32C383.662 841.39 384.501 835.003 384.83 828.58C386.46 798.43 378.42 767.18 372.41 748.58C382.91 753.667 394.197 758.667 406.27 763.58C452.27 782.18 506.16 797.8 559.18 812.1C558.85 807.78 558.67 805.1 558.62 804.32L568.62 803.65C568.62 803.89 568.91 807.95 569.46 814.85L583.3 818.54L584.3 818.82H584.44L584.83 818.91L585.38 818.93ZM299.31 676.5L307.4 655.27C303.02 652.01 300.28 649.9 299.66 649.42L305.77 641.51C305.9 641.61 307.77 643.07 311.11 645.51V645.44L318.94 625C322.994 629.274 327.32 633.283 331.89 637C345.81 648.49 367.89 663.74 402.65 684.62C450.78 713.49 507 743.21 537.23 759.18C546.61 764.18 554.02 768.06 557.89 770.18C558.426 770.479 558.993 770.721 559.58 770.9C566.65 773 572.36 786.15 575.58 798.79C540.5 789.43 504.77 779.54 471.07 768.67L473.24 775.53L463.71 778.53L459.37 764.81C443.12 759.37 427.37 753.68 412.59 747.69C369.72 730.36 337.01 711.52 313.41 690.49C308.728 686.338 304.272 681.938 300.06 677.31L299.31 676.5ZM595.89 792.5C596.22 788.9 596.67 785.01 597.29 781.07C597.29 781.07 597.29 781 597.29 780.96C598.83 770.23 609.14 757.81 626.34 745.96C628.95 744.17 631.53 742.52 634.03 740.96C639.183 737.844 644.527 735.055 650.03 732.61L645.31 754.37L624.57 770.37L595.89 792.5Z" fill="black"/>
<path d="M595.89 792.5L624.54 770.42L645.28 754.42L650 732.67C644.497 735.108 639.153 737.891 634 741C631.5 742.51 628.92 744.16 626.31 746C609.11 757.84 598.8 770.26 597.26 781C597.26 781 597.26 781.07 597.26 781.11C596.67 785 596.22 788.9 595.89 792.5Z" fill="#404041"/>
<path d="M611.1 797.71L601.34 799.9C601.52 800.71 602.18 803.63 603.34 808.25L612.03 801.55C611.43 799.19 611.13 797.85 611.1 797.71Z" fill="black"/>
<path d="M612 801.55L603.31 808.25C605.52 817.38 609.51 833.15 615.07 852.25C618.82 851.95 622.23 851.63 625.33 851.32C618.43 827.91 613.83 809.26 612 801.55Z" fill="black"/>
<path d="M622.41 793.52L611.99 801.52C613.83 809.23 618.43 827.88 625.32 851.28C631.69 850.63 636.73 849.96 640.61 849.37C638.71 846.37 636.91 843.42 635.24 840.49C627.039 826.179 622.624 810.013 622.41 793.52Z" fill="#929497"/>
<path d="M615.06 852.24C615.99 855.45 616.97 858.76 618 862.14C621.76 861.83 625.18 861.5 628.28 861.14C627.253 857.807 626.253 854.523 625.28 851.29C622.22 851.62 618.81 851.94 615.06 852.24Z" fill="black"/>
<path d="M618 862.14C633.26 912.66 658.22 980.66 689.54 1013.76H700.86L702.25 1012.19C700.637 1010.76 699.04 1009.22 697.46 1007.59C667.87 976.99 643.46 911.02 628.28 861.16C625.18 861.5 621.76 861.83 618 862.14Z" fill="black"/>
<path d="M625.32 851.31C626.26 854.51 627.26 857.793 628.32 861.16C636.6 860.26 642.6 859.34 646.72 858.58C644.6 855.487 642.577 852.427 640.65 849.4C636.73 850 631.69 850.66 625.32 851.31Z" fill="black"/>
<path d="M633.61 867.85L635 874C643.47 910.38 661.36 946.53 671.26 964.84C677.51 976.37 684.09 987.36 689.78 995.76C693.63 1001.44 696.26 1004.82 698.25 1006.76C700.5 1009.02 701.91 1009.48 703.3 1009.48H703.98C704.574 1009.43 705.156 1009.28 705.7 1009.04H737.28L729.72 1000.69C711.21 980.22 678.32 911.9 665.01 883.41C660.91 878.15 657.01 872.96 653.25 867.85H633.61ZM646.29 877.85H651.4C658.68 893.76 692.65 967.06 715.68 999.04H704.68C695.84 989.48 660.62 932.64 646.29 877.85Z" fill="black"/>
<path d="M651.4 877.85H646.29C660.62 932.64 695.84 989.48 704.65 999H715.65C692.65 967.06 658.68 893.76 651.4 877.85Z" fill="#404041"/>
<path d="M640.61 849.4C642.53 852.427 644.553 855.487 646.68 858.58C649.183 858.163 651.663 857.619 654.11 856.95L651.28 847.36C647.762 848.23 644.201 848.911 640.61 849.4Z" fill="black"/>
<path d="M653.25 867.85C657 873 660.91 878.15 665 883.41C661.43 875.78 659.27 871.01 659.17 870.79L657.84 867.85H653.25Z" fill="black"/>
<path d="M671.29 964.83C661.39 946.52 643.5 910.37 635.03 873.99L633.61 867.85H653.25C650.97 864.73 648.78 861.64 646.68 858.58C642.56 859.34 636.56 860.26 628.28 861.16C643.49 911 667.87 977 697.46 1007.59L698.28 1006.79C696.28 1004.79 693.66 1001.43 689.81 995.79C684.12 987.35 677.54 976.36 671.29 964.83Z" fill="#5F6340"/>
<path d="M697.46 1007.59C699.04 1009.23 700.637 1010.76 702.25 1012.19L700.86 1013.76H757.61C756.317 1010.13 754.832 1006.58 753.16 1003.11C749.385 995.357 745.116 987.855 740.38 980.65C736.16 974.14 731.47 967.46 726.46 960.65C718.1 949.32 708.85 937.71 699.46 926.13C696.4 922.34 693.31 918.56 690.24 914.79C681.5 904.07 672.95 893.58 665.01 883.38C678.32 911.87 711.21 980.19 729.72 1000.66L737.28 1009.01H705.73C705.186 1009.25 704.604 1009.4 704.01 1009.45H703.33C701.94 1009.45 700.53 1008.99 698.28 1006.73L697.46 1007.59Z" fill="#6D6E70"/>
<path d="M424.664 881.308C422.454 854.143 439.642 830.577 463.053 828.673C486.464 826.769 507.234 847.247 509.444 874.413C511.653 901.578 494.466 925.144 471.055 927.048C447.643 928.952 426.873 908.474 424.664 881.308Z" fill="black"/>
<path d="M456.62 884.47L465.62 878.67L456.09 875.57C455.55 875.359 455.079 875.004 454.727 874.544C454.374 874.084 454.154 873.536 454.09 872.96C453.985 872.373 454.037 871.769 454.241 871.209C454.444 870.649 454.793 870.152 455.25 869.77L468.66 859.44L468.24 854.27C467.29 854.046 466.44 853.515 465.821 852.76C465.203 852.004 464.851 851.066 464.82 850.09C464.61 847.58 466.2 845.4 468.36 845.22C468.877 845.181 469.396 845.256 469.88 845.44C469.437 845.938 469.102 846.521 468.895 847.155C468.689 847.788 468.615 848.457 468.68 849.12C468.725 849.889 468.957 850.635 469.356 851.294C469.755 851.953 470.309 852.504 470.97 852.9C470.091 852.061 469.56 850.923 469.48 849.71C469.27 847.2 470.86 845.02 473.03 844.84C473.727 844.786 474.424 844.943 475.03 845.29C475.689 845.687 476.242 846.238 476.639 846.897C477.037 847.556 477.267 848.302 477.31 849.07C477.52 851.57 475.94 853.73 473.8 853.93L474.36 860.87C474.419 861.419 474.341 861.973 474.134 862.485C473.926 862.996 473.595 863.448 473.17 863.8L463.45 871.29L473.65 874.6C474.22 874.813 474.717 875.184 475.084 875.669C475.45 876.154 475.671 876.734 475.72 877.34C475.812 877.946 475.733 878.565 475.493 879.128C475.253 879.691 474.86 880.177 474.36 880.53L465.15 886.45L474.93 889.89C475.499 890.129 475.99 890.525 476.343 891.031C476.697 891.537 476.901 892.133 476.93 892.75L477.55 900.38C479.7 900.22 481.6 902.11 481.8 904.6C481.88 905.366 481.772 906.14 481.485 906.855C481.197 907.57 480.739 908.203 480.15 908.7C479.607 909.14 478.946 909.408 478.25 909.47C476.09 909.65 474.17 907.75 473.96 905.24C473.87 904.026 474.225 902.821 474.96 901.85C474.373 902.348 473.915 902.982 473.628 903.696C473.34 904.41 473.231 905.184 473.31 905.95C473.356 906.615 473.538 907.263 473.844 907.854C474.15 908.446 474.574 908.969 475.09 909.39C474.644 909.65 474.145 909.807 473.63 909.85C471.47 910.02 469.55 908.13 469.34 905.62C469.217 904.651 469.415 903.668 469.905 902.822C470.394 901.977 471.148 901.316 472.05 900.94L471.6 895.42L457.3 890.42C456.744 890.189 456.264 889.809 455.911 889.322C455.558 888.835 455.346 888.26 455.3 887.66C455.206 887.058 455.28 886.443 455.513 885.88C455.746 885.317 456.129 884.83 456.62 884.47Z" fill="#23E865"/>
<path d="M779.2 394.37C779.466 393.732 779.634 393.058 779.7 392.37C781.56 380.203 783.417 368.033 785.27 355.86C786.62 346.86 788.04 337.95 789.27 328.97C789.47 327.43 789.9 327.39 791.11 327.55C798.64 328.55 806.17 329.55 813.71 330.55C824.82 331.95 835.96 333.1 847.06 334.6C849.06 334.87 849.19 335.65 848.97 337.07C846.697 352.184 844.413 367.29 842.12 382.39C841.47 386.75 840.89 391.13 840.25 395.68L842.2 395.15C849.64 393.26 858.52 396.56 862.72 402.85C865.21 406.59 866.05 410.65 863.96 414.85C862.912 416.943 861.328 418.72 859.37 420.001C857.411 421.282 855.147 422.02 852.81 422.14C849.892 422.357 846.962 421.932 844.225 420.895C841.489 419.858 839.013 418.236 836.97 416.14C833.41 412.63 831.64 408.42 832.91 403.34C834.91 395.27 835.78 387 836.98 378.8C838.4 369.02 840.22 359.28 841.45 349.47L793.19 342.66C790.59 357.947 788.017 373.28 785.47 388.66C792.53 386.59 798.75 388.13 804.47 392.2C807.429 394.205 809.561 397.214 810.47 400.67C811.93 406.89 806.88 413.82 800.47 415.02C793.19 416.39 787.04 413.96 782.01 408.9C778 404.77 776.57 399.88 779.2 394.37Z" fill="#050508"/>
<path d="M910.86 350.88C914.36 348.71 918.31 347.26 921.72 344.88C922.72 344.2 923.79 343.48 923.87 342.23C924.04 339.63 925.51 339.23 927.62 339.71C927.945 339.804 928.286 339.825 928.62 339.77C930.8 339.09 930.35 340.3 930.02 341.59C927.63 351.11 925.21 360.59 922.92 370.16C918.92 386.894 914.957 403.634 911.03 420.38C910.21 423.84 909.41 427.3 908.55 430.96C909.33 430.86 909.87 430.8 910.4 430.72C910.998 430.562 911.612 430.474 912.23 430.46C919.4 431.17 926.55 431.92 932.6 436.46C937.29 440.01 941.6 443.89 943.6 449.62C946.01 456.34 943.19 462.51 936.6 465.16C933.403 466.451 929.944 466.962 926.51 466.65C922.51 466.31 918.39 465.76 914.84 464.11C907.91 460.9 902.36 455.87 899.4 448.62C897.74 444.56 897.7 440.37 900.52 436.62C900.865 436.107 901.099 435.528 901.21 434.92C902.5 429.75 903.83 424.59 905.09 419.42C910.177 398.474 915.26 377.51 920.34 356.53L919.93 356.17C916.22 358.05 911.99 358.61 908.32 360.54C903.48 363.09 898.53 365.65 896.54 371.3C895.121 375.375 894.529 379.693 894.8 384C895.15 388.2 895.791 392.37 896.72 396.48C896.89 397.4 896.63 398.17 895.95 398.38C894.95 398.68 895.08 397.58 894.86 397.03C891.932 390.072 890.106 382.7 889.45 375.18C889.032 370.59 890.425 366.018 893.33 362.44C897.91 356.73 904.91 354.54 910.86 350.88Z" fill="#050508"/>
<path d="M752.39 524.55C752.648 524.549 752.904 524.509 753.15 524.43C797.31 510.25 826.02 456.13 827.22 453.83C827.387 453.538 827.494 453.215 827.533 452.881C827.573 452.546 827.544 452.208 827.45 451.885C827.355 451.561 827.196 451.261 826.983 451.001C826.769 450.741 826.505 450.526 826.207 450.371C825.908 450.215 825.581 450.121 825.246 450.095C824.91 450.069 824.573 450.111 824.254 450.218C823.935 450.325 823.64 450.496 823.389 450.72C823.137 450.943 822.934 451.216 822.79 451.52C822.5 452.06 793.79 506.13 751.62 519.67C751.052 519.852 750.569 520.232 750.256 520.74C749.944 521.248 749.823 521.851 749.916 522.44C750.009 523.029 750.309 523.565 750.763 523.952C751.217 524.339 751.794 524.551 752.39 524.55Z" fill="#050508"/>
<path d="M269.42 657.1L275.52 631.41C277.816 621.754 283.852 613.405 292.301 608.198C300.751 602.99 310.922 601.351 320.58 603.64L387 619.41C404.603 600.062 428.431 587.497 454.34 583.9C478.92 570.38 507.74 565.53 536.34 572.31C600 587.43 638.76 654.66 623.11 722.44C623.05 722.72 622.99 723 622.92 723.28C621.51 729.24 619.695 735.097 617.49 740.81C607.945 765.966 590.774 787.507 568.38 802.42C549.304 815.261 526.855 822.171 503.86 822.28C479.486 822.263 455.766 814.399 436.21 799.85C417.462 793.974 400.606 783.236 387.356 768.728C374.107 754.221 364.937 736.463 360.78 717.26L297.19 702.16C287.538 699.857 279.194 693.82 273.988 685.372C268.782 676.925 267.139 666.757 269.42 657.1ZM358.42 699.22C357.356 676.293 363.387 653.596 375.69 634.22L316.69 620.22C315.133 619.852 313.54 619.664 311.94 619.66C307.349 619.676 302.897 621.235 299.299 624.086C295.701 626.937 293.165 630.915 292.1 635.38L286 661C284.756 666.271 285.653 671.82 288.495 676.43C291.337 681.04 295.892 684.334 301.16 685.59L358.42 699.22ZM414.42 770.22C430.395 781.698 449.569 787.875 469.24 787.88C494.17 787.856 518.07 777.93 535.682 760.285C553.293 742.639 563.174 718.721 563.15 693.79C563.126 668.86 553.2 644.96 535.554 627.349C517.909 609.737 493.99 599.856 469.06 599.88C455.339 599.89 441.79 602.929 429.38 608.78C426.139 610.304 422.988 612.01 419.94 613.89C418.56 614.737 417.207 615.62 415.88 616.54C413.018 618.499 410.271 620.619 407.65 622.89C409.57 621.71 411.53 620.62 413.53 619.62C416.621 618.077 419.811 616.74 423.08 615.62C436.19 611.13 450.265 610.238 463.837 613.038C477.409 615.838 489.982 622.227 500.244 631.54C510.507 640.852 518.083 652.747 522.184 665.985C526.285 679.222 526.76 693.317 523.56 706.8C520.839 718.269 515.536 728.965 508.056 738.074C500.575 747.184 491.114 754.465 480.394 759.364C469.673 764.264 457.976 766.651 446.193 766.346C434.41 766.04 422.852 763.049 412.4 757.6C409.572 756.136 406.843 754.49 404.23 752.67C401.322 750.666 398.559 748.461 395.96 746.07C390.729 741.27 386.18 735.775 382.44 729.74C387.031 740.847 393.7 750.975 402.09 759.58C405.888 763.49 410.024 767.057 414.45 770.24L414.42 770.22ZM562.86 794.08C581.876 781.422 596.837 763.548 605.95 742.6C608.533 736.727 610.656 730.662 612.3 724.46C612.62 723.3 612.91 722.14 613.19 720.97C628.08 658.27 592.55 596 534 582C526.251 580.162 518.314 579.232 510.35 579.23C500.399 579.241 490.501 580.682 480.96 583.51C496.632 585.188 511.767 590.181 525.36 598.158C538.954 606.135 550.694 616.913 559.802 629.776C568.909 642.64 575.175 657.294 578.184 672.765C581.192 688.237 580.874 704.171 577.25 719.51C576.583 722.464 575.773 725.354 574.82 728.18C572.901 734.098 570.482 739.842 567.59 745.35C558.164 763.272 544.029 778.283 526.706 788.769C509.383 799.255 489.529 804.818 469.28 804.86C467.98 804.86 466.68 804.86 465.37 804.79C470.122 806.716 475.013 808.28 480 809.47C508.3 816.19 537.73 810.73 562.86 794.08ZM389.21 721.53C389.41 721.904 389.62 722.274 389.84 722.64C394.422 730.596 400.583 737.532 407.943 743.021C415.303 748.51 423.707 752.437 432.64 754.56C441.903 756.744 451.524 756.943 460.87 755.144C470.216 753.345 479.075 749.589 486.866 744.123C494.657 738.657 501.203 731.603 506.074 723.427C510.945 715.251 514.031 706.136 515.129 696.682C516.227 687.229 515.312 677.649 512.445 668.574C509.577 659.499 504.822 651.134 498.491 644.027C492.16 636.921 484.397 631.234 475.712 627.341C467.028 623.449 457.617 621.437 448.1 621.44C438.431 621.429 428.877 623.525 420.1 627.58C418.82 628.16 417.55 628.79 416.3 629.47C415.05 630.15 413.94 630.78 412.78 631.47C412.06 631.91 411.36 632.37 410.66 632.84C409.96 633.31 409.13 633.84 408.39 634.42C405.866 636.251 403.474 638.256 401.23 640.42C401.02 640.61 400.82 640.82 400.61 641.02C391.195 650.356 384.748 662.266 382.079 675.254C379.41 688.241 380.639 701.728 385.61 714.02C386.654 716.595 387.857 719.103 389.21 721.53Z" fill="black"/>
<path d="M286 661L292.1 635.31C293.165 630.844 295.701 626.867 299.299 624.016C302.897 621.164 307.349 619.606 311.94 619.59C313.54 619.593 315.133 619.781 316.69 620.15L375.69 634.15C363.387 653.525 357.356 676.223 358.42 699.15L301.13 685.55C295.876 684.287 291.336 680.996 288.501 676.396C285.666 671.796 284.767 666.261 286 661Z" fill="#1B75BB"/>
<path d="M382.59 673.34C385.463 661.094 391.725 649.903 400.66 641.05C400.87 640.85 401.07 640.64 401.28 640.45C403.524 638.285 405.916 636.28 408.44 634.45C409.18 633.9 409.94 633.38 410.71 632.87C411.48 632.36 412.11 631.94 412.83 631.5C413.99 630.79 415.16 630.11 416.35 629.5C417.54 628.89 418.87 628.19 420.15 627.61C428.927 623.554 438.482 621.459 448.15 621.47C453.441 621.472 458.713 622.093 463.86 623.32C473.781 625.683 483.037 630.264 490.932 636.72C498.827 643.176 505.156 651.337 509.442 660.591C513.728 669.845 515.861 679.951 515.679 690.147C515.497 700.344 513.005 710.367 508.392 719.462C503.778 728.557 497.162 736.488 489.042 742.658C480.921 748.828 471.508 753.076 461.509 755.084C451.51 757.092 441.186 756.806 431.314 754.249C421.441 751.692 412.277 746.929 404.51 740.32C398.672 735.326 393.728 729.374 389.89 722.72C389.67 722.353 389.46 721.983 389.26 721.61C387.93 719.204 386.747 716.72 385.72 714.17C380.475 701.239 379.398 686.992 382.64 673.42L382.59 673.34Z" fill="#F9EC31"/>
<path d="M396 746.07C398.599 748.46 401.362 750.666 404.27 752.67C406.883 754.489 409.612 756.136 412.44 757.6C423.819 763.554 436.499 766.589 449.34 766.431C462.182 766.273 474.783 762.928 486.012 756.696C497.241 750.463 506.746 741.539 513.673 730.724C520.6 719.91 524.732 707.544 525.698 694.738C526.664 681.932 524.433 669.086 519.207 657.355C513.98 645.624 505.921 635.375 495.754 627.529C485.587 619.683 473.63 614.485 460.957 612.403C448.285 610.321 435.293 611.419 423.15 615.6C419.881 616.72 416.691 618.056 413.6 619.6C411.6 620.6 409.64 621.69 407.72 622.87C410.341 620.599 413.088 618.479 415.95 616.52C417.283 615.6 418.637 614.716 420.01 613.87C423.058 611.989 426.209 610.283 429.45 608.76C441.86 602.908 455.409 599.869 469.13 599.86C482.411 599.823 495.548 602.602 507.677 608.012C519.806 613.422 530.651 621.34 539.498 631.246C548.344 641.151 554.991 652.819 559 665.48C563.01 678.141 564.291 691.508 562.759 704.7C561.228 717.892 556.918 730.61 550.114 742.016C543.311 753.421 534.167 763.256 523.287 770.871C512.406 778.486 500.035 783.709 486.99 786.196C473.944 788.683 460.519 788.378 447.6 785.3C433.117 781.85 419.661 775.009 408.34 765.341C397.018 755.673 388.155 743.454 382.48 729.69C386.216 735.742 390.765 741.254 396 746.07ZM547 695.76C547 697.086 547.527 698.358 548.464 699.295C549.402 700.233 550.674 700.76 552 700.76C553.326 700.76 554.598 700.233 555.535 699.295C556.473 698.358 557 697.086 557 695.76V688.92C557 687.594 556.473 686.322 555.535 685.384C554.598 684.447 553.326 683.92 552 683.92C550.674 683.92 549.402 684.447 548.464 685.384C547.527 686.322 547 687.594 547 688.92V695.76ZM543 671.49C543.249 672.596 543.867 673.584 544.752 674.293C545.637 675.001 546.736 675.388 547.87 675.39C548.247 675.39 548.623 675.347 548.99 675.26C549.631 675.113 550.237 674.842 550.774 674.461C551.31 674.08 551.766 673.597 552.115 673.04C552.464 672.483 552.7 671.862 552.809 671.213C552.918 670.564 552.898 669.901 552.75 669.26C548.23 649.38 533.13 635.26 532.49 634.68C532.007 634.234 531.442 633.887 530.825 633.66C530.209 633.433 529.553 633.33 528.897 633.356C528.24 633.382 527.596 633.537 526.999 633.812C526.402 634.087 525.866 634.477 525.42 634.96C524.974 635.442 524.628 636.008 524.401 636.625C524.173 637.241 524.07 637.896 524.096 638.553C524.122 639.209 524.277 639.854 524.552 640.451C524.827 641.047 525.217 641.584 525.7 642.03C525.93 642.25 539.2 654.77 543 671.49Z" fill="#1B75BB"/>
<path d="M469.27 804.9C489.519 804.858 509.374 799.295 526.696 788.809C544.019 778.323 558.154 763.312 567.58 745.39C570.472 739.882 572.891 734.138 574.81 728.22C575.73 725.387 576.54 722.497 577.24 719.55C580.864 704.211 581.182 688.277 578.174 672.805C575.165 657.334 568.899 642.68 559.792 629.816C550.684 616.953 538.944 606.175 525.35 598.198C511.757 590.221 496.622 585.228 480.95 583.55C490.491 580.722 500.389 579.281 510.34 579.27C518.306 579.258 526.246 580.174 534 582C592.55 596 628.08 658.27 613.19 721C612.91 722.17 612.62 723.33 612.3 724.49C610.656 730.692 608.533 736.757 605.95 742.63C596.837 763.577 581.876 781.452 562.86 794.11C537.73 810.76 508.3 816.22 479.99 809.5C475.004 808.323 470.113 806.772 465.36 804.86C466.67 804.88 468 804.9 469.27 804.9Z" fill="#321F42"/>
<path d="M525.42 635C525.866 634.517 526.402 634.127 526.999 633.851C527.595 633.576 528.24 633.421 528.897 633.395C529.554 633.369 530.209 633.472 530.825 633.7C531.442 633.927 532.008 634.274 532.49 634.72C533.13 635.31 548.23 649.42 552.75 669.3C552.898 669.941 552.918 670.605 552.809 671.253C552.7 671.902 552.464 672.523 552.115 673.08C551.766 673.638 551.31 674.121 550.774 674.502C550.237 674.882 549.631 675.154 548.99 675.3C548.623 675.387 548.247 675.431 547.87 675.43C546.736 675.428 545.637 675.041 544.752 674.333C543.867 673.624 543.249 672.636 543 671.53C539.2 654.81 525.93 642.29 525.7 642.09C525.214 641.644 524.821 641.107 524.544 640.508C524.267 639.91 524.11 639.262 524.084 638.603C524.058 637.944 524.163 637.287 524.392 636.668C524.621 636.05 524.971 635.483 525.42 635Z" fill="white"/>
<path d="M552 683.92C553.326 683.92 554.598 684.447 555.536 685.384C556.473 686.322 557 687.594 557 688.92V695.76C557 697.086 556.473 698.358 555.536 699.295C554.598 700.233 553.326 700.76 552 700.76C550.674 700.76 549.402 700.233 548.464 699.295C547.527 698.358 547 697.086 547 695.76V688.92C547 687.594 547.527 686.322 548.464 685.384C549.402 684.447 550.674 683.92 552 683.92Z" fill="white"/>
<path d="M655.85 731.49C657.23 731.06 658.61 730.61 659.98 730.16L660.62 729.95C661.09 732.3 661.62 734.62 662.3 736.95C664.054 741.41 666.202 745.703 668.72 749.78C674.903 759.771 683.212 768.277 693.054 774.694C702.897 781.111 714.032 785.281 725.668 786.908C737.304 788.535 749.156 787.578 760.381 784.107C771.606 780.636 781.929 774.734 790.615 766.823C799.301 758.911 806.138 749.183 810.64 738.33C815.142 727.477 817.198 715.766 816.662 704.029C816.126 692.292 813.011 680.816 807.539 670.419C802.067 660.022 794.371 650.957 785 643.87C787 641.204 788.93 638.484 790.79 635.71C808.903 649.189 821.289 668.983 825.49 691.167C829.691 713.351 825.4 736.304 813.47 755.472C801.539 774.64 782.839 788.624 761.08 794.649C739.32 800.674 716.091 798.301 696 788C706.128 795.906 717.846 801.528 730.35 804.48C781.25 816.56 833.19 782.04 846.14 727.48C856.82 682.48 837.64 637.67 801.98 616.63C802.74 615.12 803.47 613.63 804.18 612.1C804.89 610.57 805.58 609.1 806.24 607.53C846.1 630.53 867.68 680.07 855.87 729.79C843.58 781.56 799.07 816.86 750.87 816.86C743.169 816.871 735.494 815.981 728 814.21C700.68 807.72 677.7 790.29 663.31 765.13C658.783 757.215 655.24 748.775 652.76 740C651.887 737.754 651.11 735.477 650.43 733.17L651 733C652.627 732.507 654.243 732.004 655.85 731.49Z" fill="black"/>
<path d="M804.91 665.82C810.62 674.765 814.493 684.757 816.303 695.213C818.114 705.669 817.826 716.381 815.457 726.725C813.088 737.069 808.684 746.838 802.503 755.464C796.321 764.089 788.486 771.399 779.452 776.967C770.418 782.535 760.367 786.25 749.883 787.896C739.4 789.541 728.694 789.085 718.388 786.553C708.083 784.021 698.384 779.464 689.857 773.147C681.33 766.831 674.145 758.881 668.72 749.76C666.202 745.683 664.054 741.389 662.3 736.93C661.65 734.62 661.09 732.3 660.62 729.93C664.62 728.597 668.62 727.167 672.62 725.64C675.54 735.085 680.629 743.716 687.479 750.844C694.329 757.972 702.75 763.4 712.071 766.694C721.392 769.988 731.354 771.057 741.162 769.816C750.97 768.574 760.351 765.057 768.557 759.545C776.764 754.032 783.568 746.677 788.426 738.068C793.284 729.458 796.061 719.831 796.536 709.957C797.012 700.082 795.172 690.233 791.163 681.196C787.155 672.16 781.089 664.185 773.45 657.91C777.55 653.303 781.4 648.623 785 643.87C792.95 649.878 799.703 657.324 804.91 665.82Z" fill="#1B0F26"/>
<path d="M846.1 727.51C833.15 782.04 781.21 816.51 730.31 804.51C717.817 801.543 706.113 795.911 696 788C708.141 794.183 721.527 797.528 735.149 797.785C748.771 798.041 762.273 795.201 774.638 789.48C787.002 783.758 797.907 775.304 806.528 764.755C815.15 754.205 821.264 741.836 824.41 728.58C828.447 711.508 827.416 693.629 821.445 677.133C815.473 660.638 804.82 646.242 790.79 635.71C794.909 629.597 798.646 623.235 801.98 616.66C837.6 637.7 856.78 682.49 846.1 727.51Z" fill="#321F42"/>
<path d="M794.85 721.57C791.64 735.102 784.07 747.202 773.306 756.008C762.542 764.814 749.181 769.836 735.282 770.301C721.383 770.766 707.716 766.648 696.388 758.581C685.059 750.515 676.697 738.947 672.59 725.66C697.934 716.039 721.707 702.703 743.13 686.09C754.041 677.619 764.177 668.195 773.42 657.93C782.592 665.468 789.464 675.429 793.252 686.68C797.041 697.931 797.595 710.02 794.85 721.57Z" fill="black"/>
</g>
<defs>
<clipPath id="clip0_381_1682">
<rect width="1000" height="1000" fill="white" transform="matrix(-1 0 0 1 1000 0)"/>
</clipPath>
</defs>
</svg>
