<svg width="1000" height="1000" viewBox="0 0 1000 1000" fill="none" xmlns="http://www.w3.org/2000/svg">
<g clip-path="url(#clip0_381_2418)">
<path d="M962.06 1017C962.723 1017 963.359 1017.26 963.828 1017.73C964.296 1018.2 964.56 1018.84 964.56 1019.5C964.56 1020.16 964.296 1020.8 963.828 1021.27C963.359 1021.74 962.723 1022 962.06 1022H882.81C882.709 1022.34 882.589 1022.67 882.45 1023C881.995 1024.02 881.344 1024.94 880.533 1025.71C879.723 1026.48 878.769 1027.08 877.726 1027.48C876.683 1027.88 875.572 1028.07 874.455 1028.04C873.339 1028.01 872.24 1027.76 871.22 1027.3C867.894 1025.79 864.688 1024.04 861.63 1022.04H679.26C678.853 1023.39 678.11 1024.62 677.1 1025.6C675.493 1027.17 673.328 1028.05 671.079 1028.03C668.83 1028.01 666.68 1027.1 665.1 1025.5C664.032 1024.44 663.071 1023.28 662.23 1022.04H235.62C235.085 1023.77 234.009 1025.29 232.55 1026.37C231.091 1027.45 229.325 1028.04 227.51 1028.04C226.956 1028.04 226.403 1027.99 225.86 1027.88C224.353 1027.58 222.955 1026.88 221.814 1025.85C220.673 1024.83 219.832 1023.51 219.38 1022.04H177.38C176.717 1022.04 176.081 1021.78 175.612 1021.31C175.143 1020.84 174.88 1020.2 174.88 1019.54C174.88 1018.88 175.143 1018.24 175.612 1017.77C176.081 1017.3 176.717 1017.04 177.38 1017.04H219.38C226.56 982.71 260.3 941.3 292.95 901.25C314.06 875.34 333.95 850.88 346.36 829.25C358.45 808.09 360.27 784.1 351.77 757.95C349.106 749.874 345.667 742.074 341.5 734.66C312.174 724.844 284.707 710.166 260.25 691.24C212.43 653.9 185 604.75 185 556.31C185 518.8 189.07 477.2 219.22 453.1C228.58 445.62 239.92 440.21 253.51 436.78C254.773 393.188 266.609 350.555 288 312.55C276.52 303.03 246.07 281.81 213.14 292.55C211.641 293.037 210.037 293.097 208.506 292.725C206.976 292.353 205.578 291.563 204.471 290.443C203.363 289.322 202.588 287.916 202.233 286.381C201.878 284.846 201.957 283.243 202.46 281.75C203.17 279.64 220.41 229.85 267.08 211.62C297.23 199.85 332.08 204.1 370.86 224.24C400.782 204.913 434.785 192.804 470.187 188.866C505.59 184.928 541.423 189.271 574.86 201.55C584.38 195.81 594.54 189.34 604.67 182.29C656.52 146.21 684.57 111.65 685.78 82.3401C685.85 80.6355 686.431 78.9913 687.449 77.6216C688.466 76.2519 689.872 75.22 691.483 74.6601C693.095 74.1003 694.838 74.0384 696.485 74.4824C698.133 74.9265 699.608 75.8561 700.72 77.1501C702.1 78.7601 734.81 117.21 750.38 171.88C759.63 204.34 760.84 235.72 753.99 265.16C747.83 291.58 735.18 316.34 716.23 339.1C730.511 372.859 737.831 409.154 737.75 445.81C737.89 451.33 739.43 544.86 690 599.6C687.827 609.395 684.577 618.92 680.31 628C685.84 644.88 712.1 723.47 746.79 805C811.09 956.11 853.71 1000.83 878.14 1011.74C879.248 1012.23 880.238 1012.96 881.042 1013.86C881.846 1014.77 882.445 1015.84 882.8 1017H962.06ZM679.26 1017H854.64C818.64 988.85 777.22 919.93 731.12 811.55C702.4 744.04 679.43 678.55 669.05 647.92C656.48 666.7 639.15 684 617.51 699C569.73 732.18 506.35 750.45 439.05 750.45C413.603 750.468 388.253 747.327 363.58 741.1C365.03 744.51 366.43 748.16 367.71 752.03C377.83 782.7 375.54 812.28 361.08 837.59C348.03 860.43 327.65 885.43 306.08 911.89C275.9 948.89 244.73 987.15 236.79 1016.94H659.26C653.7 1006.23 644.4 981.62 629.18 920.68C618.18 876.43 609.18 833.92 609.11 833.49C608.647 831.284 609.08 828.983 610.313 827.096C611.546 825.208 613.478 823.888 615.685 823.425C617.891 822.962 620.192 823.395 622.079 824.628C623.967 825.861 625.287 827.794 625.75 830C625.84 830.42 634.75 872.66 645.68 916.59C665.83 997.23 674.9 1011.13 677.2 1013.47C678.166 1014.46 678.874 1015.67 679.26 1017ZM708.26 322C740.72 279.68 749.46 231.09 734.26 177.07C725.26 145.21 709.66 118.76 699.06 103.23C689.26 132.78 660.85 164.02 614.27 196.39C607.49 201.1 600.74 205.54 594.19 209.68C588.04 213.57 582.06 217.19 576.38 220.52C550.97 235.4 531.64 244.4 530.47 244.94C529.457 245.409 528.361 245.674 527.246 245.719C526.13 245.764 525.017 245.59 523.969 245.205C522.921 244.82 521.959 244.232 521.138 243.476C520.317 242.719 519.654 241.808 519.185 240.795C518.716 239.782 518.451 238.686 518.406 237.571C518.361 236.456 518.535 235.342 518.92 234.294C519.305 233.246 519.893 232.284 520.649 231.464C521.406 230.643 522.317 229.979 523.33 229.51C523.56 229.4 536.59 223.34 555.15 213.03C535.829 207.343 515.791 204.46 495.65 204.47C453.06 204.524 411.465 217.35 376.24 241.29C347.667 260.638 323.689 286.022 306 315.65C284.646 351.457 272.504 392 270.66 433.65C275.16 433.09 279.87 432.72 284.78 432.5C300.54 431.81 318.48 432.83 338.92 435.57C347.748 429.247 357.628 424.541 368.1 421.67C386.41 416.6 415.37 414.79 449.34 434.91L452.03 436.5L452.35 437.43C515.14 424.49 606.61 407.01 657.51 451.9C684.31 475.55 696.41 513.75 693.51 565.53C722.24 514.7 720.8 446.89 720.77 446.1V445.86C720.825 414.135 714.965 382.677 703.49 353.1C699.557 357.1 695.423 361.017 691.09 364.85C690.255 365.591 689.282 366.16 688.227 366.524C687.172 366.889 686.055 367.042 684.941 366.975C683.826 366.909 682.736 366.623 681.732 366.135C680.728 365.647 679.831 364.965 679.09 364.13C678.349 363.295 677.78 362.322 677.416 361.267C677.051 360.212 676.898 359.095 676.965 357.981C677.031 356.867 677.317 355.777 677.805 354.773C678.294 353.769 678.975 352.871 679.81 352.13C685.683 346.923 691.137 341.59 696.17 336.13C700.497 331.497 704.513 326.767 708.22 321.94L708.26 322ZM676.1 570.81C680.01 521.29 669.97 485.58 646.26 464.67C600.51 424.32 510.89 442.67 451.35 455.02C450.437 457 449.342 458.892 448.08 460.67C439.86 472.41 423.15 483.24 398.38 492.9C396.749 512.581 401.671 532.248 412.38 548.84C412.99 549.775 413.409 550.822 413.614 551.919C413.819 553.017 413.806 554.144 413.574 555.237C413.343 556.329 412.899 557.365 412.266 558.285C411.634 559.206 410.827 559.992 409.89 560.6C408.519 561.504 406.912 561.984 405.27 561.98C403.852 561.982 402.457 561.63 401.21 560.956C399.963 560.282 398.904 559.307 398.13 558.12C385.474 538.645 379.571 515.55 381.33 492.39C366.69 487.91 338.48 476.26 333.56 452.02C320.595 450.269 307.532 449.344 294.45 449.25C265.3 449.25 244.16 454.95 229.86 466.37C210.35 482 202 508.87 202 556.31C202 599.47 227 643.74 270.64 677.75C289.993 692.754 311.397 704.904 334.2 713.83C340.3 716.237 346.507 718.43 352.82 720.41C380.728 729.11 409.797 733.514 439.03 733.47C542.78 733.47 631.17 687.68 663.22 624.12C663.388 623.669 663.603 623.237 663.86 622.83C669.064 612.322 672.68 601.1 674.59 589.53C675.566 583.58 676.058 577.56 676.06 571.53L676.1 570.81ZM434.16 450.92C435.021 449.728 435.727 448.431 436.26 447.06C433.1 445.36 430 443.877 426.96 442.61C401.63 431.91 380.63 434.91 366.51 440.07C360.747 442.159 355.268 444.961 350.2 448.41C350.678 450.691 351.536 452.875 352.74 454.87C360.93 468.65 383.88 475.57 391.16 477.46C407.23 471.29 417.68 465.46 424.48 460.36C428.185 457.744 431.452 454.558 434.16 450.92ZM324.16 263.32C333.651 253.146 343.973 243.78 355.02 235.32C324.16 220.98 296.76 218.32 273.42 227.32C248.42 237.01 233.14 258.32 225.24 272.74C257.24 269.91 284.17 287.49 296.99 297.81C305.04 285.566 314.116 274.027 324.12 263.32H324.16Z" fill="black"/>
<path d="M854.64 1017H679.26C678.864 1015.7 678.157 1014.51 677.2 1013.54C674.9 1011.2 665.83 997.3 645.68 916.66C634.68 872.73 625.84 830.49 625.75 830.07C625.289 827.863 623.969 825.93 622.083 824.696C620.196 823.462 617.897 823.028 615.69 823.49C613.483 823.951 611.551 825.271 610.317 827.157C609.083 829.044 608.649 831.343 609.11 833.55C609.2 833.98 618.11 876.49 629.18 920.74C644.4 981.68 653.7 1006.29 659.26 1017H236.8C244.74 987.21 275.91 949 306.09 911.95C327.65 885.49 348.03 860.49 361.09 837.65C375.55 812.34 377.84 782.76 367.72 752.09C366.44 748.22 365.04 744.57 363.59 741.16C388.263 747.387 413.613 750.527 439.06 750.51C506.36 750.51 569.74 732.24 617.52 699.06C639.16 684.06 656.52 666.74 669.06 647.92C679.44 678.56 702.41 744.04 731.13 811.55C777.22 919.89 818.68 988.81 854.64 1017Z" fill="#A9C8CD"/>
<path d="M734.18 177C749.42 231 740.68 279.61 708.18 321.93C704.467 326.756 700.447 331.506 696.12 336.18C691.093 341.613 685.64 346.946 679.76 352.18C678.925 352.92 678.243 353.818 677.755 354.822C677.267 355.826 676.981 356.916 676.915 358.031C676.848 359.145 677.001 360.261 677.366 361.317C677.73 362.372 678.299 363.345 679.04 364.18C679.781 365.015 680.678 365.696 681.682 366.184C682.686 366.672 683.776 366.958 684.891 367.025C686.005 367.092 687.122 366.939 688.177 366.574C689.232 366.209 690.205 365.64 691.04 364.9C695.38 361.046 699.513 357.13 703.44 353.15C714.915 382.727 720.775 414.184 720.72 445.91V446.15C720.72 446.94 722.19 514.75 693.46 565.58C696.37 513.8 684.27 475.58 657.46 451.95C606.56 407.06 515.09 424.54 452.3 437.48L451.98 436.55L449.29 434.96C415.29 414.84 386.36 416.65 368.05 421.72C357.578 424.59 347.698 429.297 338.87 435.62C318.43 432.88 300.49 431.86 284.73 432.55C279.82 432.77 275.11 433.14 270.61 433.7C272.454 392.05 284.596 351.507 305.95 315.7C323.609 286.058 347.56 260.654 376.11 241.28C411.335 217.339 452.93 204.514 495.52 204.46C515.661 204.45 535.699 207.333 555.02 213.02C536.46 223.33 523.43 229.39 523.2 229.5C521.154 230.447 519.568 232.167 518.79 234.284C518.013 236.4 518.108 238.739 519.055 240.785C520.002 242.831 521.723 244.417 523.839 245.194C525.955 245.972 528.294 245.877 530.34 244.93C531.51 244.39 550.84 235.39 576.25 220.51C581.93 217.18 587.91 213.51 594.06 209.67C600.61 205.53 607.36 201.09 614.14 196.38C660.72 164.01 689.14 132.77 698.93 103.22C709.58 118.7 725.2 145.15 734.18 177ZM692.18 294.77C708.79 267.34 709.44 241.3 705.89 222.06C702.543 204.169 695.185 187.269 684.37 172.63C683.829 171.954 683.121 171.429 682.316 171.109C681.512 170.789 680.638 170.683 679.78 170.802C678.922 170.921 678.109 171.26 677.422 171.788C676.735 172.315 676.197 173.012 675.86 173.81C667.15 194.4 644.66 212.72 623.5 226.26C617.82 229.91 612.23 233.2 607.03 236.09C597.799 241.285 588.314 246.015 578.61 250.26C577.736 250.614 576.98 251.207 576.429 251.972C575.879 252.737 575.555 253.643 575.497 254.583C575.438 255.524 575.647 256.463 576.099 257.29C576.55 258.117 577.227 258.8 578.05 259.26C616.22 281.1 635.05 302.55 654.95 325.26L656.89 327.47C657.325 327.965 657.854 328.369 658.446 328.659C659.038 328.949 659.682 329.119 660.34 329.16H660.65C661.873 329.16 663.055 328.712 663.97 327.9C670.289 322.333 676.16 316.277 681.53 309.79C685.418 305.044 688.963 300.028 692.14 294.78L692.18 294.77ZM490.42 404.05V350C490.42 344.961 488.418 340.128 484.855 336.565C481.292 333.002 476.459 331 471.42 331C466.381 331 461.548 333.002 457.985 336.565C454.422 340.128 452.42 344.961 452.42 350V404C452.42 409.039 454.422 413.872 457.985 417.435C461.548 420.998 466.381 423 471.42 423C476.459 423 481.292 420.998 484.855 417.435C488.418 413.872 490.42 409.039 490.42 404V404.05ZM353.7 404.05V350C353.7 344.961 351.698 340.128 348.135 336.565C344.572 333.002 339.739 331 334.7 331C329.661 331 324.828 333.002 321.265 336.565C317.702 340.128 315.7 344.961 315.7 350V404C315.7 409.039 317.702 413.872 321.265 417.435C324.828 420.998 329.661 423 334.7 423C339.739 423 344.572 420.998 348.135 417.435C351.698 413.872 353.7 409.039 353.7 404V404.05Z" fill="#A9C8CD"/>
<path d="M705.85 222.07C709.4 241.31 708.75 267.35 692.14 294.78C688.95 300.026 685.391 305.039 681.49 309.78C676.121 316.268 670.249 322.323 663.93 327.89C663.015 328.702 661.834 329.151 660.61 329.15H660.3C659.642 329.11 658.998 328.94 658.406 328.65C657.814 328.36 657.285 327.955 656.85 327.46L654.91 325.25C635 302.54 616.18 281.09 578.01 259.25C577.187 258.791 576.511 258.108 576.059 257.28C575.607 256.453 575.398 255.515 575.457 254.574C575.515 253.633 575.839 252.728 576.39 251.963C576.94 251.198 577.696 250.604 578.57 250.25C588.277 246.012 597.766 241.289 607 236.1C612.2 233.21 617.79 229.92 623.47 226.27C644.63 212.73 667.12 194.41 675.83 173.82C676.167 173.022 676.705 172.325 677.392 171.798C678.08 171.271 678.892 170.931 679.75 170.812C680.608 170.693 681.482 170.799 682.287 171.119C683.091 171.44 683.799 171.964 684.34 172.64C695.152 187.28 702.506 204.18 705.85 222.07ZM685.85 285.92C696.551 267.137 700.163 245.139 696.03 223.92C693.415 210.354 688.356 197.377 681.1 185.62C670.43 204.06 651.1 220.13 632.38 232.53C626.98 236.11 621.63 239.38 616.55 242.31C606.55 248.09 597.55 252.57 591.34 255.52C624.58 275.94 642.54 295.97 661.02 317.03C666.298 312.099 671.202 306.781 675.69 301.12C679.476 296.334 682.87 291.251 685.84 285.92H685.85Z" fill="black"/>
<path d="M696 223.89C700.133 245.109 696.521 267.107 685.82 285.89C682.845 291.211 679.448 296.284 675.66 301.06C671.176 306.73 666.276 312.058 661 317C642.52 295.94 624.56 275.91 591.32 255.49C597.56 252.49 606.52 248.06 616.53 242.28C621.61 239.35 626.96 236.08 632.36 232.5C651.09 220.1 670.36 204.03 681.08 185.59C688.333 197.347 693.388 210.325 696 223.89Z" fill="#BFB891"/>
<path d="M646.26 464.67C670 485.58 680 521.29 676.1 570.81V571.48C676.098 577.51 675.606 583.53 674.63 589.48C672.721 601.05 669.104 612.272 663.9 622.78C663.643 623.187 663.428 623.619 663.26 624.07C631.26 687.63 542.82 733.42 439.07 733.42C409.837 733.464 380.768 729.06 352.86 720.36C346.553 718.36 340.347 716.167 334.24 713.78C311.437 704.854 290.033 692.703 270.68 677.7C227 643.74 202 599.47 202 556.31C202 508.87 210.33 481.97 229.83 466.37C244.13 454.95 265.27 449.25 294.42 449.25C307.508 449.336 320.578 450.254 333.55 452C338.47 476.24 366.68 487.89 381.32 492.37C379.561 515.529 385.464 538.625 398.12 558.1C398.895 559.287 399.953 560.262 401.2 560.936C402.447 561.61 403.843 561.962 405.26 561.96C406.902 561.964 408.509 561.484 409.88 560.58C410.817 559.972 411.624 559.186 412.257 558.265C412.889 557.345 413.333 556.309 413.565 555.217C413.796 554.124 413.809 552.997 413.604 551.899C413.399 550.802 412.98 549.755 412.37 548.82C401.661 532.228 396.739 512.56 398.37 492.88C423.14 483.22 439.85 472.39 448.07 460.65C449.332 458.872 450.427 456.98 451.34 455C510.89 442.71 600.51 424.32 646.26 464.67Z" fill="#BFB891"/>
<path d="M490.42 350V404C490.42 409.039 488.418 413.872 484.855 417.435C481.292 420.998 476.459 423 471.42 423C466.381 423 461.548 420.998 457.985 417.435C454.422 413.872 452.42 409.039 452.42 404V350C452.42 344.961 454.422 340.128 457.985 336.565C461.548 333.002 466.381 331 471.42 331C476.459 331 481.292 333.002 484.855 336.565C488.418 340.128 490.42 344.961 490.42 350Z" fill="black"/>
<path d="M436.26 447.06C435.727 448.43 435.021 449.728 434.16 450.92C431.452 454.558 428.185 457.744 424.48 460.36C417.68 465.42 407.23 471.29 391.16 477.46C383.88 475.57 360.93 468.65 352.74 454.87C351.536 452.875 350.678 450.691 350.2 448.41C355.268 444.961 360.747 442.159 366.51 440.07C380.63 434.91 401.63 431.91 426.96 442.61C430 443.883 433.1 445.367 436.26 447.06Z" fill="#321F42"/>
<path d="M353.7 350V404C353.7 409.039 351.698 413.872 348.135 417.435C344.572 420.998 339.739 423 334.7 423C329.661 423 324.828 420.998 321.265 417.435C317.702 413.872 315.7 409.039 315.7 404V350C315.7 344.961 317.702 340.128 321.265 336.565C324.828 333.002 329.661 331 334.7 331C339.739 331 344.572 333.002 348.135 336.565C351.698 340.128 353.7 344.961 353.7 350Z" fill="black"/>
<path d="M355 235.33C343.953 243.789 333.631 253.155 324.14 263.33C314.131 274.049 305.051 285.601 297 297.86C284.18 287.54 257.24 269.96 225.25 272.79C233.15 258.41 248.47 237.06 273.43 227.37C296.72 218.31 324.12 221 355 235.33Z" fill="#A9C8CD"/>
<path d="M334.1 341C331.713 341 329.424 341.948 327.736 343.636C326.048 345.324 325.1 347.613 325.1 350V404C325.1 406.387 326.048 408.676 327.736 410.364C329.424 412.052 331.713 413 334.1 413C336.487 413 338.776 412.052 340.464 410.364C342.152 408.676 343.1 406.387 343.1 404V350C343.1 347.613 342.152 345.324 340.464 343.636C338.776 341.948 336.487 341 334.1 341Z" fill="#23E865"/>
<path d="M334.1 331C329.061 331 324.228 333.002 320.665 336.565C317.102 340.128 315.1 344.961 315.1 350V404C315.1 409.039 317.102 413.872 320.665 417.435C324.228 420.998 329.061 423 334.1 423C339.139 423 343.972 420.998 347.535 417.435C351.098 413.872 353.1 409.039 353.1 404V350C353.1 344.961 351.098 340.128 347.535 336.565C343.972 333.002 339.139 331 334.1 331ZM343.1 404.05C343.1 406.437 342.152 408.726 340.464 410.414C338.776 412.102 336.487 413.05 334.1 413.05C331.713 413.05 329.424 412.102 327.736 410.414C326.048 408.726 325.1 406.437 325.1 404.05V350C325.1 347.613 326.048 345.324 327.736 343.636C329.424 341.948 331.713 341 334.1 341C336.487 341 338.776 341.948 340.464 343.636C342.152 345.324 343.1 347.613 343.1 350V404.05Z" fill="black"/>
<path d="M470.82 341C468.433 341 466.144 341.948 464.456 343.636C462.768 345.324 461.82 347.613 461.82 350V404C461.82 406.387 462.768 408.676 464.456 410.364C466.144 412.052 468.433 413 470.82 413C473.207 413 475.496 412.052 477.184 410.364C478.872 408.676 479.82 406.387 479.82 404V350C479.82 347.613 478.872 345.324 477.184 343.636C475.496 341.948 473.207 341 470.82 341Z" fill="#23E865"/>
<path d="M470.82 331C465.781 331 460.948 333.002 457.385 336.565C453.822 340.128 451.82 344.961 451.82 350V404C451.82 409.039 453.822 413.872 457.385 417.435C460.948 420.998 465.781 423 470.82 423C475.859 423 480.692 420.998 484.255 417.435C487.818 413.872 489.82 409.039 489.82 404V350C489.82 344.961 487.818 340.128 484.255 336.565C480.692 333.002 475.859 331 470.82 331ZM479.82 404.05C479.82 406.437 478.872 408.726 477.184 410.414C475.496 412.102 473.207 413.05 470.82 413.05C468.433 413.05 466.144 412.102 464.456 410.414C462.768 408.726 461.82 406.437 461.82 404.05V350C461.82 347.613 462.768 345.324 464.456 343.636C466.144 341.948 468.433 341 470.82 341C473.207 341 475.496 341.948 477.184 343.636C478.872 345.324 479.82 347.613 479.82 350V404.05Z" fill="black"/>
<path d="M232.81 443.93C236.712 442.198 240.84 441.03 245.07 440.46C247.95 439.46 250.95 438.57 254.07 437.79C255.32 394.201 267.143 351.568 288.52 313.56C283.121 309.088 277.327 305.115 271.21 301.69C267.737 309.143 264.453 316.857 261.36 324.83C243.53 370.63 236 415.34 232.81 443.93Z" fill="#321F42"/>
<path d="M463.73 151.44C413.37 158.886 370.67 178.683 335.63 210.83C348.005 214.366 359.977 219.185 371.35 225.21C401.272 205.883 435.275 193.773 470.677 189.835C506.08 185.898 541.913 190.24 575.35 202.52C584.87 196.78 595.03 190.31 605.16 183.26C614.447 176.8 622.967 170.39 630.72 164.03C583.83 147.21 528 143 463.73 151.44Z" fill="#321F42"/>
<path d="M455.28 882.76C455.724 883.522 455.959 884.388 455.96 885.27V905.6C458.578 906.409 461.352 906.581 464.05 906.1L462.16 886.56C461.996 885.741 462.077 884.893 462.393 884.12C462.71 883.348 463.248 882.687 463.94 882.22C464.94 881.11 472.99 870.45 470.94 830.07C466.02 831.91 461.42 833.576 457.14 835.07C453.9 856.82 452.47 877.91 455.28 882.76Z" fill="white"/>
<path d="M373.09 882.76C373.537 883.521 373.772 884.388 373.77 885.27V905.6C376.388 906.409 379.162 906.58 381.86 906.1L380 886.56C379.77 884.2 380.63 882.22 382.85 881.56C384.07 880.62 393.06 872.32 390.32 834.67C387.547 833.45 384.83 832.207 382.17 830.94C375.22 853.87 370.31 878 373.09 882.76Z" fill="white"/>
<path d="M730.12 809.52C714.33 772.4 700.28 735.9 689.12 705.52C670.291 721.749 650.429 736.741 629.66 750.4C575.83 786 520.49 810.92 480.78 826.4C483.33 867.31 476.35 882.59 472.35 887.88L474.35 908.75C474.434 909.63 474.283 910.517 473.912 911.32C473.541 912.123 472.964 912.813 472.24 913.32C469.03 915.479 465.228 916.587 461.36 916.49C457.072 916.419 452.84 915.497 448.91 913.78C448.035 913.384 447.292 912.745 446.77 911.938C446.249 911.131 445.971 910.191 445.97 909.23V886.4C442.24 877.4 444.21 855.59 446.53 838.77C432.53 843.51 424.18 845.83 423.89 845.91L421.37 846.6L418.89 845.76C412.557 843.6 406.457 841.337 400.59 838.97C402.2 871.71 394.95 883.97 390.21 888.42L392.16 908.66C392.245 909.539 392.095 910.426 391.727 911.228C391.358 912.031 390.783 912.722 390.06 913.23C386.849 915.387 383.047 916.494 379.18 916.4C374.888 916.33 370.653 915.409 366.72 913.69C365.845 913.294 365.102 912.655 364.58 911.848C364.059 911.041 363.781 910.101 363.78 909.14V886.42C361.95 882.05 360.99 872.68 367.4 846.93C369.33 839.16 371.46 831.81 373.09 826.44C370.763 825.26 368.48 824.053 366.24 822.82C364.505 827.229 362.453 831.507 360.1 835.62C347.04 858.47 326.67 883.46 305.1 909.92C274.93 946.92 243.76 985.18 235.82 1014.97H273C275.71 1007.84 295.58 957.56 331.16 920.18C331.627 919.69 332.189 919.3 332.811 919.034C333.433 918.767 334.103 918.63 334.78 918.63H473.94C474.9 918.63 475.839 918.907 476.646 919.426C477.453 919.946 478.093 920.686 478.49 921.56C478.85 922.34 514.94 1000.33 565.72 1012.61C566.379 1012.77 566.999 1013.06 567.541 1013.46C568.083 1013.87 568.535 1014.38 568.87 1014.97H658.27C652.7 1004.26 643.41 979.64 628.19 918.71C617.14 874.47 608.19 831.95 608.12 831.53C607.888 830.437 607.874 829.31 608.078 828.212C608.282 827.114 608.7 826.066 609.309 825.13C609.918 824.193 610.705 823.386 611.625 822.754C612.546 822.122 613.582 821.677 614.675 821.445C615.768 821.213 616.895 821.199 617.993 821.403C619.091 821.607 620.139 822.025 621.075 822.634C622.012 823.243 622.819 824.03 623.451 824.95C624.084 825.871 624.528 826.907 624.76 828C624.85 828.43 633.76 870.67 644.69 914.6C664.84 995.23 673.91 1009.13 676.21 1011.47C677.167 1012.44 677.874 1013.63 678.27 1014.93H853.65C817.68 986.83 776.23 917.91 730.12 809.52Z" fill="#321F42"/>
<path d="M470.78 928.63H336.89C307.51 960.22 289.12 1001.75 283.71 1014.97H544.42C504.43 993.62 477.17 941.72 470.78 928.63Z" fill="#321F42"/>
<path d="M355.44 796.62C360.393 799.84 365.613 802.997 371.1 806.09C375.207 808.397 379.48 810.66 383.92 812.88C388.36 815.1 392.88 817.214 397.48 819.22C405.16 822.6 413.283 825.794 421.85 828.8C426.17 827.52 435.92 824.54 449.57 819.8C452.47 818.8 455.57 817.68 458.8 816.49C462.21 815.24 465.8 813.91 469.56 812.49C472.67 811.31 475.9 810.05 479.22 808.74C517.72 793.51 569.86 769.62 620.6 736.01C642.449 721.648 663.273 705.783 682.92 688.53C687.587 684.404 692.113 680.237 696.5 676.03C772.82 602.92 806.63 518.61 797.17 424.49V424.06V423.63C797.17 423.29 797.04 389.08 785.47 345.36C779.55 322.96 769.85 295.36 754.07 268.15C747.77 293.84 735.27 317.94 716.79 340.15C731.072 373.91 738.391 410.205 738.31 446.86C738.44 452.05 739.81 535.23 698.75 590.63C695.743 595.91 692.55 601.154 689.17 606.36C685.677 611.74 682.01 617.074 678.17 622.36C674.17 627.82 669.997 633.237 665.65 638.61C655.475 651.007 644.611 662.822 633.11 674C613.879 692.71 593.275 709.955 571.47 725.59C560.57 733.47 549.2 741.137 537.36 748.59C475.44 787.59 423.46 806.59 421.28 807.36L417.05 808.89L413.4 806.25C396.59 794.05 383.01 783.05 372.05 773.25C363.882 766.012 356.114 758.334 348.78 750.25C343.858 744.845 339.305 739.115 335.15 733.1C312.309 724.787 290.662 713.5 270.77 699.53C275.689 710.917 281.669 721.815 288.63 732.08C301.67 751.46 322.65 775.27 355.44 796.62Z" fill="#321F42"/>
<path d="M961.07 1015H881.82C881.464 1013.84 880.863 1012.77 880.06 1011.86C879.256 1010.96 878.267 1010.23 877.16 1009.74C852.73 998.83 810.16 954.11 745.81 803C729 763.49 714.18 724.68 702.73 693.25C727.703 669.916 748.62 645.383 765.48 619.65C804.74 559.65 821.11 493.49 814.12 423.16C814.12 418.7 813.45 385.02 802.01 341.52C794.56 313.17 781.37 277 758.22 242.76C757.535 250.637 756.295 258.457 754.51 266.16C754.363 266.826 754.203 267.476 754.03 268.11C769.81 295.36 779.51 322.92 785.43 345.32C797 389.04 797.13 423.25 797.13 423.59V424V424.43C806.63 518.54 772.82 602.85 696.5 676C692.12 680.206 687.593 684.373 682.92 688.5C663.273 705.753 642.449 721.617 620.6 735.98C569.86 769.59 517.72 793.48 479.22 808.71C475.9 810.02 472.67 811.28 469.56 812.46C465.8 813.9 462.21 815.23 458.8 816.46C455.56 817.65 452.47 818.75 449.57 819.77C435.92 824.56 426.17 827.54 421.85 828.77C413.27 825.776 405.147 822.583 397.48 819.19C392.813 817.136 388.293 815.023 383.92 812.85C379.547 810.676 375.273 808.413 371.1 806.06C365.6 802.98 360.38 799.823 355.44 796.59C322.65 775.24 301.67 751.43 288.63 732.14C281.669 721.874 275.689 710.976 270.77 699.59C267.363 697.19 264.03 694.706 260.77 692.14C255.65 688.14 250.763 684.01 246.11 679.75C248.58 690.01 255.76 713.53 274.03 740.83C288.76 762.83 312.94 790.25 351.39 814.14C349.777 818.641 347.769 822.992 345.39 827.14C333.03 848.77 313.09 873.23 291.98 899.14C259.33 939.19 225.58 980.59 218.41 1014.93H176.41C175.747 1014.93 175.111 1015.19 174.642 1015.66C174.173 1016.13 173.91 1016.77 173.91 1017.43C173.91 1018.09 174.173 1018.73 174.642 1019.2C175.111 1019.67 175.747 1019.93 176.41 1019.93H218.41C218.862 1021.4 219.703 1022.72 220.844 1023.74C221.985 1024.77 223.383 1025.47 224.89 1025.77C225.433 1025.88 225.986 1025.93 226.54 1025.93C228.356 1025.93 230.124 1025.35 231.584 1024.27C233.044 1023.19 234.119 1021.67 234.65 1019.93H273C273.585 1020.95 274.509 1021.73 275.61 1022.13C276.165 1022.33 276.75 1022.43 277.34 1022.43C278.218 1022.43 279.08 1022.2 279.84 1021.76C280.6 1021.32 281.231 1020.69 281.67 1019.93H555.57C558.117 1020.86 560.715 1021.65 563.35 1022.29C564.4 1022.54 565.504 1022.45 566.498 1022.03C567.491 1021.6 568.32 1020.87 568.86 1019.93H661.2C662.041 1021.17 663.002 1022.33 664.07 1023.39C665.65 1024.99 667.8 1025.9 670.049 1025.92C672.298 1025.94 674.464 1025.06 676.07 1023.49C677.08 1022.51 677.823 1021.28 678.23 1019.93H860.64C863.698 1021.92 866.904 1023.68 870.23 1025.19C871.318 1025.68 872.497 1025.93 873.69 1025.93C875.329 1025.93 876.935 1025.46 878.314 1024.58C879.692 1023.69 880.785 1022.42 881.46 1020.93C881.599 1020.6 881.719 1020.27 881.82 1019.93H961.07C961.733 1019.93 962.369 1019.67 962.838 1019.2C963.306 1018.73 963.57 1018.09 963.57 1017.43C963.57 1016.77 963.306 1016.13 962.838 1015.66C962.369 1015.19 961.733 1014.93 961.07 1014.93V1015ZM471 830.07C473 870.45 464.95 881.07 464 882.22C463.308 882.687 462.77 883.348 462.453 884.12C462.136 884.893 462.055 885.741 462.22 886.56L464.11 906.1C461.412 906.581 458.638 906.409 456.02 905.6V885.27C456.019 884.388 455.784 883.522 455.34 882.76C452.53 877.91 453.96 856.82 457.21 835.1C461.443 833.58 466.04 831.903 471 830.07ZM382.88 881.53C380.66 882.22 379.8 884.2 380.03 886.53L381.91 906.07C379.212 906.55 376.438 906.379 373.82 905.57V885.27C373.822 884.387 373.587 883.521 373.14 882.76C370.36 877.98 375.27 853.87 382.2 830.91C384.867 832.176 387.583 833.42 390.35 834.64C393 872.29 384.05 880.59 382.83 881.53H382.88ZM283.71 1015C289.12 1001.78 307.51 960.25 336.89 928.66H470.78C477.17 941.75 504.43 993.66 544.42 1015H283.71ZM678.27 1015C677.874 1013.7 677.167 1012.51 676.21 1011.54C673.91 1009.2 664.84 995.3 644.69 914.67C633.69 870.74 624.85 828.5 624.76 828.07C624.297 825.863 622.977 823.931 621.089 822.698C619.202 821.465 616.902 821.032 614.695 821.495C612.488 821.958 610.556 823.278 609.323 825.166C608.09 827.053 607.657 829.353 608.12 831.56C608.21 831.98 617.12 874.5 628.19 918.74C643.41 979.67 652.7 1004.29 658.27 1015H568.87C568.535 1014.41 568.083 1013.9 567.541 1013.49C566.999 1013.09 566.379 1012.8 565.72 1012.64C514.94 1000.36 478.85 922.37 478.49 921.59C478.093 920.716 477.452 919.976 476.646 919.456C475.839 918.936 474.9 918.66 473.94 918.66H334.73C334.053 918.66 333.383 918.797 332.761 919.063C332.139 919.33 331.577 919.72 331.11 920.21C295.53 957.59 275.66 1007.87 272.95 1015H235.81C243.75 985.21 274.92 947 305.09 909.95C326.66 883.49 347.03 858.5 360.09 835.65C362.443 831.537 364.495 827.259 366.23 822.85C368.47 824.076 370.753 825.283 373.08 826.47C371.45 831.84 369.32 839.19 367.39 846.96C360.98 872.71 361.94 882.08 363.77 886.45V909.17C363.771 910.13 364.049 911.071 364.57 911.877C365.092 912.684 365.835 913.324 366.71 913.72C370.643 915.438 374.878 916.359 379.17 916.43C383.037 916.524 386.838 915.416 390.05 913.26C390.772 912.751 391.347 912.061 391.716 911.258C392.085 910.455 392.235 909.569 392.15 908.69L390.2 888.45C394.94 883.98 402.2 871.74 400.58 839C406.453 841.36 412.553 843.623 418.88 845.79L421.36 846.63L423.88 845.94C424.17 845.86 432.5 843.54 446.52 838.8C444.2 855.62 442.23 877.42 445.96 886.43V909.17C445.961 910.13 446.239 911.071 446.76 911.877C447.282 912.684 448.025 913.324 448.9 913.72C452.83 915.437 457.062 916.358 461.35 916.43C465.217 916.526 469.02 915.419 472.23 913.26C472.954 912.753 473.531 912.062 473.902 911.26C474.273 910.457 474.424 909.57 474.34 908.69L472.34 887.82C476.34 882.53 483.34 867.25 480.77 826.34C520.48 810.9 575.77 785.98 629.65 750.34C650.419 736.681 670.281 721.689 689.11 705.46C700.29 735.89 714.34 772.39 730.11 809.46C776.23 917.91 817.68 986.83 853.65 1015H678.27Z" fill="black"/>
<path d="M463.73 151.44C527.98 142.98 583.83 147.21 630.73 164.03C635.943 159.77 640.797 155.54 645.29 151.34C594 130.86 532.52 125.22 461.44 134.6H461.31C405.31 142.86 357.42 166.07 318.86 203.6C317.76 204.67 316.66 205.76 315.58 206.85C322.357 207.661 329.061 208.998 335.63 210.85C370.577 178.777 413.277 158.973 463.73 151.44Z" fill="black"/>
<path d="M371.35 225.21C372.877 225.997 374.41 226.813 375.95 227.66C377.228 228.362 378.305 229.38 379.076 230.618C379.848 231.855 380.288 233.27 380.355 234.727C380.423 236.184 380.114 237.633 379.46 238.937C378.806 240.24 377.828 241.353 376.62 242.17L376.67 242.24C411.895 218.3 453.49 205.474 496.08 205.42C516.221 205.41 536.259 208.293 555.58 213.98C561.67 210.6 568.35 206.76 575.38 202.52C541.943 190.24 506.11 185.898 470.707 189.836C435.305 193.774 401.302 205.883 371.38 225.21H371.35Z" fill="black"/>
<path d="M372.05 773.3C383.05 783.07 396.59 794.07 413.4 806.3L417.05 808.94L421.28 807.41C423.46 806.62 475.44 787.62 537.36 748.64C549.193 741.2 560.563 733.533 571.47 725.64C593.276 709.989 613.88 692.727 633.11 674C644.593 662.788 655.437 650.939 665.59 638.51C669.957 633.137 674.13 627.72 678.11 622.26C681.97 616.973 685.637 611.64 689.11 606.26C692.477 601.06 695.67 595.817 698.69 590.53C739.75 535.13 738.38 451.95 738.25 446.76C738.331 410.104 731.011 373.809 716.73 340.05L716.5 340.31C712.6 344.976 708.423 349.576 703.97 354.11L703.49 354.6C727.82 427.08 725.05 496.25 695.23 560.31C694.89 561.05 694.54 561.79 694.23 562.52C691.223 568.86 687.987 575.063 684.52 581.13C682.42 584.85 680.24 588.516 677.98 592.13C676.48 594.54 674.98 596.93 673.38 599.29C642.83 645.49 601.38 682.78 563.01 710.73C551.13 719.39 539.55 727.15 528.68 734C523.047 737.546 517.5 740.93 512.04 744.15C482.467 761.693 451.597 776.95 419.7 789.79C393.42 770.44 376.01 754.51 364.54 742.22L363.38 741L363.8 742C356.467 740.14 349.243 738.003 342.13 735.59C339.79 734.81 337.457 733.993 335.13 733.14C339.285 739.155 343.838 744.884 348.76 750.29C356.1 758.377 363.874 766.058 372.05 773.3Z" fill="black"/>
<path d="M333.94 714.53L332.26 713.85C332.143 714.226 332.056 714.611 332 715L333.94 714.53Z" fill="black"/>
<path d="M271.17 434.67C273.017 393.02 285.159 352.478 306.51 316.67H306.44C305.736 317.717 304.809 318.596 303.724 319.241C302.64 319.886 301.425 320.282 300.169 320.401C298.912 320.52 297.645 320.358 296.459 319.927C295.273 319.496 294.197 318.807 293.31 317.91C293.2 317.8 291.5 316.11 288.49 313.61C267.107 351.599 255.271 394.214 254 437.79C259.651 436.386 265.386 435.344 271.17 434.67Z" fill="black"/>
<path d="M232.61 445.77C232.68 445.17 232.75 444.55 232.81 443.93C236 415.34 243.53 370.63 261.33 324.83C264.43 316.83 267.713 309.117 271.18 301.69C266.24 298.905 261.063 296.563 255.71 294.69C252.03 302.57 248.563 310.71 245.31 319.11C223.49 375.47 216.64 429 214.48 456.3C214.41 457.21 214.35 458.1 214.28 458.95C216.021 457.246 217.847 455.631 219.75 454.11C223.756 450.919 228.063 448.126 232.61 445.77Z" fill="black"/>
<path d="M655.28 509.51C676.62 472.25 680.79 452.39 678.38 448.15C678.21 447.85 677.74 447.69 676.99 447.69C674.91 447.858 672.877 448.4 670.99 449.29L670.85 449.35L670.63 449.43C669.69 454.08 667.7 460.22 664.06 468.43C658.44 481.13 649.72 496.98 638.84 514.26C625.16 536 606.58 562.02 591.67 578.26C596.59 579.8 601.23 578.8 606.1 575.26C617.88 566.47 638.12 539.46 655.28 509.51ZM582.81 573C595.91 559.13 614.24 534.56 630.67 508.38C641.34 491.38 649.8 475.95 655.15 463.72C656.82 459.9 658.06 456.72 658.96 454.02C647.41 458.69 628.96 466.39 610.72 475.02C555.13 501.38 554 511.32 554 512.37C554.74 526.92 567.12 559.56 582.81 573ZM687.08 443.21C690.36 449.01 689.37 458.54 683.96 473.21C679.68 484.82 672.76 499.09 663.96 514.46C648.96 540.69 627.05 572.12 611.96 583.22C607.383 586.796 601.768 588.79 595.96 588.9C592.094 588.863 588.285 587.965 584.81 586.27L584.01 585.87C580.965 584.273 578.138 582.29 575.6 579.97C557 563.28 544.75 527.47 544 512.86C543.61 504.99 550.36 492.55 606.44 465.99C628.52 455.53 650.88 446.44 661.24 442.34C664.6 441.01 666.7 440.2 667.11 440.04C668.291 439.546 669.496 439.113 670.72 438.74C680.92 435.72 685.31 440.1 687.08 443.21Z" fill="black"/>
<path d="M678.38 448.15C680.79 452.39 676.62 472.25 655.28 509.51C638.12 539.51 617.88 566.51 606.05 575.19C601.18 578.78 596.54 579.78 591.62 578.19C606.53 561.99 625.11 535.97 638.79 514.19C649.67 496.91 658.39 481.06 664.01 468.36C667.65 460.13 669.64 453.99 670.58 449.36L670.8 449.28L670.94 449.22C672.828 448.33 674.86 447.788 676.94 447.62C677.74 447.69 678.21 447.85 678.38 448.15Z" fill="#404041"/>
<path d="M585.31 193C588.303 193.707 591.333 194.464 594.4 195.27C587.54 199.7 580.82 203.82 574.45 207.58C562.813 207.352 551.308 210.066 541 215.47C495.7 238.47 461.57 307.87 441.33 360.47L429.21 350.86C435.663 331.024 443.557 311.686 452.83 293C487.61 223.78 532.18 190.13 585.31 193Z" fill="#404041"/>
<path d="M550.73 186.32C532.67 190.88 515.64 199.89 499.8 213.32C478.86 231.03 460.02 256.39 443.8 288.71C434.375 307.725 426.354 327.405 419.8 347.59H369C367.58 242.38 383.64 223.14 386.33 220.67L387.82 220.5L389.9 218.5C390.5 217.87 440.86 170.71 550.73 186.32Z" fill="#6D6E70"/>
<path d="M416.2 574.34C429.47 604.51 433.2 617.59 434.2 623.16C433.71 622.77 433.2 622.31 432.53 621.75C429.855 619.324 427.305 616.764 424.89 614.08C421.89 610.79 418.18 606.52 413.69 600.98C405.15 590.44 397.55 579.98 395.9 577.75C384.5 550.25 387.69 519.86 405.37 487.43C413.603 472.49 423.801 458.721 435.69 446.49C450.18 441.28 454.43 443.84 455.4 444.77C456.335 445.862 456.831 447.263 456.79 448.7C456.848 450.273 456.697 451.847 456.34 453.38C454.953 454.547 453.6 455.753 452.28 457C433.28 474.86 420.94 499.73 416.51 529.38C414.26 543.852 414.038 558.567 415.85 573.1L415.95 573.74L416.2 574.34Z" fill="#6D6E70"/>
<path d="M437.67 370.26C433.88 380.57 430.67 389.98 428.1 397.97L417.47 393.59C417.415 393.566 417.358 393.546 417.3 393.53C419 386.2 421.82 374.78 426 361L437.67 370.26Z" fill="#404041"/>
<path d="M425.18 658V658.69L425.37 659.35C425.94 661.35 439.64 707.98 484.59 718.91C485.37 720 485.95 721.29 485.74 721.86C485.74 721.86 484.65 724.54 474.38 725.78C465.879 722.855 457.722 719.016 450.05 714.33C433.76 704.33 415.46 687.64 414.71 662.46C417.29 650.56 420.94 637.25 423.87 629.55C424.52 634.6 425.13 643.23 425.18 658Z" fill="#6D6E70"/>
<path d="M259 579.78C272 599.86 277.13 611.05 279.13 617.04C266 608.58 238 587.08 237 557.26C241.55 545.36 271.6 467.17 284.17 442.7L365 414.94C366.752 414.339 368.259 413.183 369.294 411.647C370.328 410.111 370.832 408.279 370.73 406.43H371.22C370.16 388.49 369.5 372.26 369.16 357.59H416.61C412.204 371.728 408.516 386.079 405.56 400.59C405.356 401.673 405.522 402.792 406.03 403.77C406.383 405.009 407.015 406.151 407.876 407.109C408.737 408.068 409.806 408.817 411 409.3L423.06 414.3L438.9 420.83L486.9 440.63L491.02 442.33L494.95 443.95L510.54 562.12C501.37 579.55 490.02 598.42 482.3 608.52C483.16 599.91 485.87 584.13 493.3 555.46C493.599 554.293 493.651 553.077 493.45 551.89C492.05 543.79 479.45 472.16 468.13 452.07C467.77 451.422 467.322 450.826 466.8 450.3C466.94 446.21 466.12 441.3 462.36 437.64C456.48 431.93 446.29 431.89 431.2 437.51L430.2 437.87L429.46 438.58C424.405 443.571 419.675 448.882 415.3 454.48V453.9C415.3 453.42 414.93 442.06 405.87 436.26C398.65 431.63 388.52 432.08 375.76 437.61L374.76 438.04L374.03 438.85C370.392 443.046 366.983 447.435 363.82 452C364.27 447.71 363.82 442 359.6 437.82C353.67 431.95 343.17 431.82 327.51 437.51L326.56 437.85L325.82 438.53C312.537 451.465 301.15 466.214 292 482.34C283 498.25 277.41 514.05 275.17 529.4L258.17 572.02C257.677 573.285 257.495 574.651 257.639 576.001C257.784 577.351 258.25 578.647 259 579.78Z" fill="#6D6E70"/>
<path d="M362.65 574.09C373.31 602.3 376.9 615.65 377.99 621.94C370.69 614.33 357.38 595.29 346.7 578.03C336.83 550.34 339.56 519.77 354.83 487.18C361.729 472.512 370.465 458.782 380.83 446.32C389.66 442.66 396.45 442.06 400.48 444.61C403.48 446.5 404.64 449.97 405.09 452.14C361.62 495.67 362.3 569.25 362.36 572.41V573.28L362.65 574.09Z" fill="#6D6E70"/>
<path d="M445.83 726.58C445.83 726.58 444.77 729.27 434.47 730.51C425.919 727.575 417.714 723.715 410 719C404.293 715.537 398.955 711.499 394.07 706.95C383.7 697.17 375.32 684.09 374.82 667.22C377.36 655.52 380.93 642.46 383.82 634.71L383.97 634.31C383.97 634.41 383.97 634.52 383.97 634.63C384.61 639.63 385.19 648.26 385.24 662.76V663.45L385.43 664.11C386 666.11 399.7 712.74 444.66 723.67C445.42 724.67 446 726 445.83 726.58Z" fill="#6D6E70"/>
<path d="M312.12 574.39C325.29 603.46 329.36 616.64 330.53 622.52C330.43 622.72 330.34 622.92 330.25 623.13C325.704 619.271 321.462 615.069 317.56 610.56C309.32 601.43 299.45 589.26 290.86 577.7C287.393 569.639 285.204 561.086 284.37 552.35C282.73 535.19 286.3 517.13 295.04 498.35C296.707 494.764 298.563 491.15 300.61 487.51C309.144 472.498 319.666 458.707 331.89 446.51C347.15 441.18 351.56 443.89 352.56 444.87C354.4 446.68 354.07 450.75 353.47 453.31C331.47 471.36 317.31 497.61 312.41 529.31C310.106 543.791 309.877 558.525 311.73 573.07L311.84 573.73L312.12 574.39Z" fill="#6D6E70"/>
<path d="M336.7 634.42C337.28 632.64 337.85 631.02 338.39 629.59C338.51 630.59 338.63 631.59 338.76 632.88C339.25 638.12 339.65 646.06 339.69 658.04V658.73L339.87 659.39C340.39 661.23 351.98 700.64 388.61 715.56C391.724 718.372 395.01 720.987 398.45 723.39C396.91 724.21 394.07 725.19 388.89 725.82C382.266 723.551 375.849 720.718 369.71 717.35C367.98 716.41 366.2 715.35 364.39 714.26C360.92 712.157 357.58 709.847 354.39 707.34C350.27 704.126 346.469 700.522 343.04 696.58C335.3 687.58 329.61 676.31 329.2 662.5C331.33 652.81 334.14 642.19 336.7 634.42Z" fill="#6D6E70"/>
<path d="M574.45 207.53C580.82 203.77 587.54 199.65 594.4 195.22C591.333 194.42 588.303 193.664 585.31 192.95C532.18 190.13 487.61 223.78 452.83 292.95C443.572 311.627 435.691 330.955 429.25 350.78L441.37 360.39C461.61 307.83 495.74 238.39 541.04 215.39C551.339 210.003 562.83 207.299 574.45 207.53ZM395.27 662C399.381 674 405.913 685.028 414.46 694.4C408.297 684.766 404.916 673.615 404.69 662.18V661.6L404.81 661.03C404.91 660.58 407.23 649.85 410.34 639.03C412.81 630.42 414.94 624.42 417.09 620.46C414.4 617.46 411.41 614.04 408.09 609.97C397.42 597.02 387.58 583.35 387.48 583.21L387.15 582.75L386.93 582.24C374.19 552 377.58 517.51 396.75 482.48C400.797 475.116 405.316 468.021 410.28 461.24C373.98 499.72 372.41 563.46 372.36 571.49C379.54 590.54 384.36 605.11 386.68 614.8C387.04 616.3 387.38 617.8 387.68 619.32C392.67 621.19 395.13 629.89 395.27 662ZM414.71 662.55C415.46 687.73 433.76 704.46 450.05 714.42C457.722 719.106 465.879 722.946 474.38 725.87C484.65 724.63 485.73 721.98 485.74 721.95C485.95 721.38 485.37 720.09 484.59 719C439.64 708.07 425.94 661.44 425.37 659.44L425.18 658.78V658C425.13 643.19 424.52 634.56 423.87 629.55C420.94 637.29 417.29 650.6 414.71 662.5V662.55ZM354.83 487.18C339.56 519.77 336.83 550.34 346.7 578.03C357.38 595.29 370.7 614.33 377.99 621.94C376.9 615.65 373.31 602.3 362.65 574.09L362.34 573.28V572.41C362.28 569.25 361.6 495.67 405.07 452.14C404.62 449.97 403.46 446.5 400.46 444.61C396.46 442.06 389.64 442.66 380.81 446.32C370.452 458.784 361.722 472.514 354.83 487.18ZM435.18 657.26C436.89 662.56 450.65 701.26 488.42 709.57L489.84 709.88L490.84 710.88C491.761 711.827 492.582 712.866 493.29 713.98C504.6 691.8 505.65 640.74 504.46 606.33C492.59 624.69 484.71 632.33 477.37 632.33C475.959 632.323 474.561 632.052 473.25 631.53C463.17 627.68 464.75 612.81 465.51 605.67C466.77 593.82 470.42 576.08 476.34 552.94C472.89 533.07 464 487.39 456.29 467C418.49 505.51 424.78 564.3 425.63 570.91C433.91 589.78 439.51 604.27 442.28 614.02C444.72 622.61 446.2 631.02 440.6 634.19C439.527 634.835 438.301 635.18 437.05 635.19C436.169 635.179 435.295 635.031 434.46 634.75C434.9 640.57 435.14 647.93 435.18 657.26ZM309.44 652.93C312.244 660.802 316.081 668.268 320.85 675.13C319.844 670.867 319.294 666.509 319.21 662.13V661.55L319.33 660.98C319.43 660.53 321.74 649.8 324.85 638.98C325.517 636.747 326.137 634.687 326.71 632.8C323.598 630.693 320.698 628.288 318.05 625.62C316.69 631.68 314.08 640.38 309.44 652.93ZM329.22 662.5C329.63 676.31 335.32 687.58 343.06 696.58C346.489 700.523 350.29 704.126 354.41 707.34C357.6 709.847 360.94 712.158 364.41 714.26C366.22 715.38 368 716.41 369.73 717.35C375.869 720.718 382.286 723.552 388.91 725.82C394.09 725.19 396.91 724.21 398.47 723.39C395.03 720.988 391.744 718.373 388.63 715.56C352 700.64 340.41 661.23 339.89 659.39L339.71 658.73V658C339.71 646 339.27 638.08 338.78 632.84C338.65 631.6 338.53 630.51 338.41 629.55C337.87 630.98 337.3 632.55 336.72 634.38C334.14 642.19 331.33 652.81 329.22 662.5ZM410 719C417.719 723.727 425.931 727.597 434.49 730.54C444.79 729.3 445.84 726.64 445.85 726.61C446.06 726.02 445.44 724.7 444.71 723.67C399.71 712.74 386.05 666.11 385.48 664.11L385.29 663.45V662.76C385.29 648.26 384.66 639.68 384.02 634.63C384.02 634.52 384.02 634.41 384.02 634.31L383.87 634.71C380.97 642.46 377.4 655.52 374.87 667.22C375.37 684.09 383.75 697.17 394.12 706.95C398.989 711.497 404.31 715.534 410 719ZM288.68 657.3C289.95 699.54 340.84 718.1 348.36 720.61C350.302 720.394 352.227 720.043 354.12 719.56L353.83 719.37C347.54 715.108 341.78 710.113 336.67 704.49C308.98 687.06 299.8 655.82 299.34 654.18L299.15 653.52V652.84C299.15 652.24 299.15 651.65 299.15 651.07C299.06 637.33 298.47 629.19 297.86 624.38C297.65 624.94 297.43 625.53 297.21 626.15C296.77 627.39 296.32 628.73 295.85 630.15C293.37 637.86 290.69 648 288.68 657.3ZM359.6 437.78C363.81 441.95 364.27 447.67 363.82 451.96C366.997 447.398 370.418 443.012 374.07 438.82L374.8 438.01L375.8 437.58C388.56 432.05 398.69 431.58 405.91 436.23C414.97 442.03 415.32 453.39 415.34 453.87V454.45C419.715 448.853 424.445 443.542 429.5 438.55L430.24 437.84L431.24 437.48C446.33 431.86 456.52 431.9 462.4 437.61C466.16 441.26 466.98 446.18 466.84 450.27C467.362 450.797 467.81 451.392 468.17 452.04C479.52 472.13 492.09 543.76 493.49 551.86C493.69 553.048 493.639 554.264 493.34 555.43C485.94 584.1 483.23 599.88 482.34 608.49C490.06 598.39 501.41 579.49 510.58 562.09L495 443.92L491.07 442.3L486.95 440.6L438.95 420.8L423.11 414.27L411.05 409.27C409.853 408.779 408.784 408.019 407.926 407.05C407.068 406.081 406.443 404.928 406.1 403.68C405.592 402.703 405.426 401.583 405.63 400.5C408.586 385.99 412.274 371.638 416.68 357.5H369.18C369.52 372.17 370.18 388.4 371.24 406.34H370.75C370.852 408.189 370.348 410.021 369.314 411.557C368.279 413.093 366.772 414.25 365.02 414.85L284.21 442.7C271.64 467.17 241.59 545.36 237 557.26C237.92 587.08 266 608.58 279.09 617.04C277.09 611.04 271.94 599.86 258.96 579.78C258.222 578.642 257.767 577.343 257.635 575.993C257.503 574.643 257.697 573.28 258.2 572.02L275.2 529.4C277.44 514.05 283.06 498.25 292.03 482.34C301.168 466.203 312.544 451.44 325.82 438.49L326.56 437.81L327.51 437.47C343.17 431.81 353.67 431.91 359.6 437.78ZM299.6 608.91C300.445 608.965 301.269 609.195 302.021 609.583C302.773 609.972 303.437 610.513 303.97 611.17C305.77 613.33 307.08 617.35 307.97 624.61C308.747 621.957 309.233 619.228 309.42 616.47C307.85 614.73 306.2 612.83 304.42 610.79L303.76 610.02C292.76 597.02 282.56 583.33 282.46 583.19L282.12 582.73L281.89 582.2C280.116 578.128 278.636 573.934 277.46 569.65L275.63 574.26C285.86 590.4 291.73 601.92 294.75 610.35C295.419 609.789 296.197 609.371 297.035 609.123C297.873 608.875 298.753 608.803 299.62 608.91H299.6ZM434.17 623.16C433.17 617.59 429.45 604.51 416.17 574.34L415.91 573.74L415.81 573.1C413.998 558.567 414.22 543.852 416.47 529.38C420.9 499.73 433.22 474.86 452.24 457C453.573 455.76 454.927 454.554 456.3 453.38C456.657 451.847 456.808 450.273 456.75 448.7C456.791 447.263 456.295 445.862 455.36 444.77C454.36 443.84 450.14 441.28 435.65 446.49C423.76 458.722 413.563 472.491 405.33 487.43C387.65 519.86 384.46 550.25 395.86 577.75C397.51 580.03 405.11 590.44 413.65 600.98C418.14 606.52 421.83 610.79 424.85 614.08C427.265 616.764 429.815 619.324 432.49 621.75C433.15 622.31 433.7 622.77 434.19 623.16H434.17ZM321.52 570.91C330.02 589.71 335.78 604.17 338.64 613.91L338.7 614.12C339.185 614.065 339.675 614.065 340.16 614.12C346.48 614.78 349.53 621.43 349.69 657.26C354.023 669.911 361.055 681.469 370.3 691.13C366.81 683.493 364.934 675.216 364.79 666.82V666.24L364.92 665.67C365.01 665.22 367.33 654.49 370.44 643.67C371.77 639.04 373 635.16 374.19 631.95C369.83 628.37 363.98 621.44 355.42 609.31C346.34 596.46 338.02 583 337.94 582.87L337.67 582.43L337.49 581.95C326.61 551.89 329.49 517.57 345.91 482.7C348.97 476.2 352.21 470.26 355.37 464.99C313.86 503.42 320.61 564.12 321.52 570.91ZM317.52 610.56C321.422 615.069 325.664 619.271 330.21 623.13C330.3 622.92 330.39 622.72 330.49 622.52C329.32 616.64 325.25 603.46 312.08 574.39L311.8 573.78L311.69 573.12C309.837 558.575 310.066 543.841 312.37 529.36C317.27 497.62 331.45 471.36 353.43 453.36C354.03 450.8 354.36 446.73 352.52 444.92C351.52 443.92 347.11 441.23 331.85 446.56C319.626 458.757 309.104 472.548 300.57 487.56C298.53 491.2 296.673 494.814 295 498.4C286.26 517.21 282.69 535.27 284.33 552.4C285.164 561.136 287.353 569.689 290.82 577.75C299.45 589.26 309.32 601.43 317.56 610.56H317.52ZM513.74 591.24C514.36 602.32 515.26 623.7 514.55 646.24C513.19 691 506.27 719 494 729.49L493.23 728.59C490.02 732.49 483.79 734.89 474.37 735.88L473.37 735.98L472.37 735.7C466.577 733.85 460.937 731.553 455.5 728.83C455.41 729.19 455.31 729.55 455.18 729.92C453.09 735.84 446.29 739.32 434.41 740.57L433.41 740.67L432.41 740.39C423.629 737.541 415.183 733.749 407.22 729.08C403.9 732.69 397.81 734.93 388.78 735.88L387.78 735.98L386.83 735.7C379.019 733.176 371.473 729.893 364.3 725.9C360.75 728.34 355.42 729.9 348.23 730.67L347.23 730.77L346.23 730.49C334.469 726.649 323.313 721.154 313.1 714.17C290.88 698.88 278.91 679.08 278.48 656.92V656.34L278.6 655.77C278.69 655.37 280.53 646.84 283.12 637.33C281.794 637.283 280.48 637.065 279.21 636.68C278.74 636.529 278.282 636.342 277.84 636.12C275.47 634.9 219.84 605.66 219.84 555.75C219.842 554.725 220.032 553.708 220.4 552.75C221.62 549.55 244.96 488.33 260.81 452.34C256.11 441.83 255.57 425.88 259.18 404.04L192.96 486.16C180.36 509.77 195.65 578.99 202.67 603.87L240.37 739.95C336.97 775.36 428.63 768.28 488.86 755.95C552.15 743.01 594.43 721.95 598.39 719.89C682.19 665.89 738.64 507.06 745.44 487.19L719.5 350C712.84 365.08 701.85 378.54 686.62 390.25C666.38 405.81 638.62 418.25 604.01 427.18C568.85 436.28 534.18 439.92 511.79 441.37L527.79 562.52C528.01 564.238 527.703 565.981 526.91 567.52C526.61 568.09 521.05 578.81 513.78 591.24H513.74ZM732.37 326.76L763.13 488.36L762.46 490.44C750.875 524.19 737.024 557.118 721 589C685.42 660 647.2 708.88 607.42 734.37L606.79 734.74C604.95 735.74 560.99 758.55 492.46 772.56C458.9 779.484 424.727 783.005 390.46 783.07C384.46 783.07 378.507 782.957 372.6 782.73C324.037 781.021 276.076 771.415 230.6 754.29L226.6 752.77L186.6 608.39C183.8 598.5 159.78 510.49 178.79 477.13L179.13 476.54L179.56 476.01L268.22 366.01L290.54 338.32L294.46 339.77C294.39 339.95 288.9 354.89 283.64 373.97C282.5 378.1 281.38 382.43 280.32 386.85C275.78 405.85 274.23 419.1 274.14 428.31C274.619 428.03 275.125 427.799 275.65 427.62L354.02 400.71C353.093 383.83 352.487 367.987 352.2 353.18C352.159 352.949 352.139 352.715 352.14 352.48C352.13 352.31 352.13 352.14 352.14 351.97C351.14 300.16 354.14 261.22 361.05 235.81C366.85 214.38 374.35 207.08 379.74 204.81C385.31 200 405.43 184.34 441.57 174.46C465.99 167.79 492.87 165.07 521.44 166.4C550.3 167.74 580.99 173.22 612.94 182.74C619.56 184.74 626.227 186.884 632.94 189.17C628.433 192.57 623.713 195.98 618.78 199.4L615.86 201.4C609.6 205.68 603.38 209.74 597.34 213.53C590.85 217.6 584.56 221.38 578.64 224.82C568.64 223.59 558.83 225.5 548.82 230.58C540.57 234.935 533.014 240.492 526.4 247.07C486 286 456.78 364.81 444 404.5L494.2 425.19C523.66 424.19 635.3 417.27 685.53 368.82C696.48 358.25 704.53 345.72 708.12 330.82C710.307 328.194 712.397 325.527 714.39 322.82L712.76 314.25L720.29 314.41C722.957 310.33 725.433 306.197 727.72 302.01L732.37 326.76ZM499.8 213.29C515.64 199.89 532.67 190.88 550.73 186.29C440.86 170.71 390.5 217.87 389.9 218.45L387.82 220.45L386.33 220.62C383.64 223.09 367.58 242.33 369 347.54H419.81C426.364 327.355 434.385 307.676 443.81 288.66C460 256.36 478.86 231 499.8 213.29ZM437.67 370.29L426 361C421.8 374.76 419 386.18 417.28 393.51C417.338 393.526 417.395 393.546 417.45 393.57L428.1 398C430.68 390 433.88 380.57 437.67 370.26V370.29Z" fill="black"/>
<path d="M295.83 630.19C296.3 628.75 296.75 627.41 297.19 626.19C297.41 625.57 297.63 624.98 297.84 624.42C298.45 629.23 299.04 637.42 299.13 651.11C299.13 651.69 299.13 652.28 299.13 652.88V653.56L299.32 654.22C299.78 655.86 308.96 687.1 336.65 704.53C341.76 710.153 347.52 715.148 353.81 719.41L354.1 719.6C352.207 720.083 350.282 720.434 348.34 720.65C340.82 718.14 289.93 699.58 288.66 657.34C290.69 648 293.37 637.86 295.83 630.19Z" fill="#6D6E70"/>
<path d="M261 452.32C245.15 488.32 221.81 549.53 220.59 552.73C220.222 553.687 220.032 554.704 220.03 555.73C220.03 605.64 275.67 634.88 278.03 636.1C278.471 636.321 278.929 636.509 279.4 636.66C280.67 637.044 281.984 637.263 283.31 637.31C280.72 646.82 278.88 655.31 278.79 655.75L278.67 656.32V656.9C279.1 679.06 291.07 698.9 313.29 714.15C323.503 721.133 334.659 726.628 346.42 730.47L347.42 730.75L348.42 730.65C355.61 729.89 360.94 728.32 364.49 725.88C371.655 729.879 379.195 733.168 387 735.7L387.95 735.98L388.95 735.88C397.95 734.88 404.07 732.69 407.39 729.08C415.353 733.749 423.799 737.541 432.58 740.39L433.58 740.67L434.58 740.57C446.46 739.32 453.26 735.84 455.35 729.92C455.48 729.55 455.58 729.19 455.67 728.83C461.107 731.552 466.747 733.849 472.54 735.7L473.54 735.98L474.54 735.88C483.96 734.88 490.19 732.49 493.4 728.59L494.17 729.49C506.27 719 513.19 691 514.59 646.26C515.3 623.7 514.4 602.32 513.78 591.26C521.05 578.83 526.61 568.11 526.9 567.57C527.693 566.031 528 564.287 527.78 562.57L511.78 441.42C534.17 439.97 568.84 436.33 604 427.23C638.58 418.29 666.37 405.86 686.61 390.3C701.84 378.59 712.83 365.13 719.49 350.05L745.6 487.23C738.8 507.1 682.35 665.9 598.55 719.93C594.55 721.93 552.31 743.05 489.02 755.99C428.79 768.3 337.13 775.38 240.53 739.99L202.83 603.91C195.83 579.03 180.52 509.81 193.12 486.2L259.35 404C255.74 425.86 256.28 441.81 261 452.32ZM596 588.92C601.808 588.81 607.423 586.816 612 583.24C627 572.14 648.94 540.71 664 514.48C672.81 499.11 679.73 484.84 684 473.23C689.41 458.54 690.4 449.01 687.12 443.23C685.35 440.12 680.96 435.74 670.8 438.76C669.576 439.133 668.371 439.566 667.19 440.06C666.78 440.22 664.68 441.06 661.32 442.36C650.96 446.46 628.6 455.55 606.52 466.01C550.44 492.57 543.69 505.01 544.08 512.88C544.79 527.49 557.08 563.3 575.67 580.01C578.208 582.33 581.035 584.313 584.08 585.91L584.88 586.31C588.347 587.993 592.146 588.885 596 588.92Z" fill="#6D6E70"/>
</g>
<defs>
<clipPath id="clip0_381_2418">
<rect width="1000" height="1000" fill="white"/>
</clipPath>
</defs>
</svg>
