<svg width="25" height="24" viewBox="0 0 25 24" fill="none" xmlns="http://www.w3.org/2000/svg">
<path fill-rule="evenodd" clip-rule="evenodd" d="M3.33333 6C3.33333 5.20435 3.6494 4.44129 4.21201 3.87868C4.77462 3.31607 5.53768 3 6.33333 3H8.58333C9.37898 3 10.142 3.31607 10.7046 3.87868C11.2673 4.44129 11.5833 5.20435 11.5833 6V8.25C11.5833 9.04565 11.2673 9.80871 10.7046 10.3713C10.142 10.9339 9.37898 11.25 8.58333 11.25H6.33333C5.53768 11.25 4.77462 10.9339 4.21201 10.3713C3.6494 9.80871 3.33333 9.04565 3.33333 8.25V6ZM13.0833 6C13.0833 5.20435 13.3994 4.44129 13.962 3.87868C14.5246 3.31607 15.2877 3 16.0833 3H18.3333C19.129 3 19.892 3.31607 20.4546 3.87868C21.0173 4.44129 21.3333 5.20435 21.3333 6V8.25C21.3333 9.04565 21.0173 9.80871 20.4546 10.3713C19.892 10.9339 19.129 11.25 18.3333 11.25H16.0833C15.2877 11.25 14.5246 10.9339 13.962 10.3713C13.3994 9.80871 13.0833 9.04565 13.0833 8.25V6ZM3.33333 15.75C3.33333 14.9544 3.6494 14.1913 4.21201 13.6287C4.77462 13.0661 5.53768 12.75 6.33333 12.75H8.58333C9.37898 12.75 10.142 13.0661 10.7046 13.6287C11.2673 14.1913 11.5833 14.9544 11.5833 15.75V18C11.5833 18.7956 11.2673 19.5587 10.7046 20.1213C10.142 20.6839 9.37898 21 8.58333 21H6.33333C5.53768 21 4.77462 20.6839 4.21201 20.1213C3.6494 19.5587 3.33333 18.7956 3.33333 18V15.75ZM13.0833 15.75C13.0833 14.9544 13.3994 14.1913 13.962 13.6287C14.5246 13.0661 15.2877 12.75 16.0833 12.75H18.3333C19.129 12.75 19.892 13.0661 20.4546 13.6287C21.0173 14.1913 21.3333 14.9544 21.3333 15.75V18C21.3333 18.7956 21.0173 19.5587 20.4546 20.1213C19.892 20.6839 19.129 21 18.3333 21H16.0833C15.2877 21 14.5246 20.6839 13.962 20.1213C13.3994 19.5587 13.0833 18.7956 13.0833 18V15.75Z" fill="#A066D3"/>
</svg>
