<svg width="204" height="180" viewBox="0 0 204 180" fill="none" xmlns="http://www.w3.org/2000/svg">
<g clip-path="url(#clip0_464_5377)">
<path d="M218.388 204.859C218.538 204.859 218.682 204.919 218.789 205.026C218.895 205.132 218.955 205.276 218.955 205.427C218.955 205.577 218.895 205.722 218.789 205.828C218.682 205.935 218.538 205.994 218.388 205.994H200.398C200.375 206.071 200.348 206.147 200.316 206.221C200.213 206.453 200.065 206.662 199.881 206.836C199.697 207.011 199.481 207.147 199.244 207.238C199.007 207.328 198.755 207.371 198.501 207.364C198.248 207.358 197.998 207.301 197.767 207.197C197.012 206.855 196.284 206.456 195.59 206.003H154.192C154.1 206.31 153.931 206.588 153.702 206.812C153.337 207.169 152.846 207.367 152.335 207.363C151.824 207.359 151.336 207.152 150.978 206.789C150.735 206.549 150.517 206.286 150.326 206.003H53.4857C53.3642 206.397 53.12 206.742 52.7888 206.987C52.4576 207.232 52.0568 207.364 51.6448 207.365C51.519 207.366 51.3936 207.354 51.2702 207.329C50.9281 207.262 50.6107 207.103 50.3517 206.869C50.0927 206.636 49.9018 206.337 49.7993 206.003H40.2653C40.1147 206.003 39.9704 205.944 39.864 205.837C39.7575 205.731 39.6978 205.586 39.6978 205.436C39.6978 205.285 39.7575 205.141 39.864 205.035C39.9704 204.928 40.1147 204.868 40.2653 204.868H49.7993C51.4291 197.075 59.0881 187.675 66.4996 178.584C71.2916 172.703 75.8066 167.15 78.6237 162.24C81.3681 157.437 81.7813 151.991 79.8518 146.055C79.2472 144.222 78.4664 142.451 77.5205 140.768C70.8635 138.54 64.6286 135.208 59.0767 130.912C48.2216 122.436 41.995 111.279 41.995 100.283C41.995 91.7679 42.9189 82.3247 49.7629 76.854C51.8877 75.1561 54.4618 73.928 57.5468 73.1494C57.8334 63.2539 60.5202 53.5762 65.376 44.9492C62.77 42.7881 55.8579 37.9712 48.3828 40.4092C48.0426 40.5196 47.6785 40.5334 47.331 40.4489C46.9835 40.3644 46.6663 40.185 46.4148 39.9308C46.1634 39.6765 45.9875 39.3573 45.9069 39.0089C45.8263 38.6604 45.8442 38.2965 45.9584 37.9576C46.1196 37.4786 50.0331 26.1763 60.6271 22.0381C67.4712 19.3663 75.3821 20.331 84.1852 24.9028C90.9774 20.5156 98.6962 17.7667 106.733 16.8729C114.769 15.979 122.903 16.9647 130.493 19.7522C132.654 18.4492 134.961 16.9805 137.26 15.3802C149.03 7.19 155.397 -0.655115 155.672 -7.30848C155.688 -7.69545 155.82 -8.06866 156.051 -8.37959C156.282 -8.69051 156.601 -8.92475 156.967 -9.05184C157.333 -9.17893 157.728 -9.19299 158.102 -9.09218C158.476 -8.99137 158.811 -8.78037 159.063 -8.48661C159.377 -8.12114 166.802 0.607007 170.336 13.0171C172.436 20.3855 172.711 27.5088 171.156 34.1917C169.757 40.189 166.886 45.8095 162.584 50.976C165.826 58.6394 167.488 66.8783 167.469 75.1992C167.501 76.4522 167.851 97.6835 156.63 110.11C156.137 112.333 155.399 114.495 154.43 116.556C155.686 120.388 161.647 138.228 169.521 156.735C184.117 191.037 193.792 201.189 199.338 203.665C199.589 203.777 199.814 203.941 199.997 204.147C200.179 204.353 200.315 204.596 200.396 204.859H218.388ZM154.192 204.859H194.003C185.831 198.469 176.429 182.824 165.964 158.222C159.445 142.897 154.231 128.031 151.874 121.078C149.021 125.341 145.087 129.268 140.175 132.673C129.329 140.205 114.941 144.352 99.6643 144.352C93.888 144.356 88.1334 143.643 82.5326 142.23C82.8618 143.004 83.1796 143.833 83.4702 144.711C85.7674 151.673 85.2476 158.388 81.9651 164.133C79.0028 169.318 74.3765 174.993 69.4801 180.999C62.6293 189.398 55.5537 198.083 53.7513 204.846H149.652C148.39 202.415 146.279 196.828 142.824 182.995C140.327 172.95 138.284 163.3 138.268 163.203C138.163 162.702 138.261 162.18 138.541 161.751C138.821 161.323 139.26 161.023 139.76 160.918C140.261 160.813 140.784 160.911 141.212 161.191C141.64 161.471 141.94 161.909 142.045 162.41C142.066 162.506 144.088 172.094 146.569 182.066C151.143 200.372 153.202 203.527 153.724 204.058C153.944 204.283 154.104 204.558 154.192 204.859V204.859ZM160.775 47.0943C168.143 37.4877 170.127 26.4578 166.677 14.1952C164.634 6.96301 161.093 0.958857 158.687 -2.56645C156.462 4.1414 150.013 11.2329 139.439 18.5809C137.9 19.65 136.368 20.6579 134.881 21.5977C133.485 22.4807 132.128 23.3025 130.838 24.0584C125.07 27.4361 120.682 29.4791 120.417 29.6017C120.187 29.7081 119.938 29.7682 119.685 29.7785C119.432 29.7888 119.179 29.7492 118.941 29.6618C118.703 29.5744 118.485 29.4411 118.298 29.2693C118.112 29.0976 117.961 28.8908 117.855 28.6608C117.749 28.4308 117.688 28.1821 117.678 27.9289C117.668 27.6757 117.708 27.423 117.795 27.1851C117.882 26.9472 118.016 26.7289 118.187 26.5425C118.359 26.3562 118.566 26.2055 118.796 26.0991C118.848 26.0741 121.806 24.6985 126.019 22.3581C121.633 21.0672 117.085 20.4128 112.513 20.415C102.845 20.4272 93.4025 23.3387 85.4065 28.7732C78.9204 33.1651 73.4775 38.9273 69.462 45.6529C64.6147 53.7811 61.8584 62.9843 61.4398 72.4389C62.4613 72.3118 63.5305 72.2278 64.6451 72.1778C68.2226 72.0212 72.295 72.2527 76.9348 72.8747C78.9387 71.4394 81.1815 70.3711 83.5587 69.7194C87.7151 68.5685 94.289 68.1577 102 72.7249L102.611 73.0858L102.683 73.2969C116.937 70.3596 137.7 66.3916 149.255 76.5816C155.338 81.9502 158.085 90.6216 157.427 102.376C163.948 90.8372 163.622 75.4444 163.615 75.265V75.2106C163.627 68.0089 162.297 60.8681 159.692 54.154C158.799 55.062 157.861 55.9511 156.877 56.8213C156.688 56.9894 156.467 57.1186 156.227 57.2013C155.988 57.2841 155.735 57.3189 155.482 57.3037C155.229 57.2885 154.981 57.2237 154.753 57.1129C154.525 57.0021 154.322 56.8474 154.153 56.6578C153.985 56.4683 153.856 56.2474 153.773 56.0079C153.691 55.7684 153.656 55.5149 153.671 55.262C153.686 55.0091 153.751 54.7616 153.862 54.5337C153.973 54.3058 154.127 54.102 154.317 53.9338C155.65 52.7519 156.888 51.5413 158.031 50.3018C159.013 49.2501 159.925 48.1764 160.766 47.0807L160.775 47.0943ZM153.475 103.574C154.362 92.3332 152.083 84.227 146.701 79.4804C136.316 70.321 115.972 74.4864 102.456 77.2899C102.249 77.7394 102.001 78.1687 101.714 78.5724C99.8482 81.2374 96.055 83.6958 90.4323 85.8886C90.062 90.3561 91.1793 94.8206 93.6103 98.587C93.7487 98.7993 93.8439 99.0369 93.8905 99.286C93.937 99.5352 93.9339 99.7911 93.8814 100.039C93.8289 100.287 93.728 100.522 93.5845 100.731C93.441 100.94 93.2577 101.119 93.045 101.257C92.7338 101.462 92.369 101.571 91.9963 101.57C91.6745 101.57 91.3577 101.49 91.0747 101.337C90.7917 101.184 90.5513 100.963 90.3755 100.694C87.5026 96.2727 86.1627 91.0301 86.5619 85.7729C83.2386 84.7559 76.835 82.1114 75.7181 76.6089C72.7751 76.2113 69.8098 76.0013 66.8401 75.9801C60.2231 75.9801 55.4243 77.274 52.1782 79.8663C47.7494 83.4143 45.854 89.5138 45.854 100.283C45.854 110.08 51.529 120.129 61.4353 127.85C65.8284 131.255 70.6872 134.013 75.8634 136.04C77.2481 136.586 78.657 137.084 80.0901 137.533C86.4253 139.508 93.024 140.508 99.6598 140.498C123.211 140.498 143.276 130.104 150.551 115.676C150.589 115.573 150.638 115.475 150.696 115.383V115.383C151.878 112.997 152.698 110.45 153.132 107.824C153.354 106.473 153.465 105.106 153.466 103.738L153.475 103.574ZM98.5543 76.3592C98.7498 76.0885 98.91 75.7941 99.031 75.483C98.3137 75.0971 97.61 74.7603 96.9199 74.4728C91.17 72.0439 86.403 72.7249 83.1978 73.8962C81.8895 74.3705 80.6458 75.0065 79.4954 75.7894C79.6038 76.3071 79.7988 76.8029 80.072 77.2558C81.9311 80.3839 87.1408 81.9547 88.7933 82.3838C92.4412 80.9832 94.8134 79.6598 96.357 78.5021C97.198 77.9083 97.9396 77.185 98.5543 76.3592V76.3592ZM73.5843 33.774C75.7387 31.4644 78.0819 29.3383 80.5895 27.418C73.5843 24.1628 67.3645 23.559 62.0663 25.602C56.3913 27.8016 52.9228 32.639 51.1295 35.9123C58.3935 35.2699 64.5066 39.2606 67.4167 41.6032C69.244 38.8237 71.3043 36.2045 73.5752 33.774H73.5843Z" fill="black"/>
<path d="M194.003 204.859H154.192C154.102 204.563 153.942 204.294 153.724 204.074C153.202 203.543 151.143 200.387 146.569 182.082C144.072 172.11 142.066 162.522 142.045 162.426C141.94 161.925 141.641 161.487 141.213 161.206C140.785 160.926 140.263 160.828 139.762 160.933C139.261 161.037 138.822 161.337 138.542 161.765C138.262 162.193 138.163 162.715 138.268 163.216C138.288 163.314 140.311 172.964 142.824 183.008C146.279 196.842 148.39 202.428 149.652 204.859H53.7536C55.556 198.097 62.6316 189.423 69.4824 181.013C74.3765 175.007 79.0028 169.332 81.9674 164.147C85.2498 158.401 85.7697 151.687 83.4724 144.725C83.1819 143.846 82.8641 143.018 82.5349 142.244C88.1357 143.657 93.8902 144.37 99.6666 144.366C114.944 144.366 129.331 140.219 140.177 132.687C145.089 129.282 149.03 125.35 151.877 121.078C154.233 128.033 159.447 142.897 165.967 158.222C176.429 182.815 185.84 198.46 194.003 204.859Z" fill="black"/>
<path d="M166.659 14.1792C170.118 26.4372 168.134 37.4717 160.757 47.0783C159.914 48.174 159.001 49.2522 158.019 50.3131C156.878 51.5464 155.64 52.7571 154.305 53.9451C154.116 54.1132 153.961 54.317 153.85 54.5449C153.74 54.7728 153.675 55.0203 153.66 55.2732C153.644 55.5262 153.679 55.7796 153.762 56.0191C153.845 56.2586 153.974 56.4795 154.142 56.6691C154.31 56.8587 154.514 57.0133 154.742 57.1241C154.97 57.2349 155.217 57.2998 155.47 57.3149C155.723 57.3301 155.977 57.2953 156.216 57.2126C156.456 57.1298 156.676 57.0006 156.866 56.8325C157.851 55.9578 158.789 55.0687 159.681 54.1653C162.286 60.8793 163.616 68.0201 163.603 75.2218V75.2763C163.603 75.4556 163.937 90.8485 157.415 102.387C158.076 90.6328 155.329 81.9569 149.243 76.5929C137.689 66.4028 116.925 70.3708 102.672 73.3082L102.599 73.0971L101.989 72.7361C94.2708 68.1689 87.7037 68.5798 83.5473 69.7306C81.1701 70.3823 78.9274 71.4506 76.9235 72.8859C72.2836 72.264 68.2112 72.0324 64.6337 72.1891C63.5191 72.239 62.4499 72.323 61.4284 72.4501C61.8471 62.9956 64.6034 53.7923 69.4506 45.6641C73.4593 38.9355 78.896 33.1687 85.3769 28.7708C93.3729 23.3363 102.815 20.4248 112.483 20.4126C117.055 20.4104 121.604 21.0648 125.99 22.3558C121.776 24.6961 118.819 26.0717 118.766 26.0967C118.302 26.3116 117.942 26.7023 117.765 27.1827C117.589 27.6631 117.611 28.1939 117.825 28.6584C118.04 29.1229 118.431 29.483 118.911 29.6594C119.392 29.8359 119.923 29.8142 120.387 29.5993C120.653 29.4767 125.041 27.4337 130.809 24.056C132.098 23.3001 133.456 22.467 134.852 21.5953C136.338 20.6555 137.871 19.6476 139.41 18.5785C149.983 11.2305 156.435 4.139 158.657 -2.56885C161.075 0.945112 164.62 6.94926 166.659 14.1792ZM157.125 40.913C160.895 34.6864 161.043 28.7753 160.237 24.4078C159.477 20.3466 157.807 16.5103 155.352 13.1872C155.229 13.0337 155.068 12.9148 154.886 12.842C154.703 12.7693 154.505 12.7452 154.31 12.7722C154.115 12.7992 153.931 12.8764 153.775 12.9961C153.619 13.1158 153.497 13.2739 153.42 13.4551C151.443 18.129 146.338 22.2876 141.534 25.3612C140.245 26.1898 138.976 26.9366 137.796 27.5926C135.7 28.772 133.547 29.8456 131.344 30.8092C131.146 30.8896 130.975 31.0243 130.849 31.198C130.724 31.3717 130.651 31.5771 130.638 31.7907C130.624 32.0043 130.672 32.2173 130.774 32.4051C130.877 32.5929 131.03 32.7479 131.217 32.8522C139.882 37.8099 144.156 42.6791 148.674 47.8342L149.114 48.3359C149.213 48.4483 149.333 48.5401 149.467 48.6059C149.602 48.6718 149.748 48.7104 149.897 48.7195H149.968C150.245 48.7196 150.513 48.6178 150.721 48.4335C152.156 47.1698 153.488 45.7952 154.707 44.3225C155.59 43.2453 156.395 42.1066 157.116 40.9153L157.125 40.913ZM111.325 65.7196V53.4502C111.325 52.3063 110.871 51.2093 110.062 50.4005C109.253 49.5916 108.156 49.1372 107.012 49.1372C105.868 49.1372 104.771 49.5916 103.963 50.4005C103.154 51.2093 102.699 52.3063 102.699 53.4502V65.7082C102.699 66.8521 103.154 67.9491 103.963 68.758C104.771 69.5668 105.868 70.0212 107.012 70.0212C108.156 70.0212 109.253 69.5668 110.062 68.758C110.871 67.9491 111.325 66.8521 111.325 65.7082V65.7196ZM80.2899 65.7196V53.4502C80.2899 52.3063 79.8355 51.2093 79.0266 50.4005C78.2178 49.5916 77.1207 49.1372 75.9769 49.1372C74.833 49.1372 73.736 49.5916 72.9271 50.4005C72.1183 51.2093 71.6639 52.3063 71.6639 53.4502V65.7082C71.6639 66.8521 72.1183 67.9491 72.9271 68.758C73.736 69.5668 74.833 70.0212 75.9769 70.0212C77.1207 70.0212 78.2178 69.5668 79.0266 68.758C79.8355 67.9491 80.2899 66.8521 80.2899 65.7082V65.7196Z" fill="black"/>
<path d="M160.228 24.4095C161.034 28.777 160.886 34.6881 157.116 40.9147C156.392 42.1056 155.584 43.2435 154.698 44.3197C153.479 45.7924 152.147 47.167 150.712 48.4307C150.504 48.615 150.236 48.7168 149.958 48.7167H149.888C149.739 48.7075 149.593 48.6689 149.458 48.6031C149.324 48.5373 149.204 48.4455 149.105 48.3331L148.665 47.8314C144.145 42.6762 139.873 37.8071 131.208 32.8494C131.021 32.7451 130.868 32.5901 130.765 32.4023C130.663 32.2144 130.615 32.0015 130.629 31.7879C130.642 31.5743 130.715 31.3688 130.84 31.1952C130.965 31.0215 131.137 30.8867 131.335 30.8064C133.539 29.8443 135.693 28.7723 137.789 27.5944C138.969 26.9383 140.238 26.1915 141.528 25.3629C146.331 22.2894 151.436 18.1307 153.413 13.4568C153.49 13.2757 153.612 13.1175 153.768 12.9978C153.924 12.8781 154.108 12.8009 154.303 12.7739C154.498 12.7469 154.696 12.771 154.879 12.8437C155.062 12.9165 155.222 13.0354 155.345 13.1889C157.8 16.5123 159.469 20.3485 160.228 24.4095ZM155.688 38.9035C158.117 34.6397 158.937 29.6462 157.999 24.8295C157.405 21.75 156.257 18.8041 154.61 16.1354C152.188 20.3213 147.8 23.9692 143.55 26.784C142.324 27.5966 141.11 28.3389 139.957 29.004C137.687 30.3161 135.644 31.333 134.234 32.0027C141.78 36.638 145.857 41.1848 150.052 45.9655C151.25 44.846 152.363 43.6388 153.382 42.3539C154.241 41.2674 155.011 40.1136 155.686 38.9035H155.688Z" fill="black"/>
<path d="M157.992 24.8225C158.93 29.6392 158.11 34.6327 155.681 38.8965C155.006 40.1043 154.235 41.2559 153.375 42.3401C152.357 43.6273 151.245 44.8367 150.047 45.9585C145.852 41.1779 141.775 36.6311 134.23 31.9957C135.646 31.3147 137.68 30.3091 139.952 28.997C141.105 28.3319 142.32 27.5896 143.546 26.777C147.797 23.9622 152.172 20.3143 154.605 16.1284C156.252 18.7973 157.399 21.7432 157.992 24.8225V24.8225Z" fill="black"/>
<path d="M146.701 79.4799C152.09 84.2264 154.36 92.3326 153.475 103.574V103.726C153.474 105.095 153.363 106.461 153.141 107.812C152.708 110.438 151.887 112.986 150.705 115.371V115.371C150.647 115.463 150.598 115.561 150.56 115.664C143.296 130.092 123.22 140.486 99.6689 140.486C93.0331 140.496 86.4344 139.496 80.0992 137.522C78.6676 137.068 77.2587 136.57 75.8725 136.028C70.6963 134.002 65.8375 131.243 61.4444 127.838C51.529 120.129 45.854 110.079 45.854 100.282C45.854 89.5133 47.7449 83.407 52.1714 79.8658C55.4175 77.2734 60.2163 75.9795 66.8333 75.9795C69.8044 75.999 72.7712 76.2075 75.7159 76.6038C76.8327 82.1063 83.2364 84.7508 86.5596 85.7678C86.1604 91.025 87.5004 96.2676 90.3732 100.688C90.5491 100.958 90.7894 101.179 91.0724 101.332C91.3555 101.485 91.6723 101.565 91.994 101.565C92.3668 101.566 92.7315 101.457 93.0428 101.251C93.2554 101.113 93.4387 100.935 93.5822 100.726C93.7258 100.517 93.8267 100.282 93.8792 100.034C93.9317 99.786 93.9347 99.5301 93.8882 99.2809C93.8417 99.0318 93.7465 98.7942 93.608 98.5819C91.177 94.8155 90.0597 90.351 90.43 85.8835C96.0528 83.6907 99.846 81.2323 101.712 78.5673C101.998 78.1636 102.247 77.7343 102.454 77.2848C115.972 74.495 136.316 70.3204 146.701 79.4799Z" fill="black"/>
<path d="M111.325 53.4502V65.7082C111.325 66.8521 110.871 67.9491 110.062 68.758C109.253 69.5668 108.156 70.0212 107.012 70.0212C105.868 70.0212 104.771 69.5668 103.963 68.758C103.154 67.9491 102.699 66.8521 102.699 65.7082V53.4502C102.699 52.3063 103.154 51.2093 103.963 50.4005C104.771 49.5916 105.868 49.1372 107.012 49.1372C108.156 49.1372 109.253 49.5916 110.062 50.4005C110.871 51.2093 111.325 52.3063 111.325 53.4502V53.4502Z" fill="black"/>
<path d="M99.031 75.4828C98.91 75.7939 98.7498 76.0884 98.5543 76.359C97.9396 77.1849 97.198 77.9081 96.357 78.5019C94.8134 79.6505 92.4412 80.983 88.7933 82.3836C87.1408 81.9546 81.9311 80.3837 80.072 77.2557C79.7988 76.8027 79.6039 76.307 79.4954 75.7892C80.6458 75.0063 81.8896 74.3703 83.1978 73.8961C86.403 72.7247 91.17 72.0437 96.9199 74.4726C97.61 74.7617 98.3137 75.0984 99.031 75.4828Z" fill="black"/>
<path d="M80.2899 53.4502V65.7082C80.2899 66.8521 79.8355 67.9491 79.0266 68.758C78.2178 69.5668 77.1208 70.0212 75.9769 70.0212C74.833 70.0212 73.736 69.5668 72.9271 68.758C72.1183 67.9491 71.6639 66.8521 71.6639 65.7082V53.4502C71.6639 52.3063 72.1183 51.2093 72.9271 50.4005C73.736 49.5916 74.833 49.1372 75.9769 49.1372C77.1208 49.1372 78.2178 49.5916 79.0266 50.4005C79.8355 51.2093 80.2899 52.3063 80.2899 53.4502V53.4502Z" fill="black"/>
<path d="M80.585 27.4205C78.0774 29.3409 75.7342 31.4669 73.5798 33.7765C71.3076 36.2099 69.2466 38.8321 67.419 41.6149C64.5089 39.2722 58.3935 35.2816 51.1317 35.924C52.925 32.6597 56.4027 27.8133 62.0686 25.6136C67.3554 23.557 73.5752 24.1676 80.585 27.4205Z" fill="black"/>
<path d="M171.045 50.2061V75.3713H159.758L159.724 71.5123H167.186V54.0651H159.658V63.4583L159.549 50.2061H171.045Z" fill="black"/>
<path d="M167.186 54.0649V71.5122H159.724L159.658 63.4582V54.0649H167.186Z" fill="black"/>
<path d="M159.758 75.3716L159.779 77.9548L158.614 78.4656C157.32 79.0308 128.65 91.4977 114.485 91.4977C113.604 91.5037 112.723 91.446 111.85 91.3251L111.446 91.2639L97.862 82.6674C99.04 81.9556 100.138 81.1184 101.135 80.1704L112.803 87.5569C121.322 88.5285 139.671 81.9228 149.868 77.8913V79.6483C149.868 79.9493 149.987 80.238 150.2 80.4508C150.413 80.6637 150.702 80.7833 151.003 80.7833C151.304 80.7833 151.592 80.6637 151.805 80.4508C152.018 80.238 152.138 79.9493 152.138 79.6483V76.9855C153.754 76.3295 155.043 75.7915 155.899 75.4283V75.3716H159.758Z" fill="black"/>
<path d="M159.724 71.5123L159.758 75.3713H155.899L155.799 63.4197V50.2061H159.549L159.658 63.4583V71.5123H159.724Z" fill="black"/>
<path d="M159.658 63.458L159.724 71.512H159.658V63.458Z" fill="black"/>
<path d="M155.899 75.3708V75.4276C155.043 75.7908 153.754 76.3356 152.138 76.9848V50.0444L155.706 52.2304L155.799 63.4215V75.3731L155.899 75.3708Z" fill="black"/>
<path d="M155.799 63.4199L155.899 75.3715H155.799V63.4199Z" fill="black"/>
<path d="M155.799 50.2059V63.4196L155.706 52.2285L152.138 50.0447V47.0937C152.138 46.7927 152.018 46.504 151.805 46.2912C151.592 46.0783 151.304 45.9587 151.003 45.9587C150.702 45.9587 150.413 46.0783 150.2 46.2912C149.987 46.504 149.868 46.7927 149.868 47.0937V48.7871C111.341 38.4291 87.5493 38.2407 74.3584 39.9092C62.8835 41.362 57.2653 44.4333 55.4674 45.6137V74.2157C56.2211 75.7479 59.9053 82.2492 69.2032 84.8234L69.7457 84.635L68.4405 86.0787C68.3365 86.1886 68.2556 86.3182 68.2024 86.4598C68.1493 86.6014 68.125 86.7522 68.1309 86.9033C68.1369 87.0545 68.173 87.2029 68.2371 87.3399C68.3012 87.4769 68.3921 87.5997 68.5044 87.7011C68.6166 87.8024 68.748 87.8803 68.8909 87.9302C69.0337 87.9801 69.185 88.0009 69.336 87.9914C69.4869 87.982 69.6345 87.9425 69.7699 87.8752C69.9054 87.8079 70.0261 87.7142 70.1248 87.5996L74.2108 83.0732L79.223 81.3276C80.3808 82.4227 81.6942 83.3406 83.1206 84.0516L69.3689 88.8617L68.8059 88.7187C56.0803 85.4885 51.9262 75.7979 51.756 75.387L51.6084 75.0329V43.7614L52.2599 43.1848C52.4869 42.9828 58.0507 38.1908 73.2279 36.1637C81.9492 34.9946 92.1574 34.9492 103.571 36.0275C117.763 37.3668 133.891 40.4608 151.504 45.2233L151.772 45.2959L159.547 50.0629V50.2127L155.799 50.2059Z" fill="black"/>
<path d="M152.138 76.9854V79.6481C152.138 79.9491 152.018 80.2378 151.805 80.4506C151.592 80.6635 151.304 80.7831 151.003 80.7831C150.702 80.7831 150.413 80.6635 150.2 80.4506C149.987 80.2378 149.868 79.9491 149.868 79.6481V77.8911C150.68 77.571 151.439 77.2668 152.138 76.9854Z" fill="black"/>
<path d="M152.138 50.045V76.9853C151.439 77.2668 150.68 77.571 149.868 77.8933V48.7783L150.231 48.8759L152.138 50.045Z" fill="black"/>
<path d="M152.138 47.094V50.045L150.231 48.8782L149.868 48.7806V47.094C149.868 46.793 149.987 46.5043 150.2 46.2914C150.413 46.0786 150.702 45.959 151.003 45.959C151.304 45.959 151.592 46.0786 151.805 46.2914C152.018 46.5043 152.138 46.793 152.138 47.094Z" fill="black"/>
<path d="M149.868 48.7782V77.8909C139.671 81.9224 121.322 88.5281 112.803 87.5566L101.135 80.17C101.647 79.68 102.11 79.1427 102.52 78.5651C102.936 77.9905 103.27 77.361 103.512 76.6946C107.106 78.5457 110.536 80.6986 113.766 83.1301C113.938 83.2664 114.147 83.3495 114.367 83.3692C114.586 83.389 114.806 83.3445 115 83.2413C115.041 83.2205 115.079 83.197 115.116 83.1709C115.586 83.0279 117.073 82.7283 118.521 82.4355C133.011 79.5072 146.347 75.9228 145.913 69.5782C146.324 56.6233 145.187 51.8041 145.139 51.6043C145.095 51.4238 145.007 51.257 144.883 51.1185C144.759 50.9799 144.603 50.874 144.429 50.8098C144.297 50.7599 131.097 45.918 113.968 42.9352C103.891 41.1827 94.4456 40.4041 85.8696 40.6221C75.103 40.8945 65.7006 42.749 57.9213 46.1359C57.7187 46.2243 57.5462 46.3701 57.4253 46.5552C57.3043 46.7403 57.24 46.9567 57.2403 47.1778V72.4021C57.2403 72.5041 57.2541 72.6056 57.2812 72.704C57.3675 73.0195 59.5126 80.4424 68.7765 81.725C68.9787 81.7522 69.1845 81.7244 69.3723 81.6445C69.56 81.5646 69.7228 81.4355 69.8434 81.271C71.6961 78.9812 73.9059 77.0051 76.3878 75.4189C76.4199 75.96 76.5042 76.4967 76.6398 77.0215L69.7458 84.6396L69.2032 84.828C59.8962 82.2539 56.2211 75.748 55.4675 74.2203V45.6183C57.2653 44.4379 62.8836 41.3666 74.3584 39.9138C87.5494 38.2408 111.341 38.4292 149.868 48.7782Z" fill="black"/>
<path d="M143.026 52.7262C143.296 54.3356 143.95 59.4068 143.623 69.5673C143.621 69.6112 143.621 69.6551 143.623 69.699C143.795 71.742 140.533 74.0233 134.441 76.1117C128.859 78.0276 122.092 79.3942 118.049 80.2114C116.855 80.452 115.911 80.6427 115.232 80.7993C115.03 80.8447 114.826 80.8924 114.63 80.9468C111.21 78.4039 107.573 76.1662 103.762 74.2594C103.738 74.0875 103.698 73.918 103.644 73.7532L103.417 73.0836L102.806 72.7226C95.088 68.1554 88.5209 68.5663 84.3646 69.7172C83.8538 69.8579 83.368 70.0145 82.9049 70.1712C75.1506 71.8986 69.9432 77.5577 68.4428 79.3669C61.7417 78.157 59.7941 73.1267 59.4967 72.2232V47.9274C76.4445 40.8428 98.1798 42.4999 113.523 45.1671C123.539 46.9155 133.403 49.4429 143.026 52.7262V52.7262Z" fill="black"/>
<path d="M103.766 74.2589C103.883 75.0794 103.796 75.916 103.512 76.6946C102.944 76.4018 102.359 76.1112 101.762 75.8275C102.021 74.9195 101.834 74.3815 101.834 74.3815C100.091 73.3349 98.2321 72.4925 96.2957 71.8709L96.4841 71.2603C98.9832 72.0759 101.417 73.0783 103.766 74.2589V74.2589Z" fill="black"/>
<path d="M103.512 76.6949C103.273 77.3607 102.943 77.9902 102.531 78.5654C102.122 79.1429 101.658 79.6803 101.147 80.1703L99.451 79.1011C100.906 77.7868 101.512 76.6518 101.75 75.8232C102.347 76.1115 102.933 76.4021 103.512 76.6949Z" fill="black"/>
<path d="M101.823 74.3812C101.823 74.3812 102.009 74.9192 101.75 75.8272C99.8689 74.9252 97.9317 74.1442 95.9506 73.4891C93.7054 72.7305 91.3798 72.2346 89.0203 72.0113C86.2862 71.7937 83.5376 72.1756 80.9664 73.1304C83.9968 71.5233 89.4153 69.7073 96.2843 71.8706C98.2208 72.4922 100.079 73.3346 101.823 74.3812V74.3812Z" fill="black"/>
<path d="M99.451 79.1011L101.135 80.1657C100.138 81.1137 99.04 81.9509 97.862 82.6627L96.8132 81.9999C96.5719 81.8482 96.3679 81.6442 96.2162 81.4029C97.371 80.7492 98.455 79.9778 99.451 79.1011V79.1011Z" fill="black"/>
<path d="M98.8767 78.7421L99.451 79.1053C98.455 79.9821 97.371 80.7535 96.2162 81.4071C96.0199 81.0984 95.9157 80.7401 95.9157 80.3743C95.9157 80.0084 96.0199 79.6502 96.2162 79.3414C96.3432 79.1392 96.5073 78.9629 96.6997 78.8216L96.7633 78.7762C97.0739 78.5653 97.4395 78.4497 97.8149 78.4436C98.1903 78.4376 98.5594 78.5413 98.8767 78.7421V78.7421Z" fill="black"/>
<path d="M98.8767 78.742C98.5592 78.5407 98.1897 78.4367 97.8138 78.4428C97.4379 78.4488 97.0719 78.5647 96.7611 78.7761C98.8381 77.3187 99.5668 76.1383 99.821 75.4664C98.5551 74.7816 97.2292 74.214 95.8599 73.7707L95.9507 73.4893C97.9317 74.1444 99.869 74.9253 101.751 75.8274C101.512 76.6559 100.906 77.7909 99.451 79.1052L98.8767 78.742Z" fill="black"/>
<path d="M96.7607 78.7764L96.6974 78.8216C96.7176 78.8052 96.7387 78.7901 96.7607 78.7764V78.7764Z" fill="black"/>
<path d="M96.475 71.2607L96.2866 71.8714C89.4176 69.708 83.9991 71.5241 80.9686 73.1312C79.3565 73.7244 77.8148 74.4941 76.3719 75.4262C76.3605 75.2537 76.356 75.0766 76.356 74.8973V74.0324L77.0007 73.4581C77.1005 73.3673 79.2457 71.4809 82.9027 70.1802C84.4012 69.8454 85.9321 69.6764 87.4676 69.6763C88.0374 69.6763 88.6163 69.699 89.2065 69.7489C91.6786 69.977 94.117 70.4841 96.475 71.2607Z" fill="black"/>
<path d="M87.4699 69.6759C85.9343 69.676 84.4035 69.845 82.9049 70.1799C83.3589 70.0141 83.8538 69.8575 84.3645 69.7259C88.5209 68.575 95.0948 68.1641 102.806 72.7313L103.417 73.0923L103.644 73.7619C103.698 73.9267 103.738 74.0961 103.762 74.2681C101.412 73.0842 98.9759 72.0788 96.475 71.2604C94.1184 70.4841 91.6816 69.977 89.211 69.7486C88.6185 69.6986 88.0396 69.6759 87.4699 69.6759Z" fill="black"/>
<path d="M85.1091 81.3164C85.1951 81.5614 85.2306 81.8212 85.2134 82.0803C85.1963 82.3393 85.1268 82.5922 85.0093 82.8237C83.6824 82.2482 82.4369 81.501 81.3046 80.6013L82.6507 80.1315C83.1339 79.9631 83.6641 79.9934 84.125 80.2155C84.5859 80.4377 84.9398 80.8336 85.1091 81.3164V81.3164Z" fill="black"/>
<path d="M84.2692 80.293C84.0276 80.1496 83.7574 80.0609 83.4778 80.0331C83.1982 80.0052 82.9159 80.0389 82.6507 80.1318L81.3046 80.6017C80.1783 79.7293 79.2944 78.5828 78.7372 77.2716C78.4345 76.5168 78.2804 75.7105 78.2832 74.8972C79.1109 74.2129 80.0106 73.6207 80.9664 73.1312C83.5376 72.1763 86.2862 71.7944 89.0203 72.012C91.3798 72.2354 93.7054 72.7313 95.9507 73.4898L95.8599 73.7713C88.0034 71.2493 82.2626 74.4273 80.3013 75.7825C80.7031 77.7415 82.4033 79.2193 84.276 80.2817L84.2692 80.293Z" fill="black"/>
<path d="M85.0092 82.8236C84.7845 83.2693 84.3955 83.6103 83.9242 83.7747L83.1229 84.0539C81.6965 83.3429 80.3832 82.425 79.2253 81.3299L81.3046 80.6035C82.437 81.5024 83.6825 82.2488 85.0092 82.8236Z" fill="black"/>
<path d="M79.223 81.328L74.2109 83.0782L77.6045 79.3281C78.0594 80.059 78.603 80.7308 79.223 81.328V81.328Z" fill="black"/>
<path d="M78.4444 78.3951C78.5773 78.2482 78.6694 78.0691 78.7116 77.8756C78.7538 77.682 78.7447 77.4808 78.685 77.2919L78.7372 77.2715C79.2944 78.5827 80.1783 79.7292 81.3046 80.6016L79.2253 81.328C78.6043 80.7302 78.0599 80.0577 77.6045 79.3258L78.4444 78.3951Z" fill="black"/>
<path d="M78.685 77.2847C78.7447 77.4736 78.7538 77.6748 78.7116 77.8684C78.6694 78.0619 78.5773 78.241 78.4444 78.3879L77.6045 79.3186C77.1647 78.6059 76.8334 77.8317 76.6216 77.0214L76.76 76.867C76.8939 76.7186 77.0646 76.6082 77.2549 76.5469C77.4452 76.4856 77.6482 76.4756 77.8436 76.518C78.0389 76.5604 78.2196 76.6536 78.3674 76.7882C78.5151 76.9229 78.6247 77.0941 78.685 77.2847V77.2847Z" fill="black"/>
<path d="M78.3626 76.7919C78.1392 76.5903 77.8449 76.4856 77.5444 76.5009C77.2439 76.5163 76.9617 76.6503 76.76 76.8736L76.6215 77.028C76.486 76.5031 76.4016 75.9664 76.3696 75.4253C77.8125 74.4932 79.3541 73.7235 80.9663 73.1304C80.0105 73.6199 79.1108 74.2121 78.2832 74.8964C78.2803 75.7097 78.4345 76.516 78.7372 77.2708L78.685 77.2913C78.6238 77.0991 78.5125 76.9268 78.3626 76.7919Z" fill="black"/>
<path d="M77.6045 79.328L74.2131 83.0803L69.7458 84.6421L76.6216 77.0308C76.8334 77.841 77.1647 78.6153 77.6045 79.328V79.328Z" fill="black"/>
<path d="M118.494 82.4355C117.053 82.7284 115.566 83.028 115.089 83.171C115.052 83.1971 115.013 83.2206 114.973 83.2414C114.779 83.3446 114.559 83.389 114.339 83.3693C114.12 83.3496 113.911 83.2665 113.738 83.1302C110.517 80.7 107.096 78.5471 103.512 76.6947C103.799 75.917 103.891 75.0804 103.778 74.259C107.585 76.1663 111.218 78.4041 114.635 80.9464C114.83 80.8919 115.035 80.8443 115.237 80.7989C115.918 80.6422 116.86 80.4516 118.054 80.2109C122.096 79.3937 128.863 78.0272 134.445 76.1113C140.538 74.0229 143.8 71.7461 143.627 69.6986C143.625 69.6547 143.625 69.6108 143.627 69.5669C143.954 59.4064 143.301 54.3352 143.03 52.7258C133.405 49.4421 123.539 46.9147 113.52 45.1667C98.1752 42.4994 76.44 40.8423 59.4944 47.927V72.2319C59.7918 73.1399 61.7395 78.1657 68.4405 79.3756C69.941 77.5596 75.1483 71.9073 82.9027 70.1798C79.2457 71.4805 77.1005 73.3578 77.0007 73.4577L76.356 74.032V74.8969C76.356 75.0762 76.356 75.2533 76.3719 75.4258C73.89 77.012 71.6802 78.9881 69.8275 81.2778C69.7069 81.4424 69.5441 81.5715 69.3564 81.6514C69.1686 81.7313 68.9628 81.7591 68.7606 81.7318C59.4967 80.4493 57.3515 73.0264 57.2653 72.7109C57.2382 72.6125 57.2244 72.511 57.2244 72.409V47.1779C57.2241 46.9568 57.2884 46.7404 57.4094 46.5553C57.5303 46.3702 57.7028 46.2244 57.9054 46.136C65.6847 42.7491 75.0871 40.8945 85.8537 40.6221C94.4229 40.3951 103.875 41.1828 113.952 42.9353C131.081 45.9181 144.281 50.76 144.413 50.8099C144.587 50.874 144.743 50.98 144.867 51.1186C144.991 51.2571 145.079 51.4239 145.123 51.6044C145.171 51.8042 146.308 56.6234 145.897 69.5783C146.329 75.9229 132.992 79.5072 118.494 82.4355Z" fill="#3CE5B5"/>
<path d="M74.2131 83.0776L70.1271 87.604C70.0284 87.7186 69.9077 87.8123 69.7722 87.8796C69.6368 87.9469 69.4892 87.9864 69.3382 87.9959C69.1873 88.0053 69.0359 87.9845 68.8931 87.9346C68.7503 87.8848 68.6189 87.8068 68.5067 87.7055C68.3944 87.6041 68.3035 87.4813 68.2394 87.3443C68.1753 87.2073 68.1392 87.0589 68.1332 86.9077C68.1273 86.7566 68.1516 86.6058 68.2047 86.4642C68.2579 86.3226 68.3388 86.193 68.4428 86.0831L69.748 84.6394L74.2131 83.0776Z" fill="black"/>
<path d="M66.1614 72.1438C68.8242 72.1438 70.9829 66.9362 70.9829 60.5123C70.9829 54.0884 68.8242 48.8809 66.1614 48.8809C63.4986 48.8809 61.3399 54.0884 61.3399 60.5123C61.3399 66.9362 63.4986 72.1438 66.1614 72.1438Z" fill="black"/>
<path d="M72.1043 58.6139C73.8682 58.6139 75.2982 56.0101 75.2982 52.7982C75.2982 49.5862 73.8682 46.9824 72.1043 46.9824C70.3404 46.9824 68.9104 49.5862 68.9104 52.7982C68.9104 56.0101 70.3404 58.6139 72.1043 58.6139Z" fill="black"/>
<path d="M141.217 56.9614C141.217 56.9614 141.584 66.6294 141.217 68.9561C140.849 71.2829 120.16 76.4993 120.16 76.4993C120.16 76.4993 140.967 66.021 141.217 56.9614Z" fill="black"/>
<path d="M193.207 204.123H184.948C183.396 202.603 177.936 193.182 173.319 184.518L173.167 184.231L160.943 177.165C165.233 175.898 170.139 176.157 175.612 177.946C181.947 190.463 187.833 199.213 193.207 204.123Z" fill="black"/>
<path d="M184.948 204.124H182.077C181.008 202.614 179.353 199.976 176.672 195.291C174.286 191.105 172.064 186.978 171.469 185.873L158.219 178.214C159.097 177.792 160.008 177.441 160.943 177.165L173.178 184.232L173.33 184.518C177.936 193.182 183.396 202.603 184.948 204.124Z" fill="black"/>
<path d="M177.539 176.213L176.767 178.347C176.374 178.207 175.985 178.073 175.6 177.946C175.146 177.038 174.685 176.114 174.216 175.174C175.284 175.455 176.392 175.802 177.539 176.213Z" fill="black"/>
<path d="M174.216 175.174C174.68 176.118 175.142 177.042 175.6 177.946C170.127 176.157 165.222 175.903 160.932 177.165L159.216 176.175L158.968 175.455C161.989 174.345 165.701 173.78 170.177 174.37L170.631 175.641L172.765 174.87L172.747 174.82C173.231 174.924 173.721 175.042 174.216 175.174Z" fill="black"/>
<path d="M172.747 174.82L172.765 174.87L170.631 175.642L170.177 174.371C171.011 174.478 171.868 174.628 172.747 174.82Z" fill="black"/>
<path d="M170.577 168.795L172.747 174.82C171.862 174.628 171.003 174.476 170.171 174.366L168.913 170.886C162.904 170.287 159.302 171.553 157.86 172.234L158.961 175.451C158.248 175.714 157.55 176.018 156.871 176.359L155.132 171.276L155.813 170.786C155.994 170.654 160.419 167.578 169.869 168.716L170.577 168.795Z" fill="black"/>
<path d="M172.747 174.82L170.57 168.796L171.072 168.569C172.131 170.871 173.177 173.074 174.209 175.179C173.719 175.044 173.231 174.925 172.747 174.82Z" fill="black"/>
<path d="M168.92 170.891L170.177 174.371C165.701 173.781 161.99 174.346 158.968 175.456L157.867 172.239C159.309 171.558 162.911 170.292 168.92 170.891Z" fill="black"/>
<path d="M164.929 148.656L165.862 150.726C165.801 150.753 165 151.114 163.776 151.584C163.653 151.284 163.533 150.983 163.413 150.676C163.252 150.277 163.09 149.877 162.934 149.48C163.638 149.216 164.309 148.935 164.929 148.656Z" fill="black"/>
<path d="M163.413 150.685C163.533 150.983 163.653 151.285 163.776 151.593C162.673 152.02 161.231 152.533 159.69 152.971C157.436 153.609 155.545 153.929 153.999 153.929C152.31 153.929 151.034 153.548 150.14 152.781C148.823 151.646 148.51 149.83 149.207 147.401C150.197 143.952 151.956 141.626 154.428 140.484C155.912 139.829 157.543 139.582 159.154 139.767C159.454 140.57 159.765 141.387 160.08 142.216C158.843 141.939 157.032 141.778 155.361 142.552C153.518 143.408 152.183 145.251 151.384 148.027C150.95 149.534 151.03 150.556 151.611 151.064C153.236 152.47 158.648 151.153 162.918 149.498C163.09 149.886 163.252 150.286 163.413 150.685Z" fill="black"/>
<path d="M162.532 140.618L162.078 141.644L161.606 142.677C161.118 142.475 160.613 142.318 160.096 142.207C159.781 141.378 159.47 140.561 159.17 139.757C160.328 139.872 161.462 140.162 162.532 140.618V140.618Z" fill="black"/>
<path d="M162.078 147.307C162.359 148.029 162.647 148.757 162.941 149.489C158.673 151.144 153.252 152.46 151.636 151.06C151.048 150.551 150.969 149.53 151.409 148.023C152.203 145.246 153.543 143.403 155.386 142.547C157.057 141.773 158.868 141.934 160.105 142.211C160.478 143.183 160.856 144.167 161.24 145.162C161.499 145.83 161.762 146.503 162.03 147.183C162.037 147.226 162.053 147.267 162.078 147.307Z" fill="black"/>
<path d="M162.078 141.644L161.608 142.677L162.078 141.644Z" fill="black"/>
<path d="M159.215 176.175L160.943 177.165C160.008 177.441 159.097 177.792 158.219 178.214L157.354 177.714L156.9 176.352C157.58 176.011 158.278 175.708 158.991 175.444L159.215 176.175Z" fill="black"/>
<path d="M157.22 122.747L159.057 127.566L158.884 127.756C157.928 128.807 156.916 129.806 155.854 130.748C150.496 135.515 143.071 139.799 133.34 143.733C129.973 145.095 126.409 146.384 122.721 147.619L124.721 141.299C134.883 138.938 151.731 126.835 157.22 122.747Z" fill="black"/>
<path d="M157.59 119.623L158.977 121.418C158.836 121.527 158.214 122.006 157.22 122.746L156.378 120.537C157.129 119.977 157.561 119.645 157.59 119.623Z" fill="black"/>
<path d="M157.266 134.65C157.86 136.278 158.494 137.987 159.163 139.758C157.552 139.573 155.921 139.82 154.437 140.475C151.958 141.61 150.199 143.944 149.216 147.392C148.519 149.825 148.833 151.635 150.149 152.772C151.034 153.539 152.31 153.92 154.008 153.92C155.554 153.92 157.445 153.6 159.699 152.962C161.247 152.524 162.689 152.011 163.785 151.585C163.785 151.61 163.805 151.632 163.815 151.657C164.101 152.368 164.393 153.083 164.686 153.802C165.376 155.479 166.083 157.17 166.806 158.874C168.253 162.277 169.68 165.507 171.088 168.564L170.586 168.791L169.891 168.709C160.441 167.574 156.017 170.648 155.835 170.78L155.154 171.27L156.893 176.353C155.437 177.08 154.071 177.975 152.821 179.018C150.498 180.979 148.557 183.352 147.096 186.018C145.348 179.133 143.664 171.64 142.415 165.566C142.396 165.469 142.363 165.376 142.318 165.289C142.108 164.134 141.977 162.966 141.927 161.793C141.566 154.054 144.197 145.778 145.393 142.459C150.047 139.999 153.967 137.422 157.266 134.65Z" fill="black"/>
<path d="M156.378 120.538L157.22 122.746C151.731 126.832 134.883 138.938 124.721 141.288L122.721 147.619C121.843 147.914 120.958 148.205 120.065 148.493L122.957 139.329L123.622 139.202C133.433 137.302 151.543 124.151 156.378 120.538Z" fill="black"/>
<path d="M156.371 120.522V120.538C151.536 124.151 133.426 137.302 123.615 139.202L122.95 139.329L120.058 148.493C112.408 150.96 104.297 153.205 96.3343 155.33C97.0675 152.461 98.3636 149.476 99.9663 148.999C100.1 148.958 100.228 148.903 100.35 148.835C101.228 148.35 102.91 147.46 105.04 146.338C111.897 142.706 124.664 135.967 135.589 129.409C143.487 124.669 148.492 121.207 151.652 118.599C152.689 117.755 153.671 116.845 154.592 115.875L156.371 120.522Z" fill="black"/>
<path d="M154.26 180.765C151.589 183.018 149.488 185.871 148.131 189.092L147.866 188.994C147.607 188.015 147.35 187.019 147.094 186.007C148.554 183.347 150.493 180.979 152.812 179.022C154.062 177.979 155.428 177.085 156.884 176.357L157.338 177.719L158.203 178.218C156.788 178.901 155.464 179.756 154.26 180.765Z" fill="black"/>
<path d="M152.739 204.124C151.343 201.273 149.598 195.575 147.859 188.994L148.124 189.092C149.481 185.871 151.582 183.018 154.253 180.765C155.464 179.753 156.796 178.896 158.219 178.214L171.48 185.873C172.075 186.978 174.297 191.094 176.683 195.291C179.357 199.976 181.019 202.614 182.088 204.124H152.739Z" fill="black"/>
<path d="M142.406 165.554C143.655 171.628 145.339 179.121 147.087 186.006C146.67 186.748 146.304 187.517 145.993 188.308L145.371 188.469C143.378 180.813 141.628 172.852 140.74 168.659L141.898 168.57L141.859 168.08C142.137 167.995 142.372 167.806 142.515 167.552C142.657 167.299 142.697 167 142.626 166.718C142.504 166.246 142.399 165.767 142.311 165.281C142.355 165.367 142.387 165.459 142.406 165.554V165.554Z" fill="black"/>
<path d="M142.624 166.722C142.695 167.005 142.655 167.303 142.512 167.557C142.37 167.81 142.135 167.999 141.857 168.084L141.721 166.312L140.266 166.421C140.231 166.262 140.204 166.125 140.182 166.016C140.126 165.747 140.171 165.466 140.307 165.227C140.444 164.988 140.662 164.806 140.923 164.716C141.183 164.626 141.467 164.634 141.722 164.738C141.977 164.842 142.185 165.035 142.309 165.281C142.396 165.764 142.501 166.244 142.624 166.722Z" fill="black"/>
<path d="M141.525 168.133C141.3 168.132 141.08 168.065 140.894 167.939C140.707 167.814 140.562 167.635 140.477 167.427C140.393 167.025 140.32 166.687 140.266 166.417L141.721 166.308L141.857 168.08L141.809 168.096C141.717 168.121 141.621 168.133 141.525 168.133V168.133Z" fill="black"/>
<path d="M141.895 168.57L140.738 168.659C140.64 168.205 140.552 167.787 140.477 167.426C140.562 167.635 140.707 167.813 140.894 167.939C141.08 168.065 141.3 168.132 141.525 168.132C141.621 168.132 141.717 168.12 141.809 168.096L141.857 168.08L141.895 168.57Z" fill="black"/>
<path d="M140.477 167.427C140.456 167.379 140.44 167.331 140.427 167.281C140.352 166.995 140.284 166.709 140.222 166.421H140.266C140.32 166.686 140.393 167.025 140.477 167.427Z" fill="black"/>
<path d="M140.427 167.281C140.44 167.331 140.456 167.379 140.477 167.427C140.552 167.787 140.64 168.201 140.738 168.659C124.539 169.88 112.288 170.291 103.135 170.291C101.673 170.291 100.289 170.281 98.9811 170.262C99.0651 169.476 99.1445 168.711 99.2081 167.971C108.567 168.11 121.824 167.797 140.211 166.421C140.286 166.709 140.352 166.995 140.427 167.281Z" fill="black"/>
<path d="M139.653 162.086C139.727 163.544 139.918 164.994 140.222 166.421C121.835 167.797 108.579 168.11 99.2194 167.972C99.6439 163.747 99.9254 160.299 100.075 158.324C112.106 155.078 124.344 151.532 134.786 147.31C137.529 146.199 140.092 145.064 142.472 143.905C141.108 148.148 139.283 155.242 139.653 162.086Z" fill="black"/>
<path d="M122.721 147.619L121.736 150.733L119.572 150.052L120.065 148.495C120.958 148.204 121.843 147.912 122.721 147.619Z" fill="black"/>
<path d="M105.814 171.429V172.564C105.814 181.074 102.157 201.67 102 202.541L101.832 203.479H94.2549L94.9995 201.867C97.4965 196.444 99.7302 172.698 99.7529 172.459L99.8482 171.429H105.814ZM103.523 173.699H101.923C101.496 178.034 99.7824 194.483 97.669 201.209H99.939C100.62 197.218 103.267 181.508 103.523 173.699Z" fill="black"/>
<path d="M101.923 173.699H103.532C103.276 181.508 100.629 197.218 99.939 201.209H97.669C99.7733 194.483 101.487 178.034 101.923 173.699Z" fill="black"/>
<path d="M101.832 203.479L102 202.542C102.157 201.67 105.814 181.074 105.814 172.564V171.429H99.8482L99.7529 172.46C99.7302 172.698 97.5011 196.444 94.9995 201.867L94.255 203.479H101.832ZM119.254 204.124H92.7908C95.8326 195.566 97.837 181.024 98.972 170.262C100.28 170.28 101.664 170.29 103.126 170.292C112.279 170.292 124.53 169.881 140.729 168.66C141.619 172.85 143.369 180.813 145.362 188.47C146.951 194.569 148.694 200.476 150.279 204.133H119.254V204.124Z" fill="black"/>
<path d="M97.9392 156.406L100.209 156.558C100.198 156.728 100.157 157.343 100.082 158.324L97.7553 158.948C97.8734 157.382 97.9346 156.46 97.9392 156.406Z" fill="black"/>
<path d="M100.075 158.324C99.9254 160.299 99.6439 163.747 99.2195 167.972C98.4272 167.972 97.6645 167.944 96.9268 167.926C97.3127 164.163 97.5828 161.001 97.7485 158.948L100.075 158.324Z" fill="black"/>
<path d="M99.2194 167.971C99.1445 168.711 99.0651 169.476 98.9924 170.262C98.2002 170.25 97.4375 170.234 96.6997 170.216C96.7845 169.431 96.8639 168.667 96.9381 167.926C97.6645 167.944 98.4272 167.96 99.2194 167.971Z" fill="black"/>
<path d="M98.972 170.262C97.837 181.024 95.8326 195.565 92.7908 204.123H90.3755C93.4423 196.065 95.5012 181.217 96.6884 170.216C97.4261 170.234 98.1889 170.25 98.972 170.262Z" fill="black"/>
<path d="M96.929 167.926C96.8533 168.669 96.7739 169.433 96.6907 170.217C92.5683 170.117 89.2882 169.926 86.7163 169.706C86.9433 168.939 87.1703 168.187 87.3837 167.458C89.8738 167.658 93.0178 167.833 96.929 167.926Z" fill="black"/>
<path d="M96.6884 170.217C95.5012 181.217 93.4423 196.065 90.3755 204.124H70.4745C77.5841 196.61 83.25 181.174 86.714 169.706C89.2859 169.926 92.5661 170.128 96.6884 170.217Z" fill="black"/>
<path d="M94.1188 159.897C94.0789 159.903 94.0387 159.907 93.9984 159.909H93.8736H93.717C93.6721 159.906 93.6274 159.9 93.583 159.893H93.5581L93.4559 159.87C93.4328 159.867 93.41 159.862 93.3878 159.854L93.2925 159.827C93.276 159.824 93.2599 159.818 93.2448 159.811L93.1744 159.788L93.1086 159.759C93.0625 159.741 93.0177 159.72 92.9747 159.695H92.9542C92.9151 159.675 92.8772 159.652 92.8407 159.627C92.8296 159.624 92.8194 159.617 92.8112 159.609C92.7743 159.586 92.7387 159.561 92.7046 159.534L92.6614 159.5L92.389 159.278L90.0486 157.462C90.3029 156.413 90.4527 155.75 90.5026 155.566L88.2871 155.069C88.2871 155.101 88.2122 155.405 88.0851 155.941L85.7198 154.125C85.6724 157.871 84.67 161.543 82.8074 164.794C82.4283 165.459 82.0197 166.131 81.5884 166.809C80.7735 166.701 79.965 166.55 79.1663 166.355L78.5171 168.539C79.0726 168.691 79.6355 168.815 80.2037 168.909C79.727 169.604 79.2298 170.305 78.7123 171.013H77.6681L77.3662 171.681C77.3435 171.731 76.8531 172.816 76.0427 174.546C74.2404 176.861 72.2995 179.242 70.3155 181.676C69.6187 182.531 68.9172 183.389 68.2226 184.25C66.0911 186.878 63.9913 189.514 62.0936 192.086C60.9586 193.625 59.8917 195.141 58.9338 196.626C57.8586 198.261 56.8896 199.964 56.0327 201.724C55.6532 202.512 55.316 203.319 55.0225 204.142H67.9048L69.0943 205.483C69.5604 205.07 70.0204 204.623 70.4744 204.142H90.3755C90.2847 204.382 90.1917 204.616 90.0986 204.845L92.1983 205.706C92.4004 205.211 92.6001 204.689 92.7908 204.142H150.288C150.941 205.654 151.572 206.775 152.151 207.365C152.233 207.448 152.326 207.517 152.428 207.572L152.317 207.81C152.129 207.717 151.958 207.592 151.811 207.442C151.498 207.13 151.223 206.782 150.991 206.405H54.3824C54.3824 206.423 54.3824 206.444 54.3824 206.462C54.2945 206.905 54.054 207.302 53.703 207.586C53.3519 207.87 52.9124 208.022 52.461 208.015C52.0096 208.008 51.5749 207.844 51.2325 207.549C50.8901 207.255 50.6616 206.85 50.587 206.405H41.314C41.013 206.405 40.7243 206.285 40.5114 206.073C40.2986 205.86 40.179 205.571 40.179 205.27C40.179 204.969 40.2986 204.68 40.5114 204.467C40.7243 204.255 41.013 204.135 41.314 204.135H50.9661C53.1453 196.626 60.3412 187.791 67.3101 179.238C72.102 173.356 76.6284 167.804 79.4341 162.894C81.7586 158.828 82.1377 154.688 81.6451 151.017L77.6068 147.882C77.2461 147.603 76.9952 147.206 76.8985 146.761L75.0417 138.191C75.03 138.142 75.0217 138.092 75.0167 138.042C74.9806 137.766 74.9997 137.486 75.0729 137.219C75.1461 136.951 75.272 136.7 75.4432 136.481C75.6144 136.263 75.8274 136.08 76.0699 135.945C76.3124 135.809 76.5794 135.723 76.8554 135.692C77.3517 135.651 77.8513 135.699 78.3309 135.833C78.6921 135.837 79.045 135.942 79.3501 136.135C81.636 136.916 84.5961 138.546 86.5687 139.86C89.665 141.926 93.3787 145.061 94.7612 148.874C95.7191 147.285 96.988 145.946 98.6519 145.372C99.5872 144.856 101.149 144.034 103.244 142.922C110.054 139.32 122.753 132.612 133.583 126.124C139.557 122.54 144.252 119.444 147.568 116.917C152.871 112.865 153.082 111.41 153.089 111.349C153.133 110.917 153.321 110.513 153.623 110.202C153.925 109.89 154.323 109.689 154.753 109.631C155.182 109.573 155.619 109.662 155.993 109.882C156.366 110.103 156.655 110.443 156.812 110.847L163.072 127.284C163.194 127.603 163.229 127.948 163.174 128.284C163.119 128.621 162.976 128.937 162.759 129.2C162.002 130.094 161.201 130.969 160.355 131.824C161.808 135.826 163.513 140.387 165.408 145.217C166.259 147.383 167.147 149.605 168.069 151.859C168.22 152.224 168.371 152.589 168.523 152.956C169.128 154.422 169.745 155.896 170.375 157.378C184.606 190.865 194.162 201.338 199.76 204.124H212.202C212.503 204.124 212.792 204.243 213.004 204.456C213.217 204.669 213.337 204.958 213.337 205.259C213.337 205.56 213.217 205.848 213.004 206.061C212.792 206.274 212.503 206.394 212.202 206.394H201.295C201.266 206.556 201.218 206.713 201.152 206.864C201.048 207.095 200.9 207.304 200.716 207.478C200.532 207.653 200.316 207.789 200.079 207.88C199.842 207.97 199.59 208.014 199.337 208.007C199.083 208 198.834 207.943 198.602 207.84C197.709 207.434 196.854 206.95 196.046 206.394H184.015V206.255L185.103 204.262C185.045 204.218 184.989 204.17 184.937 204.119H193.195C187.822 199.209 181.936 190.458 175.589 177.941C175.975 178.069 176.364 178.203 176.756 178.343L177.528 176.209C176.381 175.796 175.273 175.45 174.204 175.17C173.171 173.066 172.125 170.863 171.067 168.56C169.66 165.501 168.233 162.271 166.786 158.869C166.064 157.168 165.357 155.478 164.666 153.798C164.373 153.078 164.08 152.363 163.794 151.653C163.794 151.628 163.774 151.605 163.765 151.58C164.988 151.11 165.789 150.749 165.851 150.722L164.918 148.652C164.298 148.931 163.626 149.212 162.922 149.485C162.63 148.751 162.343 148.024 162.06 147.303C162.042 147.262 162.026 147.222 162.01 147.181C161.742 146.503 161.479 145.829 161.22 145.16C160.83 144.159 160.451 143.175 160.085 142.209C160.601 142.32 161.106 142.478 161.595 142.679V142.679L162.064 141.646L162.532 140.618C161.456 140.163 160.317 139.875 159.154 139.765C158.485 137.994 157.851 136.285 157.257 134.657C153.958 137.429 150.033 140.005 145.375 142.455C144.179 145.773 141.548 154.05 141.909 161.788C141.959 162.961 142.09 164.129 142.3 165.284C142.176 165.038 141.968 164.845 141.713 164.741C141.458 164.637 141.174 164.629 140.914 164.719C140.653 164.809 140.435 164.991 140.298 165.23C140.162 165.469 140.117 165.75 140.173 166.019C140.195 166.128 140.222 166.265 140.257 166.423H140.213C139.909 164.996 139.718 163.546 139.644 162.088C139.274 155.244 141.099 148.15 142.463 143.928C140.079 145.082 137.517 146.217 134.777 147.333C124.335 151.555 112.102 155.101 100.066 158.347C100.141 157.366 100.182 156.758 100.193 156.581L97.9233 156.429C97.9233 156.483 97.8575 157.405 97.7326 158.971L94.5909 159.809L94.3639 159.872H94.3321L94.2436 159.893L94.1188 159.897ZM159.057 127.566L157.22 122.746C158.214 122.006 158.836 121.527 158.977 121.418L157.59 119.623C157.561 119.646 157.136 119.977 156.378 120.531V120.515L154.601 115.875C153.68 116.845 152.698 117.755 151.661 118.599C148.501 121.207 143.489 124.669 135.598 129.409C124.673 135.962 111.911 142.709 105.049 146.334C102.92 147.469 101.237 148.35 100.359 148.831C100.237 148.899 100.109 148.954 99.9754 148.994C98.3705 149.471 97.0743 152.456 96.3434 155.325C104.307 153.201 112.417 150.956 120.067 148.488L119.575 150.045L121.738 150.726L122.723 147.612C126.412 146.377 129.987 145.085 133.342 143.726C143.074 139.792 150.499 135.515 155.856 130.741C156.919 129.799 157.93 128.8 158.886 127.749L159.057 127.566ZM91.733 153.898C91.6581 153.08 91.5559 152.197 91.4152 151.303C91.4152 151.303 91.4152 151.287 91.4152 151.278C91.0656 148.842 88.7252 146.023 84.8208 143.333C84.2284 142.927 83.6427 142.552 83.0752 142.198C81.9055 141.491 80.6924 140.858 79.4432 140.303L80.5146 145.242L85.2226 148.874L91.733 153.898Z" fill="black"/>
<path d="M91.7329 153.898L85.2294 148.886L80.5214 145.254L79.45 140.316C80.6991 140.87 81.9121 141.502 83.082 142.207C83.6495 142.55 84.2351 142.925 84.8276 143.342C88.732 146.03 91.0724 148.849 91.422 151.287C91.422 151.287 91.422 151.303 91.422 151.312C91.5559 152.195 91.658 153.081 91.7329 153.898Z" fill="black"/>
<path d="M88.2803 155.08L90.4958 155.577C90.455 155.761 90.3051 156.424 90.0418 157.473L88.0692 155.952C88.2054 155.416 88.2735 155.112 88.2803 155.08Z" fill="black"/>
<path d="M88.076 155.952L90.0487 157.473C89.547 159.546 88.6413 163.125 87.3792 167.461C86.5279 167.393 85.7538 167.32 85.0501 167.25C86.6164 161.936 87.6606 157.702 88.076 155.952Z" fill="black"/>
<path d="M85.7129 154.129L88.0783 155.945C87.6606 157.695 86.6164 161.929 85.0524 167.24C83.6064 167.093 82.4623 166.941 81.5815 166.807C82.0128 166.126 82.4214 165.456 82.8005 164.791C84.6621 161.542 85.6644 157.873 85.7129 154.129Z" fill="black"/>
<path d="M87.3814 167.458C87.1703 168.187 86.9478 168.938 86.714 169.706C85.8605 169.635 85.0841 169.56 84.3804 169.479C84.6135 168.722 84.8405 167.977 85.0614 167.243C85.7561 167.318 86.5301 167.39 87.3814 167.458Z" fill="black"/>
<path d="M86.714 169.706C83.25 181.174 77.5841 196.61 70.4744 204.124H67.9048L67.5893 203.768C67.9555 203.442 68.3179 203.094 68.6766 202.724C75.3935 195.777 80.9346 180.802 84.3805 169.484C85.0842 169.561 85.8605 169.636 86.714 169.706Z" fill="black"/>
<path d="M85.0524 167.247C84.839 167.973 84.612 168.719 84.3714 169.483C82.4918 169.279 81.1298 169.07 80.1946 168.897C80.6758 168.195 81.1351 167.501 81.5725 166.813C82.4623 166.95 83.6064 167.099 85.0524 167.247Z" fill="black"/>
<path d="M83.1705 171.002L82.855 172.398C80.9323 180.656 76.8713 188.862 74.624 193.019C73.2052 195.636 71.7116 198.131 70.4199 200.038C69.546 201.327 68.949 202.094 68.4972 202.535C67.9865 203.048 67.6664 203.152 67.3509 203.152H67.1965C67.0616 203.141 66.9295 203.108 66.8061 203.052H59.6374L61.3535 201.157C65.5553 196.51 73.0213 181.001 76.0427 174.534C76.9734 173.34 77.8587 172.162 78.7122 171.002H83.1705ZM80.2921 173.272H79.1322C77.4796 176.884 69.7684 193.523 64.5406 200.782H67.0376C69.0443 198.612 77.0392 185.709 80.2921 173.272Z" fill="black"/>
<path d="M79.1322 173.272H80.2922C77.0393 185.709 69.0443 198.612 67.0445 200.773H64.5475C69.7685 193.523 77.4796 176.884 79.1322 173.272Z" fill="black"/>
<path d="M81.5815 166.814C81.1457 167.501 80.6864 168.196 80.2036 168.898C79.6355 168.803 79.0726 168.68 78.517 168.528L79.1594 166.351C79.958 166.549 80.7665 166.703 81.5815 166.814V166.814Z" fill="black"/>
<path d="M78.7123 171.002C77.861 172.171 76.9734 173.34 76.045 174.534C76.8554 172.802 77.3457 171.719 77.3684 171.669L77.6703 171.002H78.7123Z" fill="black"/>
<path d="M74.6171 193.016C76.8644 188.86 80.9255 180.654 82.8482 172.396L83.1705 171.002H78.7122C79.2298 170.294 79.7269 169.592 80.2036 168.897C81.1389 169.07 82.5009 169.279 84.3804 169.483C80.9277 180.797 75.3935 195.779 68.6766 202.723L68.4904 202.541C68.9444 202.087 69.5392 201.324 70.4131 200.044C71.7047 198.128 73.1984 195.634 74.6171 193.016Z" fill="black"/>
<path d="M68.6766 202.723C68.3179 203.095 67.9555 203.443 67.5892 203.767L67.9048 204.123H55.0225C55.316 203.3 55.6532 202.493 56.0327 201.706C56.8895 199.946 57.8586 198.243 58.9337 196.607C59.8917 195.129 60.9563 193.613 62.0936 192.067C63.9913 189.495 66.091 186.86 68.2226 184.231C68.9172 183.371 69.6186 182.513 70.3155 181.657C72.2995 179.223 74.2403 176.842 76.0427 174.527C73.0213 180.994 65.5553 196.503 61.3536 201.149L59.6374 203.045H66.7993C66.9227 203.1 67.0548 203.134 67.1897 203.145H67.3441C67.6596 203.145 67.9797 203.04 68.4904 202.527L68.6766 202.723Z" fill="black"/>
<path d="M130.601 174.057C131.103 167.89 127.201 162.541 121.887 162.109C116.573 161.676 111.858 166.325 111.356 172.492C110.855 178.658 114.756 184.008 120.071 184.44C125.385 184.872 130.1 180.224 130.601 174.057Z" fill="black"/>
<path d="M123.347 174.775L121.304 173.459L123.468 172.755C123.59 172.707 123.697 172.626 123.777 172.522C123.857 172.418 123.907 172.293 123.922 172.162C123.945 172.029 123.934 171.892 123.887 171.765C123.841 171.638 123.762 171.525 123.658 171.438L120.614 169.093L120.71 167.92C120.925 167.869 121.118 167.749 121.259 167.577C121.399 167.405 121.479 167.192 121.486 166.971C121.534 166.401 121.173 165.906 120.682 165.865C120.565 165.857 120.447 165.874 120.337 165.915C120.438 166.028 120.514 166.161 120.561 166.305C120.608 166.448 120.624 166.6 120.61 166.751C120.599 166.925 120.547 167.095 120.456 167.244C120.366 167.394 120.24 167.519 120.09 167.609C120.289 167.418 120.41 167.16 120.428 166.885C120.476 166.315 120.115 165.82 119.622 165.779C119.464 165.767 119.306 165.803 119.168 165.881C119.019 165.971 118.893 166.097 118.803 166.246C118.713 166.396 118.66 166.565 118.651 166.739C118.603 167.307 118.962 167.797 119.447 167.843L119.32 169.418C119.307 169.543 119.325 169.669 119.372 169.785C119.419 169.901 119.494 170.003 119.59 170.083L121.797 171.783L119.481 172.535C119.352 172.583 119.239 172.667 119.156 172.777C119.073 172.888 119.023 173.019 119.012 173.157C118.991 173.294 119.009 173.435 119.063 173.563C119.118 173.691 119.207 173.801 119.32 173.881L121.411 175.225L119.191 176.006C119.062 176.06 118.95 176.15 118.87 176.265C118.79 176.379 118.744 176.515 118.737 176.655L118.596 178.387C118.108 178.35 117.677 178.78 117.631 179.345C117.613 179.519 117.638 179.694 117.703 179.857C117.768 180.019 117.872 180.163 118.006 180.275C118.129 180.375 118.279 180.436 118.437 180.45C118.928 180.491 119.363 180.06 119.411 179.49C119.432 179.214 119.351 178.941 119.184 178.72C119.317 178.834 119.421 178.977 119.486 179.14C119.552 179.302 119.577 179.477 119.559 179.651C119.548 179.802 119.507 179.949 119.437 180.083C119.368 180.218 119.272 180.336 119.155 180.432C119.256 180.491 119.369 180.527 119.486 180.536C119.976 180.575 120.412 180.146 120.46 179.576C120.488 179.356 120.443 179.133 120.332 178.941C120.22 178.749 120.049 178.599 119.845 178.514L119.947 177.261L123.193 176.126C123.319 176.074 123.428 175.987 123.508 175.877C123.588 175.766 123.636 175.636 123.647 175.499C123.668 175.363 123.651 175.223 123.599 175.095C123.546 174.968 123.459 174.857 123.347 174.775V174.775Z" fill="black"/>
<path d="M50.1216 63.5223C50.0613 63.3774 50.023 63.2244 50.0081 63.0683C49.5859 60.3064 49.1644 57.5438 48.7437 54.7805C48.4373 52.7375 48.1149 50.7149 47.8357 48.6765C47.7903 48.3269 47.6927 48.3178 47.418 48.3541C45.7087 48.5811 43.9994 48.8081 42.2878 49.0351C39.7659 49.3529 37.2371 49.614 34.7174 49.9545C34.2634 50.0158 34.2339 50.1928 34.2838 50.5152C34.7998 53.9459 35.3182 57.3751 35.8388 60.8028C35.9863 61.7925 36.118 62.7868 36.2632 63.8196L35.8206 63.6993C34.1317 63.2703 32.116 64.0194 31.1626 65.4472C30.5973 66.2962 30.4066 67.2178 30.8811 68.1712C31.1189 68.6463 31.4785 69.0497 31.9231 69.3404C32.3678 69.6312 32.8816 69.7987 33.4121 69.826C34.0745 69.8752 34.7397 69.7787 35.3609 69.5434C35.982 69.3081 36.5442 68.9397 37.0078 68.464C37.8159 67.6673 38.2177 66.7116 37.9294 65.5584C37.4754 63.7266 37.2779 61.8493 37.0055 59.9879C36.6832 57.7678 36.2701 55.5568 35.9908 53.33L46.9459 51.7841C47.5361 55.2542 48.1202 58.7348 48.6983 62.2261C47.0957 61.7562 45.6837 62.1058 44.3853 63.0297C43.7136 63.4847 43.2297 64.1678 43.0233 64.9524C42.6919 66.3643 43.8382 67.9374 45.2933 68.2098C46.9459 68.5208 48.3419 67.9692 49.4837 66.8206C50.394 65.8831 50.7186 64.773 50.1216 63.5223Z" fill="black"/>
<path d="M20.2348 53.6497C19.4403 53.1571 18.5437 52.8279 17.7696 52.2877C17.5426 52.1333 17.2997 51.9699 17.2815 51.6861C17.2429 51.0959 16.9093 51.0051 16.4303 51.1141C16.3566 51.1354 16.279 51.1401 16.2033 51.1277C15.7084 50.9733 15.8106 51.248 15.8855 51.5408C16.428 53.7019 16.9774 55.8538 17.4972 58.0262C18.4052 61.8247 19.3049 65.6247 20.1962 69.4262C20.3824 70.2116 20.564 70.997 20.7592 71.8278C20.5821 71.8051 20.4595 71.7915 20.3392 71.7733C20.2036 71.7373 20.0641 71.7175 19.9238 71.7143C18.2962 71.8755 16.6732 72.0457 15.2998 73.0763C14.2352 73.8822 13.2568 74.7629 12.8028 76.0636C12.2558 77.5891 12.8959 78.9897 14.3918 79.5912C15.1176 79.8842 15.9028 80.0002 16.6823 79.9294C17.5903 79.8523 18.5255 79.7274 19.3313 79.3529C20.9045 78.6242 22.1643 77.4824 22.8362 75.8366C23.213 74.915 23.2221 73.9639 22.582 73.1126C22.5038 72.9961 22.4505 72.8648 22.4254 72.7267C22.1325 71.5531 21.8306 70.3818 21.5446 69.2082C20.3899 64.4533 19.236 59.6947 18.0828 54.9322L18.1759 54.8505C19.0181 55.2772 19.9783 55.4044 20.8114 55.8425C21.9101 56.4213 23.0337 57.0024 23.4854 58.285C23.8077 59.2101 23.942 60.1902 23.8804 61.1679C23.801 62.1212 23.6554 63.0678 23.4446 64.0009C23.406 64.2097 23.465 64.3845 23.6194 64.4322C23.8464 64.5003 23.8169 64.2505 23.8668 64.1257C24.5315 62.5463 24.9459 60.8729 25.0949 59.1657C25.1897 58.1238 24.8736 57.086 24.2141 56.2738C23.1745 54.9776 21.5855 54.4805 20.2348 53.6497Z" fill="black"/>
<path d="M56.2074 93.0724C56.1489 93.0723 56.0907 93.0631 56.0349 93.0452C46.0106 89.8263 39.4934 77.5411 39.221 77.019C39.183 76.9527 39.1588 76.8794 39.1499 76.8035C39.1409 76.7276 39.1474 76.6507 39.1689 76.5774C39.1903 76.5041 39.2264 76.4358 39.2749 76.3768C39.3234 76.3177 39.3833 76.2691 39.4511 76.2337C39.5188 76.1984 39.593 76.1771 39.6692 76.1712C39.7454 76.1652 39.822 76.1747 39.8944 76.1991C39.9668 76.2234 40.0336 76.2622 40.0907 76.3129C40.1478 76.3637 40.194 76.4255 40.2266 76.4946C40.2925 76.6172 46.8096 88.8911 56.3822 91.9647C56.5111 92.0061 56.6209 92.0922 56.6918 92.2075C56.7628 92.3228 56.7902 92.4597 56.7691 92.5934C56.748 92.7271 56.6798 92.8489 56.5768 92.9367C56.4738 93.0245 56.3428 93.0727 56.2074 93.0724V93.0724Z" fill="black"/>
<path d="M165.842 123.162L164.457 117.33C163.936 115.138 162.566 113.243 160.648 112.061C158.73 110.879 156.421 110.506 154.228 111.026L139.151 114.606C135.155 110.214 129.746 107.362 123.865 106.545C118.285 103.476 111.743 102.375 105.251 103.914C90.8 107.346 82.0015 122.608 85.5541 137.994C85.5677 138.057 85.5813 138.121 85.5972 138.184C85.9173 139.537 86.3292 140.867 86.8298 142.164C88.9964 147.874 92.8942 152.764 97.9778 156.149C102.308 159.064 107.404 160.633 112.624 160.657C118.157 160.654 123.541 158.868 127.98 155.566C132.236 154.232 136.063 151.794 139.07 148.501C142.078 145.208 144.159 141.177 145.103 136.818L159.538 133.39C161.729 132.867 163.623 131.497 164.805 129.579C165.987 127.662 166.359 125.354 165.842 123.162V123.162ZM145.639 132.723C145.88 127.518 144.511 122.366 141.718 117.968L155.111 114.79C155.465 114.706 155.827 114.663 156.19 114.663C157.232 114.666 158.242 115.02 159.059 115.667C159.876 116.314 160.452 117.217 160.693 118.231L162.078 124.047C162.36 125.243 162.157 126.503 161.512 127.549C160.866 128.596 159.833 129.344 158.637 129.629L145.639 132.723ZM132.927 148.84C129.3 151.445 124.948 152.847 120.483 152.849C114.823 152.843 109.398 150.59 105.4 146.584C101.402 142.579 99.1596 137.149 99.165 131.49C99.1704 125.831 101.424 120.406 105.429 116.408C109.435 112.41 114.864 110.167 120.523 110.173C123.638 110.175 126.714 110.865 129.531 112.193C130.266 112.539 130.982 112.926 131.674 113.353C131.987 113.545 132.294 113.746 132.595 113.954C133.245 114.399 133.869 114.88 134.463 115.396C134.028 115.128 133.583 114.881 133.129 114.654C132.427 114.303 131.703 114 130.961 113.746C127.985 112.726 124.79 112.524 121.709 113.159C118.628 113.795 115.774 115.245 113.445 117.359C111.115 119.473 109.395 122.173 108.464 125.178C107.533 128.183 107.425 131.383 108.152 134.443C108.77 137.047 109.973 139.475 111.671 141.543C113.369 143.61 115.517 145.263 117.951 146.375C120.384 147.488 123.039 148.03 125.714 147.96C128.389 147.891 131.013 147.212 133.385 145.975C134.027 145.643 134.647 145.269 135.24 144.856C135.9 144.401 136.527 143.9 137.117 143.358C138.305 142.268 139.337 141.021 140.186 139.651C139.144 142.172 137.63 144.471 135.726 146.424C134.863 147.312 133.924 148.122 132.92 148.844L132.927 148.84ZM99.2308 154.256C94.9142 151.383 91.518 147.325 89.4494 142.57C88.8631 141.237 88.3812 139.86 88.0079 138.452C87.9353 138.189 87.8695 137.926 87.8059 137.66C84.4259 123.427 92.4912 109.292 105.782 106.114C107.541 105.696 109.343 105.485 111.151 105.485C113.41 105.487 115.656 105.815 117.822 106.457C114.265 106.837 110.829 107.971 107.743 109.782C104.658 111.592 101.992 114.039 99.925 116.959C97.8576 119.879 96.4352 123.206 95.7524 126.718C95.0695 130.23 95.1417 133.847 95.9643 137.329C96.1156 137.999 96.2995 138.655 96.5159 139.297C96.9515 140.64 97.5006 141.944 98.1571 143.194C100.297 147.262 103.506 150.67 107.438 153.05C111.37 155.431 115.877 156.694 120.473 156.703C120.769 156.703 121.064 156.703 121.361 156.687C120.282 157.124 119.172 157.479 118.04 157.75C111.616 159.275 104.935 158.036 99.2308 154.256ZM138.649 137.787C138.604 137.872 138.556 137.956 138.506 138.039C137.466 139.845 136.068 141.42 134.397 142.666C132.726 143.912 130.818 144.803 128.791 145.285C126.688 145.781 124.504 145.826 122.383 145.418C120.261 145.009 118.25 144.157 116.481 142.916C114.713 141.675 113.227 140.074 112.121 138.218C111.015 136.362 110.315 134.293 110.066 132.147C109.816 130.001 110.024 127.826 110.675 125.766C111.326 123.706 112.406 121.807 113.843 120.194C115.28 118.581 117.042 117.29 119.013 116.406C120.985 115.523 123.121 115.066 125.281 115.067C127.476 115.064 129.645 115.54 131.637 116.46C131.928 116.592 132.216 116.735 132.5 116.89C132.784 117.044 133.036 117.187 133.299 117.344C133.462 117.443 133.621 117.548 133.78 117.655C133.939 117.761 134.128 117.882 134.296 118.013C134.868 118.429 135.412 118.884 135.921 119.375C135.968 119.418 136.014 119.466 136.062 119.511C138.199 121.631 139.662 124.334 140.268 127.282C140.874 130.231 140.595 133.292 139.467 136.082C139.229 136.667 138.957 137.236 138.649 137.787V137.787Z" fill="black"/>
<path d="M162.078 124.048L160.693 118.216C160.452 117.202 159.876 116.299 159.059 115.652C158.242 115.005 157.232 114.651 156.19 114.647C155.827 114.648 155.465 114.691 155.111 114.775L141.718 117.953C144.511 122.351 145.88 127.503 145.639 132.708L158.644 129.62C159.836 129.334 160.867 128.587 161.51 127.542C162.154 126.498 162.358 125.242 162.078 124.048Z" fill="black"/>
<path d="M140.152 126.848C139.5 124.068 138.078 121.528 136.05 119.518C136.003 119.473 135.957 119.425 135.909 119.382C135.4 118.89 134.857 118.435 134.284 118.02C134.116 117.895 133.944 117.777 133.769 117.661C133.594 117.545 133.451 117.45 133.288 117.35C133.024 117.189 132.759 117.035 132.489 116.896C132.218 116.758 131.917 116.599 131.626 116.467C129.634 115.546 127.465 115.071 125.27 115.073C124.069 115.074 122.872 115.215 121.704 115.493C119.452 116.03 117.351 117.07 115.558 118.535C113.766 120.001 112.33 121.853 111.357 123.954C110.384 126.054 109.9 128.348 109.941 130.663C109.982 132.978 110.548 135.253 111.595 137.318C112.642 139.382 114.144 141.182 115.988 142.583C117.831 143.984 119.968 144.948 122.237 145.404C124.507 145.859 126.851 145.795 129.092 145.214C131.333 144.634 133.413 143.553 135.176 142.052C136.501 140.919 137.624 139.568 138.495 138.057C138.545 137.974 138.593 137.89 138.638 137.805C138.94 137.259 139.208 136.695 139.442 136.116C140.632 133.181 140.877 129.947 140.141 126.866L140.152 126.848Z" fill="black"/>
<path d="M137.108 143.358C136.518 143.901 135.891 144.402 135.231 144.856C134.638 145.269 134.018 145.643 133.376 145.976C130.793 147.327 127.915 148.016 125 147.98C122.085 147.944 119.224 147.185 116.675 145.77C114.126 144.356 111.969 142.33 110.396 139.875C108.824 137.42 107.886 134.613 107.667 131.706C107.447 128.799 107.954 125.883 109.14 123.22C110.327 120.557 112.156 118.231 114.464 116.449C116.772 114.668 119.486 113.488 122.363 113.016C125.239 112.543 128.188 112.793 130.945 113.742C131.687 113.996 132.411 114.299 133.113 114.65C133.567 114.877 134.012 115.124 134.448 115.392C133.853 114.876 133.229 114.395 132.579 113.95C132.277 113.742 131.97 113.541 131.658 113.349C130.966 112.922 130.251 112.535 129.515 112.189C126.698 110.861 123.622 110.171 120.508 110.169C117.493 110.16 114.511 110.791 111.757 112.019C109.004 113.247 106.542 115.045 104.534 117.293C102.526 119.542 101.017 122.19 100.107 125.064C99.1968 127.938 98.9059 130.973 99.2536 133.967C99.6013 136.962 100.58 139.849 102.124 142.438C103.668 145.027 105.744 147.259 108.214 148.988C110.684 150.717 113.492 151.902 116.453 152.467C119.415 153.032 122.462 152.962 125.395 152.263C128.682 151.48 131.737 149.927 134.307 147.733C136.877 145.538 138.889 142.764 140.177 139.64C139.329 141.014 138.296 142.265 137.108 143.358ZM102.831 131.938C102.831 132.239 102.711 132.528 102.499 132.74C102.286 132.953 101.997 133.073 101.696 133.073C101.395 133.073 101.106 132.953 100.893 132.74C100.681 132.528 100.561 132.239 100.561 131.938V130.385C100.561 130.084 100.681 129.795 100.893 129.583C101.106 129.37 101.395 129.25 101.696 129.25C101.997 129.25 102.286 129.37 102.499 129.583C102.711 129.795 102.831 130.084 102.831 130.385V131.938ZM103.739 126.429C103.682 126.68 103.542 126.904 103.341 127.065C103.14 127.226 102.891 127.313 102.634 127.314C102.548 127.314 102.463 127.304 102.379 127.284C102.234 127.251 102.096 127.19 101.974 127.103C101.853 127.017 101.749 126.907 101.67 126.78C101.591 126.654 101.537 126.513 101.512 126.366C101.488 126.219 101.492 126.068 101.526 125.922C102.552 121.41 105.98 118.204 106.125 118.073C106.234 117.971 106.363 117.893 106.503 117.841C106.643 117.79 106.791 117.766 106.94 117.772C107.089 117.778 107.236 117.813 107.371 117.876C107.507 117.938 107.628 118.027 107.73 118.136C107.831 118.246 107.91 118.374 107.961 118.514C108.013 118.654 108.036 118.803 108.03 118.952C108.024 119.101 107.989 119.247 107.927 119.383C107.864 119.518 107.776 119.64 107.666 119.741C107.614 119.791 104.602 122.633 103.739 126.429Z" fill="black"/>
<path d="M120.476 156.712C115.879 156.703 111.372 155.44 107.44 153.059C103.508 150.679 100.299 147.272 98.1593 143.203C97.5028 141.953 96.9537 140.649 96.5181 139.306C96.3093 138.663 96.1254 138.007 95.9665 137.338C95.1439 133.856 95.0717 130.239 95.7546 126.727C96.4374 123.215 97.8598 119.888 99.9272 116.968C101.995 114.048 104.66 111.602 107.745 109.791C110.831 107.98 114.267 106.847 117.824 106.466C115.659 105.824 113.412 105.497 111.153 105.494C109.345 105.491 107.542 105.699 105.782 106.114C92.4911 109.292 84.4258 123.427 87.8058 137.667C87.8694 137.932 87.9352 138.196 88.0079 138.459C88.3811 139.867 88.863 141.244 89.4493 142.577C91.5179 147.332 94.9141 151.389 99.2308 154.263C104.935 158.042 111.616 159.282 118.042 157.756C119.174 157.489 120.284 157.137 121.363 156.703C121.066 156.708 120.764 156.712 120.476 156.712Z" fill="black"/>
<path d="M107.73 118.146C107.629 118.036 107.507 117.947 107.371 117.885C107.236 117.822 107.089 117.787 106.94 117.781C106.791 117.775 106.643 117.799 106.503 117.85C106.363 117.902 106.234 117.981 106.125 118.082C105.979 118.216 102.552 121.419 101.526 125.932C101.492 126.077 101.488 126.228 101.512 126.375C101.537 126.522 101.591 126.663 101.67 126.79C101.749 126.916 101.853 127.026 101.974 127.112C102.096 127.199 102.234 127.261 102.379 127.294C102.463 127.313 102.548 127.323 102.634 127.323C102.891 127.323 103.14 127.235 103.341 127.074C103.542 126.913 103.682 126.689 103.739 126.438C104.602 122.642 107.614 119.8 107.666 119.755C107.776 119.654 107.866 119.532 107.929 119.396C107.991 119.26 108.027 119.113 108.033 118.964C108.039 118.814 108.015 118.665 107.963 118.524C107.911 118.384 107.832 118.255 107.73 118.146Z" fill="black"/>
<path d="M101.696 129.25C101.395 129.25 101.106 129.37 100.893 129.582C100.681 129.795 100.561 130.084 100.561 130.385V131.938C100.561 132.239 100.681 132.527 100.893 132.74C101.106 132.953 101.395 133.073 101.696 133.073C101.997 133.073 102.286 132.953 102.499 132.74C102.711 132.527 102.831 132.239 102.831 131.938V130.385C102.831 130.084 102.711 129.795 102.499 129.582C102.286 129.37 101.997 129.25 101.696 129.25V129.25Z" fill="black"/>
<path d="M78.1221 140.049C77.8088 139.951 77.4955 139.849 77.1845 139.747L77.0393 139.699C76.9326 140.232 76.8123 140.759 76.6579 141.288C76.2598 142.3 75.7721 143.275 75.2006 144.2C73.7969 146.468 71.911 148.399 69.6767 149.856C67.4425 151.312 64.9148 152.259 62.2734 152.628C59.6319 152.998 56.9416 152.781 54.3935 151.993C51.8454 151.205 49.5022 149.865 47.5304 148.069C45.5586 146.273 44.0066 144.065 42.9847 141.601C41.9628 139.138 41.4961 136.479 41.6177 133.815C41.7394 131.15 42.4465 128.546 43.6887 126.185C44.9309 123.825 46.6777 121.768 48.805 120.159C48.351 119.554 47.9129 118.936 47.4907 118.307C43.379 121.366 40.5674 125.86 39.6138 130.895C38.6602 135.931 39.6341 141.141 42.3424 145.492C45.0508 149.844 49.2956 153.018 54.2349 154.386C59.1743 155.753 64.4473 155.215 69.008 152.876C66.709 154.671 64.049 155.947 61.2106 156.617C49.6563 159.359 37.8659 151.523 34.9262 139.138C32.5019 128.923 36.8557 118.751 44.9506 113.975C44.778 113.633 44.6123 113.294 44.4512 112.947C44.29 112.6 44.1333 112.266 43.9835 111.91C34.9353 117.131 30.0367 128.376 32.7175 139.663C35.5074 151.414 45.6111 159.428 56.5525 159.428C58.3005 159.43 60.0429 159.228 61.744 158.826C67.9457 157.353 73.1621 153.396 76.4286 147.685C77.4563 145.888 78.2606 143.972 78.8235 141.98C79.0217 141.47 79.198 140.954 79.3524 140.43L79.223 140.391C78.8538 140.279 78.4868 140.165 78.1221 140.049Z" fill="black"/>
<path d="M44.2855 125.141C42.9894 127.172 42.1102 129.44 41.6992 131.813C41.2881 134.187 41.3534 136.619 41.8912 138.967C42.4291 141.315 43.4287 143.532 44.8319 145.49C46.2351 147.448 48.0138 149.108 50.0645 150.372C52.1151 151.636 54.3968 152.479 56.7765 152.852C59.1563 153.226 61.5866 153.122 63.9259 152.548C66.2652 151.973 68.4668 150.938 70.4024 149.505C72.3381 148.071 73.9691 146.266 75.2006 144.196C75.7721 143.27 76.2598 142.296 76.6579 141.283C76.8055 140.759 76.9326 140.232 77.0393 139.694C76.1313 139.392 75.2233 139.067 74.3153 138.72C73.6523 140.864 72.4973 142.824 70.9424 144.442C69.3874 146.06 67.4757 147.292 65.3599 148.04C63.244 148.787 60.9826 149.03 58.7563 148.748C56.5299 148.467 54.4003 147.668 52.5375 146.417C50.6746 145.166 49.1302 143.496 48.0274 141.541C46.9246 139.587 46.2941 137.402 46.1862 135.16C46.0783 132.919 46.496 130.683 47.4059 128.632C48.3159 126.58 49.6928 124.77 51.4269 123.346C50.4962 122.3 49.6222 121.238 48.805 120.159C47.0004 121.523 45.4674 123.213 44.2855 125.141V125.141Z" fill="black"/>
<path d="M34.9353 139.145C37.8749 151.524 49.6653 159.348 61.2196 156.624C64.0555 155.951 66.7122 154.672 69.008 152.877C66.2521 154.28 63.2134 155.04 60.1213 155.098C57.0291 155.156 53.9641 154.511 51.1573 153.212C48.3505 151.914 45.8752 149.995 43.9181 147.6C41.9609 145.205 40.573 142.397 39.8589 139.388C38.9426 135.513 39.1766 131.454 40.5321 127.71C41.8876 123.965 44.3059 120.698 47.4907 118.307C46.5557 116.919 45.7074 115.475 44.9505 113.982C36.8648 118.759 32.5109 128.926 34.9353 139.145Z" fill="black"/>
<path d="M46.569 137.796C47.2977 140.868 49.0161 143.615 51.4596 145.614C53.903 147.613 56.9359 148.753 60.091 148.858C63.2461 148.964 66.3484 148.029 68.92 146.198C71.4916 144.367 73.3897 141.741 74.322 138.725C68.5689 136.541 63.1724 133.514 58.3095 129.742C55.8327 127.82 53.5317 125.68 51.4336 123.35C49.3516 125.061 47.7917 127.322 46.9317 129.876C46.0716 132.43 45.946 135.174 46.569 137.796V137.796Z" fill="black"/>
</g>
<defs>
<clipPath id="clip0_464_5377">
<rect width="227" height="227" fill="white" transform="translate(0 -26)"/>
</clipPath>
</defs>
</svg>
