<svg width="40" height="40" viewBox="0 0 40 40" fill="none" xmlns="http://www.w3.org/2000/svg">
<rect width="40" height="40" rx="20" fill="#161B27"/>
<path fill-rule="evenodd" clip-rule="evenodd" d="M13.25 17C13.25 15.2098 13.9611 13.4929 15.227 12.227C16.4929 10.9612 18.2098 10.25 20 10.25C21.7902 10.25 23.5071 10.9612 24.7729 12.227C26.0388 13.4929 26.75 15.2098 26.75 17V17.75C26.75 19.873 27.55 21.807 28.868 23.27C28.9501 23.361 29.0086 23.4707 29.0385 23.5896C29.0684 23.7084 29.0687 23.8328 29.0394 23.9518C29.0101 24.0708 28.9521 24.1808 28.8704 24.2722C28.7887 24.3636 28.6859 24.4335 28.571 24.476C27.027 25.046 25.411 25.466 23.74 25.719C23.7776 26.2331 23.7088 26.7495 23.5379 27.2359C23.367 27.7222 23.0977 28.1681 22.7467 28.5457C22.3957 28.9233 21.9707 29.2245 21.4981 29.4304C21.0255 29.6364 20.5155 29.7427 20 29.7427C19.4845 29.7427 18.9745 29.6364 18.5019 29.4304C18.0293 29.2245 17.6042 28.9233 17.2533 28.5457C16.9023 28.1681 16.6329 27.7222 16.462 27.2359C16.2911 26.7495 16.2224 26.2331 16.26 25.719C14.6116 25.4692 12.993 25.0524 11.429 24.475C11.3141 24.4326 11.2114 24.3627 11.1297 24.2715C11.0481 24.1802 10.99 24.0703 10.9607 23.9515C10.9313 23.8326 10.9314 23.7084 10.9611 23.5896C10.9908 23.4708 11.0491 23.3611 11.131 23.27C12.4978 21.7567 13.2531 19.7892 13.25 17.75V17ZM17.752 25.9C17.7392 26.2032 17.7879 26.5058 17.8951 26.7897C18.0023 27.0736 18.1658 27.3329 18.3758 27.5519C18.5858 27.771 18.838 27.9453 19.1171 28.0644C19.3962 28.1835 19.6965 28.2448 20 28.2448C20.3034 28.2448 20.6038 28.1835 20.8829 28.0644C21.162 27.9453 21.4141 27.771 21.6242 27.5519C21.8342 27.3329 21.9977 27.0736 22.1049 26.7897C22.2121 26.5058 22.2608 26.2032 22.248 25.9C20.7523 26.0347 19.2476 26.0347 17.752 25.9Z" fill="#7E8097"/>
</svg>
