<svg width="24" height="24" viewBox="0 0 24 24" fill="none" xmlns="http://www.w3.org/2000/svg">
<path fill-rule="evenodd" clip-rule="evenodd" d="M12 1.5C10.079 1.5 8.184 1.611 6.32 1.827C4.823 2.001 3.75 3.287 3.75 4.757V21.75C3.75003 21.8726 3.78011 21.9933 3.8376 22.1016C3.8951 22.2099 3.97826 22.3024 4.0798 22.3711C4.18135 22.4397 4.29818 22.4825 4.42008 22.4956C4.54197 22.5086 4.66521 22.4916 4.779 22.446L8.25 21.058L11.722 22.446C11.9005 22.5172 12.0995 22.5172 12.278 22.446L15.75 21.058L19.221 22.446C19.3348 22.4916 19.458 22.5086 19.5799 22.4956C19.7018 22.4825 19.8186 22.4397 19.9202 22.3711C20.0217 22.3024 20.1049 22.2099 20.1624 22.1016C20.2199 21.9933 20.25 21.8726 20.25 21.75V4.757C20.25 3.287 19.177 2.001 17.68 1.827C15.7945 1.60865 13.8981 1.49947 12 1.5ZM15.53 14.78C15.6625 14.6378 15.7346 14.4498 15.7312 14.2555C15.7277 14.0612 15.649 13.8758 15.5116 13.7384C15.3742 13.601 15.1888 13.5223 14.9945 13.5188C14.8002 13.5154 14.6122 13.5875 14.47 13.72L8.47 13.72C8.39631 13.7887 8.33721 13.8715 8.29622 13.9635C8.25523 14.0555 8.23318 14.1548 8.23141 14.2555C8.22963 14.3562 8.24816 14.4562 8.28588 14.5496C8.3236 14.643 8.37974 14.7278 8.45096 14.799C8.52218 14.8703 8.60701 14.9264 8.7004 14.9641C8.79379 15.0018 8.89382 15.0204 8.99452 15.0186C9.09522 15.0168 9.19454 14.9948 9.28654 14.9538C9.37854 14.9128 9.46134 14.8537 9.53 14.78H15.53ZM8.625 9C8.625 8.70163 8.74353 8.41549 8.9545 8.20451C9.16548 7.99353 9.45163 7.875 9.75 7.875C10.0484 7.875 10.3345 7.99353 10.5455 8.20451C10.7565 8.41549 10.875 8.70163 10.875 9C10.875 9.29837 10.7565 9.58452 10.5455 9.7955C10.3345 10.0065 10.0484 10.125 9.75 10.125C9.45163 10.125 9.16548 10.0065 8.9545 9.7955C8.74353 9.58452 8.625 9.29837 8.625 9ZM14.25 7.375C13.9516 7.375 13.6655 7.49353 13.4545 7.70451C13.2435 7.91548 13.125 8.20163 13.125 8.5C13.125 8.79837 13.2435 9.08452 13.4545 9.2955C13.6655 9.50648 13.9516 9.625 14.25 9.625C14.5484 9.625 14.8345 9.50648 15.0455 9.2955C15.2565 9.08452 15.375 8.79837 15.375 8.5C15.375 8.20163 15.2565 7.91548 15.0455 7.70451C14.8345 7.49353 14.5484 7.375 14.25 7.375Z" fill="#7E8097"/>
</svg>
