<svg width="24" height="24" viewBox="0 0 24 24" fill="none" xmlns="http://www.w3.org/2000/svg">
<path fill-rule="evenodd" clip-rule="evenodd" d="M6.97 2.46983C7.11062 2.32938 7.30125 2.25049 7.5 2.25049C7.69875 2.25049 7.88937 2.32938 8.03 2.46983L12.53 6.96983C12.6625 7.112 12.7346 7.30005 12.7312 7.49435C12.7277 7.68865 12.649 7.87404 12.5116 8.01145C12.3742 8.14886 12.1888 8.22758 11.9945 8.231C11.8002 8.23443 11.6122 8.16231 11.47 8.02983L8.25 4.80983V16.4998C8.25 16.6987 8.17098 16.8895 8.03033 17.0302C7.88968 17.1708 7.69891 17.2498 7.5 17.2498C7.30109 17.2498 7.11032 17.1708 6.96967 17.0302C6.82902 16.8895 6.75 16.6987 6.75 16.4998V4.80983L3.53 8.02983C3.38782 8.16231 3.19978 8.23443 3.00548 8.231C2.81118 8.22758 2.62579 8.14886 2.48838 8.01145C2.35096 7.87404 2.27225 7.68865 2.26882 7.49435C2.2654 7.30005 2.33752 7.112 2.47 6.96983L6.97 2.46983ZM16.5 6.74983C16.6989 6.74983 16.8897 6.82885 17.0303 6.9695C17.171 7.11015 17.25 7.30092 17.25 7.49983V19.1898L20.47 15.9698C20.5387 15.8961 20.6215 15.837 20.7135 15.796C20.8055 15.7551 20.9048 15.733 21.0055 15.7312C21.1062 15.7295 21.2062 15.748 21.2996 15.7857C21.393 15.8234 21.4778 15.8796 21.549 15.9508C21.6203 16.022 21.6764 16.1068 21.7141 16.2002C21.7518 16.2936 21.7704 16.3936 21.7686 16.4944C21.7668 16.5951 21.7448 16.6944 21.7038 16.7864C21.6628 16.8784 21.6037 16.9612 21.53 17.0298L17.03 21.5298C16.8894 21.6703 16.6987 21.7492 16.5 21.7492C16.3012 21.7492 16.1106 21.6703 15.97 21.5298L11.47 17.0298C11.3963 16.9612 11.3372 16.8784 11.2962 16.7864C11.2552 16.6944 11.2332 16.5951 11.2314 16.4944C11.2296 16.3936 11.2482 16.2936 11.2859 16.2002C11.3236 16.1068 11.3797 16.022 11.451 15.9508C11.5222 15.8796 11.607 15.8234 11.7004 15.7857C11.7938 15.748 11.8938 15.7295 11.9945 15.7312C12.0952 15.733 12.1945 15.7551 12.2865 15.796C12.3785 15.837 12.4613 15.8961 12.53 15.9698L15.75 19.1898V7.49983C15.75 7.30092 15.829 7.11015 15.9697 6.9695C16.1103 6.82885 16.3011 6.74983 16.5 6.74983Z" fill="#7E8097"/>
</svg>
