<svg width="48" height="49" viewBox="0 0 48 49" fill="none" xmlns="http://www.w3.org/2000/svg">
<path d="M44.9181 12.3838C43.3781 13.0838 41.7181 13.5438 39.9981 13.7638C41.7581 12.7038 43.1181 11.0238 43.7581 9.00379C42.0981 10.0038 40.2581 10.7038 38.3181 11.1038C36.7381 9.38379 34.5181 8.38379 31.9981 8.38379C27.2981 8.38379 23.4581 12.2238 23.4581 16.9638C23.4581 17.6438 23.5381 18.3038 23.6781 18.9238C16.5581 18.5638 10.2181 15.1438 5.99813 9.96379C5.25813 11.2238 4.83813 12.7038 4.83813 14.2638C4.83813 17.2438 6.33812 19.8838 8.65812 21.3838C7.23812 21.3838 5.91813 20.9838 4.75813 20.3838V20.4438C4.75813 24.6038 7.71813 28.0838 11.6381 28.8638C10.3796 29.2082 9.05832 29.2561 7.77813 29.0038C8.32134 30.7087 9.3852 32.2006 10.8202 33.2696C12.2551 34.3387 13.989 34.9312 15.7781 34.9638C12.7454 37.3647 8.98612 38.6624 5.11812 38.6438C4.43812 38.6438 3.75813 38.6038 3.07812 38.5238C6.87812 40.9638 11.3981 42.3838 16.2381 42.3838C31.9981 42.3838 40.6581 29.3038 40.6581 17.9638C40.6581 17.5838 40.6581 17.2238 40.6381 16.8438C42.3181 15.6438 43.7581 14.1238 44.9181 12.3838Z" fill="#FBFBFB" fill-opacity="0.88"/>
</svg>
